<svg width="176" height="167" viewBox="0 0 176 167" fill="none" xmlns="http://www.w3.org/2000/svg">
<path d="M125.71 53.5457L59.7792 35.8133C59.1322 35.6393 58.4662 36.0231 58.2916 36.6706L58.1975 37.0195C58.0229 37.6669 58.4059 38.3328 59.0528 38.5068L124.984 56.2391C125.631 56.4131 126.297 56.0293 126.471 55.3819L126.566 55.033C126.74 54.3855 126.357 53.7196 125.71 53.5457Z" fill="white"/>
<path d="M59.0389 37.9636C58.6861 37.8688 58.5013 37.4126 58.6271 36.9468C58.753 36.4811 59.1416 36.1795 59.4944 36.2743L125.73 54.0828C126.083 54.1776 126.268 54.6339 126.142 55.0996C126.016 55.5653 125.627 55.8669 125.274 55.7721L59.0389 37.9636Z" fill="url(#paint0_linear_564_3245)"/>
<path d="M81.2734 93.1183C80.5915 90.3734 77.3201 88.139 70.7768 83.6684C64.5376 79.4067 61.6576 78.8592 59.4394 74.9564C57.3632 71.3042 57.5196 67.6196 57.5887 66.3521C57.5887 66.3521 57.6351 65.5004 57.9737 64.1166C57.0273 66.7289 56.9289 68.5243 56.9289 68.5243C56.8599 69.7927 56.7034 73.4764 58.7798 77.1294C60.9985 81.0326 63.878 81.5797 70.1172 85.8414C76.6599 90.3116 79.9319 92.5464 80.6136 95.2904C80.7733 95.9351 80.8124 96.5556 80.7509 97.1594C81.3838 95.8912 81.6325 94.5622 81.274 93.1186L81.2734 93.1183ZM108.478 119.54C109.846 116.38 106.124 112.089 102.871 110.318C102.043 109.868 98.4581 107.916 95.0167 109.582C94.54 109.813 92.4404 110.829 91.8401 112.882C91.7363 113.237 91.6833 113.602 91.6768 113.973C92.5353 112.637 93.9727 111.941 94.3565 111.755C97.7984 110.089 101.383 112.04 102.21 112.491C104.965 113.991 108.057 117.297 108.107 120.194C108.253 119.99 108.378 119.772 108.478 119.54ZM146.121 120.27C147.349 118.058 148.266 115.741 148.897 113.35C148.337 114.977 147.634 116.563 146.782 118.097C137.201 135.355 113.804 136.907 111.73 137.014C90.4452 138.116 68.6492 124.114 69.0501 113.254C69.0622 112.921 69.0958 112.595 69.1475 112.274C68.7063 113.264 68.4316 114.31 68.3903 115.426C67.9894 126.286 89.785 140.289 111.07 139.186C113.144 139.079 136.541 137.527 146.121 120.27Z" fill="#B5815B"/>
<path d="M146.782 118.098C147.634 116.563 148.337 114.977 148.897 113.351C154.434 92.3896 138.092 65.7317 117.975 54.4579C97.8753 43.1936 72.0335 46.4704 63.3084 55.6113C60.4272 58.6291 58.8427 61.7179 57.9729 64.1172C57.6343 65.5009 57.5879 66.3527 57.5879 66.3527C57.5187 67.6202 57.3619 71.3045 59.4386 74.957C61.6574 78.8602 64.5368 79.4073 70.776 83.669C77.3187 88.1392 80.5907 90.3739 81.2726 93.1188C81.6313 94.5634 81.3824 95.8915 80.7495 97.1596C80.2013 102.492 71.7575 106.418 69.147 112.274C69.0948 112.594 69.0621 112.921 69.0497 113.254C68.6488 124.114 90.4443 138.117 111.73 137.014C113.803 136.907 137.201 135.355 146.781 118.097L146.782 118.098ZM98.7376 122.033C95.0117 120.868 91.6146 117.195 91.676 113.973C91.6825 113.603 91.7355 113.237 91.8392 112.883C92.4396 110.829 94.5392 109.814 95.0159 109.583C98.4578 107.917 102.042 109.868 102.87 110.319C106.123 112.09 109.846 116.381 108.477 119.54C108.377 119.773 108.252 119.99 108.106 120.194C106.422 122.55 101.903 123.024 98.737 122.032L98.7376 122.033Z" fill="#D9A273"/>
<g style="mix-blend-mode:soft-light" opacity="0.8">
<path d="M146.782 118.098C147.634 116.563 148.337 114.977 148.897 113.351C154.434 92.3896 138.092 65.7317 117.975 54.4579C97.8753 43.1936 72.0335 46.4704 63.3084 55.6113C60.4272 58.6291 58.8427 61.7179 57.9729 64.1172C57.6343 65.5009 57.5879 66.3527 57.5879 66.3527C57.5187 67.6202 57.3619 71.3045 59.4386 74.957C61.6574 78.8602 64.5368 79.4073 70.776 83.669C77.3187 88.1392 80.5907 90.3739 81.2726 93.1188C81.6313 94.5634 81.3824 95.8915 80.7495 97.1596C80.2013 102.492 71.7575 106.418 69.147 112.274C69.0948 112.594 69.0621 112.921 69.0497 113.254C68.6488 124.114 90.4443 138.117 111.73 137.014C113.803 136.907 137.201 135.355 146.781 118.097L146.782 118.098ZM98.7376 122.033C95.0117 120.868 91.6146 117.195 91.676 113.973C91.6825 113.603 91.7355 113.237 91.8392 112.883C92.4396 110.829 94.5392 109.814 95.0159 109.583C98.4578 107.917 102.042 109.868 102.87 110.319C106.123 112.09 109.846 116.381 108.477 119.54C108.377 119.773 108.252 119.99 108.106 120.194C106.422 122.55 101.903 123.024 98.737 122.032L98.7376 122.033Z" fill="white"/>
</g>
<g opacity="0.8">
<path opacity="0.8" d="M82.5531 53.3607C80.4772 53.8055 78.7182 55.2107 77.3327 56.8111C76.4509 57.8255 75.6496 58.9805 75.4075 60.3011C75.165 61.6224 75.6012 63.1465 76.7407 63.8612C77.0474 64.0134 77.3347 64.2022 77.5966 64.4223C77.8795 64.717 77.9937 65.1456 78.2621 65.4584C78.6303 65.8719 79.2573 66.0361 79.5226 66.5253C79.6109 66.7503 79.6505 66.992 79.6388 67.2339C79.627 67.4757 79.564 67.7123 79.4538 67.9272C79.2301 68.3566 79.1093 68.8324 79.0992 69.3163C79.1473 69.7985 79.6174 70.2735 80.0742 70.1145C80.5766 69.0326 81.0825 67.9518 81.585 66.8704C81.8383 66.3286 82.2355 65.6982 82.8256 65.7622C82.5672 66.4522 82.2973 67.1729 82.0347 67.8765C82.0709 67.9368 82.1192 67.9888 82.1761 68.0295C82.2337 68.0701 82.2984 68.0982 82.3678 68.1126C82.4358 68.1266 82.5078 68.1264 82.5762 68.111C82.644 68.0957 82.7099 68.0668 82.7654 68.025C82.9835 67.8521 83.1476 67.6198 83.2392 67.3571C83.4584 66.7272 83.7756 66.1196 84.0185 65.4967C84.2492 64.9068 84.5112 64.3369 84.6713 63.7222C84.6784 63.6958 84.6848 63.6663 84.6724 63.6418C84.6604 63.6192 84.6355 63.6071 84.6119 63.5973C84.4609 63.5313 84.31 63.4653 84.159 63.3994C84.136 63.3894 84.1111 63.3773 84.1006 63.355C84.0901 63.3335 84.0957 63.3088 84.1015 63.2854C84.1997 62.9036 84.4048 62.5535 84.5417 62.186C84.6646 61.8552 85.0382 62.0223 85.2982 62.0813C85.5152 62.1304 85.7199 62.2151 85.9267 62.2946C85.9465 62.302 85.9675 62.3117 85.9748 62.3314C85.9804 62.3468 85.9751 62.364 85.9695 62.38C85.7786 62.9205 85.5783 63.4552 85.4478 64.0142C85.4135 64.1605 85.1495 65.8068 85.1954 65.8066C86.0247 65.807 86.4453 64.8285 86.649 64.0192C86.8054 63.3973 86.9648 62.7768 87.1241 62.1556C87.1982 61.867 87.2665 61.5765 87.3385 61.287C87.4121 60.9906 87.4481 60.6535 87.5929 60.3817C87.9336 60.5512 88.484 60.268 88.7195 60.0049C89.1072 59.6825 89.3023 58.4458 89.3669 57.9665C89.4855 57.0396 89.4903 56.2271 88.9381 55.4456C87.7559 53.7084 84.4188 52.9642 82.5532 53.3614L82.5531 53.3607Z" fill="white"/>
<g opacity="0.8">
<path opacity="0.8" d="M74.1064 55.7499C74.0073 55.7258 73.9045 55.7227 73.8046 55.7402C73.704 55.7579 73.609 55.7963 73.5243 55.8529C73.4396 55.9096 73.3676 55.9833 73.313 56.069C73.2578 56.1548 73.2219 56.2514 73.2062 56.3519C73.201 56.4546 73.2167 56.5578 73.2514 56.6545C73.2862 56.7511 73.3404 56.8399 73.4103 56.9156C73.4802 56.9913 73.5645 57.0522 73.658 57.095C73.7514 57.1378 73.853 57.1613 73.9558 57.1644C74.142 57.156 74.3201 57.088 74.4636 56.9694C74.6071 56.8508 74.7083 56.6887 74.7517 56.5076C74.7873 56.3242 74.7714 56.135 74.7055 55.9601C74.6397 55.7853 74.5263 55.6324 74.3787 55.5182C74.2622 55.4314 73.9993 55.482 74.0835 55.6044L74.1073 55.751L74.1064 55.7499Z" fill="white"/>
</g>
<g opacity="0.8">
<path opacity="0.8" d="M75.9231 65.2497C75.865 65.2354 75.8052 65.2334 75.7469 65.2438C75.6873 65.2539 75.632 65.2769 75.5824 65.3099C75.5328 65.343 75.4911 65.3869 75.4596 65.437C75.4274 65.4873 75.4074 65.5441 75.398 65.6031C75.3956 65.6638 75.405 65.7237 75.425 65.7804C75.4457 65.837 75.4773 65.889 75.5184 65.9334C75.5588 65.9773 75.6079 66.0132 75.6632 66.0382C75.7184 66.0633 75.777 66.0769 75.8374 66.0787C75.9466 66.075 76.0519 66.0348 76.1351 65.9658C76.2195 65.8965 76.2784 65.8012 76.3035 65.6951C76.3254 65.5871 76.3171 65.4755 76.2788 65.3723C76.2399 65.2693 76.1721 65.1798 76.0845 65.1136C76.0173 65.0606 75.8638 65.0941 75.912 65.1629L75.9231 65.2497Z" fill="white"/>
</g>
</g>
<g opacity="0.5">
<path d="M104.694 67.9115C103.966 67.9569 103.556 67.7244 103.285 67.1246C103.051 66.604 102.627 66.4026 102.094 66.3778C101.992 66.373 101.877 66.4083 101.787 66.459C101.572 66.5797 101.532 66.7471 101.645 66.9671C101.719 67.1128 101.8 67.256 101.885 67.4129C101.662 67.4631 101.493 67.4109 101.35 67.2819C101.252 67.1944 101.166 67.0934 101.075 66.9983C100.915 66.8324 100.726 66.7442 100.472 66.7793C100.448 66.9722 100.424 67.1681 100.4 67.3596C99.968 67.4498 99.7686 67.3081 99.7492 66.8875C99.738 66.6422 99.7703 66.3951 99.7614 66.1503C99.7477 65.7907 99.4431 65.5568 99.0977 65.6595C98.8943 65.72 98.7039 65.8372 98.5206 65.9492C98.2919 66.0893 98.0805 66.2574 97.8528 66.3998C97.7021 66.4941 97.5354 66.5599 97.2986 66.4977C97.3479 66.359 97.3652 66.2026 97.4482 66.0977C97.595 65.9114 97.7669 65.7379 97.9551 65.5936C98.2354 65.3779 98.5453 65.1998 98.8304 64.9892C98.9995 64.8647 99.1669 64.7262 99.2959 64.5628C99.5809 64.2029 99.4259 63.7809 98.9776 63.6849C98.75 63.6365 98.5127 63.6373 98.2799 63.6101C97.9686 63.5733 97.6497 63.5622 97.3492 63.4836C96.9572 63.3811 96.8292 63.1527 96.8637 62.7534C96.9085 62.235 96.8393 62.1124 96.3692 61.9051C95.9723 61.73 95.5689 61.5695 95.1758 61.3865C94.6827 61.1578 94.7348 61.0327 95.0658 60.7361C95.3021 60.5246 95.5864 60.3663 95.8552 60.1941C96.1891 59.9807 96.4796 59.739 96.6095 59.3408C96.7274 58.9799 96.6742 58.6606 96.4185 58.3853C96.2511 58.2057 96.06 58.0486 95.8888 57.8719C95.7079 57.6852 95.5931 57.4683 95.6397 57.1709C95.8078 57.1742 95.9715 57.1808 96.1354 57.181C96.547 57.1817 96.959 57.195 97.3691 57.1718C97.5517 57.1613 97.74 57.0965 97.9081 57.0189C98.1936 56.8869 98.3426 56.6567 98.3631 56.3287C98.3811 56.0403 98.4585 55.7561 98.485 55.4678C98.5059 55.2374 98.496 55.0036 98.4888 54.7714C98.483 54.5781 98.4519 54.3848 98.4555 54.1919C98.4564 54.1316 98.5217 54.0468 98.5797 54.0171C99.2071 53.6994 99.8154 53.9992 99.8974 54.6958C99.9811 55.4051 100.425 55.7738 101.032 56.0027C101.853 56.3132 102.711 56.3139 103.61 56.2639C103.599 55.977 103.589 55.7006 103.578 55.4236C103.562 55.0295 103.547 54.6354 103.529 54.2414C103.522 54.0818 103.604 54.0482 103.744 54.0703C103.996 54.1096 104.132 54.2751 104.171 54.504C104.218 54.7788 104.225 55.0608 104.253 55.3395C104.271 55.5214 104.283 55.7047 104.32 55.8832C104.347 56.021 104.421 56.1395 104.585 56.1679C104.633 56.0839 104.664 55.9803 104.733 55.924C104.804 55.8666 104.922 55.8155 105 55.8356C105.065 55.8518 105.128 55.9713 105.144 56.0552C105.174 56.1986 105.126 56.3675 105.184 56.4928C105.28 56.7014 105.412 56.9021 105.566 57.0724C105.765 57.2912 106.023 57.3505 106.319 57.258C106.638 57.1578 106.642 57.1683 106.832 57.4474C106.956 57.6283 107.202 57.6949 107.448 57.6228C107.595 57.5801 107.744 57.533 107.895 57.5188C108.06 57.5039 108.105 57.5613 108.04 57.712C107.951 57.921 107.834 58.1179 107.723 58.3176C107.606 58.5273 107.471 58.727 107.366 58.9418C107.312 59.0508 107.287 59.1828 107.283 59.3051C107.273 59.5568 107.479 59.7598 107.729 59.7419C107.927 59.7279 108.124 59.6834 108.32 59.6477C108.927 59.5384 109.533 59.4261 110.139 59.317C110.195 59.3072 110.254 59.3111 110.31 59.3122C110.424 59.3143 110.554 59.3307 110.569 59.4583C110.58 59.5508 110.542 59.6833 110.477 59.7443C110.336 59.8751 110.175 59.9922 110.002 60.0765C109.618 60.2651 109.221 60.4291 108.83 60.605C108.742 60.6445 108.652 60.6827 108.568 60.7322C108.306 60.8888 108.212 61.1258 108.324 61.4026C108.477 61.7837 108.457 62.148 108.279 62.5142C108.212 62.652 108.171 62.8026 108.117 62.9471C108.078 63.0498 108.119 63.1186 108.214 63.1474C108.344 63.1875 108.478 63.2179 108.612 63.2454C108.802 63.2847 108.996 63.3083 109.183 63.3587C109.33 63.398 109.407 63.5062 109.393 63.6698C109.379 63.8291 109.292 63.927 109.142 63.9549C109.025 63.9767 108.904 63.9815 108.785 63.976C108.584 63.9663 108.385 63.9485 108.186 63.9234C107.939 63.8917 107.763 63.9906 107.646 64.202C107.377 64.6863 107.193 65.199 107.127 65.7523C107.12 65.8138 107.056 65.8918 106.998 65.9194C106.757 66.0336 106.501 65.9891 106.256 65.9368C106.071 65.8973 105.963 65.9395 105.906 66.1196C105.887 66.1789 105.86 66.2408 105.819 66.2857C105.781 66.3284 105.721 66.3746 105.668 66.3773C105.538 66.3844 105.406 66.3673 105.274 66.3595C104.991 66.3421 104.774 66.4527 104.628 66.6977C104.57 66.7958 104.514 66.8962 104.463 66.9978C104.362 67.1958 104.375 67.3727 104.53 67.5514C104.607 67.6405 104.632 67.7745 104.691 67.9133L104.694 67.9115Z" fill="#BD8C65"/>
<path d="M94.3156 62.9056C93.8544 62.8361 93.4823 62.6514 93.2102 62.2977C92.9603 61.9722 93.0578 61.7008 93.4495 61.5824C93.7362 61.4957 94.0025 61.5392 94.2568 61.6876C94.5131 61.8374 94.7347 62.024 94.8816 62.2861C95.0564 62.5985 94.9496 62.8238 94.5982 62.8833C94.4977 62.9004 94.3938 62.8992 94.3154 62.905L94.3156 62.9056Z" fill="#BD8C65"/>
<path d="M95.9349 64.8822C95.8994 65.3855 95.6046 65.5424 95.2214 65.3208C94.9706 65.1758 94.8267 64.9716 94.888 64.6723C94.9219 64.5069 94.961 64.3351 95.0388 64.1873C95.1773 63.925 95.4875 63.9017 95.6799 64.1279C95.878 64.361 95.9424 64.6411 95.9353 64.8813L95.9349 64.8822Z" fill="#BD8C65"/>
<path d="M104.419 53.1004C104.406 53.1281 104.388 53.2462 104.336 53.2636C104.257 53.2898 104.133 53.2752 104.067 53.226C103.714 52.9624 103.504 52.5998 103.415 52.1719C103.378 51.9925 103.52 51.8291 103.734 51.7649C103.951 51.7001 104.135 51.7597 104.218 51.9383C104.381 52.2881 104.408 52.6647 104.419 53.1001L104.419 53.1004Z" fill="#BD8C65"/>
<path d="M108.942 55.7384C109.241 56.0333 109.348 56.6193 109.184 56.9707C109.068 57.2164 108.846 57.3283 108.634 57.2478C108.346 57.1387 108.217 56.8994 108.307 56.6246C108.425 56.266 108.673 56.0018 108.942 55.7387L108.942 55.7384Z" fill="#BD8C65"/>
<path d="M97.1256 67.4304C97.0305 67.6212 96.9559 67.8275 96.835 68.0002C96.6835 68.2159 96.3764 68.2281 96.1817 68.0591C95.9958 67.8977 95.9651 67.619 96.1484 67.4324C96.3151 67.2632 96.5135 67.123 96.7106 66.9883C96.8234 66.9112 96.9992 66.9874 97.0499 67.1247C97.0825 67.2132 97.0846 67.313 97.1001 67.4079C97.1089 67.4155 97.1171 67.4234 97.1256 67.4304Z" fill="#BD8C65"/>
<path d="M110.149 56.5944C109.921 56.4283 109.719 56.2398 109.633 55.9584C109.567 55.7469 109.609 55.545 109.772 55.4542C109.876 55.396 110.033 55.352 110.133 55.3902C110.221 55.4241 110.316 55.5815 110.314 55.6818C110.306 55.9861 110.254 56.2888 110.218 56.5923C110.194 56.5929 110.172 56.594 110.148 56.5946L110.149 56.5944Z" fill="#BD8C65"/>
<path d="M108.365 65.4005C108.877 65.7637 109.493 65.9802 109.723 66.6185C109.711 66.632 109.7 66.6451 109.688 66.6586C109.287 66.3626 108.883 66.0707 108.489 65.7673C108.391 65.6919 108.296 65.587 108.365 65.4011L108.365 65.4005Z" fill="#BD8C65"/>
</g>
<path d="M114.625 88.052C114.95 87.588 115.006 87.0445 115.16 86.5351C115.536 85.2923 115.668 84.0018 115.891 82.7299C115.948 82.4102 116.035 82.1174 116.216 81.8412C116.327 81.6713 116.381 81.4595 116.434 81.2589C116.48 81.0832 116.337 80.9419 116.158 80.9338C115.993 80.9259 115.857 80.9744 115.726 81.0721C115.634 81.14 115.526 81.2044 115.416 81.2293C114.982 81.3273 114.708 81.6122 114.485 81.9729C114.401 82.1081 114.292 82.2286 114.182 82.3439C114.157 82.37 114.081 82.3483 114.028 82.3486C114.034 82.3029 114.028 82.2517 114.048 82.2127C114.123 82.0608 114.206 81.9132 114.287 81.7644C114.263 81.7424 114.239 81.7203 114.215 81.6983C114.061 81.7948 113.9 81.883 113.754 81.9903C113.618 82.0908 113.488 82.2034 113.373 82.326C113.209 82.5002 112.997 82.523 112.784 82.5433C112.624 82.558 112.496 82.3759 112.531 82.2246C112.586 81.9888 112.751 81.8646 112.953 81.7732C113.155 81.6818 113.36 81.598 113.562 81.5072C113.859 81.3731 113.919 81.2223 113.798 80.9263C113.763 80.8415 113.742 80.7498 113.694 80.6732C113.603 80.5239 113.513 80.3602 113.289 80.4185C113.134 80.4584 113.06 80.3436 112.994 80.2442C112.886 80.0791 112.747 80.0242 112.552 80.0394C112.273 80.061 111.991 80.0529 111.712 80.0648C111.629 80.068 111.543 80.0849 111.465 80.1127C110.907 80.3121 110.337 80.4872 109.799 80.7308C109.531 80.8516 109.306 81.0862 109.09 81.2978C108.862 81.5207 108.674 81.7848 108.357 81.8954C108.302 81.9146 108.248 81.9397 108.191 81.9506C107.686 82.0482 107.183 82.162 106.673 82.2252C106.539 82.2417 106.346 82.13 106.252 82.0165C106.159 81.9049 106.08 81.7331 106.226 81.5568C106.365 81.3893 106.5 81.2342 106.703 81.1369C106.955 81.0159 107.197 80.8732 107.444 80.7413C107.906 80.4935 108.408 80.3928 108.923 80.3469C109.425 80.3021 109.858 80.0571 110.282 79.8268C110.784 79.555 111.249 79.2161 111.72 78.8919C111.807 78.832 111.862 78.7126 111.908 78.6097C112.001 78.398 112.025 78.1514 112.24 78.0056C112.263 77.9906 112.277 77.9518 112.28 77.9224C112.328 77.4234 112.228 76.9602 111.899 76.5724C111.818 76.478 111.684 76.4021 111.562 76.3753C110.842 76.2155 110.117 76.0819 109.399 75.9155C109.263 75.884 109.121 75.7668 109.036 75.6491C108.912 75.4754 109.14 75.2238 109.398 75.2314C109.667 75.24 109.928 75.278 110.164 75.4242C110.576 75.6801 111.044 75.7039 111.504 75.7001C112.064 75.6951 112.624 75.6238 113.184 75.6149C113.816 75.6044 114.189 75.243 114.498 74.7502C114.769 74.3152 114.787 73.8236 114.845 73.3399C114.864 73.1845 114.853 73.0262 114.87 72.8709C114.942 72.2053 114.57 71.7797 114.082 71.4261C113.838 71.2496 113.561 71.1365 113.254 71.0992C113.061 71.0759 112.874 71.0128 112.681 70.9765C112.274 70.8993 111.922 70.6956 111.667 70.3913C111.395 70.0661 111.2 69.6878 111.223 69.2208C111.239 68.8854 111.411 68.6869 111.651 68.5064C111.936 68.2928 112.18 68.468 112.424 68.5898C112.774 68.7643 112.948 69.0991 113.154 69.4088C113.496 69.9237 113.795 70.4757 114.28 70.8782C114.554 71.1064 114.847 71.3146 115.144 71.5122C115.223 71.565 115.409 71.5925 115.443 71.5498C115.525 71.4484 115.602 71.2873 115.581 71.1683C115.525 70.8501 115.43 70.5356 115.325 70.2286C115.169 69.7724 114.966 69.3306 114.835 68.8683C114.781 68.6794 114.846 68.4491 114.889 68.2436C114.91 68.1428 115.133 68.1157 115.196 68.2094C115.295 68.3552 115.408 68.5163 115.432 68.6827C115.474 68.9701 115.546 69.2398 115.659 69.5061C115.784 69.7995 115.873 70.1083 115.988 70.4052C116.044 70.5491 116.128 70.6818 116.196 70.8208C116.261 70.9508 116.382 71.001 116.48 70.9161C116.562 70.8439 116.64 70.6906 116.621 70.5937C116.577 70.3869 116.463 70.196 116.388 69.9948C116.351 69.8938 116.317 69.7862 116.312 69.6797C116.302 69.4843 116.495 69.373 116.684 69.4425C116.969 69.5475 117.158 69.7531 117.316 69.9998C117.499 70.2849 117.686 70.5665 117.876 70.8468C117.916 70.9048 117.971 70.9545 118.028 70.9963C118.245 71.156 118.246 71.1547 118.272 71.47C118.429 71.4489 118.586 71.4349 118.74 71.4054C118.905 71.373 118.989 71.4354 118.973 71.6024C118.966 71.6865 118.95 71.7702 118.937 71.8545C118.879 72.2257 119.159 72.6125 119.534 72.595C119.73 72.5857 119.936 72.4545 120.108 72.336C120.384 72.146 120.551 71.8716 120.618 71.5352C120.654 71.3572 120.741 71.1893 120.779 71.0119C120.861 70.6236 121.062 70.3033 121.31 70.0036C121.484 69.7927 121.787 69.6806 122.033 69.7594C122.101 69.7814 122.174 69.8292 122.218 69.8858C122.444 70.1747 122.449 70.5608 122.244 70.8527C121.967 71.2469 121.701 71.6499 121.412 72.0361C121.094 72.4609 121.227 72.8983 121.456 73.2652C121.584 73.4707 121.664 73.4643 121.866 73.3228C122.122 73.1425 122.119 73.1523 122.329 73.3878C122.461 73.5359 122.624 73.6589 122.786 73.7755C122.84 73.8142 122.935 73.8125 123.008 73.8044C123.696 73.7252 124.373 73.608 125.01 73.3106C125.157 73.2416 125.338 73.2211 125.503 73.2257C125.59 73.2282 125.698 73.3146 125.755 73.3929C125.826 73.4915 125.801 73.6119 125.683 73.6754C125.399 73.8292 125.12 73.9979 124.822 74.1183C124.486 74.2542 124.128 74.3394 123.783 74.4561C123.596 74.5192 123.342 74.9296 123.365 75.1272C123.395 75.3728 123.444 75.6158 123.469 75.8615C123.475 75.9192 123.435 76.0135 123.387 76.0397C123.245 76.1182 123.09 76.1718 122.94 76.2343C122.793 76.2955 122.758 76.4182 122.882 76.5093C123.214 76.7526 123.519 77.0398 123.969 77.0805C124.778 77.153 125.548 77.4185 126.334 77.6023C126.714 77.6913 127.129 77.711 127.517 77.6658C128.078 77.6003 128.62 77.644 129.169 77.7291C129.321 77.753 129.506 77.7518 129.639 77.6866C130.11 77.4522 130.539 77.543 130.949 77.8125C131.21 77.9846 131.486 78.0482 131.797 78.0406C132.109 78.0328 132.422 78.0648 132.734 78.0883C133.073 78.1142 133.327 78.4543 133.24 78.7548C133.192 78.9215 132.951 79.0935 132.756 79.0748C132.219 79.0219 131.68 78.9735 131.147 78.8918C130.898 78.854 130.661 78.8425 130.443 78.9585C130.074 79.1566 129.722 79.029 129.393 78.8909C129.105 78.7691 128.825 78.6926 128.513 78.6808C128.18 78.6676 127.857 78.6028 127.572 78.4003C127.253 78.1741 126.9 78.053 126.499 78.0349C126.044 78.0139 125.587 77.9623 125.139 77.8852C124.493 77.7738 123.865 77.9298 123.232 77.98C122.882 78.0077 122.568 78.4285 122.572 78.7952C122.574 78.9967 122.678 79.1255 122.859 79.2201C123.505 79.5584 124.147 79.9053 124.785 80.2576C124.85 80.2933 124.882 80.3892 124.93 80.4573C124.852 80.4799 124.773 80.5207 124.696 80.5198C124.631 80.5192 124.56 80.4785 124.503 80.4399C124.194 80.2284 123.859 80.112 123.479 80.1159C123.166 80.1191 122.853 80.0989 122.54 80.0949C122.459 80.0942 122.378 80.1155 122.255 80.133C122.313 80.2262 122.343 80.2948 122.39 80.3487C122.531 80.5114 122.686 80.6621 122.822 80.8289C122.965 81.0046 123.103 81.1863 123.223 81.3784C123.404 81.67 123.662 81.8688 123.949 82.044C124.193 82.1932 124.429 82.3549 124.667 82.5141C124.71 82.5427 124.749 82.5785 124.783 82.6178C124.894 82.7483 124.925 82.9841 124.837 83.0928C124.725 83.2335 124.567 83.189 124.439 83.1409C124.143 83.0291 123.878 82.8552 123.69 82.5964C123.15 81.8574 122.384 81.4336 121.582 81.0585C121.424 80.9847 121.336 81.1071 121.267 81.2107C121.212 81.2943 121.175 81.4034 121.168 81.5045C121.138 81.9314 121.042 82.3565 121.154 82.7881C121.185 82.9094 121.127 83.025 120.983 83.0763C120.697 83.1788 120.646 83.3 120.734 83.5841C120.929 84.2115 121.203 84.7988 121.596 85.329C121.655 85.4085 121.701 85.5163 121.703 85.6125C121.705 85.6859 121.645 85.7912 121.582 85.8257C121.534 85.8518 121.406 85.8123 121.368 85.7614C121.143 85.4594 120.907 85.1598 120.726 84.8318C120.45 84.3317 120.282 83.79 120.241 83.2137C120.231 83.0859 120.197 82.9549 120.151 82.8347C120.092 82.6798 119.974 82.584 119.797 82.5817C119.426 82.5775 119.138 82.8902 119.206 83.2601C119.25 83.5 119.332 83.7374 119.428 83.9621C119.48 84.086 119.495 84.1974 119.421 84.2907C119.313 84.4261 119.184 84.5485 119.049 84.658C119.006 84.6932 118.896 84.7011 118.855 84.6699C118.812 84.6387 118.787 84.5374 118.803 84.479C118.95 83.9268 118.71 83.4888 118.406 83.0663C118.159 82.7221 117.915 82.3759 117.664 82.0338C117.447 81.7381 117.261 81.7028 117.012 81.9649C116.852 82.1324 116.746 82.3581 116.642 82.5708C116.566 82.7266 116.663 82.8407 116.802 82.9209C116.892 82.9728 116.979 83.0305 117.058 83.0964C117.086 83.1196 117.108 83.1969 117.094 83.2123C117.065 83.2431 117.006 83.2684 116.963 83.2625C116.477 83.1931 116.421 83.2091 116.411 83.6991C116.393 84.4593 116.073 85.1105 115.761 85.7718C115.444 86.443 115.211 87.1403 115.161 87.8872C115.126 88.4189 114.965 88.9149 114.724 89.379C114.359 90.0822 114.126 90.8211 114.006 91.602C113.848 92.6306 113.581 93.63 113.191 94.5962C112.905 95.3048 112.757 96.0436 112.723 96.8076C112.718 96.932 112.658 97.0548 112.619 97.177C112.559 97.3603 112.424 97.4113 112.251 97.3639C112.084 97.3177 111.965 97.1055 111.998 96.9367C112.001 96.9242 112.007 96.9117 112.011 96.8999C112.545 95.3647 112.816 93.7662 113.115 92.1772C113.263 91.3877 113.534 90.6691 113.899 89.9625C114.143 89.4913 114.294 88.9721 114.486 88.4739C114.528 88.364 114.503 88.2873 114.372 88.2589C114.313 88.2458 114.261 88.2018 114.206 88.1717C114.28 88.1167 114.346 88.0457 114.428 88.0133C114.479 87.9935 114.553 88.0335 114.624 88.0482L114.625 88.052Z" fill="#D9A273"/>
<path d="M119.385 67.6545C119.032 67.2336 119.053 66.6639 119.434 66.3386C119.794 66.0316 120.351 66.1073 120.686 66.5086C121.031 66.922 121.001 67.5089 120.619 67.8264C120.258 68.1263 119.716 68.0507 119.384 67.6546L119.385 67.6545Z" fill="#D9A273"/>
<path d="M125.952 80.2037C126.025 80.2944 126.022 80.4018 125.902 80.4055C125.709 80.4115 125.491 80.4124 125.325 80.3317C125.024 80.1849 124.756 79.9708 124.468 79.795C124.325 79.7077 124.164 79.6503 124.019 79.5644C123.968 79.5341 123.945 79.4594 123.909 79.4052C123.969 79.3754 124.031 79.3195 124.09 79.3222C124.191 79.3269 124.3 79.3508 124.391 79.3961C124.886 79.6423 125.376 79.8976 125.868 80.1497C125.896 80.1644 125.922 80.1851 125.952 80.2043L125.952 80.2037Z" fill="#D9A273"/>
<path d="M104.103 91.6045C103.923 91.4013 103.93 91.0278 104.118 90.8568C104.257 90.7302 104.433 90.7417 104.566 90.8858C104.755 91.0901 104.747 91.474 104.55 91.6486C104.413 91.7692 104.233 91.752 104.103 91.6052L104.103 91.6045Z" fill="#D9A273"/>
<path d="M134.265 80.4946C133.968 80.6586 132.94 80.4192 132.739 80.1386C133.007 79.9521 134.102 80.2076 134.265 80.4946Z" fill="#D9A273"/>
<path d="M127.281 79.6978C127.187 79.5915 127.218 79.5099 127.334 79.4497C127.539 79.3426 128.003 79.4063 128.168 79.5624C128.26 79.65 128.282 79.7358 128.161 79.8169C127.964 79.9492 127.439 79.8777 127.281 79.6978Z" fill="#D9A273"/>
<path d="M128.526 73.0677C128.408 72.9244 128.425 72.7288 128.563 72.6152C128.704 72.499 128.914 72.523 129.032 72.6696C129.147 72.8124 129.13 73.0093 128.993 73.1241C128.852 73.243 128.65 73.2187 128.526 73.0677Z" fill="#D9A273"/>
<path d="M121.059 64.6368C121.142 64.6056 121.252 64.545 121.369 64.5251C121.529 64.4974 121.625 64.6212 121.531 64.7464C121.428 64.8842 121.278 64.9955 121.129 65.0873C121.075 65.1208 120.929 65.0935 120.892 65.0439C120.856 64.9962 120.896 64.8799 120.923 64.8004C120.94 64.7491 120.995 64.711 121.059 64.6368Z" fill="#D9A273"/>
<path d="M120.016 71.6194C120.048 71.6151 120.102 71.5913 120.14 71.6071C120.167 71.6179 120.186 71.6863 120.181 71.7248C120.143 72.0043 120.018 72.2443 119.823 72.4461C119.797 72.4736 119.733 72.495 119.705 72.4816C119.677 72.4682 119.654 72.4058 119.657 72.3673C119.684 72.0842 119.819 71.8498 120.016 71.6187L120.016 71.6194Z" fill="#D9A273"/>
<path d="M126.444 67.5727C126.484 67.5838 126.573 67.583 126.62 67.6271C126.736 67.7367 126.71 68.0698 126.575 68.1572C126.526 68.1893 126.405 68.1781 126.362 68.1385C126.239 68.0259 126.273 67.7113 126.444 67.5727Z" fill="#D9A273"/>
<path d="M119.037 86.0974C118.932 85.9751 118.908 85.6637 118.993 85.5232C119.065 85.4045 119.181 85.4074 119.212 85.5183C119.261 85.6898 119.275 85.8812 119.254 86.0588C119.24 86.1815 119.118 86.1911 119.038 86.0974L119.037 86.0974Z" fill="#D9A273"/>
<path d="M129.918 79.7884C129.939 79.7487 129.954 79.6663 130.003 79.6349C130.122 79.559 130.416 79.6338 130.504 79.7468C130.567 79.8288 130.563 79.9017 130.459 79.9492C130.334 80.0064 130.042 79.9374 129.918 79.7884L129.918 79.7884Z" fill="#D9A273"/>
<path d="M110.088 76.3799C110.229 76.2611 110.497 76.2833 110.568 76.4014C110.593 76.4423 110.576 76.5417 110.541 76.5772C110.45 76.6704 110.194 76.64 110.117 76.5305C110.085 76.4866 110.094 76.4142 110.088 76.3792L110.088 76.3799Z" fill="#D9A273"/>
<path d="M123.156 99.1655C123.133 99.1626 123.115 99.1502 123.107 99.1224C123.082 99.0367 123.212 98.9135 123.238 98.8373C123.279 98.7153 123.314 98.5908 123.356 98.469C123.423 98.2748 123.475 98.0426 123.585 97.867C123.811 97.509 124.099 97.1908 124.43 96.9266C125.091 96.3983 125.378 96.2718 124.997 95.4277C124.55 94.438 124.927 93.4779 125.16 92.5506C125.332 91.8626 125.34 91.2732 125.023 90.6564C124.845 90.3106 124.648 89.9664 124.537 89.598C124.381 89.0804 124.547 88.8952 125.088 88.8647C125.401 88.847 125.775 88.865 126.057 88.7042C126.296 88.5682 126.538 88.0167 126.799 88.0453C126.99 88.0665 127.151 88.1738 127.353 88.1748C127.583 88.1758 127.816 88.0455 128.025 87.9628C128.576 87.7474 129.136 87.5328 129.625 87.1962C130.374 86.6821 129.886 85.5549 130.337 84.8763C130.489 84.6494 130.698 84.473 130.873 84.2661C130.947 84.1788 131.171 83.6797 131.311 83.8808C131.541 84.212 131.785 84.5351 132.016 84.8667C132.236 85.1822 132.241 85.5482 132.116 85.901C132.038 86.1238 131.825 86.3168 131.797 86.5572C131.76 86.8831 132.29 86.9301 132.516 87.0347C132.815 87.1729 133.114 87.311 133.413 87.4485C133.994 87.7152 134.576 87.9785 135.164 88.2302C135.676 88.4497 136.115 88.7662 136.392 89.262C136.521 89.4925 136.621 89.7088 136.828 89.8788C137.03 90.0447 137.224 90.2143 137.401 90.4129C137.767 90.8244 138.056 91.3005 138.233 91.8227C138.285 91.9745 138.444 92.0651 138.514 92.2059C138.62 92.417 138.447 92.5072 138.313 92.664C137.971 93.0645 138.2 93.6764 138.178 94.1486C138.176 94.1851 138.175 94.2226 138.188 94.2561C138.253 94.4135 138.539 94.3903 138.647 94.5147C138.76 94.6437 138.457 95.2671 138.397 95.4143C138.327 95.5863 138.163 95.8303 138.292 96.0129C138.306 96.033 138.329 96.0447 138.35 96.0574C138.462 96.1202 138.564 96.2091 138.615 96.3269C138.671 96.4578 138.657 96.6109 138.607 96.7444C138.556 96.8774 138.07 97.3873 138.133 97.5159C138.145 97.5415 138.169 97.5596 138.191 97.5772C138.329 97.6822 138.67 97.8267 138.542 98.0444C138.472 98.1631 138.219 98.2837 138.108 98.362C137.968 98.4594 137.816 98.5445 137.683 98.6512C137.467 98.8238 137.091 99.0456 136.962 99.3016C136.915 99.395 136.931 99.5086 136.968 99.6064C137.045 99.8152 137.155 100.009 137.263 100.204C137.394 100.441 137.549 100.666 137.673 100.907C138.025 101.583 138.412 102.251 138.97 102.78C139.264 103.052 139.676 103.054 139.823 103.502C139.903 103.747 139.846 104.017 139.748 104.256C139.589 104.646 139.257 105.027 138.835 105.011C138.466 104.998 138.172 104.674 138.048 104.327C137.934 104.008 138.018 103.478 137.792 103.253C137.657 103.119 137.305 103.323 137.075 102.963C136.646 102.289 136.218 101.616 135.79 100.943C135.742 100.868 135.688 100.787 135.603 100.758C135.533 100.733 135.456 100.748 135.384 100.764C134.953 100.856 134.522 100.948 134.091 101.041C134.025 101.055 133.957 101.071 133.91 101.118C133.861 101.167 133.846 101.239 133.833 101.307C133.783 101.569 133.733 101.831 133.682 102.094C133.44 101.98 133.064 101.975 132.843 102.147C132.555 102.371 132.753 102.8 132.568 102.985C132.485 103.068 132.333 103.028 132.261 102.936C132.189 102.844 132.174 102.721 132.163 102.605C132.118 102.17 132.074 101.735 132.029 101.301C132.022 101.22 132.011 101.135 131.963 101.07C131.911 101 131.823 100.967 131.74 100.94C131.086 100.725 130.385 100.648 129.763 100.353C128.574 99.7895 127.751 98.4933 126.408 98.2242C125.321 98.0066 124.224 98.6665 123.289 99.1298C123.258 99.1453 123.199 99.1734 123.156 99.1682L123.156 99.1655Z" fill="#B5815B"/>
<path d="M134.629 111.128C134.612 111.121 134.597 111.109 134.59 111.092C134.531 110.97 134.367 110.741 134.391 110.533C134.431 110.177 134.707 109.946 135.101 110.058C135.46 110.159 135.657 110.436 135.552 110.809C135.45 111.173 135.18 111.317 134.629 111.128L134.629 111.128Z" fill="#B5815B"/>
<path d="M136.269 109.237C136.697 110.09 136.916 111.056 136.91 112.069C136.903 113.082 136.672 114.116 136.231 115.102C135.871 115.97 135.295 116.762 134.564 117.395C134.193 117.699 133.774 117.943 133.426 118.276C131.743 119.9 132.586 122.633 131.202 124.52C130.885 124.949 130.42 125.341 129.844 125.161C129.62 125.08 129.437 124.926 129.323 124.722C129.209 124.516 129.168 124.27 129.207 124.017C129.345 122.855 130.359 122.087 130.956 121.107C131.605 120.074 131.617 119.448 131.222 118.451C130.284 117.382 127.796 123.931 124.675 127.158C124.316 127.533 123.054 129.834 122.617 129.702C121.227 129.274 123.145 126.633 124.696 125.129C125.81 124.109 126.697 122.873 127.283 121.525C127.345 121.373 127.349 121.214 127.292 121.08C127.235 120.945 127.123 120.848 126.98 120.809C126.837 120.77 126.673 120.792 126.528 120.871C126.382 120.95 126.264 121.079 126.202 121.23C126 121.629 125.85 122.024 125.692 122.406C125.246 123.425 124.141 124.573 123.235 124.138C123.814 122.637 125.092 121.436 126.139 120.148C126.787 119.394 127.287 118.536 127.605 117.63C127.647 117.464 127.638 117.296 127.579 117.151C127.52 117.006 127.414 116.89 127.275 116.818C127.136 116.747 126.971 116.725 126.803 116.753C126.635 116.783 126.471 116.861 126.334 116.979C125.4 117.869 124.553 118.846 123.812 119.891C123.168 119.752 123.102 118.83 123.488 118.209C123.875 117.588 124.532 117.175 125.112 116.701C125.692 116.227 126.243 115.592 126.219 114.921C126.168 114.561 126.052 114.224 125.874 113.924C123.126 107.793 133.35 103.428 136.268 109.236L136.269 109.237Z" fill="#D9A273"/>
<path opacity="0.7" d="M136.269 109.237C136.697 110.09 136.916 111.056 136.91 112.069C136.903 113.082 136.672 114.116 136.231 115.102C135.871 115.97 135.295 116.762 134.564 117.395C134.193 117.699 133.774 117.943 133.426 118.276C131.743 119.9 132.586 122.633 131.202 124.52C130.885 124.949 130.42 125.341 129.844 125.161C129.62 125.08 129.437 124.926 129.323 124.722C129.209 124.516 129.168 124.27 129.207 124.017C129.345 122.855 130.359 122.087 130.956 121.107C131.605 120.074 131.617 119.448 131.222 118.451C130.284 117.382 127.796 123.931 124.675 127.158C124.316 127.533 123.054 129.834 122.617 129.702C121.227 129.274 123.145 126.633 124.696 125.129C125.81 124.109 126.697 122.873 127.283 121.525C127.345 121.373 127.349 121.214 127.292 121.08C127.235 120.945 127.123 120.848 126.98 120.809C126.837 120.77 126.673 120.792 126.528 120.871C126.382 120.95 126.264 121.079 126.202 121.23C126 121.629 125.85 122.024 125.692 122.406C125.246 123.425 124.141 124.573 123.235 124.138C123.814 122.637 125.092 121.436 126.139 120.148C126.787 119.394 127.287 118.536 127.605 117.63C127.647 117.464 127.638 117.296 127.579 117.151C127.52 117.006 127.414 116.89 127.275 116.818C127.136 116.747 126.971 116.725 126.803 116.753C126.635 116.783 126.471 116.861 126.334 116.979C125.4 117.869 124.553 118.846 123.812 119.891C123.168 119.752 123.102 118.83 123.488 118.209C123.875 117.588 124.532 117.175 125.112 116.701C125.692 116.227 126.243 115.592 126.219 114.921C126.168 114.561 126.052 114.224 125.874 113.924C123.126 107.793 133.35 103.428 136.268 109.236L136.269 109.237Z" fill="black"/>
<path d="M21.2409 60.3076L38.4012 47.8632C39.1031 47.3542 40.0859 47.5103 40.5943 48.2125L98.0199 127.529L87.6787 135.029C82.5107 138.776 75.2784 137.625 71.5379 132.458L20.8895 62.5021C20.3814 61.8004 20.5385 60.817 21.2409 60.3076Z" fill="#D9A273"/>
<g opacity="0.8">
<path d="M21.2409 60.3076L38.4012 47.8632C39.1031 47.3542 40.0859 47.5103 40.5943 48.2125L98.0199 127.529L87.6787 135.029C82.5107 138.776 75.2784 137.625 71.5379 132.458L20.8895 62.5021C20.3814 61.8004 20.5385 60.817 21.2409 60.3076Z" fill="white"/>
</g>
<path d="M39.0214 50.5997L23.6479 61.7483L34.775 77.1171L50.1485 65.9685L39.0214 50.5997Z" fill="#93AEBF"/>
<path d="M52.3812 69.0523L37.0078 80.2009L48.1349 95.5698L63.5083 84.4212L52.3812 69.0523Z" fill="#748996"/>
<path d="M65.7413 87.5055L50.3679 98.6541L61.495 114.023L76.8684 102.874L65.7413 87.5055Z" fill="#56656D"/>
<path d="M79.1005 105.958L63.7271 117.107L74.8541 132.476L90.2276 121.327L79.1005 105.958Z" fill="#374044"/>
<path d="M36.9061 45.7914L56.2738 37.1857C57.0659 36.8337 57.9946 37.1908 58.3459 37.9836L98.0208 127.53L86.3494 132.716C80.5167 135.307 73.6833 132.676 71.099 126.844L36.1064 47.8654C35.7554 47.0732 36.1133 46.1437 36.9061 45.7914Z" fill="#D9A273"/>
<path opacity="0.8" d="M36.9061 45.7914L56.2738 37.1857C57.0659 36.8337 57.9946 37.1908 58.3459 37.9836L98.0208 127.53L86.3494 132.716C80.5167 135.307 73.6833 132.676 71.099 126.844L36.1064 47.8654C35.7554 47.0732 36.1133 46.1437 36.9061 45.7914Z" fill="white"/>
<path d="M56.3108 39.9913L38.9598 47.7009L46.6474 65.0518L63.9984 57.3422L56.3108 39.9913Z" fill="#D9A273"/>
<path d="M65.5408 60.8243L48.1898 68.5339L55.8774 85.8848L73.2284 78.1752L65.5408 60.8243Z" fill="#E1AC77"/>
<path d="M74.7712 81.6561L57.4203 89.3657L65.1079 106.717L82.4588 99.007L74.7712 81.6561Z" fill="#EAB57C"/>
<path d="M84.0015 102.489L66.6505 110.199L74.3381 127.55L91.6891 119.84L84.0015 102.489Z" fill="#F2BF80"/>
<path d="M55.2412 34.8473L75.9697 30.4564C76.8175 30.2768 77.6515 30.8194 77.8302 31.6681L98.0204 127.53L85.5289 130.176C79.2864 131.498 73.1506 127.503 71.8355 121.259L54.0281 36.71C53.8495 35.862 54.3927 35.027 55.2412 34.8473Z" fill="#D9A273"/>
<path opacity="0.8" d="M55.2412 34.8473L75.9697 30.4564C76.8175 30.2768 77.6515 30.8194 77.8302 31.6681L98.0204 127.53L85.5289 130.176C79.2864 131.498 73.1506 127.503 71.8355 121.259L54.0281 36.71C53.8495 35.862 54.3927 35.027 55.2412 34.8473Z" fill="white"/>
<path d="M92.0081 125.33C92.7287 125.8 93.6937 125.595 94.1635 124.874C94.6333 124.152 94.43 123.187 93.7094 122.718C92.9888 122.249 92.0238 122.453 91.554 123.174C91.0842 123.896 91.2875 124.861 92.0081 125.33Z" stroke="#9E6C46" stroke-width="3" stroke-miterlimit="10"/>
<path d="M75.4224 33.2089L56.8523 37.1426L60.7644 55.7172L79.3346 51.7836L75.4224 33.2089Z" fill="#3A2B1F"/>
<path d="M80.1198 55.5107L61.5497 59.4443L65.4618 78.019L84.032 74.0853L80.1198 55.5107Z" fill="#664B36"/>
<path d="M84.8169 77.8127L66.2468 81.7463L70.159 100.321L88.7291 96.3873L84.8169 77.8127Z" fill="#916C4E"/>
<path d="M89.5141 100.115L70.944 104.048L74.8561 122.623L93.4262 118.689L89.5141 100.115Z" fill="#BD8C65"/>
<path d="M128.049 44.8726L62.1183 27.1402C61.4714 26.9662 60.8054 27.35 60.6308 27.9975L60.5367 28.3464C60.3621 28.9938 60.745 29.6597 61.3919 29.8337L127.323 47.566C127.97 47.74 128.636 47.3562 128.811 46.7088L128.905 46.3599C129.079 45.7124 128.696 45.0466 128.049 44.8726Z" fill="white"/>
<path d="M61.3773 29.2897C61.0245 29.1949 60.8397 28.7387 60.9655 28.273C61.0914 27.8072 61.4799 27.5056 61.8328 27.6004L128.068 45.4098C128.421 45.5046 128.606 45.9609 128.48 46.4266C128.354 46.8923 127.966 47.1939 127.613 47.0991L61.3773 29.2897Z" fill="url(#paint1_linear_564_3245)"/>
<path d="M66.6344 32.8342C68.0599 33.7625 69.969 33.3581 70.8984 31.9309C71.8279 30.5037 71.4257 28.5941 70.0001 27.6658C68.5746 26.7374 66.6655 27.1418 65.7361 28.569C64.8066 29.9962 65.2088 31.9058 66.6344 32.8342Z" fill="url(#paint2_linear_564_3245)"/>
<path d="M67.648 32.7267C69.0139 33.0941 70.4201 32.2837 70.7887 30.9168C71.1574 29.5498 70.3489 28.1439 68.983 27.7765C67.6171 27.4091 66.2109 28.2195 65.8423 29.5864C65.4736 30.9534 66.2821 32.3593 67.648 32.7267Z" fill="url(#paint3_linear_564_3245)"/>
<path d="M83.0606 46.5527C84.4862 47.481 86.3953 47.0766 87.3247 45.6494C88.2541 44.2222 87.852 42.3127 86.4264 41.3843C85.0009 40.4559 83.0918 40.8603 82.1623 42.2875C81.2329 43.7148 81.6351 45.6243 83.0606 46.5527Z" fill="url(#paint4_linear_564_3245)"/>
<path d="M84.0737 46.4459C85.4396 46.8133 86.8457 46.003 87.2144 44.636C87.583 43.2691 86.7746 41.8631 85.4086 41.4957C84.0427 41.1284 82.6366 41.9387 82.2679 43.3057C81.8993 44.6726 82.7077 46.0786 84.0737 46.4459Z" fill="url(#paint5_linear_564_3245)"/>
<defs>
<linearGradient id="paint0_linear_564_3245" x1="58.6252" y1="36.9476" x2="126.126" y2="55.1514" gradientUnits="userSpaceOnUse">
<stop stop-color="#572D0B"/>
<stop offset="1" stop-color="#FFD6B5"/>
</linearGradient>
<linearGradient id="paint1_linear_564_3245" x1="60.9641" y1="28.2744" x2="128.465" y2="46.4782" gradientUnits="userSpaceOnUse">
<stop stop-color="#FF0000"/>
<stop offset="0.14" stop-color="#FF8000"/>
<stop offset="0.29" stop-color="#EAFF00"/>
<stop offset="0.45" stop-color="#4DFF00"/>
<stop offset="0.6" stop-color="#00FFAE"/>
<stop offset="0.73" stop-color="#00B7FF"/>
<stop offset="0.88" stop-color="#1500FF"/>
<stop offset="1" stop-color="#FF00F2"/>
</linearGradient>
<linearGradient id="paint2_linear_564_3245" x1="65.3385" y1="31.0473" x2="71.2959" y2="29.4629" gradientUnits="userSpaceOnUse">
<stop stop-color="#D9D9D9"/>
<stop offset="1" stop-color="white"/>
</linearGradient>
<linearGradient id="paint3_linear_564_3245" x1="67.3249" y1="28.528" x2="70.4523" y2="33.9558" gradientUnits="userSpaceOnUse">
<stop stop-color="white"/>
<stop offset="1" stop-color="#D9D9D9"/>
</linearGradient>
<linearGradient id="paint4_linear_564_3245" x1="81.7631" y1="44.7672" x2="87.7208" y2="43.1822" gradientUnits="userSpaceOnUse">
<stop stop-color="#D9D9D9"/>
<stop offset="1" stop-color="white"/>
</linearGradient>
<linearGradient id="paint5_linear_564_3245" x1="83.7498" y1="42.2477" x2="86.8778" y2="47.6757" gradientUnits="userSpaceOnUse">
<stop stop-color="white"/>
<stop offset="1" stop-color="#D9D9D9"/>
</linearGradient>
</defs>
</svg>
