<svg width="100" height="142" viewBox="0 0 100 142" fill="none" xmlns="http://www.w3.org/2000/svg">
<path d="M24.4533 20.281C30.274 13.5481 36.797 8.43804 44.4312 4.78576C45.9691 7.03288 46.568 16.9517 45.6872 24.519C46.1604 24.2103 46.5223 23.9962 46.8591 23.7505C48.5748 22.4973 50.226 21.1445 52.0098 19.9987C54.1123 18.6482 56.4582 18.0051 59.0001 17.8976C60.2792 17.8426 61.567 17.3752 62.7939 16.9345C63.6788 16.6171 64.4783 16.1068 65.7777 16.9044C65.8165 17.5564 65.991 18.447 65.8974 19.3101C65.323 24.7422 63.2191 29.5456 59.8268 33.8115C58.8478 35.0444 57.9216 36.3219 57.0786 37.7585C64.3864 34.24 72.5149 34.6467 80.0189 32.257C80.5516 34.7639 79.2508 38.765 75.448 46.8591C77.1328 46.9069 78.7767 46.8338 80.3898 47.0267C82.4305 47.2718 84.4561 47.697 86.4692 48.1261C87.0571 48.2515 87.5828 48.6613 88.5872 49.1672C84.4441 52.24 80.319 54.6393 77.028 58.2596C83.8008 57.8949 90.2573 59.5609 97.1784 60.6632C94.1458 64.9243 90.8998 68.3214 86.3581 70.6967C90.9669 73.3394 95.9804 74.9114 99.733 78.4931C99.703 78.7004 99.675 78.9083 99.645 79.1155C97.3384 79.5442 94.9875 79.8156 92.7383 80.4415C90.506 81.0632 88.3767 82.053 86.1952 82.8607C83.9675 83.6854 81.7301 84.4845 79.3819 85.3369C80.8247 86.9693 83.0279 87.8815 84.3302 89.9606C82.5945 91.3615 80.9812 92.6676 79.2454 94.0685C81.1089 95.7198 82.8286 97.1818 84.4793 98.7199C86.7645 100.846 88.5814 103.284 89.1748 106.432C89.3405 107.317 89.6682 108.282 88.5709 109.102C88.0596 108.903 87.4355 108.735 86.8878 108.433C85.6047 107.729 84.4395 107.841 83.0891 108.414C81.465 109.103 79.7156 109.691 77.973 109.877C73.6631 110.337 69.3307 110.455 64.936 109.188C65.1713 111.33 65.3916 113.324 65.651 115.681C64.6868 115.57 64.023 115.651 63.5211 115.406C61.0731 114.208 58.4784 113.768 55.7905 113.596C53.1323 113.426 50.4591 113.272 47.833 112.85C44.7685 112.359 41.7479 111.585 38.3168 110.85C37.0609 112.892 35.6068 115.258 34.0371 117.809C32.8187 116.537 31.8451 115.523 30.8722 114.506C30.7518 114.573 30.6333 114.641 30.5136 114.706C30.6007 115.256 30.6655 115.813 30.7807 116.359C31.5595 120.019 31.9356 123.703 31.645 127.449C31.4154 130.404 30.4576 133.024 28.4069 135.191C26.5423 137.161 24.6505 139.106 22.6778 141.156C22.2665 140.752 21.8854 140.54 21.7611 140.227C20.4646 136.951 18.2487 134.296 16.0748 131.59C14.1612 129.208 12.3142 126.762 10.5932 124.24C9.78335 123.053 9.33684 121.619 8.69097 120.223C6.93033 120.897 5.09629 121.494 3.37074 122.314C2.64718 122.657 2.11243 123.441 1.56549 124.086C1.19699 124.521 0.960424 125.068 0.498106 125.841C-1.0263 124.249 -0.684344 122.197 -1.5715 120.66C-2.5024 119.049 -3.30803 117.364 -4.13513 115.695C-4.95829 114.038 -5.74029 112.361 -6.63337 110.499C-10.694 113.298 -15.1282 112.507 -19.5396 111.742C-22.5425 111.222 -25.4954 110.997 -28.3572 112.341C-28.5824 112.446 -28.8704 112.442 -29.1295 112.442C-29.2434 112.442 -29.3598 112.329 -29.6862 112.151C-29.3748 109.777 -28.928 107.32 -28.7621 104.846C-28.5978 102.404 -28.7174 99.9415 -28.7119 97.3262C-29.8376 96.7711 -31.1074 96.1971 -32.3229 95.5283C-33.7787 94.7268 -35.2322 93.9021 -36.6123 92.979C-38.3802 91.7938 -40.1298 91.2174 -42.2308 92.157C-43.4981 92.7243 -43.6645 92.5875 -45.0219 91.9905C-44.7536 90.5868 -40.4632 84.7085 -37.8425 82.2265C-38.6818 81.9007 -39.4521 81.6345 -40.1942 81.307C-43.0519 80.051 -46.0113 78.9722 -48.7279 77.4602C-52.6249 75.2909 -56.3685 72.8397 -60.1273 70.4329C-62.9773 68.6087 -62.9901 67.1659 -60.2665 65.1484C-57.3503 62.9911 -53.9628 62.0454 -50.4417 61.5017C-48.6723 61.23 -46.8846 61.0749 -44.8729 60.8403C-45.4917 60.0596 -46.0219 59.3898 -46.7891 58.4201C-45.9413 58.0511 -45.3609 57.6701 -44.7299 57.5431C-40.8709 56.7738 -36.9978 56.1151 -33.0369 56.808C-32.936 56.8252 -32.8109 56.7009 -32.5647 56.5755C-32.9382 56.1919 -33.2668 55.817 -33.6337 55.4842C-39.1023 50.4988 -43.4223 44.7993 -45.2703 37.4705C-45.7056 35.7477 -46.5311 34.1141 -47.2482 32.4723C-47.6189 31.6237 -47.7287 30.9508 -46.4398 30.3787C-42.5078 32.7915 -37.8664 33.6369 -33.1698 34.4928C-34.8519 27.6244 -36.5325 20.7633 -38.2931 13.5712C-37.3869 13.6626 -36.85 13.6084 -36.4063 13.7828C-35.3567 14.1946 -34.3063 14.644 -33.3325 15.2059C-28.4354 18.0392 -23.5619 20.9159 -18.5727 23.8397C-18.1776 23.133 -17.8697 22.5828 -17.5908 22.0849C-16.0543 21.1691 -14.8464 22.1851 -13.4084 22.7105C-13.3885 22.2521 -13.3829 21.9041 -13.3553 21.5559C-13.159 18.9862 -13.1297 16.3889 -12.7168 13.8551C-12.1731 10.5208 -11.1923 7.25333 -11.9068 3.39994C-10.8462 3.81167 -9.99678 3.9532 -9.38388 4.40997C-6.2411 6.76363 -3.15592 9.19779 -0.0580552 11.6106C0.460819 12.0156 0.9501 12.4572 1.6822 13.0762C1.97014 12.3345 2.25138 11.774 2.40654 11.182C3.08672 8.57038 3.19506 5.94466 2.55669 3.29169C2.36904 2.51415 2.37343 1.6886 2.2937 0.915746C5.87253 0.263164 10.2376 3.18322 14.1768 8.6364C15.1527 7.04994 16.0998 5.50923 16.9507 4.12595C19.1472 3.98069 19.9265 5.28115 20.4064 6.67988C21.5716 10.0735 22.6123 13.5108 23.667 16.9404C23.9564 17.88 24.1209 18.8586 24.449 20.275L24.4533 20.281ZM58.2224 48.8409C58.0508 48.9209 57.8785 49.0028 57.7051 49.0821C57.5243 49.152 57.3423 49.2192 57.1615 49.2891C56.9881 49.3684 56.8127 49.447 56.6393 49.5263C56.4651 49.6075 56.2909 49.6887 56.1167 49.7698L56.0105 49.7833L56.0867 49.7057C56.2609 49.6245 56.4351 49.5433 56.6105 49.4647C56.7839 49.3855 56.9593 49.3069 57.1327 49.2276C57.3135 49.1577 57.4955 49.0905 57.6782 49.0213C57.8521 48.9466 58.0267 48.8699 58.2006 48.7952C58.3737 48.7223 58.5495 48.6483 58.7227 48.5755C58.9115 48.6094 59.1201 48.7166 59.2836 48.6685C62.6102 47.7101 65.9501 46.7853 68.8991 44.8771C69.4063 44.5488 69.9656 44.2954 70.4987 44.0077C70.5723 44.1348 70.6459 44.2618 70.7176 44.3881C70.3906 44.6595 70.1043 45.0123 69.7326 45.1897C66.9135 46.5202 64.0733 47.8032 61.2526 49.1265C59.7688 49.822 58.3109 50.5691 56.84 51.2937C56.2922 51.4662 55.7446 51.6388 55.1968 51.8114L55.2546 51.7813C55.9689 52.1636 56.475 51.9399 56.817 51.2454C57.8071 50.9623 58.8339 50.7656 59.7834 50.3835C63.2403 48.9877 66.706 47.5974 70.4758 47.3691C72.2716 47.2609 73.4802 46.4038 74.3584 44.9896C76.3339 41.8062 77.2856 38.2407 78.349 34.5741C77.8647 34.5437 77.6003 34.4783 77.3535 34.5204C74.2091 35.0549 71.0398 35.4835 67.9341 36.184C64.9003 36.8687 61.8453 37.6196 58.9589 38.7445C56.2408 39.8035 53.793 41.4554 52.5885 44.7279C55.0715 42.9343 57.3278 41.3065 59.5828 39.6761C59.6792 39.8011 59.7756 39.926 59.8738 40.0517C58.6004 41.0477 57.2393 41.9528 56.0712 43.062C54.357 44.6901 52.7804 46.4613 51.1466 48.1709C51.0592 48.2377 50.9699 48.3037 51.0754 48.2243C51.0266 48.3498 51.0724 48.2319 51.1189 48.1121C51.9597 47.4164 52.835 46.7561 53.6389 46.0198C56.9723 42.9631 60.4973 40.193 64.7607 38.5063L64.7399 38.4413C64.6138 38.6528 64.536 38.9268 64.3552 39.0645C60.7507 41.7906 57.1347 44.5012 53.5198 47.2145C53.5056 47.3075 53.4907 47.4023 53.4982 47.3549C53.4868 47.3899 53.5187 47.2907 53.5487 47.1907C54.1322 46.9598 54.7541 46.7942 55.2946 46.4875C57.143 45.4411 58.9253 44.2706 60.8087 43.2925C61.9933 42.6778 63.3146 42.3219 64.5742 41.8479C64.6447 42 64.7151 42.1521 64.7868 42.3068C60.2094 44.3839 55.7208 46.5939 52.0171 50.4916C56.0446 48.6323 59.8896 47.0566 63.5371 45.1132C67.1381 43.1934 70.5367 40.9017 74.4097 38.5359C71.3721 41.5827 65.8394 45.1819 61.3117 47.2213C60.4255 47.6214 59.5972 48.149 58.7414 48.6178C58.5687 48.6952 58.396 48.7726 58.2232 48.8499L58.2224 48.8409ZM19.988 109.646L20.3387 110.196C20.4842 110.839 20.629 111.484 20.7745 112.127C20.8432 112.764 20.8452 113.415 20.9912 114.034C21.6653 116.928 22.3932 119.809 23.0674 122.703C23.2078 123.303 23.1997 123.934 23.2602 124.553L22.7387 124.652C22.3145 123.105 21.8823 121.56 21.4698 120.01C20.8443 117.658 20.2332 115.302 19.6149 112.948C19.5706 112.887 19.5281 112.827 19.5281 112.827C19.5338 112.829 19.6061 112.875 19.6773 112.918C19.683 113.559 19.617 114.21 19.7061 114.839C19.9563 116.615 20.2846 118.382 20.5438 120.157C20.5903 120.472 20.4536 120.813 20.4011 121.141C20.23 121.157 20.0607 121.175 19.8896 121.192C19.1753 117.699 18.4622 114.21 17.7479 110.718C17.5423 110.739 17.3366 110.759 17.1291 110.779C17.1256 111.654 16.9811 112.552 17.1411 113.395C17.6854 116.268 18.3507 119.117 18.9348 121.983C19.0393 122.494 18.9862 123.038 19.0077 123.565C18.8427 123.589 18.6778 123.612 18.5128 123.636C17.6668 122.213 17.4682 120.565 17.1127 118.976C16.7539 117.372 16.4429 115.759 16.0219 113.722C15.4654 114.596 15.163 115.07 14.9894 115.341C15.318 117.333 15.6025 119.055 15.887 120.776C15.6948 120.813 15.5019 120.852 15.3098 120.889C14.9684 119.41 14.6262 117.934 14.2848 116.455C14.0947 116.476 13.9058 116.499 13.7157 116.519C13.7553 117.604 13.7949 118.69 13.8344 119.776C13.7544 119.784 13.6743 119.792 13.5954 119.803C13.3217 119.106 13.0472 118.411 12.7719 117.706C11.0005 118.266 12.8221 119.776 11.6258 120.772C11.4968 119.973 11.3951 119.347 11.2618 118.532C10.6077 119.046 10.3103 119.281 10.0513 119.484C10.9423 123.058 17.74 132.972 21.5684 136.336C21.4971 135.264 21.4288 134.224 21.3605 133.184C21.4528 133.19 21.5433 133.194 21.6357 133.199C22.0339 134.096 22.4315 134.994 22.8317 135.891C22.7726 136.004 22.7134 136.117 22.7689 136.014C22.7621 136.156 22.7672 136.035 22.7731 135.912C22.8705 134.751 22.9687 133.588 23.0662 132.426C23.1261 132.419 23.1842 132.411 23.2441 132.403C23.3742 133.572 23.5063 134.742 23.6364 135.911L23.9543 135.9C24.3137 134.799 24.6744 133.7 25.0339 132.599C25.1789 132.627 25.3228 132.652 25.4678 132.68C25.2614 133.885 25.0532 135.088 24.7759 136.707C27.3178 134.14 29.3397 131.776 29.6618 128.498C30.1172 123.864 30.0328 119.236 28.8933 114.679C28.7409 114.07 28.5079 113.483 28.3136 112.887C28.1961 112.907 28.0766 112.926 27.9591 112.946C27.9709 113.458 27.9854 113.97 28.0098 114.925C27.5178 114.27 27.2942 113.975 27.0713 113.678C27.0653 113.654 27.0574 113.629 27.0514 113.605C27.0671 113.644 27.0839 113.685 27.0995 113.724C26.9179 113.892 26.7337 114.062 26.5048 114.272C25.5147 113.317 25.7933 111.644 24.278 110.583C24.8884 112.912 25.4127 114.75 25.8473 116.611C26.2796 118.466 26.7378 120.333 26.3209 122.272C25.8662 121.295 25.6751 120.277 25.4473 119.27C24.8344 116.557 24.2394 113.837 23.5538 111.142C23.4032 110.552 22.9143 110.047 22.5789 109.503C22.4187 109.576 22.2603 109.651 22.1008 109.722C23.2316 114.884 24.8462 119.964 25.2543 125.246C25.0451 125.287 24.837 125.331 24.6278 125.373C23.6688 120.956 22.7097 116.539 21.7463 112.106C21.2409 112.124 20.9827 112.133 20.7264 112.143C20.5745 111.5 20.4218 110.858 20.2698 110.215C20.1515 110.033 20.0333 109.852 19.9169 109.671L19.9164 109.559L19.9868 109.643L19.988 109.646ZM51.3397 55.6802C51.1507 55.7316 50.9598 55.7823 50.7709 55.8337L50.6797 55.8311L50.745 55.7645C50.9328 55.7105 51.1214 55.6546 51.3111 55.6013L51.8641 55.3586C52.572 55.7515 52.0345 55.9543 51.7197 56.1035C50.1868 56.8237 48.61 57.459 47.1115 58.243C46.4733 58.5752 45.9877 59.1986 45.4333 59.6881C45.4024 59.7111 45.3715 59.7341 45.3406 59.7572C45.3633 59.7156 45.386 59.6741 45.4068 59.6318C45.8828 59.4687 46.3767 59.3387 46.8352 59.1359C49.7508 57.845 52.6536 56.5251 55.5774 55.2528C55.9365 55.0968 56.3946 55.1608 56.807 55.1217C55.9924 55.8406 55.1013 56.2476 54.1812 56.582C50.4016 57.9554 46.906 59.8637 43.6226 62.1585C42.9996 62.5929 42.5294 63.2442 41.9883 63.7957C42.0944 63.9069 42.2012 64.0163 42.3054 64.1267C47.1515 61.0576 52.2361 58.5166 57.7987 57.0343C55.9652 58.1215 54.0154 58.96 52.053 59.7629C48.267 61.3112 44.8057 63.3969 41.5989 65.9184C40.7969 66.5481 40.2309 67.2541 40.3936 68.2146C44.6127 65.7205 48.7171 63.1316 52.9716 60.8177C59.7228 57.1443 64.4229 55.3447 66.4724 55.6632C65.9396 56.0517 65.2571 56.091 64.6501 56.3258C56.0822 59.6069 48.1596 64.0532 40.7581 69.4526C39.7269 70.2034 39.0631 71.0312 39.1643 72.5915C40.6764 71.4386 41.9992 70.372 43.3841 69.3886C44.7931 68.3883 46.2314 67.4257 47.7088 66.5263C49.1835 65.6281 50.7115 64.8075 52.2354 63.9919C53.7612 63.177 55.3037 62.3927 56.8532 61.6242C58.3211 60.8962 59.7594 60.0693 61.4569 59.8922C53.6314 63.9582 45.7324 67.8404 39.4017 74.1456C44.1689 71.4551 48.6646 68.2936 53.7386 66.1643C51.6475 67.7117 49.4382 69.0601 47.2448 70.43C45.094 71.7748 42.9595 73.1456 40.8191 74.5032C40.9394 74.6966 41.0578 74.8892 41.1781 75.0825C43.6146 73.6407 46.0511 72.1988 48.4868 70.7589C48.5857 70.9001 48.6826 71.0406 48.7814 71.1819C48.2211 71.5793 47.6534 71.9673 47.1022 72.3749C45.8455 73.3052 44.598 74.2456 43.3463 75.1801C43.1552 75.2481 42.963 75.3136 42.7719 75.3817L42.6902 75.3718L42.7423 75.3111C42.9338 75.2475 43.1279 75.1828 43.3194 75.1193C43.5135 75.083 43.7232 75.0856 43.8974 75.0044C52.77 70.8875 61.5807 66.6414 69.5683 60.9422C74.5383 57.3959 79.3659 53.6565 84.2514 49.9942C84.3286 49.9367 84.3213 49.7631 84.4018 49.4596C83.6847 49.3278 82.9879 49.1098 82.2849 49.0886C79.1607 48.9941 76.035 48.9319 72.9089 48.9045C68.857 48.8701 64.9843 49.7369 61.2494 51.2721C58.5437 52.384 55.8123 53.4378 53.1108 54.5557C52.6662 54.7398 52.3039 55.1245 51.9027 55.4173C51.7179 55.5032 51.5331 55.589 51.3484 55.6748L51.3397 55.6802ZM71.8136 63.5099L71.7337 63.5687L71.7958 63.5162C71.8396 63.5222 71.8852 63.529 71.929 63.535C71.8905 63.5267 71.8521 63.5183 71.8136 63.5099ZM16.3169 90.3103C16.4104 90.4823 16.5046 90.6524 16.5981 90.8243C16.7536 91.8826 16.9083 92.9429 17.0638 94.0012L17.1171 93.9825C16.4693 92.6827 15.8196 91.3822 15.1651 90.0711C15.0145 90.1877 14.8719 90.244 14.829 90.3433C14.6941 90.6455 14.5711 90.9567 14.4885 91.2769C13.5887 94.7597 14.2846 97.9996 16.0991 101.033C17.6011 103.542 19.75 105.442 22.2137 106.96C26.1057 109.358 30.0461 111.675 34.0789 114.094C35.1075 112.541 36.2489 110.918 37.2688 109.224C37.6297 108.622 37.8258 107.852 37.8725 107.143C38.2837 101.046 36.1275 96.1055 31.0873 92.4988L30.7955 92.3855L30.8006 92.3721L31.1383 92.5032C31.4777 93.099 31.7535 93.74 32.1675 94.2793C33.6798 96.2473 35.1407 98.2348 35.8887 100.639C35.323 99.9929 34.9252 99.2366 34.3982 98.5812C33.2047 97.0981 31.9472 95.6667 30.718 94.2134L29.9511 93.9048L27.4292 91.6762C29.4688 94.361 31.6415 96.8896 32.3542 100.267C31.721 99.6648 31.3467 98.9045 30.8652 98.2164C30.2402 97.3216 29.5322 96.4822 28.8597 95.6192L27.9839 94.5221C27.9765 94.5017 27.9709 94.482 27.9635 94.4616C28.0204 94.7616 28.0754 95.0609 28.1324 95.361C27.5008 94.7262 26.8711 94.0922 26.2394 93.4575C28.5304 97.9885 30.996 102.375 33.0594 106.977C32.6153 106.731 32.3308 106.395 32.1169 106.018C31.0292 104.11 29.9954 102.17 28.8737 100.282C27.483 97.9386 26.065 95.6089 24.5735 93.3273C23.9493 92.3737 23.0724 91.6131 21.7577 91.477C24.2093 94.3502 26.1461 97.4525 26.8884 101.172C25.9614 99.6021 25.202 97.9395 24.286 96.3693C23.3382 94.7452 22.3286 93.1277 20.5618 91.9735C21.5717 94.4271 22.5105 96.7021 23.4485 98.979C23.3064 99.0398 23.1623 99.0998 23.0202 99.1607C21.5053 95.8479 20.1096 92.4654 17.7707 89.6469L17.3601 89.8508C17.8142 91.0447 18.2663 92.2379 18.7196 93.4337C18.6257 93.4607 18.5311 93.4897 18.4372 93.5167C17.808 92.6268 17.1777 91.7343 16.5485 90.8445L16.2435 90.3409L16.2482 90.2442L16.3157 90.3077L16.3169 90.3103ZM1.80865 43.6636C1.69991 43.4857 1.59044 43.3097 1.4817 43.1318C1.52611 42.8252 1.57052 42.5185 1.61302 42.2111L1.26637 41.6848C1.39497 41.5005 1.52356 41.3163 1.66114 41.1202C1.90286 41.3344 2.04445 41.4616 2.18796 41.5895L2.24218 41.7156L2.12446 41.6174C1.98755 40.5904 1.90104 39.5523 1.70273 38.5364C1.3298 36.619 0.893977 34.7165 0.485045 32.807L0.438156 32.826C0.676314 33.2642 0.989422 33.679 1.1375 34.1457C1.73287 36.016 2.27638 37.9012 2.83883 39.7828C2.89938 39.8304 2.95994 39.878 2.97987 39.8945L2.77385 39.8145C2.79868 39.1172 2.94897 38.3965 2.82556 37.7249C2.2306 34.4738 1.54353 31.2394 0.925064 27.9924C0.508061 25.8039 0.145267 23.6059 -0.242942 21.4112L-0.296291 21.4298C0.00710424 22.1298 0.430988 22.802 0.591139 23.5317C1.74954 28.8202 2.84315 34.1229 3.98716 39.4145C4.11543 40.0114 4.43014 40.5691 4.65919 41.1438C4.63872 41.451 4.61708 41.7556 4.5966 42.0628L4.59452 42.1473L4.55015 42.0863C4.56988 41.781 4.59227 41.4746 4.612 41.1693C4.163 36.7449 3.71401 32.3206 3.26501 27.8962C3.44555 27.8722 3.62418 27.8474 3.80472 27.8234C4.17478 30.1949 4.54294 32.5658 4.91301 34.9373C5.59641 32.7471 6.0506 30.6102 6.45077 28.4654C6.55786 27.8898 6.53962 27.2809 6.50107 26.6904C6.22949 22.4706 4.65175 18.7373 1.61263 15.8395C-1.70144 12.6775 -5.29443 9.80985 -8.78232 6.82981C-9.15511 6.5122 -9.61859 6.30383 -10.0665 6.02709C-10.556 8.8769 -11.0624 11.5385 -11.4588 14.2165C-11.7589 16.2448 -12.1888 18.3079 -12.0628 20.3243C-11.9543 22.0407 -11.3986 23.8605 -10.56 25.3701C-9.50618 27.2695 -7.98572 28.9168 -6.61343 30.6291C-6.3341 30.9783 -5.81309 31.1346 -5.40388 31.381L-5.44621 31.3996C-4.42072 33.1458 -3.39449 34.8901 -2.369 36.6363C-2.33975 35.8598 -2.58155 35.1991 -2.75708 34.5204C-2.99613 33.5981 -3.18139 32.6617 -3.39164 31.7332L-3.43853 31.7522C-2.91674 32.6529 -2.39685 33.5528 -1.8758 34.4554C-1.77746 34.6205 -1.67912 34.7856 -1.57961 34.9534C-1.54002 35.4677 -1.50042 35.9821 -1.46009 36.4945C-1.43529 36.5041 -1.40859 36.5145 -1.38305 36.5222C-1.41911 36.4907 -1.45708 36.4585 -1.49387 36.4289C-1.54338 35.9457 -1.5917 35.4652 -1.6412 34.982L-1.92416 34.4782C-2.0725 33.5824 -2.14283 32.6666 -2.38168 31.7948C-3.61315 27.3052 -4.89649 22.8305 -6.14044 18.3448C-6.32102 17.6904 -6.37816 17.0008 -6.49246 16.3283C-5.92811 16.8253 -5.69253 17.372 -5.53233 17.9375C-3.51936 25.1072 -1.52154 32.2819 0.496715 39.4492C0.708798 40.2034 1.04549 40.925 1.32575 41.6619C1.4436 41.8389 1.56144 42.016 1.67929 42.1931C1.63488 42.4997 1.59121 42.8045 1.5468 43.1111C1.65172 43.2875 1.754 43.4651 1.85892 43.6415C1.93862 43.8038 2.01948 43.9687 2.09918 44.1309C2.10577 44.3458 2.11237 44.5606 2.11823 44.7774C2.21625 44.7454 2.31427 44.7134 2.41229 44.6814C2.2918 44.5055 2.17204 44.3277 2.05155 44.1518C1.96921 43.9908 1.88496 43.8289 1.80336 43.6659L1.80865 43.6636ZM-16.7846 40.7375C-16.8492 40.5307 -16.9157 40.3233 -16.9803 40.1165C-17.3454 39.5699 -17.7086 39.0241 -18.0737 38.4775C-18.2651 37.8451 -18.4564 37.2128 -18.6478 36.5804L-18.7148 36.6004C-18.022 37.2019 -17.3273 37.8043 -16.6345 38.4059C-16.6684 38.4365 -16.7041 38.4664 -16.738 38.497C-16.6955 38.4894 -16.655 38.4811 -16.6125 38.4735C-18.3059 35.1286 -19.9986 31.7819 -21.692 28.4371C-21.2627 28.6431 -20.9701 28.958 -20.7685 29.3208C-19.3469 31.8729 -17.952 34.4432 -16.5251 36.993C-16.2184 37.5432 -15.8121 38.0401 -15.4522 38.5606C-15.4565 38.6509 -15.4608 38.7411 -15.4584 38.718C-15.4505 38.7429 -15.4784 38.6621 -15.5082 38.5805C-15.7015 37.6366 -15.8502 36.6794 -16.0966 35.7478C-16.5588 33.9926 -17.0775 32.2527 -17.5739 30.5062C-17.3615 30.5471 -17.1483 30.5861 -16.7581 30.6609C-16.9847 30.2775 -17.1279 30.0359 -17.2704 29.7924C-16.9643 28.5062 -17.3891 27.3783 -18.3228 26.5716C-19.6235 25.4496 -21.0107 24.4033 -22.4629 23.485C-26.1708 21.1396 -29.9321 18.8807 -33.6792 16.5966C-34.425 16.143 -35.1928 15.7289 -35.9513 15.2966C-36.0781 15.4028 -36.2061 15.5063 -36.3329 15.6124C-34.7181 22.1679 -33.1044 28.7208 -31.4777 35.3247C-29.4001 36.4923 -27.2972 37.6741 -25.1924 38.8567C-25.2562 38.3198 -25.5053 38.0284 -25.7136 37.7111C-25.8952 37.4327 -26.032 37.1235 -26.2696 36.6724C-25.8999 36.7831 -25.7734 36.8191 -25.6476 36.857C-24.3425 38.4031 -23.0209 39.9295 -21.0573 40.6895C-21.0934 40.8222 -21.1283 40.9574 -21.0744 40.7507C-20.918 40.8509 -21.0197 40.7851 -21.1204 40.722C-22.4521 39.2048 -23.7625 37.661 -25.7198 36.8902C-26.2658 36.1311 -26.8118 35.3721 -27.3579 34.613C-27.3246 34.5668 -27.2913 34.5206 -27.2554 34.4733C-25.3925 36.0018 -23.5288 37.5285 -21.6659 39.057C-21.5938 38.9843 -21.5236 38.9109 -21.4515 38.8382C-23.4956 36.5325 -25.5385 34.2294 -27.5826 31.9236C-27.4618 31.8217 -27.3437 31.7209 -27.2229 31.619C-24.3522 34.6395 -21.4815 37.6601 -18.6134 40.6819C-18.7672 39.7096 -19.1674 38.948 -19.6682 38.259C-23.0937 33.5239 -26.5468 28.8088 -29.9724 24.0737C-30.3826 23.5074 -30.6895 22.8674 -31.0446 22.2612L-31.0964 22.287C-30.7835 22.5157 -30.4051 22.6889 -30.169 22.9797C-27.2444 26.5968 -24.3259 30.218 -21.4417 33.8654C-20.2592 35.3596 -19.1613 36.9194 -18.0239 38.4508C-17.6554 38.9944 -17.2888 39.5372 -16.9203 40.0807C-16.8545 40.2901 -16.788 40.4976 -16.7222 40.7069C-16.6431 40.8821 -16.5633 41.0553 -16.4861 41.2297L-16.4625 41.344L-16.5432 41.2579C-16.623 41.0847 -16.704 40.9088 -16.7838 40.7356L-16.7846 40.7375ZM-1.42656 59.9026C-1.55087 59.7252 -1.67591 59.5497 -1.79831 59.3731C-1.77317 58.8051 -1.63432 58.2156 -1.7392 57.6715C-2.78581 52.2929 -4.54472 47.1434 -6.82326 42.162C-7.29762 41.1222 -7.78256 40.087 -8.26221 39.0495C-8.13361 39.0009 -8.00691 38.9516 -7.87831 38.903C-3.8186 45.239 -1.51865 52.2574 0.0021106 59.6037C0.228721 56.8882 -0.619715 54.3353 -1.08843 51.7372C-0.942967 51.7018 -0.800147 51.6675 -0.654684 51.6321C-0.233229 53.0344 0.187492 54.4386 0.67529 56.0658C1.75865 53.6369 1.81971 51.5684 0.921628 49.2961C-1.36096 43.5165 -4.0245 37.9436 -7.53207 32.809C-9.25497 30.2865 -11.1871 27.9016 -13.1293 25.5369C-13.851 24.6593 -14.727 23.7831 -16.2132 23.6876C-16.1623 24.2633 -16.2159 24.7349 -16.0705 25.1349C-15.2772 27.3097 -14.917 29.5483 -14.6689 31.844C-14.4208 34.1507 -13.866 36.4254 -13.4153 38.7079C-11.7425 47.2118 -8.71838 55.192 -4.03779 62.524C-3.48524 63.3907 -2.86857 64.2166 -2.2813 65.0617C-2.15824 64.9935 -2.03518 64.9253 -1.91285 64.859C-2.40685 63.5926 -2.95536 62.3424 -3.38161 61.0542C-3.83107 59.6957 -4.16281 58.2998 -4.54716 56.9207L-4.6042 56.9489C-3.66047 58.8887 -2.71866 60.8279 -1.77494 62.7678L-1.50958 63.3282L-1.48484 63.4341L-1.57074 63.3613C-1.65948 63.1715 -1.74896 62.9836 -1.8377 62.7937C-1.90617 62.1106 -1.88411 61.4035 -2.06278 60.7499C-2.84219 57.9174 -3.68184 55.0987 -4.4999 52.2753L-4.54605 52.2924C-4.27232 52.7861 -3.93275 53.2571 -3.73618 53.7799C-3.03928 55.6261 -2.39191 57.4925 -1.72411 59.3516L-1.35426 59.8803L-1.35789 59.9971L-1.42349 59.906L-1.42656 59.9026ZM77.7939 63.6999C78.0898 63.6725 78.3858 63.6451 78.6806 63.6151C78.9827 63.5946 79.2875 63.5728 79.5896 63.5522C79.8786 63.509 80.1668 63.4677 80.4539 63.4237C80.755 63.4115 81.0572 63.4019 81.3583 63.3897C81.6492 63.3472 81.9427 63.3036 82.2336 63.2611C83.484 63.3591 84.7325 63.4564 85.9829 63.5545C85.9827 63.6682 85.9836 63.7845 85.9834 63.8983C83.6553 64.2748 81.3273 64.6513 78.9992 65.0279C78.3956 65.0561 77.7908 65.0818 77.1871 65.1101C77.0257 65.2488 76.867 65.3863 76.7056 65.525C76.3902 65.512 76.0721 65.5001 75.7567 65.4871C75.4544 65.4967 75.1522 65.5063 74.8499 65.5159C74.5851 65.5816 74.3204 65.6473 74.0568 65.7157C73.7104 65.6579 73.3653 65.6027 73.019 65.5448C72.3149 65.7924 71.61 66.0418 70.9059 66.2893C70.6084 66.2811 70.3101 66.2747 70.0126 66.2664L69.891 66.2236L69.9667 66.2377C70.2706 66.2353 70.5725 66.2321 70.8764 66.2297C71.584 65.9901 72.289 65.7517 72.9966 65.5121C73.3409 65.5582 73.6859 65.6024 74.0302 65.6485C74.2942 65.5847 74.5583 65.5208 74.8242 65.4578C75.1272 65.4463 75.4302 65.4347 75.7332 65.4232C76.0493 65.4344 76.3643 65.4428 76.6805 65.454C76.8407 65.3126 76.9983 65.1725 77.1585 65.0311C77.7664 65.0089 78.3724 64.9859 78.9803 64.9636C80.7231 65.0033 82.4659 65.043 84.2088 65.0827C84.2229 65.2217 84.2362 65.3626 84.2522 65.5023C80.9674 65.8838 77.6818 66.2672 74.3989 66.6495C76.9448 67.8151 79.4529 66.4208 82.0244 67.0907C81.0504 67.3211 80.0757 67.5532 79.0066 67.8079C80.4838 69.2217 82.0195 67.4653 83.5561 68.1493C83.0736 68.4763 82.7256 68.7111 82.3769 68.9477C83.1633 69.3931 83.9887 69.6982 84.6415 69.4811C88.6333 68.155 91.3871 65.2737 94.3157 61.7272C89.894 61.0678 85.9791 60.4431 82.0472 59.9301C81.3096 59.8341 80.5158 60.1825 79.7493 60.3249C77.5265 59.8253 75.3528 59.7081 73.3833 61.1626C75.4921 60.8761 77.6016 60.5876 79.7103 60.301C79.8648 60.3216 80.0173 60.3414 80.171 60.3638C79.2281 60.8929 78.2188 61.0614 77.2365 61.33C76.1899 61.6175 75.1697 62.0005 74.14 62.3405L74.0253 62.2741L74.0944 62.3053C74.5807 62.4547 75.0659 62.6015 75.5523 62.7509C75.3633 62.8701 75.1744 62.9894 74.9847 63.1105C74.7449 63.1684 74.507 63.2271 74.2672 63.285C73.9042 63.2251 73.5411 63.1651 73.178 63.1051C73.1906 63.1406 73.2032 63.1762 73.2176 63.2124C73.2243 63.1669 73.231 63.1213 73.2385 63.0739C73.5666 63.1334 73.8947 63.1929 74.2235 63.2505C74.4708 63.1846 74.7188 63.1167 74.9662 63.0508L75.5433 62.6949C76.245 62.7025 76.9514 62.76 77.6501 62.7074C80.353 62.4961 83.0543 62.2381 85.7572 62.0268C86.0582 62.0036 86.373 62.1652 86.6834 62.2419C86.6695 62.3175 86.6574 62.3938 86.6442 62.4674C85.1857 62.7526 83.7265 63.0397 82.2681 63.3248C81.9772 63.3673 81.6856 63.4117 81.3928 63.4534L80.4884 63.4875C80.2021 63.5295 79.915 63.5735 79.6287 63.6155C79.3247 63.6354 79.018 63.6564 78.714 63.6762C78.418 63.7036 78.1232 63.7336 77.8272 63.761C77.4955 63.7219 77.1639 63.6829 76.8329 63.642C76.5242 63.6513 76.2181 63.6594 75.9094 63.6687C75.5025 63.8915 75.0955 64.1143 74.6866 64.3363C74.3624 64.2893 74.0402 64.243 73.716 64.1959L73.6143 64.2659L73.6899 64.1333C74.0114 64.1815 74.3329 64.2297 74.6537 64.2798C75.0642 64.0649 75.4747 63.85 75.8844 63.637C76.1927 63.6232 76.4998 63.6068 76.8081 63.5929C77.1393 63.6274 77.4698 63.6638 77.7991 63.6975L77.7939 63.6999ZM-7.62483 60.3874C-7.646 60.3967 -7.66791 60.4079 -7.69098 60.4165C-7.9151 60.2135 -8.13805 60.0131 -8.36216 59.8101C-8.92931 58.8962 -9.49645 57.9823 -10.0609 57.0672C-10.7952 55.8827 -11.5288 54.6963 -12.2623 53.5099L-12.3088 53.5334C-11.3901 54.4634 -10.4733 55.3927 -9.55463 56.3227C-9.50687 56.3807 -9.45795 56.4412 -9.46644 56.4292C-9.45881 56.4321 -9.53407 56.3942 -9.60859 56.3543C-10.1211 54.9604 -10.7347 53.5951 -11.1227 52.1687C-11.7203 49.9648 -13.1404 48.455 -14.9888 47.3019C-18.6019 45.0458 -22.3461 42.9861 -25.868 40.5969C-31.295 36.9123 -37.4911 35.6275 -43.9369 34.3749C-42.5687 38.5236 -41.6288 42.7183 -38.961 46.2729C-36.0966 50.0899 -32.76 53.392 -28.8967 56.1851C-28.0446 56.8004 -27.2617 57.5092 -26.3316 58.2685C-23.0599 59.0856 -19.6358 59.9399 -16.2098 60.7949C-18.9513 59.2339 -22.2525 58.8716 -24.5593 56.4397L-18.808 58.6724L-18.6853 58.3961C-20.9785 57.0485 -23.2742 55.7021 -25.5674 54.3545L-25.366 54.0169C-21.7164 56.0092 -18.0661 57.9997 -14.4184 59.9912C-14.3478 59.883 -14.2761 59.7773 -14.2055 59.669C-17.5471 57.0587 -20.8398 54.3842 -24.2451 51.8587C-27.6829 49.3095 -31.2315 46.9099 -34.7322 44.4436C-26.0025 48.7297 -18.829 55.283 -10.779 60.5965C-15.2887 56.3072 -19.7975 52.016 -24.309 47.726C-24.1919 47.6052 -24.0747 47.4843 -23.9576 47.3635C-21.2147 49.8595 -18.4861 52.3697 -15.7267 54.8459C-13.7486 56.6205 -11.7315 58.3512 -9.73355 60.1028C-9.64641 60.2176 -9.55928 60.3324 -9.67878 60.1766C-9.49565 60.2477 -9.64254 60.1907 -9.78751 60.1344C-10.1364 59.546 -10.4261 58.9126 -10.8454 58.3756C-12.3331 56.4741 -13.8651 54.6078 -15.3802 52.7263C-15.2685 52.6252 -15.1557 52.5267 -15.044 52.4257C-14.6256 52.8857 -14.2071 53.3458 -13.786 53.8047C-11.9601 55.796 -10.136 57.7866 -8.30937 59.7759C-8.08261 59.9778 -7.85584 60.1796 -7.62908 60.3814L-7.62483 60.3874ZM45.5715 78.2915C45.2882 78.2975 45.0049 78.3035 44.7216 78.3095C44.3775 78.246 44.0315 78.1817 43.6867 78.12C43.2558 78.2745 42.8248 78.4289 42.3947 78.5814L42.3209 78.6075L42.3812 78.5368C42.8088 78.3855 43.2382 78.2348 43.6665 78.0816L44.6943 78.2442C44.9898 78.2407 45.286 78.2353 45.5815 78.2319L45.604 78.1399L45.5723 78.2896L45.5715 78.2915ZM53.4711 79.8305C53.7917 79.898 54.113 79.9637 54.4355 80.032C56.0942 79.9493 57.7553 79.7866 59.4132 79.802C64.6503 79.8479 69.8163 80.4505 74.5929 82.7512C76.2757 83.562 77.908 83.7733 79.6085 83.3961C81.2219 83.0398 82.829 82.53 84.3387 81.8642C87.8814 80.2981 91.4652 78.9034 95.3128 78.2764C95.5726 78.235 95.8022 78.0111 96.1562 77.8115C95.561 77.4054 95.1394 77.0776 94.6792 76.8158C93.811 76.3212 92.9167 75.8712 92.0399 75.3929C83.6346 70.8082 74.8819 67.4126 65.1154 67.4314C64.1335 67.4333 63.1452 67.2707 62.335 68.4246C63.3284 68.4273 64.158 68.4276 65.0069 68.4289C65.1616 68.7428 65.3077 69.0337 65.4512 69.3257L64.3857 69.085C64.0773 69.0878 63.7689 69.0907 63.4624 69.0942C63.0659 69.3408 62.6683 69.5848 62.2718 69.8314C61.9368 69.7954 61.6044 69.7583 61.2693 69.7223C60.8356 69.6634 60.4012 69.6064 59.9675 69.5474C59.9715 69.6956 59.9735 69.843 59.9774 69.9912L61.2477 69.6592C61.5829 69.7062 61.9181 69.7531 62.2533 69.8001C62.6425 69.5551 63.0344 69.3089 63.4256 69.0646C63.7373 69.0587 64.0472 69.0521 64.359 69.0462C64.7135 69.1225 65.0661 69.1981 65.4214 69.2726C66.9102 69.1524 68.3902 68.7268 69.8871 68.8855C69.9061 69.057 69.9251 69.2285 69.9423 69.3993C68.544 69.6028 67.1439 69.8056 65.7457 70.0091C65.7459 69.9916 65.7449 69.9716 65.7451 69.9541C66.4403 70.0686 67.1349 70.2529 67.8342 70.2836C69.7872 70.3699 71.7425 70.3936 73.6993 70.442C73.7058 70.6458 73.7142 70.8504 73.7206 71.0543C66.3435 70.7817 59.1606 71.8013 51.7398 73.79C57.0535 73.6555 61.9678 73.4644 66.8853 73.4234C71.832 73.3806 76.7773 73.5168 81.6197 74.7094C70.4266 73.8571 59.2473 73.0934 48.174 75.7039C52.2771 75.9004 56.3756 75.0512 60.488 75.8401C56.8696 76.2497 53.2302 76.3798 49.633 76.848C49.6496 77.1105 49.6643 77.3723 49.681 77.6348C56.3834 76.9933 63.0883 76.3965 69.8129 76.9082C69.1077 77.0962 68.3961 77.1198 67.6836 77.1233C60.5416 77.1609 53.4458 77.7525 46.4031 78.9031C45.7915 79.0028 45.2122 79.3075 44.6182 79.5146C44.465 79.4683 44.3117 79.4219 44.5294 79.4889C44.3228 79.5575 44.4616 79.5107 44.6024 79.4647C45.0514 79.5296 45.5059 79.6819 45.9453 79.6468C48.5997 79.4363 51.2504 79.1785 53.9022 78.9517C54.3087 78.9169 54.724 78.9666 55.2351 78.9789C54.8951 79.4532 54.6752 79.7595 54.456 80.064C54.1203 80.0015 53.7872 79.9379 53.4515 79.8754L53.3747 79.9375L53.4739 79.8403L53.4711 79.8305ZM7.75892 46.2886L7.67308 46.2553L7.81351 46.312C7.76731 46.6289 7.72037 46.9477 7.67418 47.2646C7.71086 47.3511 7.74754 47.4375 7.76434 47.4791C7.73812 47.4448 7.68409 47.3691 7.63006 47.2935C7.67262 46.9576 7.7171 46.6226 7.75892 46.2886ZM62.6079 70.73L61.6226 70.5313C61.2217 70.7609 60.8209 70.9905 60.4194 71.222C60.0734 71.1577 59.7293 71.0941 59.3833 71.0299C58.9561 71.2142 58.5282 71.4004 58.101 71.5848C57.5358 71.1465 57.0485 71.1806 56.6614 71.8159C56.5768 71.7963 56.4915 71.7785 56.4896 71.7777C56.4851 71.7781 56.5628 71.7645 56.6378 71.7521C57.1179 71.6802 57.5968 71.6057 58.0769 71.5338L59.358 70.9763C59.7002 71.0391 60.045 71.1007 60.3872 71.1635C60.79 70.9457 61.1929 70.7278 61.5957 70.51C61.9318 70.566 62.269 70.6247 62.605 70.6807L62.663 70.6332L62.6052 70.7312L62.6079 70.73ZM72.2628 64.6713C71.9527 64.6275 71.6407 64.583 71.3314 64.5374C71.3137 64.5546 71.2968 64.5699 71.2791 64.5871C71.318 64.5606 71.3541 64.5353 71.393 64.5087C71.6961 64.5477 72.0012 64.5873 72.3044 64.6262L72.3429 64.5383L72.2647 64.6721L72.2628 64.6713ZM64.4331 70.631C64.3214 70.5964 64.2116 70.5625 64.13 70.5352C64.2061 70.5428 64.3129 70.5559 64.4198 70.5689C64.4246 70.5905 64.4302 70.6102 64.4331 70.631ZM48.5332 89.0618C48.1391 89.0817 47.7444 89.1036 47.3503 89.1235C47.2145 89.1058 47.0775 89.0854 47.2061 89.1047C47.084 89.1536 47.2061 89.1047 47.3256 89.057C47.722 89.0424 48.1172 89.0251 48.5136 89.0105C48.9596 89.0829 49.4049 89.1573 49.8509 89.2297C52.6277 89.371 55.4048 89.6415 58.1798 89.6289C63.7592 89.6019 69.3363 89.4165 74.9155 89.3106C75.4244 89.3003 75.9362 89.3786 76.4467 89.4148C76.4401 89.5676 76.4323 89.7178 76.4257 89.8706C75.7204 89.9514 75.0194 90.0666 74.3122 90.1072C65.0155 90.6346 55.7201 90.4577 46.4252 90.025C45.3364 89.9743 44.2397 90.0738 43.1484 90.1032C42.9029 90.0232 42.66 89.9421 42.4144 89.8621C42.4047 89.9436 42.3958 90.0233 42.386 90.1049C42.6305 90.086 42.8775 90.0659 43.1219 90.047C45.9576 90.3927 48.7865 90.9087 51.6331 91.0509C56.9544 91.3154 62.2861 91.3608 67.6129 91.5094C68.2577 91.5277 68.9007 91.6131 69.5444 91.6682C69.5225 91.8545 69.5014 92.0389 69.4777 92.2245C56.9048 92.9813 44.4621 91.4689 32.0152 89.7863C41.9519 92.5013 52.2221 93.1638 62.3253 94.8732C53.386 94.2765 44.5222 93.0613 35.6426 91.932C36.9626 92.4444 38.2967 92.8529 39.6569 93.1205C45.2127 94.2114 50.7782 95.0457 56.4707 95.2814C61.8226 95.501 67.1001 95.3524 72.3958 94.6594C75.9592 94.1935 78.7166 92.4451 81.1639 89.7316C78.6319 87.3086 75.8652 85.2979 72.6813 83.8759C68.7097 82.1022 64.4888 81.3894 60.2036 81.5205C55.0436 81.6774 49.8956 82.1936 44.7439 82.5551C44.6012 82.5325 44.4566 82.5092 44.6031 82.5333C44.4604 82.5786 44.5907 82.5372 44.7216 82.4939L45.2805 83.1179C45.2256 83.2367 45.17 83.3574 45.1151 83.4761C41.8988 83.127 38.6844 82.7787 35.4171 82.4251C35.1655 82.8133 34.9355 83.1683 34.604 83.683C38.4259 84.1118 42.0037 84.5137 45.5841 84.9144C45.5698 85.0642 45.5548 85.216 45.5425 85.3666C44.6939 85.3304 43.8403 85.3295 42.9965 85.2471C40.4126 84.999 37.8325 84.7131 35.2492 84.4522C33.9673 84.3222 33.9655 84.3324 33.2933 85.6625C36.9032 85.8405 40.4082 86.0565 43.9171 86.1778C50.4356 86.406 56.9539 86.5727 63.4723 86.7899C64.1053 86.8102 64.7329 86.986 65.362 87.0902C65.1334 87.4698 64.9492 87.5712 64.7675 87.5641C54.2602 87.1334 43.7546 86.6925 33.247 86.2683C32.7389 86.2483 32.2251 86.4012 31.7139 86.4741C31.7222 86.6677 31.7297 86.8632 31.7379 87.0569C37.9216 87.5314 44.1052 88.006 50.3682 88.4852C50.1395 88.8538 50.0048 89.0707 49.8702 89.2876C49.4249 89.2132 48.9796 89.1388 48.5356 89.0671L48.5332 89.0618ZM0.977418 67.7274L1.06911 67.7739L0.915577 67.734C1.03696 67.28 1.15834 66.8259 1.28164 66.3726C1.41985 64.2071 1.17169 61.9683 2.43352 60.007C2.29083 62.4158 1.75591 64.8059 2.22544 67.645C2.4617 67.0364 2.55812 66.8616 2.59817 66.6736C3.50569 62.4585 4.49352 58.2571 5.26555 54.0178C5.54384 52.4866 5.41718 50.8508 5.27114 49.2819C5.16875 48.1829 4.65397 47.1624 3.37459 46.5169C3.32403 46.9525 3.24098 47.2004 3.27662 47.4309C3.67801 49.9875 3.10729 52.4359 2.60493 54.9174C1.96188 58.095 1.46622 61.3057 0.9895 64.5128C0.902953 65.092 1.20868 65.7293 1.33178 66.3396C1.212 66.8008 1.09339 67.2647 0.973606 67.7259L0.977418 67.7274ZM7.61127 44.4411C7.58531 44.5645 7.56008 44.6861 7.57343 44.6234C7.58119 44.7052 7.57042 44.5916 7.56039 44.4761C7.53784 44.0931 7.51647 43.7127 7.49393 43.3298C7.49065 43.0046 7.48472 42.6806 7.48144 42.3554C7.9559 39.3181 8.42771 36.282 8.90216 33.2447C8.98751 35.7333 8.65929 38.1621 8.56441 40.6004C8.37446 45.4268 8.58977 46.7381 9.69955 48.1428C9.7714 38.3224 11.017 29.0124 14.5439 20.1306C12.0642 28.9725 10.4271 37.9226 11.0278 47.1921C11.7393 45.6759 12.2627 44.113 12.455 42.5091C12.856 39.1522 13.0592 35.7732 13.3978 32.4075C13.4746 31.6385 13.7769 30.8936 13.9762 30.1371C14.059 30.167 14.1406 30.1943 14.2233 30.2243C14.0116 33.7269 13.8 37.2295 13.5635 41.1295C14.3194 40.4884 14.6697 40.1911 14.8567 40.0317C15.0921 39.0069 15.2825 38.177 15.4723 37.349L15.4095 37.375C15.5941 38.1492 15.7787 38.9233 15.964 39.6956C16.0928 39.6974 16.2242 39.6981 16.353 39.7C16.7799 36.9944 17.2075 34.2869 17.6325 31.5806L17.9846 31.6406C17.7612 34.4099 17.5398 37.1799 17.2998 40.1616C17.6121 40.4995 18.0616 40.987 18.7015 41.6796C19.6694 35.0981 19.6635 28.8367 19.3923 22.5577C20.6171 28.6817 20.2767 34.8568 20.0417 41.0487C20.9249 39.0959 20.5086 36.8661 21.606 35.0117C21.6579 36.7892 21.5937 38.5436 21.536 40.2982C21.5353 40.3395 21.6296 40.3849 21.6968 40.4438C21.8767 40.4042 22.084 40.3906 22.2601 40.3101C22.4932 40.2015 22.7018 40.0373 22.9824 39.8574C24.3031 28.1714 22.7534 16.9359 17.9382 5.74363C17.3765 6.56293 17.0407 6.96437 16.8016 7.41647C14.0457 12.6495 11.4377 17.9487 9.5523 23.5744C7.44972 29.8446 6.09625 36.2545 6.02583 42.8934C6.01707 43.7019 6.2659 44.5141 6.39503 45.3237C6.40686 45.6325 6.4187 45.9413 6.42979 46.2519C6.03927 46.9582 5.68371 47.665 6.34357 48.4135L6.44307 48.4456L6.28653 48.4417C6.31184 47.7206 6.336 46.9968 6.36131 46.2757C6.35477 45.9646 6.34822 45.6535 6.34243 45.3404C6.52414 44.273 6.7066 43.2036 6.89071 42.113C7.17057 42.2063 7.35548 42.2671 7.5423 42.3287L7.55478 43.3031C7.57234 43.6819 7.58916 44.0627 7.60672 44.4415L7.61127 44.4411ZM31.6376 36.1703C32.7957 35.692 33.2981 34.7315 33.5496 33.586C33.9972 33.3264 34.4436 33.0642 35.2855 32.5748C34.7366 33.8192 34.3758 34.6355 34.015 35.4518C34.5249 35.501 34.721 35.437 34.8495 35.3096C37.3064 32.8822 39.7695 30.4615 42.188 27.9972C42.5834 27.5948 42.8195 27.0037 43.0318 26.4624C44.5039 22.7268 44.6427 18.8239 44.3564 14.8851C44.1618 12.203 43.8813 9.52707 43.6196 6.622C36.0427 10.6073 29.9326 15.8185 24.7166 22.3113C24.8269 22.9713 24.9457 23.6718 25.1167 24.6902C26.0124 23.5081 26.6259 22.7024 27.2368 21.8978C27.0097 24.1338 25.2794 25.8147 25.517 28.1261C26.9915 25.7243 27.8064 22.9636 29.7598 20.855L25.846 30.9369C26.8963 28.9439 27.7958 26.8813 28.8236 24.8839C29.8253 22.9311 30.9573 21.0441 32.0324 19.1285C32.2043 19.2172 32.3782 19.3065 32.5501 19.3952C30.1001 23.9875 27.6882 28.5947 26.5216 33.7203C30.0235 26.4636 33.9742 19.5037 39.3051 13.3991C35.4277 19.7178 31.4358 25.9636 28.7712 32.9522C29.7852 31.2843 30.7985 29.6183 31.8126 27.9504C31.9782 28.0497 32.1438 28.149 32.3101 28.2464C31.0475 30.7808 29.7875 33.314 28.5249 35.8483C30.2762 33.4971 31.7996 31.0202 33.333 28.5516C34.8209 26.155 36.0913 23.6061 37.8652 21.4059C38.0355 21.5158 38.2084 21.6245 38.3786 21.7344C35.3695 26.8057 32.3597 31.8789 29.3525 36.9509C29.4707 37.0252 29.5882 37.1015 29.7083 37.1765C31.6629 34.4315 33.6156 31.6858 35.5702 28.9407C35.7045 29.0301 35.8396 29.1175 35.9758 29.2076C35.1773 30.6878 34.3776 32.1654 33.5791 33.6456C32.9344 34.5093 32.2903 35.371 31.6456 36.2347C31.5255 36.431 31.4065 36.6299 31.2864 36.8262L31.432 36.898C31.5011 36.6579 31.5701 36.4177 31.6392 36.1775L31.6376 36.1703ZM35.0417 62.9965L35.3289 62.2567C35.2375 62.2431 35.1462 62.2296 35.0549 62.216L35.0996 62.9774C34.9088 63.8138 34.7192 64.6528 34.5284 65.4891C34.7429 65.5133 34.9582 65.5356 35.1746 65.5605C35.1304 64.7074 35.0851 63.8516 35.0409 62.9984L35.0417 62.9965ZM25.8778 48.2144C25.7914 48.0298 25.705 47.8453 25.6186 47.6607C25.7539 45.4066 25.8245 43.1666 24.346 41.2359C20.7455 41.9895 18.0178 43.6727 16.8175 47.2905C16.6775 47.7133 16.1155 47.9963 15.7491 48.3465C16.2846 46.786 16.886 45.2424 17.3346 43.657C17.6009 42.7165 17.2921 41.8328 16.2386 41.0124C15.6415 41.4197 14.7361 41.7051 14.4491 42.2918C13.4147 44.4136 12.5339 46.6147 11.7133 48.8304C11.4124 49.6393 11.4392 50.5711 11.2732 51.7453C13.4671 50.3516 12.1129 47.4164 14.2691 46.4195C15.376 46.6215 15.6031 47.456 15.8033 48.3084C15.8473 49.2469 15.8921 50.1834 15.9524 51.498C17.3327 49.2939 17.2429 46.4774 20.1124 46.0178C20.4091 45.1066 20.6911 44.2444 20.9712 43.3814L21.4644 43.5247C21.0387 45.8369 20.6139 48.1471 20.1882 50.4593C20.28 50.4774 20.3736 50.4962 20.4661 50.5124C21.1797 48.369 21.8925 46.2274 22.608 44.0846C22.7348 44.1142 22.8616 44.1437 22.9892 44.1713C22.9131 44.8706 22.8351 45.5691 22.7928 45.9663C23.8676 46.5848 24.7752 47.1079 25.6817 47.6283C25.7719 47.8143 25.8633 48.003 25.9535 48.189C25.8554 48.8206 25.758 49.4503 25.6599 50.0819C25.7846 50.1281 25.9101 50.1725 26.0348 50.2187C26.4681 49.7697 26.9041 49.3196 27.3374 48.8707C28.2368 48.9003 29.137 48.928 30.1801 48.9609C30.3809 47.6689 30.6707 46.1816 29.6343 44.2035C28.7505 46.0446 28.0561 47.4886 27.3616 48.9326C26.8686 48.6931 26.3762 48.4516 25.8812 48.2113L25.8778 48.2144ZM16.0862 72.3013C15.4849 72.4706 14.8196 72.5275 14.295 72.8272C10.9624 74.7396 9.9059 77.8967 9.572 81.1374C10.5636 79.3689 11.5473 77.293 12.8368 75.4301C13.6812 74.2106 14.9669 73.2959 16.0552 72.2455L16.1223 72.1687C16.1099 72.212 16.0993 72.2561 16.0862 72.3013ZM12.4183 72.335C13.9301 72.0312 15.3103 71.4049 15.9856 69.9819C16.7737 68.3138 17.4282 66.5654 17.9485 64.7955C18.244 63.7853 18.5835 62.6565 17.9258 61.2632C15.6604 63.0844 14.8277 65.6478 13.4043 67.7652C11.9308 69.9551 10.6142 72.2496 9.22988 74.4982L9.53991 74.7061C10.741 73.3931 11.9441 72.0809 13.1445 70.7698C13.2588 70.8711 13.3724 70.9743 13.4887 71.0763L12.43 72.3899C12.3746 72.5325 12.32 72.6732 12.3783 72.523C12.3491 72.6605 12.3833 72.4987 12.4183 72.335ZM27.2945 71.9383C27.1729 74.0949 27.0502 76.2489 26.9157 78.6478C28.4412 75.9507 27.9579 73.1019 28.1762 70.3853C28.3248 70.3927 28.4734 70.4 28.6201 70.4067C28.627 72.611 28.6321 74.8146 28.6384 77.2353C29.2877 76.8746 29.8211 76.5805 30.4191 76.2502C29.1878 73.6997 29.3393 71.2002 29.8623 68.6938C30.2148 67.0054 30.6686 65.3389 31.0173 63.649C31.2081 62.7164 31.2752 61.7576 31.4481 60.4131C28.9907 62.2933 30.1099 65.4437 27.9009 67.4247C27.8421 66.2813 27.8073 65.585 27.7676 64.8277C27.1304 65.5192 26.5375 66.1644 25.933 66.8227C25.5404 67.9921 25.1435 69.173 24.8076 70.1741C25.5437 71.2915 26.1524 72.2172 26.833 73.2517L27.3505 71.9185L27.2953 71.9364L27.2945 71.9383ZM5.40642 79.0323L5.30427 79.1371L5.37885 79.0807C4.96205 77.4176 4.54717 75.7552 4.12964 74.094C4.26225 74.0974 4.39602 74.1033 4.52862 74.1067C4.67973 73.6269 4.92701 73.1539 4.9652 72.6654C5.05097 71.5454 4.97935 70.4124 5.07805 69.293C5.16396 68.3196 5.39817 67.36 5.5666 66.3946C5.74499 66.4157 5.92337 66.4368 6.10103 66.4598C5.69739 69.2751 5.50598 72.0809 6.37997 74.845C6.58742 73.9714 6.7956 73.0958 7.00305 72.2222C7.22792 72.7625 7.20998 73.2611 7.19012 73.7589C7.17151 74.231 7.15215 74.7049 7.13353 75.177C9.49837 68.7854 9.10176 62.5693 6.12547 56.2075C5.85081 56.7114 5.70185 56.8747 5.67239 57.058C4.87516 61.8258 4.00335 66.5822 3.34119 71.3697C3.03068 73.6171 3.43901 75.8787 4.4084 77.973C4.60152 78.3916 5.06556 78.6833 5.40568 79.0342L5.40642 79.0323ZM-5.82268 84.272C-6.83142 83.9811 -7.84206 83.6894 -8.92551 83.3761C-9.9265 84.213 -10.8492 84.9841 -11.6383 85.6429C-8.88857 89.3935 -5.43323 91.3038 -1.02476 91.3979C-0.369361 91.4116 0.282668 91.6997 0.939542 91.7096C2.3251 91.7309 3.71835 91.7269 5.09571 91.5941C6.54328 91.4557 7.97344 91.153 9.41313 90.9218C10.631 90.7249 11.7319 90.36 12.2296 88.9819L11.3311 88.6331L11.7283 87.6099C11.1635 87.7867 10.7888 87.9039 10.4141 88.0211L10.441 88.0818C10.5037 87.7451 10.5682 87.409 10.6725 86.852C9.06899 87.6127 7.71602 88.2933 6.32957 88.9019C3.83037 90.002 3.29989 90.085 2.18888 89.6843C3.93486 88.9921 5.65439 88.3115 7.29749 87.6582C7.68629 87.0015 8.00876 86.4592 8.52061 85.5987C4.30188 88.4255 -0.142105 89.3616 -4.8031 89.5109C-1.24778 88.591 2.46429 88.2002 5.68591 86.1834C4.09921 86.4144 2.51442 86.6461 0.927722 86.8771L0.937937 86.9074L0.969179 86.7138L1.15495 86.648C1.13496 86.66 1.11305 86.6711 1.09305 86.6831C0.387131 86.6016 -0.31664 86.4751 -1.02502 86.4452C-3.2459 86.3534 -5.46906 86.2957 -7.6916 86.2252C-7.68613 86.0698 -7.68067 85.9143 -7.6752 85.7589C-7.18016 85.7672 -6.68327 85.8047 -6.19051 85.7793C-4.24487 85.6811 -2.30023 85.5628 -0.353985 85.4517C-0.235532 85.4801 -0.116337 85.5067 -0.197076 85.4885C-0.0958526 85.4709 -0.208828 85.4905 -0.321063 85.5082C-2.25323 85.3512 -4.18804 85.1954 -6.16279 85.0351L-5.84754 84.2229L-5.81738 84.2697L-5.82268 84.272ZM10.2906 14.9889C10.545 15.046 10.8001 15.1013 11.1493 15.18C11.6317 14.1241 12.1233 13.05 12.5867 12.0372C11.8511 6.58679 8.24983 2.57572 4.05604 2.35272C4.15516 4.37617 4.47069 6.42453 4.29154 8.42969C4.11252 10.4458 3.44455 12.421 2.98014 14.4598C3.83102 15.508 4.69421 16.5696 5.79162 17.9214C5.73638 17.0289 5.70497 16.5331 5.67356 16.0372L5.61756 16.0571C5.91628 16.6786 6.25321 17.2865 6.50769 17.9258C6.91115 18.9447 7.25715 19.9872 7.62887 21.0201C7.66069 21.1134 7.69251 21.2067 7.72316 21.2974C7.81533 21.2522 7.90486 21.2082 7.99439 21.1641C8.96168 20.8437 8.70443 19.991 8.73565 19.3225C8.8469 16.9211 8.89545 14.5173 8.9691 12.1167L9.2593 12.1155C9.40214 13.8058 9.5469 15.4968 9.68975 17.187L9.99015 17.2161C10.0971 16.4544 10.2013 15.6939 10.3082 14.9322L10.2925 14.9896L10.2906 14.9889ZM65.7978 98.0115C68.7289 98.6262 71.6741 99.1874 74.5885 99.8789C76.1036 100.239 77.5643 100.831 79.0501 101.318C79.0104 101.471 78.9688 101.623 78.9298 101.774C76.4114 101.16 73.8917 100.543 71.3732 99.9285C71.2907 100.056 71.2075 100.186 71.1269 100.314L71.913 100.777C67.8888 100.123 64.4127 98.8372 60.6451 98.9525C64.8331 99.9765 69.0843 100.775 72.7896 103.161C69.1068 102.137 65.4252 101.115 61.7424 100.09C61.6767 100.298 61.6084 100.508 61.5428 100.717C62.8227 102.181 64.8483 101.764 66.4796 102.323C68.2542 102.931 70.1441 103.242 71.663 104.418C71.6193 104.548 71.5763 104.675 71.5344 104.806C68.6023 103.956 65.6713 103.11 62.7392 102.26C63.4006 104.662 65.8146 103.448 67.1708 104.817C65.8652 104.776 64.7123 104.738 63.5606 104.702C63.5423 104.896 63.5239 105.091 63.5044 105.282C64.4913 105.516 65.4774 105.753 66.4642 105.987L66.4608 106.193C65.8863 106.248 65.3099 106.303 64.3139 106.397C68.0518 108.1 71.5694 107.945 75.1003 107.998C78.7122 108.052 81.9462 106.902 85.3259 105.428C84.4843 104.769 83.6696 104.131 82.6214 103.308C83.4094 103.461 83.9363 103.562 84.9047 103.748C83.8771 102.929 83.1845 102.378 82.4908 101.824C82.5526 101.721 82.6145 101.618 82.6791 101.514C83.5683 101.988 84.4549 102.464 85.5696 103.058C84.8694 101.051 83.4478 100.156 82.1627 99.5758C81.7679 97.5338 80.0411 96.8591 79.1462 95.5794C78.3537 95.738 77.6476 95.8775 76.691 96.0686C77.6189 96.3303 78.2663 96.5116 78.9137 96.6929C78.8991 96.8098 78.8825 96.9259 78.8679 97.0428C76.5191 96.9582 74.171 96.8718 71.8203 96.7865C71.8195 96.9241 71.8177 97.059 71.8169 97.1966C73.1918 97.3868 74.5896 97.4785 75.9359 97.7932C77.1855 98.0857 78.6474 97.9726 79.8616 99.3741C78.79 99.2338 78.0684 99.1419 77.349 99.0443C74.183 98.6163 71.0201 98.1522 67.8469 97.7827C67.1919 97.7057 66.5001 97.9667 65.8247 98.0722C65.6789 98.0069 65.5323 97.9434 65.6915 98.014C65.5069 98.0145 65.6539 98.0147 65.8017 98.013L65.7978 98.0115ZM-7.30412 100.443L-11.3505 102.453C-11.4259 102.336 -11.5005 102.217 -11.5759 102.101C-9.95977 100.94 -8.34555 99.7786 -6.72942 98.618C-10.4837 99.0383 -13.3637 101.538 -16.9433 102.356C-15.6686 101.51 -14.3946 100.665 -13.1179 99.819C-13.043 99.7956 -12.9661 99.7729 -12.9892 99.7815C-12.9723 99.7661 -13.0317 99.8175 -13.0931 99.8681C-15.048 99.1704 -16.5205 100.402 -18.1093 101.125C-19.0911 101.573 -20.0343 102.109 -20.9951 102.604L-21.2624 102.14C-20.1381 101.46 -19.0138 100.78 -17.7469 100.016C-20.1578 99.3337 -22.2904 99.3988 -24.3528 100.658L-24.4622 100.221C-24.0518 99.899 -23.6395 99.5776 -23.0871 99.1442C-24.9555 98.2066 -25.4531 100.506 -27.0069 100.387C-26.4541 99.7149 -25.9921 99.1524 -25.4001 98.4302C-26.093 98.2531 -26.5703 98.1313 -27.3593 97.9301C-27.4643 99.3994 -27.5519 100.665 -27.6446 101.973C-26.9403 101.979 -26.5111 101.982 -25.8197 101.988C-26.4938 102.61 -26.9246 103.008 -27.3851 103.431C-27.3396 103.93 -27.2941 104.401 -27.2421 104.968C-26.1861 104.294 -25.3244 103.743 -24.4614 103.193C-24.3529 103.321 -24.2462 103.448 -24.1384 103.577C-24.7468 104.127 -25.3622 104.671 -25.9652 105.229C-26.5268 105.749 -27.3991 106.073 -27.3621 107.403C-25.8278 106.3 -24.5542 105.383 -23.2794 104.469C-23.1689 104.608 -23.059 104.749 -22.9484 104.888C-24.3444 106.539 -26.6142 107.404 -27.5739 109.441C-25.1521 108.252 -22.8719 106.925 -20.5526 105.672C-18.234 104.42 -15.9255 103.121 -13.2725 102.626C-17.244 105.347 -21.9213 106.817 -25.8217 109.61L-25.5062 110.233C-23.5842 109.353 -21.6629 108.475 -19.7409 107.595C-19.6666 107.72 -19.5949 107.847 -19.5205 107.972C-20.4458 108.512 -21.3712 109.052 -22.387 109.645C-20.8035 110.581 -19.7999 109.268 -18.4035 108.872L-18.9831 110.365C-17.6877 110.375 -16.5487 110.189 -15.5116 110.43C-12.2204 111.191 -9.39045 110.488 -6.85826 108.235C-6.93644 107.769 -7.00316 107.375 -7.08059 106.907C-7.73787 107.368 -8.22293 107.707 -8.70608 108.047C-7.96395 106.282 -6.23601 105.099 -6.39114 102.824C-7.85355 104.075 -9.18428 105.213 -10.515 106.351L-10.4824 106.414C-9.12645 104.883 -7.75482 103.363 -6.41998 101.813C-6.0278 101.357 -5.73191 100.815 -5.3919 100.312C-5.5058 100.216 -5.61706 100.118 -5.73097 100.021C-8.30941 102.62 -10.9403 105.151 -14.3371 106.686C-13.7529 105.978 -13.0181 105.454 -12.3429 104.862C-10.6593 103.387 -9.00071 101.879 -7.33175 100.384L-7.26431 100.369L-7.30221 100.444L-7.30412 100.443ZM26.2221 86.7846C27.4688 85.8066 28.7282 84.8468 29.9534 83.8451C30.4521 83.4369 30.8787 82.9372 31.337 82.4804C31.4718 82.6137 31.6067 82.7471 31.7407 82.8823C30.6785 84.0807 29.617 85.2771 28.5547 86.4755C28.4891 86.5201 28.4235 86.5646 28.4382 86.555C28.4312 86.5676 28.4767 86.4955 28.5241 86.4242C29.249 86.0666 30.0818 85.8384 30.6823 85.3318C33.7058 82.785 35.5653 79.3181 37.8485 76.0375C35.8275 76.2903 33.8405 76.5629 32.0603 77.3206C30.2589 78.0876 28.4582 79.1131 27.0361 80.43C25.6552 81.7083 24.755 83.5014 23.4456 85.3479C23.3273 84.6629 23.1586 84.2888 23.2314 83.9713C23.3799 83.3286 23.7212 82.7323 23.8716 82.0904C24.4442 79.6427 25.1697 77.2084 25.4623 74.7243C25.7566 72.2189 24.542 70.9486 22.008 70.8775C20.4448 70.8331 18.8728 71.1902 17.7248 71.3201C15.7579 73.5767 13.9672 75.3567 12.5043 77.3779C10.7363 79.8233 10.3956 82.7987 11.4443 84.4795C12.5618 81.4423 14.2552 78.9067 16.6507 76.869C14.9823 79.5216 12.6573 81.8296 12.4269 85.2899C12.9223 85.5632 13.3596 85.8051 13.9142 86.1124C14.9939 83.6251 16.0203 81.2639 17.0459 78.9045C17.2466 78.9868 17.4447 79.0703 17.6454 79.1526L14.6811 86.7887C15.527 86.9901 16.0591 87.1179 16.592 87.2438L19.0897 80.8097L19.5712 80.966C18.9738 83.0758 18.3739 85.1867 17.7298 87.4622C18.3387 87.4601 18.8917 87.4603 19.7266 87.4583C20.7358 83.9086 21.7235 80.4315 22.7441 76.8468C22.6797 80.6145 21.5699 84.0726 20.5292 87.5226C21.5423 88.034 22.3225 87.7941 22.9776 87.1074C23.8017 86.2455 24.6092 85.3641 25.388 84.4605C26.0914 83.6437 26.7457 82.7838 27.5725 81.7566C27.7182 82.3143 27.7682 82.5022 27.8162 82.6894L27.257 83.525C27.3113 83.5548 27.3629 83.5858 27.4172 83.6156L27.7981 82.6342C28.0638 82.4813 28.3565 82.3608 28.5921 82.1721C30.4568 80.6878 32.2958 79.1738 34.1744 77.7102C34.6929 77.3074 35.3244 77.0492 35.9034 76.7225C35.9739 76.8461 36.0463 76.9705 36.1161 77.0961C34.2847 78.4664 32.2796 79.6621 30.6714 81.2547C28.9978 82.9139 27.7073 84.9604 26.2481 86.8363C26.149 86.905 26.0518 86.9745 26.155 86.9008C26.1078 86.9941 26.1609 86.8856 26.2171 86.7805L26.2221 86.7846ZM-30.8374 76.5704C-34.6396 76.0398 -38.4418 75.5093 -42.2459 74.978C-42.2231 74.7833 -42.1983 74.5894 -42.1754 74.3948C-37.7481 74.9492 -33.3188 75.5043 -28.8922 76.0606C-28.8667 75.9326 -28.8412 75.8046 -28.8157 75.6767L-42.4824 72.1943C-42.4427 72.0412 -42.403 71.8881 -42.3626 71.7331C-37.7989 72.7956 -33.234 73.8608 -28.6703 74.9234C-28.6328 74.776 -28.5927 74.6274 -28.5553 74.48C-36.855 71.0655 -45.2269 67.8987 -54.3806 67.4245C-47.057 67.0548 -40.2538 69.2581 -33.3825 71.5009C-33.9147 70.8194 -34.506 70.2222 -35.2194 69.8884C-36.4845 69.2966 -37.8263 68.8742 -39.1318 68.3696C-41.7734 67.3485 -44.4139 66.3191 -47.054 65.2942C-43.7368 65.8356 -40.6144 67.2184 -37.2402 68.1956C-38.0781 66.9877 -40.1441 65.6035 -43.4382 64.0432C-42.7294 64.1454 -42.0206 64.2477 -40.9104 64.4073C-41.7393 63.5909 -42.2905 63.0487 -42.8713 62.4752C-49.1746 62.5407 -55.2571 63.0837 -60.514 67.5953C-59.8117 68.2969 -59.3311 68.919 -58.7199 69.3576C-57.8582 69.9766 -56.9053 70.4734 -55.979 70.9993C-49.4925 74.697 -43.0168 78.4057 -35.6678 80.2322C-34.1823 80.601 -32.8488 80.6831 -31.3451 79.6933C-32.559 79.4672 -33.5784 79.2772 -34.5978 79.0872C-31.5087 78.5596 -28.4048 79.4756 -25.3702 78.7322C-25.3616 78.5911 -25.351 78.4507 -25.343 78.3116C-29.1118 77.8815 -32.8799 77.4496 -36.6487 77.0195C-36.6337 76.8678 -36.6198 76.7134 -36.6048 76.5616C-35.3063 76.6433 -34.0059 76.7652 -32.7072 76.79C-32.0971 76.8014 -31.4856 76.623 -30.8751 76.5317C-30.6294 76.6621 -30.3829 76.7906 -30.1372 76.921C-30.1124 76.8628 -30.0884 76.8065 -30.0636 76.7483C-30.3218 76.6896 -30.58 76.631 -30.8408 76.5735L-30.8374 76.5704ZM-20.9063 87.8096L-20.8848 87.8617C-20.3504 87.6556 -19.8304 87.3847 -19.2788 87.2531C-17.8547 86.9152 -16.4195 86.6276 -14.9835 86.3381C-14.1523 86.1705 -13.4639 85.8841 -13.468 84.7357C-17.8061 85.4327 -22.0899 86.1202 -26.3764 86.8089C-26.4066 86.6549 -26.4387 86.5002 -26.4689 86.3462C-24.8191 85.9865 -23.1722 85.606 -21.5164 85.2705C-19.7552 84.9124 -17.9868 84.5922 -16.2193 84.2629C-14.6079 83.9627 -12.9953 83.6761 -11.3842 83.3824C-11.4242 83.2027 -11.4661 83.0223 -11.5061 82.8426C-19.5259 82.7101 -27.2254 84.4724 -34.8269 86.8812C-28.5498 83.9146 -21.8055 82.7356 -15.0171 81.6241C-20.2339 81.2995 -25.2998 82.2545 -30.3626 83.3596C-26.3706 81.5806 -22.0787 81.1436 -17.8206 80.3301C-18.5563 79.992 -19.2967 79.7899 -20.0158 79.85C-21.7383 79.9954 -23.4588 80.2205 -25.1673 80.4939C-28.369 81.0062 -31.47 81.7567 -34.5348 82.9568C-37.5944 84.1546 -40.7 86.8226 -41.4629 90.2579C-39.4348 89.3819 -37.8254 90.2233 -36.1935 91.2442C-34.4464 92.336 -32.6446 93.3659 -30.7862 94.2559C-24.7785 97.1286 -18.5373 98.7723 -11.8184 97.5288C-9.23092 97.0494 -6.73865 96.3121 -4.58499 94.7167C-5.96838 94.9216 -7.31097 95.2758 -8.67153 95.518C-9.97979 95.7498 -11.3048 95.9117 -12.6311 96.0205C-13.9173 96.1275 -15.2133 96.1299 -16.5038 96.1805C-16.5078 96.0323 -16.511 95.8822 -16.5149 95.7341C-12.3619 95.2081 -8.10692 95.1266 -4.08683 93.2468C-5.30476 92.2904 -6.41949 92.5383 -7.53533 92.7551C-12.0066 93.6258 -16.5196 93.8348 -21.0585 93.4888C-22.0903 93.4099 -23.1156 93.2352 -24.1449 93.1048C-24.1401 92.9622 -24.1326 92.8185 -24.1277 92.6759C-18.7156 93.0852 -13.33 93.1559 -7.76656 91.9541C-8.68622 91.1396 -9.36534 90.5368 -10.0352 89.9441C-13.1915 90.0341 -16.2686 90.7852 -19.39 90.74C-19.4048 90.6029 -19.4189 90.4639 -19.4319 90.3276C-16.6486 89.9264 -13.8628 89.5241 -10.6218 89.0576C-11.7018 88.0738 -12.4106 87.4288 -13.1283 86.7781C-14.5077 86.9955 -15.7493 87.2138 -16.9967 87.3795C-18.2969 87.551 -19.6031 87.6699 -20.907 87.8115L-20.9063 87.8096ZM-0.555534 111.902C-0.876227 107.572 0.272085 103.522 1.91298 99.6006C2.63505 97.8762 3.63342 96.2657 4.50471 94.6036C4.38754 94.5209 4.26964 94.4401 4.15058 94.3567C3.24197 95.606 2.25227 96.8041 1.44427 98.1165C0.647475 99.4113 -0.020713 100.793 -0.643978 102.184C-1.25617 103.546 -1.74086 104.964 -2.28129 106.356C-2.39525 104.06 -1.6556 102.008 -0.613562 100.093C0.416229 98.2032 1.65358 96.4294 2.80072 94.6052C2.66879 94.4928 2.53611 94.3822 2.40417 94.2697C0.400635 95.3652 0.423125 98.2759 -1.80151 99.2682C-1.06429 97.7423 -0.327081 96.2164 0.411305 94.6931C-1.60736 95.9973 -2.76453 97.9095 -3.88681 99.8506C-6.35747 104.129 -6.68418 108.482 -4.41648 112.971C-2.83059 116.112 -1.30703 119.284 0.255048 122.435C0.29585 122.517 0.479099 122.531 0.337934 122.476C1.40103 121.858 2.29095 121.313 3.20458 120.814C5.53394 119.541 8.01234 118.483 10.1611 116.962C11.6806 115.886 13.1142 114.37 13.947 112.728C15.0688 110.511 15.6027 107.994 16.3231 105.584C16.4465 105.17 16.2436 104.658 16.1912 104.194C16.0666 104.187 15.9445 104.179 15.8199 104.172C15.5044 104.866 15.1897 105.558 14.8743 106.252C14.748 106.209 14.6207 106.164 14.4945 106.122C14.6916 104.975 14.8907 103.829 15.0878 102.682C14.929 102.644 14.7721 102.607 14.6133 102.57C13.7934 104.852 13.642 107.43 11.7972 109.27C12.1093 107.737 12.606 106.271 13.0554 104.79C13.9052 101.991 13.9322 101.52 13.3903 100.32C12.0613 105.022 11.0875 109.798 7.95271 113.689C10.0764 108.416 12.4644 103.237 12.4742 97.3931C11.9698 98.4098 11.7071 99.5049 11.3045 100.548C10.9402 101.492 11.0275 102.703 9.64682 103.557C9.93044 102.566 10.1209 101.94 10.2859 101.306C10.4446 100.693 10.5732 100.074 10.714 99.4564C10.6012 99.4192 10.4883 99.3819 10.3755 99.3447C8.05196 104.177 5.72654 109.008 3.40303 113.84C4.51098 108.531 7.50676 103.998 9.20034 98.9169C8.41406 100.032 7.62512 101.148 6.83884 102.263C6.73737 102.191 6.63516 102.121 6.53369 102.049C7.99602 99.3051 9.45835 96.5616 10.9188 93.8173C10.7923 93.7529 10.6632 93.6897 10.5368 93.6253C7.01959 98.0376 4.43845 102.962 2.51297 108.261C3.55385 103.205 5.68182 98.6169 8.59449 94.3595C5.78699 96.5195 4.57317 99.7425 2.9364 102.681C3.47839 99.1643 5.6406 96.5065 7.42155 93.5868C6.62126 93.9633 5.94029 94.4453 5.45359 95.077C2.85661 98.459 1.31232 102.324 0.425216 106.464C0.0376465 108.277 -0.273006 110.106 -0.620201 111.928L-0.558927 111.905L-0.555534 111.902ZM45.1282 33.9599L45.098 33.9021C43.5841 35.8115 42.0702 37.7209 40.5556 39.6322C40.8394 40.4165 41.0809 41.0836 41.382 41.9139C43.6937 39.0406 45.8807 36.3245 48.0651 33.6096C48.0946 34.2404 47.8303 34.6499 47.5396 35.0426C46.0769 37.0178 44.6929 39.0564 43.1245 40.9424C40.9342 43.5763 39.8326 46.6743 38.9308 49.8849C38.8209 50.2756 38.8169 50.6986 38.749 51.2128C42.0339 46.2792 45.2169 41.5008 48.3979 36.7217C48.5085 36.7931 48.6191 36.8644 48.7316 36.9366C46.6938 40.1899 44.6315 43.4271 42.624 46.6987C39.8018 51.2998 38.3458 54.7395 38.1996 56.8012C41.1247 52.2007 44.2753 47.517 47.1334 42.665C49.971 37.8488 52.5131 32.8611 55.1844 27.9475C52.0372 37.1912 46.6925 45.2426 41.606 53.4489C43.8427 50.5311 45.9085 47.5054 47.9574 44.4665C49.9896 41.4539 52.0029 38.4275 54.0231 35.406C54.1563 35.4927 54.2914 35.5801 54.4246 35.6668C51.3887 40.5527 48.3554 45.4373 45.2487 50.4379C46.2507 50.2994 47.0786 50.1853 47.913 50.0715C50.8083 43.597 54.4124 37.6602 58.865 32.2236C62.1444 28.2201 63.6947 23.4973 64.296 17.9619C63.5069 18.3887 63.0273 18.7365 62.49 18.9218C61.6859 19.2006 60.8221 19.605 60.015 19.5412C56.607 19.273 53.757 20.5587 51.0953 22.4449C44.938 26.8106 39.4717 31.9522 34.3909 37.4974C33.1489 38.8536 32.2603 40.5374 31.2596 42.1032C31.0804 42.3838 31.1457 42.8206 31.0966 43.1845C32.7368 40.8536 34.2043 38.5717 36.3628 36.7944C35.5306 38.1521 34.6973 39.5072 33.8651 40.8649C34.5538 40.5326 34.9705 40.0247 35.3853 39.516C39.1084 34.9407 43.3932 30.9993 48.5308 28.039C49.0516 27.7378 49.7034 27.6647 50.2955 27.4853L50.2652 27.4276C49.3631 28.106 48.4629 28.7851 47.5615 29.4616C43.9413 32.1772 40.4122 34.9917 37.6272 38.6093C37.5443 38.704 37.4634 38.7995 37.5586 38.6899C37.5234 38.8031 37.563 38.6784 37.6007 38.553C38.3934 38.7163 39.1861 38.8796 39.9255 39.0331C40.5955 38.2799 41.1159 37.6065 41.7277 37.0255C42.8334 35.9754 43.9948 34.9796 45.134 33.9621L45.1282 33.9599ZM4.12409 80.8937C1.63399 80.6755 -0.682711 80.4743 -2.99867 80.2712C-2.98926 80.1283 -2.97986 79.9853 -2.96971 79.8404C-0.866542 79.9018 1.23472 79.9625 3.86492 80.0403C3.46651 79.1328 3.22009 78.5688 3.06649 78.2181C-4.83731 77.7585 -12.0269 76.3244 -18.7541 72.947C-11.9933 75.5649 -5.06033 77.3152 2.28847 77.4346C2.2281 76.1199 1.45479 75.8219 0.568329 75.6288C-0.863027 75.3183 -2.30386 75.0435 -3.71995 74.671C-5.74943 74.137 -7.76186 73.5309 -9.77965 72.9555C-9.74765 72.8279 -9.71376 72.701 -9.68176 72.5733C-6.07825 73.2369 -2.6081 74.6058 1.16411 74.6652C-1.1467 72.8599 -4.08287 72.3941 -6.49417 70.7403C-4.25553 71.397 -2.01764 72.0557 0.396681 72.7631C0.102882 70.9245 -1.081 70.2592 -2.45051 69.8742C-7.83597 68.3613 -13.2302 66.8823 -18.6288 65.4147C-20.0884 65.0188 -21.5722 64.7076 -23.0451 64.3569C-16.9664 64.9264 -11.1276 66.589 -5.21133 68.0124C-7.94782 66.4555 -10.6734 64.8875 -13.566 63.7384C-20.2276 61.0911 -27.2622 59.8288 -34.2971 58.6802C-37.185 58.209 -40.0859 58.6193 -43.1226 59.3116C-29.8322 73.3759 -14.1468 81.9379 5.69639 83.0973C5.01098 82.1375 4.60261 81.561 4.12482 80.8918L4.12409 80.8937ZM43.06 103.15C42.9531 103.272 42.8474 103.397 42.7406 103.52C41.7971 102.756 40.8537 101.991 39.9077 101.228C39.8236 101.348 39.7375 101.468 39.6527 101.59C41.2959 103.815 43.9944 104.768 46.1061 106.431C46.0005 106.596 45.8967 106.761 45.7911 106.926C43.917 105.918 42.0428 104.91 39.9849 103.805C40.0189 104.735 40.0474 105.442 40.0685 106.004C40.7526 106.572 41.269 107 41.7863 107.426L41.6002 107.702L39.8757 107.032C39.6911 107.943 39.54 108.694 39.34 109.685C40.8599 110.135 42.2264 110.691 43.6435 110.92C45.8092 111.273 48.0057 111.455 50.1972 111.606C54.4879 111.902 58.7832 112.129 63.1909 112.389C62.4901 107.867 61.2075 103.43 58.2362 99.6675C56.7306 97.7612 54.5788 97.322 51.8909 97.4888C53.7341 98.4801 55.2287 99.2835 56.7253 100.088C56.6651 100.209 56.6049 100.33 56.5448 100.451C53.9226 99.2667 51.2978 98.0837 48.6757 96.8994C51.5756 98.9684 54.9203 100.332 57.3343 103.031C55.1382 101.903 53.0736 100.544 50.8624 99.4882C48.6233 98.4198 46.2398 97.6499 43.9202 96.7495C49.4159 100.093 54.8142 103.563 58.7874 108.793C54.8303 105.602 51.1087 102.105 46.5137 99.7434C48.3932 101.534 50.2708 103.325 52.1503 105.116C52.0449 105.235 51.9395 105.353 51.8349 105.47C47.8617 101.801 43.3677 98.8964 38.7041 96.2478C38.6206 96.3554 38.5371 96.4631 38.4536 96.5708C42.0277 99.3457 45.6045 102.12 49.1785 104.894C49.0531 105.054 48.9288 105.216 48.8033 105.375C45.594 103.085 42.3848 100.795 39.1755 98.5055C39.0813 98.6068 38.9897 98.7069 38.8955 98.8082C40.2842 100.258 41.6717 101.705 43.0604 103.154L43.06 103.15ZM33.6305 55.2267C33.7867 55.237 33.9418 55.2446 34.098 55.255C34.9581 51.3431 35.7377 47.4067 37.3217 43.6993C37.4358 44.1857 37.3835 44.6315 37.2934 45.0671C36.5755 48.5789 35.7849 52.0799 35.1633 55.6094C34.9415 56.8649 35.1301 58.1943 35.1306 59.4879C35.2711 59.4877 35.4124 59.4856 35.551 59.4848C35.8485 57.4577 36.0019 55.3944 36.4787 53.4085C37.1898 50.4456 38.1238 47.5363 38.9695 44.6059C39.3874 43.1618 39.9462 41.7111 38.6952 40.3479C37.704 41.1143 36.8871 42.0424 35.8632 42.4634C34.5051 43.0217 33.6166 43.863 33.1634 45.1774C32.6878 46.5553 32.2994 47.9628 31.8977 49.3651C31.8513 49.5243 31.9691 49.7298 32.0247 49.9768C32.5539 50.0159 33.0591 50.0545 33.5282 50.09C34.1338 48.2022 34.707 46.4201 35.2811 44.636C35.4692 44.6828 35.6555 44.7289 35.8437 44.7756C35.1064 48.258 34.3665 51.7416 33.6293 55.224L33.6305 55.2267ZM47.6035 51.6321C44.665 52.2072 42.8792 54.4947 42.819 57.1435C44.1067 56.3368 44.1449 54.3273 46.0576 53.737C46.0988 55.1974 45.5814 56.2418 44.8189 57.1429C43.6246 58.557 42.275 59.8452 41.1233 61.2911C40.2292 62.4125 39.4629 63.6514 38.7721 64.9108C37.5058 67.2227 36.3829 69.6122 35.1059 71.9177C34.5099 72.9951 33.6975 73.9512 32.7037 75.3578C34.492 75.0147 35.8065 74.7611 37.0869 74.5163C37.1888 74.0897 37.2539 73.8371 37.3096 73.5807C38.6104 67.7587 40.5187 62.2492 44.8362 57.839C45.8757 56.7784 46.5971 55.3668 47.2905 54.0274C47.6035 53.4245 47.4925 52.6023 47.5997 51.6306L47.6035 51.6321ZM23.37 69.6817C23.8329 67.8502 24.2762 66.092 24.7206 64.3364C23.761 64.0602 23.0301 63.8509 22.114 63.5872C21.0404 65.6347 19.9869 67.6418 18.8708 69.7647C20.3702 69.7362 21.6788 69.7124 23.37 69.6817ZM32.4464 72.5376C32.5614 72.5297 32.6783 72.5226 32.7933 72.5147C33.0553 68.0512 33.3276 63.5895 33.5631 59.1266C33.587 58.6523 33.3965 58.1647 33.306 57.6853C32.8685 58.032 32.7512 58.3738 32.7137 58.7247C32.5182 60.5572 32.4506 62.4109 32.1317 64.2217C31.7757 66.2414 31.0947 68.2049 30.749 70.2264C30.4928 71.7289 30.5248 73.2864 31.5488 74.6972C31.5973 72.5253 31.6458 70.3534 31.6943 68.1816C31.8659 68.1804 32.0376 68.1792 32.2105 68.1806C32.2895 69.6338 32.3685 71.087 32.4475 72.5402L32.4464 72.5376ZM14.7742 61.7993C16.0571 60.7676 16.9534 60.0475 17.8565 59.3214L20.3675 52.853L19.9626 52.6521C17.3419 55.0094 16.3699 58.3219 14.7742 61.7993ZM10.043 68.1061C11.6664 65.8299 11.6459 63.2702 11.3848 60.2844C10.4834 60.7858 9.89523 61.1134 9.45546 61.3585C9.66696 63.7823 9.85462 65.9451 10.0423 68.108L10.043 68.1061ZM20.1036 62.6251C21.3186 60.6828 22.3727 58.7307 22.7524 56.5539C22.5623 56.4669 22.3714 56.3819 22.1832 56.2957C21.3106 57.7406 20.438 59.1855 19.6075 60.5614C19.7988 61.3578 19.9525 61.9909 20.1044 62.6232L20.1036 62.6251ZM9.09423 59.8067C10.7973 58.2071 10.9585 55.9542 11.5734 53.884C10.5076 55.7529 9.24487 57.53 9.09423 59.8067ZM8.98396 50.2745C8.89265 50.261 8.80016 50.2448 8.70884 50.2312C8.16026 51.2372 7.5838 52.2303 7.06808 53.2534C6.57949 54.2237 6.73834 54.8718 7.68417 55.8168C8.13111 53.9134 8.55849 52.0943 8.98396 50.2745ZM26.0085 57.7675C25.8724 57.6884 25.7382 57.6101 25.602 57.531C24.6659 58.9643 23.7305 60.3957 22.7043 61.9649C23.2873 62.2612 23.6528 62.4447 24.1036 62.6744L26.0085 57.7675ZM21.3258 54.908C23.6618 53.0748 24.5312 50.4732 23.7393 48.6907L21.3258 54.908ZM24.9042 55.0256C25.0752 55.1051 25.2475 55.1873 25.4185 55.2669C26.3244 53.7364 27.2321 52.2067 28.1372 50.6781C28.0182 50.6056 27.8993 50.5332 27.7822 50.4615C26.3881 51.7061 25.4126 53.2183 24.9042 55.0256ZM12.2847 59.3798C12.466 59.4501 12.6472 59.5205 12.8277 59.5927C13.5827 57.9643 14.3359 56.3352 15.0902 54.7087C13.9111 56.1572 12.7281 57.5932 12.2847 59.3798ZM17.4861 51.2114C18.256 50.2629 19.4017 49.3923 18.8025 47.8204L17.4861 51.2114ZM14.5028 48.8256C14.3259 48.8007 14.1509 48.7765 13.974 48.7516C13.9294 49.9467 13.0222 51.0171 13.5782 52.2987C13.73 52.3205 13.8826 52.3403 14.0344 52.362C14.1909 51.1841 14.3475 50.0062 14.5028 48.8256ZM30.1492 54.3217L30.5328 54.7529C31.0609 53.9862 31.5863 53.2207 32.1145 52.454C32.003 52.3736 31.8916 52.2931 31.7801 52.2126C31.235 52.9158 30.6917 53.6197 30.1473 54.321L30.1492 54.3217ZM31.7594 87.8837C31.5943 87.8962 31.6755 87.8905 31.7594 87.8837C31.6773 87.8803 31.5926 87.878 31.7594 87.8837ZM34.1409 69.9367C34.0196 69.9947 33.9002 70.0534 33.7782 70.1133C33.9006 70.2899 34.0242 70.4692 34.1466 70.6458L34.3767 70.5054C34.2982 70.3173 34.2205 70.1274 34.1401 69.9386L34.1409 69.9367ZM26.3635 84.9049L26.4979 84.7907L26.3999 84.7264L26.3635 84.9049ZM28.6304 52.6532L28.4957 52.7628L28.5967 52.8305L28.6323 52.6539L28.6304 52.6532Z" fill="#BF8665" fill-opacity="0.25"/>
</svg>
