<svg width="121" height="173" viewBox="0 0 121 173" fill="none" xmlns="http://www.w3.org/2000/svg">
<g filter="url(#filter0_f_548_16289)">
<ellipse cx="62" cy="162.956" rx="42" ry="4.5" fill="#BF8665" fill-opacity="0.25"/>
</g>
<path d="M49.4686 7.06622L93.9662 39.6298C94.911 40.4078 95.4258 41.5863 95.3627 42.8091L83.7289 149.867C83.6093 150.968 82.7869 151.335 81.8986 150.679L37.4011 118.116C36.4563 117.338 35.9415 116.159 36.0045 114.936L47.6389 7.87348C47.7585 6.77325 48.5804 6.41075 49.4686 7.06622V7.06622ZM39.5579 105.341C39.4578 106.261 40.0532 106.955 40.8216 107.514L81.2758 137.122C82.0406 137.671 82.7481 137.376 82.8512 136.427L91.9643 52.5659C92.018 51.5144 91.5737 50.502 90.7611 49.8361L50.3063 20.2318C49.5369 19.6824 48.834 19.9786 48.7315 20.9223L39.5579 105.341V105.341Z" fill="#D9A273"/>
<path d="M82.099 150.808C83.0873 151.358 84.2698 151.449 85.3329 151.052L87.4319 150.125C88.5259 149.573 89.2914 148.529 89.488 147.321L101.121 40.2673C101.161 39.8197 101.107 39.3714 100.962 38.9458C100.918 38.7966 100.864 38.651 100.805 38.5095L95.0319 41.0541C95.1249 41.2692 95.2027 41.4966 95.262 41.7219C95.3539 42.0766 95.3835 42.4478 95.3531 42.8124L83.7193 149.871C83.6185 150.884 82.9101 151.273 82.099 150.808V150.808Z" fill="#A8754F"/>
<path d="M60.2616 124.931C58.8503 123.902 57.5539 124.474 57.3653 126.21C57.258 128.14 58.0801 130.004 59.5773 131.229C60.9886 132.258 62.285 131.686 62.4736 129.951C62.581 128.02 61.7588 126.156 60.2616 124.931Z" stroke="#E6E6E6" stroke-miterlimit="10"/>
<path d="M71.4458 25.6538C70.8506 25.2165 70.2979 25.4592 70.2178 26.1958C70.1753 27.0156 70.5224 27.8079 71.1552 28.3284C71.7551 28.7663 72.3078 28.5236 72.3883 27.7824C72.4308 26.9626 72.0837 26.1703 71.4458 25.6538Z" fill="black"/>
<path d="M75.1695 33.1805L66.7949 27.049C66.2939 26.6872 65.8377 26.8565 65.7752 27.432C65.7497 28.0953 66.0437 28.7327 66.5673 29.1436L74.9424 35.2705C75.4428 35.6369 75.8991 35.4676 75.9621 34.8876C75.983 34.2238 75.6885 33.5909 75.1695 33.1805V33.1805Z" fill="black"/>
<path d="M39.5578 105.341C39.4577 106.261 40.0531 106.955 40.8215 107.514L81.2758 137.122C82.0405 137.671 82.7481 137.376 82.8511 136.427L91.9642 52.5659C92.0179 51.5144 91.5736 50.502 90.761 49.8361L50.3063 20.2318C49.5369 19.6824 48.834 19.9786 48.7314 20.9223L39.5578 105.341Z" fill="#D9A273"/>
<path opacity="0.9" d="M39.5578 105.341C39.4577 106.261 40.0531 106.955 40.8215 107.514L81.2758 137.122C82.0405 137.671 82.7481 137.376 82.8511 136.427L91.9642 52.5659C92.0179 51.5144 91.5736 50.502 90.761 49.8361L50.3063 20.2318C49.5369 19.6824 48.834 19.9786 48.7314 20.9223L39.5578 105.341Z" fill="white"/>
<path d="M58.8543 32.3532C58.8128 32.7353 58.5943 32.9026 58.3474 32.7313C58.0814 32.4789 57.9476 32.1243 57.9871 31.7606C58.0282 31.3831 58.2471 31.2113 58.494 31.3825C58.76 31.635 58.8938 31.9896 58.8543 32.3532Z" fill="#455A64"/>
<path d="M59.4988 31.9108C59.5333 32.0217 59.5019 32.1394 59.4187 32.2189C59.3258 32.26 59.2135 32.136 59.1818 31.9556C59.1286 31.5026 58.9128 31.0879 58.5736 30.7809C58.388 30.6024 58.0935 30.6123 57.9196 30.7983C57.8772 30.845 57.8385 30.9013 57.8182 30.9597C57.755 31.0692 57.6343 31.0235 57.5679 30.8626C57.5155 30.7451 57.5116 30.6096 57.5619 30.4893C57.7017 30.1458 58.0966 29.9838 58.44 30.1236C58.5112 30.1546 58.5767 30.1944 58.6316 30.2469C59.1108 30.6809 59.4195 31.2687 59.4988 31.9108V31.9108Z" fill="#455A64"/>
<path d="M60.0885 31.5838C60.1232 31.7366 60.0934 31.8824 60.0147 31.9204C59.9309 31.9625 59.8222 31.8483 59.785 31.6765C59.6543 30.9078 59.2691 30.2091 58.6869 29.6941C58.3354 29.3717 57.7924 29.3966 57.47 29.7481C57.4277 29.7948 57.389 29.8511 57.3548 29.908C57.2886 30.0032 57.1724 29.958 57.1102 29.8022C57.0582 29.6801 57.0599 29.5359 57.1195 29.4166C57.4118 28.9127 58.0551 28.7358 58.559 29.0281C58.6246 29.0678 58.6896 29.1121 58.7491 29.1652C59.4583 29.7965 59.9293 30.6489 60.0885 31.5838V31.5838Z" fill="#455A64"/>
<path d="M88.9564 54.8286L89.0304 54.1473C89.0459 54.0046 89.0011 53.86 88.9001 53.7605L88.8525 53.7274C88.7664 53.6621 88.6821 53.7089 88.6641 53.8746L88.5901 54.5559C88.5746 54.6986 88.6194 54.8432 88.7204 54.9427L88.768 54.9758C88.8587 55.0416 88.9404 54.9759 88.9564 54.8286Z" fill="#455A64"/>
<path d="M88.2185 54.2872L88.3466 53.1087C88.3621 52.966 88.3172 52.8214 88.2163 52.7219L88.1686 52.6888C88.078 52.6231 87.9937 52.6698 87.9757 52.8355L87.8476 54.014C87.8321 54.1567 87.8816 54.3018 87.9825 54.4013L88.0302 54.4344C88.1162 54.4997 88.2025 54.4345 88.2185 54.2872Z" fill="#455A64"/>
<path d="M87.4902 53.7471L87.6723 52.0715C87.6878 51.9288 87.6378 51.7883 87.5369 51.6888L87.4938 51.6562C87.4032 51.5904 87.3189 51.6371 87.3009 51.8029L87.1193 53.4739C87.1038 53.6166 87.1532 53.7617 87.2542 53.8612L87.2972 53.8938C87.3787 53.9586 87.4742 53.8944 87.4902 53.7471V53.7471Z" fill="#455A64"/>
<path d="M86.739 53.2042L87.0531 50.3132C87.0686 50.1705 87.0233 50.0305 86.9223 49.931L86.8747 49.8979C86.784 49.8322 86.6998 49.8789 86.6817 50.0446L86.3681 52.931C86.3526 53.0737 86.3974 53.2183 86.4984 53.3178L86.546 53.3509C86.6367 53.4167 86.723 53.3515 86.739 53.2042V53.2042Z" fill="#455A64"/>
<path d="M84.7152 51.9363L84.7702 51.4299L85.6031 52.0375C85.6462 52.0701 85.6722 52.045 85.6777 51.9943L85.6942 51.8424C85.6972 51.8148 85.7002 51.7872 85.7032 51.7596L85.6805 51.6686L84.9839 49.5062C84.9731 49.4771 84.9623 49.4479 84.9469 49.4183C84.9304 49.3979 84.914 49.3775 84.8925 49.3612L84.7757 49.2786C84.7414 49.2516 84.7138 49.2486 84.6929 49.2696C84.6807 49.2962 84.6767 49.3331 84.6829 49.3617L84.5223 50.8394L84.3363 50.7074C84.302 50.6804 84.2795 50.6733 84.2581 50.6989C84.2367 50.7245 84.2536 50.7403 84.2486 50.7864L84.2376 50.8876C84.2244 50.9235 84.2204 50.9603 84.2256 50.9981C84.2405 51.0324 84.2656 51.0584 84.2958 51.0803L84.4813 51.2169L84.4357 51.6358C84.418 51.7131 84.451 51.7958 84.5211 51.836L84.6594 51.9349C84.6594 51.9349 84.7003 51.944 84.7147 51.9409L84.7152 51.9363ZM84.783 51.0121L84.898 49.9533L85.3828 51.4499L84.783 51.0121Z" fill="#455A64"/>
<path d="M83.7597 50.9568C83.9486 50.8469 84.0615 50.5797 84.1075 50.1562C84.1546 49.7654 84.1092 49.3692 83.9723 49.0004C83.8411 48.6647 83.6169 48.3702 83.3234 48.1566C83.2199 48.0802 83.1057 48.0165 82.9854 47.9662C82.8963 47.9286 82.8043 47.9186 82.7092 47.9362C82.7036 47.9449 82.7021 47.9587 82.7057 47.9684C82.7037 47.9868 82.7022 48.0006 82.7002 48.0191L82.758 48.2582C82.7545 48.2905 82.7525 48.3089 82.7843 48.317L82.8211 48.321C82.9837 48.3247 83.1454 48.3795 83.2689 48.4861C83.4672 48.6334 83.6221 48.8365 83.7132 49.07C83.8095 49.3413 83.8429 49.6337 83.8022 49.9228C83.7666 50.2496 83.6838 50.4549 83.5592 50.5298C83.4346 50.6048 83.2699 50.5776 83.0798 50.4405C83.0066 50.3859 82.943 50.3278 82.88 50.265C82.821 50.2074 82.7672 50.1456 82.7236 50.0757L82.7981 49.3898L83.1434 49.6416C83.1777 49.6686 83.2048 49.6762 83.2216 49.6501C83.2338 49.6234 83.2373 49.5912 83.2311 49.5626L83.2416 49.4659C83.2548 49.4301 83.2593 49.3887 83.2541 49.3508C83.2392 49.3166 83.2141 49.2906 83.1839 49.2687L82.6312 48.8686C82.5927 48.8365 82.5651 48.8335 82.5437 48.8591C82.5223 48.8847 82.5106 48.9067 82.5046 48.962L82.398 49.9425C82.3945 49.9747 82.3915 50.0024 82.388 50.0346C82.3947 50.0586 82.4009 50.0872 82.4173 50.1076C82.5735 50.3854 82.7898 50.6232 83.0495 50.8051C83.3297 51.0126 83.5881 51.0779 83.7597 50.9568V50.9568Z" fill="#455A64"/>
<path d="M52.4372 25.2278C52.5398 25.1411 52.6886 25.1433 52.7911 25.229L55.2771 27.0409C55.517 27.2765 55.6339 27.6153 55.5882 27.9503L55.4271 29.4327C55.4229 29.5999 55.3491 29.7642 55.2252 29.8765C55.1838 29.9139 55.1302 29.936 55.0739 29.9392C54.9988 29.945 54.9266 29.9232 54.8713 29.8753L52.3858 28.0588C52.1459 27.8231 52.029 27.4844 52.0747 27.1493L52.2358 25.667C52.24 25.4998 52.3132 25.3401 52.4372 25.2278ZM55.151 29.6588C55.1989 29.6035 55.2304 29.5277 55.2292 29.4531L55.3888 27.9846C55.4163 27.7314 55.3324 27.4754 55.1519 27.2928L52.6664 25.4763C52.6367 25.4497 52.5963 25.436 52.5589 25.4366L52.5129 25.4316C52.465 25.487 52.4334 25.5627 52.4346 25.6374L52.2736 27.1197C52.246 27.3729 52.33 27.6289 52.5105 27.8115L54.996 29.628C55.0554 29.6811 55.1102 29.6917 55.151 29.6588V29.6588Z" fill="#455A64"/>
<path d="M53.7954 26.5727L53.6043 28.3312L54.9419 29.3103L54.9879 29.3153C54.9879 29.3153 54.9924 29.2739 54.9944 29.2555L55.1355 27.9573C55.156 27.7686 55.0926 27.58 54.9583 27.4443L53.7954 26.5727V26.5727Z" fill="#455A64"/>
<path d="M52.11 25.5792C52.0193 25.5134 51.9191 25.7075 51.8851 26.0205L51.855 26.2967C51.8065 26.529 51.8449 26.7754 51.962 26.9837L52.1245 27.1178L52.2745 25.7368L52.11 25.5792V25.5792Z" fill="#455A64"/>
<path d="M47.6842 7.58471C47.9086 6.67752 48.6597 6.45173 49.4707 7.04756L93.9662 39.6295C94.4427 40.0027 94.8136 40.4901 95.0461 41.051L100.818 38.511C100.581 37.9542 100.21 37.4667 99.7334 37.0935L55.246 4.52181C54.2196 3.85133 52.9399 3.71226 51.7934 4.14662L49.6858 5.06806C48.6847 5.57878 47.9562 6.49638 47.6842 7.58471Z" fill="#C68960"/>
<path d="M77.1153 110.083C77.1153 110.083 76.4188 117.05 70.1258 119.752C70.1258 119.752 72.8929 120.006 75.6529 116.04C77.5502 113.367 77.1153 110.083 77.1153 110.083Z" fill="#D9A273"/>
<path d="M78.3129 113.036C79.9747 107.259 79.2884 101.059 76.4007 95.7849C76.4007 95.7849 79.2152 98.089 79.9571 103.778C80.699 109.466 78.3129 113.036 78.3129 113.036Z" fill="#D9A273"/>
<path d="M39.838 62.7278L55.7015 64.4517C63.5873 65.3086 70.6799 59.6189 71.5599 51.7357L71.8305 49.2452C72.6712 41.6372 67.1882 34.7859 59.5807 33.9406L56.9936 33.6594C49.3911 32.81 42.5408 38.2838 41.6914 45.8862C41.6909 45.8908 41.6899 45.9 41.6894 45.9046L39.838 62.7278V62.7278Z" fill="#263238"/>
<path d="M52.8699 65.0478C47.2265 64.0014 43.3538 66.2495 42.6593 71.5259C42.3052 74.1843 43.463 85.0464 43.463 85.0464L52.8699 65.0478Z" fill="#FFA8A7"/>
<path d="M52.87 65.0478C49.9429 65.0232 46.2109 69.6201 42.7395 75.6754C41.3764 78.0611 39.0169 81.2142 41.0211 86.1737C42.2624 89.2384 45.3394 90.7558 45.3394 90.7558C46.1048 94.514 47.4057 98.1441 49.1986 101.534C50.0713 105.933 52.0863 110.022 55.0363 113.394C56.2012 114.676 63.3198 122.506 70.2528 117.814C74.3753 115.025 76.2447 110.081 76.3798 105.238C76.4608 102.391 76.1379 99.5337 74.3734 97.2971C73.3583 96.0084 72.4351 94.6458 71.6161 93.2247C71.1297 88.3137 72.6393 85.18 73.3838 79.4433C73.1267 75.2512 71.7612 71.5722 68.9282 69.01C66.7475 67.8601 64.4153 67.0337 61.9994 66.5476L52.87 65.0478V65.0478Z" fill="#D9A273"/>
<path opacity="0.1" d="M49.0361 101.228L49.7595 98.1714C49.7595 98.1714 65.3837 78.6948 66.014 78.1671C66.3839 77.8486 69.8201 76.0608 72.5039 74.6803C72.9981 76.2198 73.2949 77.8171 73.3847 79.4338C72.6422 85.1521 71.1326 88.2858 71.617 93.2152C71.617 93.2152 72.1973 94.2611 73.1682 95.6568C71.1327 95.9573 68.1763 93.1161 68.1763 93.1161C68.1763 93.1161 60.7414 101.526 57.554 104.454C54.5774 107.2 52.9447 107.479 51.0028 107.133C50.1772 105.343 49.5713 103.461 49.1995 101.525C49.1399 101.43 49.0906 101.327 49.0361 101.228V101.228Z" fill="black"/>
<path opacity="0.05" d="M41.0209 86.1737C40.9149 85.906 40.8176 85.6439 40.7341 85.3833C43.1098 87.6537 45.0664 86.4503 47.2848 86.2675C49.5783 86.0789 50.8976 89.4548 55.1436 89.5156C60.7258 89.5819 63.106 86.3239 63.106 86.3239C63.106 86.3239 62.5994 92.3567 55.6105 92.934C50.9386 93.3206 49.527 90.6659 48.261 90.5284C47.7086 90.4683 47.1695 90.8429 45.3391 90.7558C45.3391 90.7558 42.2622 89.2384 41.0209 86.1737V86.1737Z" fill="black"/>
<path d="M47.5888 40.1787C46.911 41.1018 43.6285 44.9045 43.8254 52.7371C44.0114 60.112 46.2214 61.5492 47.4223 62.071C48.6232 62.5928 51.1382 62.6378 53.3878 62.2535L53.4051 66.6803C53.4051 66.6803 50.9604 69.4608 51.1642 71.4859C51.368 73.5109 55.6261 73.7174 58.5253 71.7268C60.2748 70.501 61.5079 68.6694 61.9902 66.5885L62.6204 56.5029C62.6204 56.5029 64.0327 57.9513 66.1941 56.663C68.231 55.4498 68.7252 51.7167 67.272 50.2592C65.8188 48.8017 63.1854 49.2888 62.6155 51.3182C62.6155 51.3182 57.5565 51.9236 53.412 49.3865C48.1213 46.1659 47.7182 42.2887 47.5888 40.1787V40.1787Z" fill="#FFA8A7"/>
<path d="M62.2238 54.0657L62.8535 49.5135C61.5645 49.3734 60.3911 50.2707 60.2004 51.5541C60.0484 52.7812 60.9184 53.9052 62.1455 54.0571C62.1731 54.0601 62.1961 54.0626 62.2238 54.0657V54.0657Z" fill="#263238"/>
<path d="M51.7944 57.1152L49.1875 57.9591C49.3886 58.6796 50.1347 59.1007 50.8506 58.899C50.8649 58.8959 50.8747 58.8923 50.889 58.8892C51.6196 58.6379 52.0171 57.852 51.7944 57.1152Z" fill="#F28F8F"/>
<path d="M45.2436 50.1012C45.1886 50.6075 45.5533 51.0664 46.0643 51.1219C46.0827 51.1239 46.1011 51.1259 46.1195 51.1279C46.6447 51.1384 47.0758 50.7288 47.0909 50.2041C47.1137 49.6942 46.7138 49.2595 46.2039 49.2367C45.694 49.2139 45.2593 49.6138 45.2365 50.1237L45.239 50.1007L45.2436 50.1012Z" fill="#263238"/>
<path d="M51.8568 51.3553C51.857 51.8677 52.2686 52.2804 52.7805 52.2848C53.2929 52.2846 53.7056 51.873 53.71 51.3611C53.7124 50.8676 53.3238 50.4574 52.8277 50.4361C52.3178 50.4133 51.8841 50.804 51.8562 51.318C51.8547 51.3318 51.8532 51.3456 51.8517 51.3594L51.8568 51.3553Z" fill="#263238"/>
<path d="M49.2505 50.4758L48.482 56.005L45.6624 54.7764L49.2505 50.4758Z" fill="#F28F8F"/>
<path d="M53.3898 62.2349C55.2768 62.016 59.0166 60.8621 59.8435 59.5965C59.8435 59.5965 59.8149 60.4598 58.5879 61.6353C57.3609 62.8108 53.3969 63.6702 53.3969 63.6702L53.3898 62.2349Z" fill="#F28F8F"/>
<path d="M45.2177 47.597L47.3817 46.9285C47.1772 46.3241 46.5336 45.9886 45.9229 46.1645C45.3394 46.3479 45.0203 46.97 45.2037 47.5535C45.2068 47.5679 45.2146 47.5827 45.2177 47.597V47.597Z" fill="#263238"/>
<path d="M47.8868 96.4592L61.2614 79.081C61.2614 79.081 64.2559 68.8843 68.9214 69.028C68.9214 69.028 73.038 70.5793 73.7286 73.2254C74.5591 76.4271 74.1767 79.4318 69.9617 85.858C66.7775 90.7288 58.6091 99.6738 55.4065 102.656C54.111 103.861 52.6847 105.285 51.4478 105.524" fill="#FFA8A7"/>
<path d="M8.52965 105.531C9.7612 106.457 11.9623 108.233 15.9659 107.439C20.3262 106.576 22.7419 104.449 23.8338 104.516C31.587 104.921 47.1564 105.965 51.4458 105.542L47.8867 96.4589C46.3717 96.5132 44.8577 96.5582 43.3436 96.6033C40.3299 96.6904 28.9616 96.8477 28.3254 96.7879C27.3371 96.6665 26.3756 96.385 25.4807 95.9617C25.4628 95.9551 25.4408 95.9434 25.4234 95.9322C25.215 95.835 25.0123 95.7292 24.8151 95.6146C23.1107 94.754 21.9102 93.5429 20.5059 93.0922C19.9292 92.9131 19.3347 92.8112 18.7318 92.7876C18.4913 92.7289 18.2601 92.7131 18.0336 92.7397C15.5667 92.8955 12.8611 94.3901 11.4911 94.7815C10.1211 95.1729 8.73313 95.3435 9.81367 96.63C10.8942 97.9166 13.9568 97.0803 16.065 96.5827C16.1943 96.5502 16.3272 96.5274 16.4637 96.5143C16.4108 96.6576 16.3298 96.7606 16.2051 96.7936C13.9933 97.387 13.6219 98.5763 10.6124 100.639C9.17323 101.623 8.37575 102.361 7.42475 102.84C6.77618 103.622 6.67622 104.156 8.52965 105.531V105.531Z" fill="#FFA8A7"/>
<path d="M25.4236 95.9325C25.4236 95.9325 25.463 95.9554 25.4809 95.962C25.4819 95.9528 25.4829 95.9436 25.4834 95.939L25.4282 95.933L25.4236 95.9325Z" fill="#FFA8A7"/>
<defs>
<filter id="filter0_f_548_16289" x="16" y="154.456" width="92" height="17" filterUnits="userSpaceOnUse" color-interpolation-filters="sRGB">
<feFlood flood-opacity="0" result="BackgroundImageFix"/>
<feBlend mode="normal" in="SourceGraphic" in2="BackgroundImageFix" result="shape"/>
<feGaussianBlur stdDeviation="2" result="effect1_foregroundBlur_548_16289"/>
</filter>
</defs>
</svg>
