<svg width="104" height="125" viewBox="0 0 104 125" fill="none" xmlns="http://www.w3.org/2000/svg">
<path d="M5.45409 112.82C4.87511 115.33 3.77694 117.197 0.867905 117.679C-0.337844 117.88 -1.39297 118.985 -2.7089 119.798C-3.06886 119.205 -3.42924 118.615 -3.87877 117.875C-4.46815 118.64 -5.02586 119.367 -5.60342 120.117C-7.24451 118.318 -7.40058 114.455 -5.51838 111.817C-3.8734 109.511 -1.66016 107.612 0.603364 105.215C-3.05983 103.619 -6.22937 101.44 -10.0977 104.064C-11.0305 104.697 -12.1634 105.152 -13.1825 104.456C-12.9741 102.505 -12.7949 100.735 -12.5963 98.9667C-12.3785 97.0242 -11.3331 95.7339 -9.39895 95.3212C-8.28045 95.0832 -7.05854 94.923 -5.9532 95.1178C-3.19431 95.6052 -0.445365 96.2093 2.25139 96.9659C4.64159 97.6374 4.86672 97.6337 6.04093 95.2386C3.75137 94.9806 1.38754 94.842 -0.923074 94.4127C-2.78791 94.0651 -3.56162 93.0849 -3.46924 91.7751C-3.35622 90.1724 -2.45524 89.2449 -0.864871 89.2346C0.87996 89.222 1.45749 88.2282 1.75818 86.7331C1.96115 85.72 2.37367 84.7484 2.56851 84.1428C-1.3748 81.6505 -5.12061 79.3051 -8.84365 76.9225C-10.3605 75.9512 -10.7667 74.6261 -9.62176 73.3225C-8.71293 72.2888 -7.41571 71.4266 -6.12162 70.9354C-2.94814 69.7303 0.343312 70.0835 3.89172 70.9385C3.56502 70.0227 3.33063 69.3628 3.23874 69.1049C1.2397 68.502 -0.431806 68.1114 -2.01572 67.4896C-4.06718 66.6851 -4.6408 64.5066 -5.76484 62.8853C-6.08648 62.4213 -5.69369 61.072 -5.19618 60.5153C-3.99507 59.1723 -2.5935 57.9833 -1.15876 56.8823C-0.424691 56.3197 0.555848 56.0787 1.43877 55.6863C-2.47616 49.5208 -2.58713 48.5488 -0.0493585 41.5489C-1.20048 40.6193 -2.40941 39.5485 -3.71248 38.6086C-5.91053 37.0229 -6.07168 35.4605 -3.93886 33.7897C-1.50684 31.8858 1.41922 31.452 4.33184 31.9962C7.1492 32.5215 9.87309 33.5407 12.962 34.4387C13.227 33.7788 13.5914 32.8725 14.0628 31.7037C10.6971 32.1581 7.60408 32.4907 4.72567 30.9857C3.53576 30.3629 2.37444 29.6402 1.3259 28.8035C0.307882 27.9905 -0.429129 26.9472 0.413409 25.5375C1.22092 24.1825 2.11585 23.8738 3.83499 24.3905C4.19618 24.4994 4.54685 24.6393 5.18799 24.8675C6.4462 23.5028 7.72509 22.1114 9.023 20.7018C7.1591 18.5623 5.35071 16.4535 3.49456 14.3858C3.12519 13.974 2.6104 13.6411 2.09833 13.4165C-3.84353 10.8074 -6.0819 6.62777 -4.94683 0.200832C-4.91375 0.0116803 -4.91072 -0.181228 -4.83118 -1.11542C-6.90324 1.14789 -8.57576 2.97143 -10.4312 4.99622C-9.21798 5.61266 -8.35985 6.01142 -7.538 6.47115C-2.82125 9.1013 -0.469002 14.2271 -1.91237 18.9239C-2.21401 19.902 -2.77675 20.8878 -3.46942 21.6411C-4.61653 22.8893 -6.19498 22.9393 -7.68749 22.0784C-10.0451 20.7206 -11.0252 18.4395 -11.7177 15.8285C-12.5351 18.4768 -13.1856 20.9602 -14.0882 23.3497C-14.5893 24.6798 -15.3707 25.9696 -16.279 27.0672C-17.5973 28.6575 -19.3706 29.3242 -21.4871 28.8036C-23.6663 28.2662 -25.0238 26.9461 -25.6127 24.7777C-26.7652 20.5362 -24.2267 14.4094 -20.3281 12.176C-19.4073 11.6482 -18.4561 11.1221 -17.4554 10.7904C-15.5885 10.1731 -14.3621 8.98016 -13.4311 6.69084C-16.4253 9.6444 -19.5726 11.0613 -23.332 10.9716C-26.1828 10.9036 -28.6048 9.77054 -30.6708 7.91857C-32.5424 6.23929 -32.6224 4.15641 -30.9876 2.26821C-30.4285 1.62257 -29.7321 1.03931 -28.9893 0.621376C-26.3965 -0.839473 -23.5452 -1.42887 -20.6051 -1.35638C-17.7594 -1.285 -15.3708 -0.0727703 -13.5283 2.13069C-12.9787 2.78717 -12.4683 3.47544 -11.7446 4.39728C-10.1297 2.53154 -8.64279 0.811956 -6.98187 -1.10844C-9.40157 -1.25372 -11.5929 -1.24159 -13.7374 -1.55443C-15.5272 -1.81456 -17.3802 -2.21038 -18.9928 -2.98734C-21.0772 -3.99194 -22.7357 -5.80271 -22.4947 -8.23979C-22.2528 -10.6701 -20.0598 -11.5681 -17.9482 -12.1435C-15.634 -12.7756 -13.3464 -12.6411 -10.9763 -11.6019C-11.0916 -11.7303 -11.204 -11.8625 -11.3198 -11.9888C-13.317 -14.1438 -13.78 -15.9925 -12.82 -17.9836C-11.6927 -20.3198 -9.65332 -21.4967 -6.88517 -21.267C-1.73446 -20.8378 2.13733 -18.573 4.01125 -13.509C4.31195 -12.6952 4.70019 -11.9124 5.07236 -11.1262C5.14968 -10.9613 5.33398 -10.8478 5.63417 -10.5421C7.98108 -11.5503 10.405 -12.5916 12.9176 -13.6703C10.4259 -14.7842 8.11481 -15.6996 5.91759 -16.8343C4.07746 -17.7839 2.64226 -19.2338 1.89163 -21.2407C0.921118 -23.8365 1.80191 -25.6168 4.43409 -26.3772C8.13047 -27.4456 12.772 -25.224 14.7321 -21.1721C15.6386 -19.297 16.0445 -17.1825 16.7516 -14.9446C17.3178 -14.9929 18.1623 -15.0806 19.0069 -15.1353C22.087 -15.3363 25.171 -15.5124 28.2502 -15.7312C29.7651 -15.8378 31.2754 -16.1212 32.7912 -16.1331C33.9148 -16.1413 35.0486 -15.8792 36.1663 -15.6687C37.4283 -15.4318 38.6402 -14.5539 39.8754 -15.9914C40.1698 -16.3332 41.6361 -16.1614 42.1405 -15.7316C43.3209 -14.728 44.5411 -14.6687 45.9361 -14.8145C48.9174 -15.1274 51.9288 -15.2145 54.8844 -15.6755C63.7949 -17.0674 72.1962 -15.6795 80.1774 -11.4943C83.4316 -9.78726 86.6862 -8.04939 90.0753 -6.64551C93.6286 -5.17168 97.3408 -4.07758 100.987 -2.82727C101.607 -2.61425 102.242 -2.44653 103.22 -2.15374C102.787 -1.06327 102.423 -0.148064 102.065 0.746406C99.3591 1.02379 97.2713 -0.207974 95.2311 -1.12466C89.2374 -3.81655 83.2901 -6.64219 77.4706 -9.69099C70.9055 -13.1294 63.9438 -13.3898 56.8406 -12.814C54.7947 -12.6477 52.539 -13.1431 50.8089 -11.3618C50.5161 -11.0614 49.5027 -10.9873 49.2047 -11.2487C47.3019 -12.9034 45.0489 -12.4131 42.8786 -12.4738C41.8569 -12.5025 40.8369 -12.5507 39.6824 -12.597C44.6899 -9.00327 49.4428 -5.58973 54.3542 -2.06561C54.8417 -2.77162 55.3118 -3.46788 55.7998 -4.15401C58.2446 -7.59906 61.5603 -9.48838 65.7858 -9.82965C68.2721 -10.0318 70.3466 -9.13251 72.1477 -7.55295C74.095 -5.84546 74.1742 -3.99143 72.5101 -1.96612C71.1478 -0.309781 69.3501 0.591753 67.2641 0.838064C65.6398 1.03073 63.9908 1.11513 62.3546 1.10095C60.7206 1.08718 59.0872 0.893206 57.0047 0.7444C58.2023 2.08341 59.2324 3.2243 60.2493 4.37579C61.3239 5.59149 62.3872 6.82031 63.5869 8.19274C64.1224 7.55561 64.5622 7.17879 64.8187 6.70625C66.6044 3.40106 69.5321 1.98238 73.1105 1.66462C75.7643 1.42751 78.3507 1.77515 80.699 3.09151C84.1757 5.04053 84.4701 7.91793 81.5422 10.5922C77.9645 13.8589 72.2783 14.467 68.0232 12.0163C67.3635 11.6371 66.7541 11.1711 66.038 10.6883C66.5838 12.2412 67.0892 13.6762 67.5929 15.1086C66.1482 13.7844 64.7035 12.4601 63.4543 11.3154C61.9627 13.7245 60.4196 16.2158 58.8732 18.713L69.747 20.868C69.3519 19.3427 69.0212 18.07 68.6904 16.7972C70.0454 18.119 71.4 19.4429 72.897 20.9029C73.5422 20.3557 74.2567 19.7364 74.9873 19.1357C79.1267 15.7429 85.2867 14.9757 89.371 17.4893C90.4886 18.177 91.5032 19.1851 92.2699 20.2562C94.1385 22.8717 93.3651 25.5639 90.4395 26.917C87.565 28.245 84.5711 28.1223 81.637 27.1978C79.2619 26.45 76.9617 25.4576 74.5165 24.5311C76.0938 27.7837 77.6949 31.0828 79.3754 34.5471C80.0265 34.2034 80.5142 34.0736 80.8239 33.7655C84.0115 30.5688 87.8019 30.2579 91.8627 31.5024C94.582 32.3338 97.0445 33.6838 98.9288 35.8758C101.226 38.5476 100.636 41.4388 97.526 43.0544C93.0063 45.4022 87.713 44.749 83.6939 41.3292C82.967 40.7124 82.2916 40.0354 81.1959 39.5697C81.9978 42.0618 82.7972 44.5555 83.6987 47.3553C84.8887 47.1118 85.8883 46.9185 86.8841 46.7002C91.9288 45.5889 96.3703 46.744 99.7859 50.6445C100.934 51.9561 101.716 53.8022 102.092 55.528C102.772 58.6556 100.709 60.7603 97.4867 60.6032C94.5478 60.4584 92.063 59.2205 89.9539 57.2413C88.4049 55.7886 86.9597 54.2225 85.1998 52.4355C85.159 55.1498 85.7555 57.102 87.9279 58.5066C93.2352 61.9421 94.9221 67.0173 94.2958 73.0745C94.0813 75.1562 93.3835 77.0344 91.8534 78.5057C88.562 81.6709 83.472 80.8579 81.7089 76.6669C79.4535 71.3074 79.4784 65.7094 81.1437 60.1923C81.5353 58.8934 82.7573 57.8447 83.8286 56.3572C83.6323 55.4497 83.3578 54.1815 83.0812 52.9129C82.931 52.9271 82.7808 52.9413 82.6306 52.9555C82.4856 53.6876 82.3494 54.4193 82.1958 55.1497C80.9383 61.062 77.2301 64.6657 71.487 66.1377C66.8886 67.3176 64.0793 64.5312 65.0157 59.8504C65.8494 55.6881 68.0667 52.3255 71.4587 49.829C73.7866 48.1177 76.4291 47.2494 79.3999 47.8997C80.0367 48.0391 80.7036 48.0372 81.3623 48.0995C81.4792 45.8446 79.689 40.0583 77.8582 36.5862C77.1418 44.6859 71.337 48.7339 65.0229 52.2214C62.8367 53.4286 60.5271 52.8279 58.5637 51.1239C57.4824 50.1861 56.1933 49.4865 55.0795 48.5797C53.5227 47.3102 52.0398 45.9454 50.5024 44.6006C48.7445 46.2335 46.8108 48.0317 44.5704 50.1121C44.9235 51.5718 45.3904 53.5005 45.912 55.6643C48.3452 55.8079 50.6513 55.8273 52.9265 56.1133C55.0176 56.3737 57.1807 56.6485 59.1203 57.4067C61.8688 58.4791 62.4423 60.1255 61.751 62.9923C61.418 64.3732 61.1882 65.7768 60.8192 67.6387C60.5259 67.5982 59.8078 67.6472 59.2478 67.3757C58.6637 67.0928 58.1883 66.539 57.7426 66.0351C56.0577 64.1245 53.9553 63.466 51.4725 63.7942C50.3272 63.9454 49.1716 64.0155 47.5557 64.1658C47.9863 65.2011 48.1776 66.134 48.6972 66.8197C50.9652 69.8068 52.1654 73.0528 51.3854 76.7223C52.427 77.7049 53.4597 78.4659 54.2148 79.4402C55.7059 81.3629 55.1499 83.0141 52.8718 83.9084C48.9236 85.4591 44.9806 87.0174 40.7757 88.6755C40.8364 89.4242 40.9925 90.5568 41.0051 91.6918C41.0199 93.0383 41.517 93.8712 42.904 94.1879C43.5289 94.3315 44.2337 94.6493 44.6408 95.1148C46.0619 96.7466 45.3471 98.8215 43.1677 99.2956C39.6895 100.051 36.4194 99.3348 33.4548 97.4213C32.1616 96.5867 31.0166 95.5264 29.7405 94.517C29.4278 95.6953 29.1113 96.8926 28.7133 98.4014C30.447 98.7449 32.0324 99.0591 33.6179 99.3733C36.3557 99.9115 38.72 101.202 40.7113 103.11C41.4638 103.831 42.0846 104.761 42.5354 105.706C43.6378 108.013 42.7407 109.432 40.1912 109.608C38.4648 109.728 36.7396 109.841 34.7859 110.43C36.0995 111.339 37.3971 112.274 38.7364 113.142C39.216 113.452 39.8273 113.554 40.3239 113.846C41.3783 114.463 42.8497 114.843 42.7015 116.434C42.5538 118.023 41.4404 119.001 40.0047 119.563C36.7108 120.854 33.5622 120.446 30.9062 118.796C29.0938 119.116 27.6097 119.379 25.9749 119.668C26.4767 123.941 29.759 126.25 33.2061 128.171C31.988 130.832 30.0913 131.144 28.1104 130.961C26.3847 130.799 24.6528 130.447 22.9828 129.971C18.3747 128.658 16.338 125.059 17.3912 120.388C17.8207 118.487 18.6399 116.585 17.6703 114.262C16.3154 117.147 15.0997 119.729 13.7688 122.56C14.2395 123.293 14.6228 124.4 15.3992 125C17.4394 126.583 17.92 128.543 17.4326 130.925C17.3588 131.286 17.4264 131.678 17.4321 132.504C18.4946 132.16 19.3565 131.896 20.2105 131.605C24.8332 130.036 28.7056 131.499 31.0528 135.729C31.7301 136.951 32.1856 138.205 31.1677 139.511C28.527 139.36 25.8995 139.209 23.1827 139.053C23.817 143.601 25.8966 146.583 29.8906 147.909C29.6804 148.426 29.6501 148.712 29.5316 148.755C25.9845 150.003 22.3681 150.146 18.7623 149.136C18.0222 148.93 17.4532 148.116 16.8043 147.583C17.0695 147.51 17.3343 147.439 17.5995 147.367C17.1379 145.844 17.1454 144.163 15.6566 143.028C14.8616 142.422 14.3887 141.411 13.7009 140.641C13.3158 140.209 12.7918 139.901 12.1751 139.416C11.7896 141.516 12.1528 142.947 13.7143 144.026C14.3122 144.439 14.7269 145.122 15.2231 145.682C11.7613 144.312 11.2331 143.57 11.1842 139.987C11.1694 138.862 11.1589 137.739 11.1437 136.383C9.8597 137.523 9.12225 138.547 9.77619 140.209C10.4097 141.819 9.88686 143.791 11.7039 145.09C12.2281 145.464 12.0486 147.036 11.9332 148.029C11.8037 149.149 11.3841 150.234 11.0891 151.334C10.4725 151.559 9.66635 151.609 9.27103 152.038C6.79432 154.723 7.96923 159.85 11.3916 161.197C12.624 161.683 13.9989 161.872 15.328 162.026C15.8529 162.086 16.4307 161.679 17.447 161.324C13.5128 159.196 12.321 155.941 11.7557 152.322C11.9058 152.442 12.1218 152.528 12.1965 152.684C13.0007 154.332 13.5842 156.128 14.6271 157.603C15.5911 158.966 17.0391 159.985 18.2596 161.142C16.3115 163.824 14.2123 163.792 8.26302 161.054C7.87196 163.572 9.90053 165.047 10.7174 166.952C8.57561 169.49 5.04486 169.501 3.0203 166.984C1.55013 165.155 0.897366 162.977 1.34224 160.721C1.94186 157.695 2.72643 154.68 3.76514 151.781C4.10955 150.82 5.48302 150.228 6.71487 149.718C6.83761 149.265 7.12113 148.789 7.05813 148.363C6.82464 146.81 7.2764 145.541 8.24034 144.329C9.35416 142.927 9.49521 141.382 8.58575 139.766C7.3068 139.748 7.15616 140.675 6.90245 141.478C5.18325 146.923 0.793115 149.305 -4.52834 147.617C-5.33967 147.359 -6.26797 147.004 -6.78498 146.393C-7.48902 145.561 -8.20413 144.463 -8.27542 143.435C-8.37236 142.037 -6.90848 141.822 -5.83226 141.375C-3.79441 140.528 -1.68448 139.761 0.167425 138.597C1.23054 137.928 2.06316 136.646 2.61495 135.461C4.00984 132.474 5.82833 130.402 9.50763 131.096C9.7299 131.14 10.0104 130.868 10.1174 130.817L11.221 125.248C9.19962 126.756 6.79104 127.831 4.00447 127.705C1.75836 127.605 -0.148287 126.847 -1.32896 124.801C-2.04306 123.565 -1.78254 122.55 -0.492108 121.91C0.458812 121.441 1.48066 121.114 2.44048 120.655C5.40959 119.238 7.84758 117.36 8.7914 113.952C9.40984 111.719 11.03 110.182 13.4502 109.204C12.6708 108.385 12.1683 107.857 11.5234 107.181C9.96302 109.682 9.08168 112.775 5.48496 112.808C6.15437 112.294 6.82461 111.776 7.49572 111.265C8.82228 110.255 9.88068 109.088 10.007 106.641C8.46273 109.427 4.79013 109.387 4.53343 112.714C4.88985 112.758 5.17134 112.792 5.45283 112.826L5.45409 112.82ZM20.2132 -4.42696C20.1798 -5.11307 20.1443 -5.79959 20.0949 -6.84948C18.4817 -5.68048 17.7258 -4.55267 17.4881 -2.4536C18.5273 -3.20199 19.1613 -3.65909 19.7974 -4.11576C19.5034 -3.32081 19.2095 -2.52586 18.8233 -1.48751C19.5071 -1.10792 20.1574 -0.748163 20.9839 -0.289708C20.9825 -1.937 20.979 -3.16253 20.978 -4.38974C21.6923 -3.76443 22.4086 -3.13869 23.359 -2.30606C23.6418 -6.86345 23.4239 -7.29585 20.7936 -8.02161C20.8619 -6.80085 20.9327 -5.58178 21.0009 -4.36102C20.7393 -4.38427 20.4773 -4.40541 20.2158 -4.42866L20.2132 -4.42696ZM58.7747 11.3951C58.9567 10.987 59.1367 10.5785 59.5463 9.65474C57.9263 9.84824 56.6959 9.99583 55.468 10.1417C55.4894 10.2559 55.5129 10.3705 55.5347 10.4826C56.6017 10.793 57.6691 11.1013 58.7383 11.4121C58.3283 11.9158 57.9183 12.4195 57.4319 13.0201C57.6091 14.357 57.7967 15.7752 57.9842 17.1933C59.244 15.2989 60.3164 13.462 58.7751 11.393L58.7747 11.3951ZM4.04 3.0637C2.52902 0.675235 1.95132 0.426612 -0.470639 1.12529C-0.426779 1.50341 -0.383757 1.88576 -0.340315 2.26599C-1.64875 1.63067 -2.34311 2.38144 -2.77197 3.44652C-3.34828 4.87818 -4.09377 6.36428 -2.84372 7.92699C-0.685926 6.0303 -0.234728 5.37427 0.483227 3.18344C1.15158 3.9404 1.81952 4.69948 2.47515 5.44292C3.39456 5.33266 4.19212 5.23784 5.21519 5.11513C4.75751 4.31636 4.39791 3.68876 4.03831 3.06116L4.04 3.0637ZM59.9503 -0.820255C61.0758 -0.460868 62.2014 -0.10148 63.3248 0.257488C63.4403 0.0517 63.558 -0.15367 63.674 -0.361573C62.6399 -1.41531 61.6083 -2.47075 60.4021 -3.69934C59.7019 -3.14103 59.1271 -2.68319 58.5545 -2.22493C57.8211 -2.02065 57.0881 -1.81848 56.3546 -1.6142C57.5838 -0.801067 58.5518 0.886064 59.9456 -0.818982L59.9503 -0.820255ZM78.1445 24.0736C79.2168 24.6797 80.2886 25.2879 81.3608 25.8941C81.507 25.7339 81.6535 25.5716 81.7996 25.4115C81.156 24.2856 80.6298 23.0664 79.8379 22.0563C78.925 20.8902 78.0979 21.2343 77.4179 22.9225C76.6308 22.043 75.8421 21.1831 74.6412 22.6361C75.6227 23.6222 76.416 24.8921 78.1467 24.074L78.1445 24.0736ZM43.8252 8.91409C44.8496 9.51732 45.5576 11.1287 47.1497 9.94454L47.5774 7.78635C47.9082 8.20375 48.2387 8.62327 48.6556 9.1501C50.2395 7.21884 51.01 5.2957 50.3375 2.76116C48.6781 3.38664 47.8579 4.328 47.4821 5.69164C47.055 5.63779 46.6253 5.58563 46.1982 5.53177C46.3346 4.63302 45.9963 3.86451 45.0618 4.05094C43.928 4.27704 42.7629 4.72783 41.8314 5.38763C41.4451 5.66071 40.4856 6.75036 41.8123 7.43769C41.054 8.37809 40.4623 9.30976 41.8995 10.2059C42.5872 9.74404 43.2085 9.32843 43.8303 8.9107L43.8252 8.91409ZM7.85869 -24.731C6.4631 -25.8146 5.098 -25.9641 3.45586 -24.6491C5.21409 -24.0522 6.65725 -23.5639 8.10041 -23.0756C9.08457 -22.0362 10.0687 -20.9967 11.055 -19.9569C9.74337 -20.7204 8.48484 -21.6075 7.10198 -22.2114C5.69498 -22.8266 4.41585 -24.0983 2.33231 -23.4755C2.61895 -22.4797 2.73793 -21.5259 3.15583 -20.7263C4.65246 -17.8547 9.01 -17.4749 11.0338 -19.9831L12.9833 -19.5967C12.4612 -20.947 12.2034 -22.0998 11.6063 -23.0383C10.7803 -24.3433 9.7332 -25.5645 7.85869 -24.731ZM-25.718 7.09255C-25.9462 7.68941 -26.1745 8.28627 -26.621 9.45121C-25.4789 9.14979 -24.5935 9.15592 -24.0641 8.7265C-22.8187 7.71548 -21.7308 6.49956 -21.9287 4.72314C-22.9686 3.98711 -23.5913 4.35408 -24.1666 5.17023C-24.6495 5.85297 -25.2214 6.47409 -25.7547 7.12265C-25.5115 6.35063 -25.2709 5.5803 -24.925 4.47899C-27.0274 4.98592 -28.8041 5.41447 -31.23 6.0002C-29.7189 7.1001 -28.7828 7.78257 -27.9386 8.39625C-27.0124 7.85195 -26.3673 7.47183 -25.7201 7.09213L-25.718 7.09255ZM13.0095 0.608201C12.8582 0.993837 12.5471 1.39836 12.5867 1.76464C12.7486 3.31183 13.0139 4.84869 13.3134 6.88932C14.0837 5.55548 14.6271 4.61205 15.1131 3.7694C14.6008 2.76851 14.2139 2.01235 13.8266 1.25831C14.8141 1.39245 15.2459 0.989843 15.1256 -0.0235455C14.8784 -2.10658 12.9348 -3.87711 10.1788 -4.1462C11.207 -2.41855 12.1082 -0.905175 13.009 0.610317L13.0095 0.608201ZM-3.99991 -18.7975C-5.47712 -20.3129 -7.20592 -20.5587 -9.12926 -19.8118C-10.4368 -19.7521 -11.1511 -18.9899 -11.7267 -17.6504L-7.55032 -16.8228C-8.19751 -18.0417 -8.67526 -18.939 -9.15301 -19.8363C-8.58634 -19.3766 -7.74862 -19.0303 -7.50546 -18.4367C-6.68204 -16.4308 -5.0985 -15.7849 -3.04565 -15.3759C-3.09292 -16.2253 -3.13008 -16.8704 -3.16512 -17.515C-2.84518 -17.0536 -2.37381 -16.6347 -2.22898 -16.1223C-1.73232 -14.3768 -0.450671 -13.8062 1.68159 -13.476C1.35304 -14.4822 1.3015 -15.3544 0.8477 -15.8842C-0.119263 -17.0103 -1.24261 -18.0246 -2.41739 -18.9347C-2.72634 -19.174 -3.45959 -18.8598 -3.99949 -18.7996L-3.99991 -18.7975ZM78.0063 9.85186C80.696 10.2442 80.7814 10.2017 81.8729 7.9354C79.8692 7.31548 78.2483 7.21709 77.0102 7.64022C77.2042 8.17122 77.3981 8.70223 77.5921 9.23324C77.1089 8.80763 76.5398 8.44858 76.1644 7.94537C75.444 6.9736 74.6187 6.70889 73.4701 7.14315C73.4931 7.90415 73.5154 8.55728 73.5357 9.20999C72.966 8.46598 72.3983 7.72239 71.7607 6.88796C70.7087 7.14566 69.7185 7.39141 68.1808 7.76837C69.5367 9.34105 70.4592 10.7025 71.663 11.7327C72.9685 12.849 73.7712 12.5397 74.7522 10.975C76.0053 10.9352 77.3139 12.6019 78.5257 10.8828C78.3427 10.5188 78.1732 10.1862 78.0059 9.85398L78.0063 9.85186ZM-14.8186 -9.10886C-13.1551 -8.26684 -11.4917 -7.42482 -9.4025 -6.36651C-11.286 -10.6825 -12.5021 -11.4733 -16.2177 -11.1739C-15.7403 -10.4636 -15.2709 -9.76803 -14.8016 -9.0725C-15.4515 -9.47837 -16.0964 -9.88764 -16.7501 -10.2855C-18.3211 -11.2389 -18.6028 -11.1716 -20.4205 -9.33723C-18.5205 -8.5451 -16.677 -8.7119 -14.8169 -9.10632L-14.8186 -9.10886ZM-21.4251 18.0783C-19.7695 16.9507 -17.512 16.3382 -17.6088 13.6737C-20.11 13.6178 -22.8988 15.4906 -23.5253 17.7193C-23.6649 18.2128 -23.4395 18.8072 -23.3809 19.3554C-24.5636 20.6383 -24.976 22.12 -24.5749 23.6926C-23.6089 23.3585 -22.6455 23.0261 -21.682 22.6936C-22.1869 23.1323 -22.7275 23.5398 -23.1921 24.0194C-24.3955 25.263 -24.2643 25.7332 -22.3233 27.0173C-21.6377 25.6227 -21.024 24.2798 -21.7201 22.7081C-20.25 21.4953 -19.8442 19.8364 -19.5721 18.008C-20.3101 18.0354 -20.8666 18.0571 -21.4251 18.0783ZM54.6666 14.1411C55.231 13.358 55.7954 12.5749 56.7473 11.2572C54.774 11.5677 53.3357 11.6542 52.0051 12.0744C51.5073 12.2331 51.2538 13.168 50.8901 13.749C51.5099 14.0961 52.1047 14.6472 52.7595 14.7286C53.3542 14.8024 54.0119 14.3698 54.6434 14.1585C53.7567 15.2472 52.8678 16.3355 51.9959 17.4051C52.0251 19.0447 53.1656 19.218 54.3755 19.229C55.6752 19.2425 56.2606 18.4196 56.4041 17.2518C56.5484 16.0907 56.6008 14.9159 56.7046 13.6149C55.7525 13.8572 55.2098 13.9981 54.6675 14.1369L54.6666 14.1411ZM86.1918 19.7774C86.3982 20.1569 86.5255 20.7802 86.827 20.8796C88.4683 21.4225 90.1504 21.8373 91.9593 22.3342C90.6448 19.1205 90.6198 19.1024 87.9541 19.1107C88.0724 18.7801 88.1882 18.4512 88.3006 18.1392C85.3683 16.7841 82.7686 17.0253 80.3579 19.0214C80.0156 19.3054 79.508 19.3917 79.0787 19.5705L79.4163 17.8673C77.9621 18.5444 76.6276 18.8847 76.0545 20.9217C77.3831 20.334 78.2174 19.965 79.0496 19.5956C81.3998 20.8463 83.7899 20.5526 86.191 19.7816L86.1918 19.7774ZM-16.8269 21.8834C-16.3437 22.054 -15.8584 22.2249 -15.2642 22.435L-14.5288 18.7238C-13.0542 16.5004 -13.1324 14.6971 -14.8931 12.2701C-15.1695 12.521 -15.5369 12.7099 -15.6637 13.0058C-15.8428 13.4211 -15.8436 13.9135 -15.9236 14.3727C-16.8088 15.576 -17.6941 16.7793 -18.3589 17.681C-17.7197 19.4284 -17.2646 20.673 -16.8099 21.9198C-17.4421 21.258 -18.0739 20.594 -18.8596 19.7742C-20.4736 22.5791 -20.1912 24.9066 -18.2053 27.1407C-16.9173 26.5581 -16.388 25.5965 -16.6259 24.1662C-16.75 23.416 -16.7666 22.6452 -16.8315 21.8847L-16.8269 21.8834ZM72.7618 3.52402C72.057 2.51795 71.1638 2.8731 70.5199 3.43597C69.6369 4.20652 68.9387 5.18744 68.1612 6.08007C68.3359 6.25322 68.511 6.42426 68.6878 6.59783C69.2261 6.16797 69.7535 5.72714 70.3037 5.31502C71.1253 4.69941 71.9609 4.10195 72.7914 3.49689C72.3315 4.26335 71.8716 5.02981 71.1392 6.25022C74.4232 5.54207 77.5875 7.21368 80.3924 4.41611C77.7108 3.10624 75.3556 2.40202 72.7639 3.52443L72.7618 3.52402ZM63.1977 40.0512C63.4025 41.1935 63.6073 42.3358 63.8284 43.5626C65.3872 42.7677 66.613 42.1442 67.8387 41.5207C67.9377 42.653 67.9432 43.802 68.1614 44.9095C68.381 46.0217 68.8117 47.09 69.1459 48.1788C71.2114 45.5821 72.0605 43.8285 72.3614 41.511C72.4845 40.5569 72.7509 39.5454 71.5177 39.0525C71.6823 38.144 71.2537 37.7424 70.4118 37.4062C67.3574 36.1896 64.9673 37.6488 62.3899 39.1875C62.7113 39.5305 62.9543 39.7919 63.1977 40.0512ZM97.9583 37.1545C95.6523 33.0604 90.661 31.6051 87.7303 35.2815C90.4263 36.0863 93.052 36.8683 95.6794 37.6529C96.74 38.3732 97.8002 39.0957 99.3862 40.173C99.1154 39.0308 99.0942 38.5495 98.8857 38.1695C98.6704 37.7794 98.275 37.4878 97.9583 37.1545ZM-6.31236 -12.8568C-6.62384 -12.3952 -6.93743 -11.934 -7.35695 -11.3156C-4.01343 -10.4925 -0.899744 -8.30977 2.90266 -10.8679C1.74514 -11.5986 0.91292 -12.1726 0.0342938 -12.6677C-0.951511 -13.2215 -1.97653 -13.6995 -2.69792 -14.0668C-3.94402 -13.7178 -4.84582 -13.4633 -5.74508 -13.2105C-5.38105 -13.6266 -5.01489 -14.0422 -4.66522 -14.4413C-7.07087 -16.8443 -9.07821 -15.285 -11.1646 -14.1262C-10.1273 -12.5221 -10.1264 -12.4714 -9.14804 -12.5238C-8.19889 -12.5732 -7.25715 -12.7406 -6.31236 -12.8568ZM92.5271 70.6548C92.7231 70.4649 93.0681 70.2892 93.0897 70.0802C93.4708 66.2811 90.9386 62.9295 86.9681 61.9733C87.0223 64.0642 87.553 65.9264 89.2424 67.3035C88.4529 67.191 87.9333 67.4597 87.9662 68.326C88.0462 70.3759 88.0462 72.4627 89.8424 73.9446C89.3402 74.2364 88.4735 74.4583 88.401 74.8353C88.1419 76.1649 88.1541 77.5461 88.0607 78.9833C90.1688 78.836 91.1945 78.0453 91.4305 76.3549C93.5106 74.7836 93.2127 72.7565 92.525 70.6544L92.5271 70.6548ZM86.4299 68.4965C87.0499 66.4556 86.6558 64.548 85.7911 62.6504C82.7387 64.3214 81.2541 67.7941 81.9885 71.5371C82.8611 71.0855 83.6991 70.6535 84.5371 70.2214C84.0397 71.2663 83.5447 72.3095 83.0452 73.3539C82.0823 75.3709 82.1416 75.6267 84.0719 77.52C84.6507 76.7419 85.1667 75.925 85.8002 75.2149C87.6576 73.1356 87.844 71.3847 86.432 68.4969L86.4299 68.4965ZM66.7398 60.9529C65.8692 62.0822 65.9248 63.1113 67.0814 64.2355C67.5675 63.4479 67.9806 62.8173 68.3518 62.1652C68.524 61.8628 68.6232 61.5175 68.8343 60.9964C67.9735 60.9885 67.3369 60.9811 66.7004 60.9737C70.5811 59.7747 72.1931 56.3471 74.398 53.3801C69.7487 51.9859 65.9583 56.1934 66.7423 60.9512L66.7398 60.9529ZM26.8434 133.069C23.4416 131.164 21.0236 131.687 17.2297 135.212C17.877 135.121 18.4364 135.04 18.9932 134.961C19.1469 135.262 19.2341 135.755 19.4611 135.83C20.8217 136.28 22.1954 136.731 23.6009 136.998C25.8925 137.435 28.2104 137.727 30.7681 138.12C30.2107 135.526 28.7143 134.152 26.8438 133.067L26.8434 133.069ZM16.1175 49.276C16.0931 48.6555 16.0691 48.0328 16.0193 46.7299C15.1596 47.5601 14.7414 47.961 14.0558 48.6234C12.4346 48.6261 11.1097 49.1544 10.081 50.2083C10.482 50.3384 10.829 50.5413 11.1837 50.55C12.2231 50.5779 13.2649 50.5271 14.3047 50.5088C13.66 50.8758 13.0553 51.3739 12.3621 51.5862C10.8098 52.0592 9.22263 52.4307 7.63031 52.7616C6.00796 53.0998 4.36342 53.3391 2.25402 53.7039C2.70412 54.0635 2.91396 54.259 3.15208 54.4118C3.47579 54.6211 3.8008 54.846 4.1578 54.9761C8.17921 56.4525 11.8304 55.4565 15.029 52.9481C15.9638 52.2164 17.3983 50.9724 16.1154 49.2756L16.1175 49.276ZM99.5949 57.0365C96.9527 55.0945 94.7684 52.4737 91.4535 51.3506C90.9266 57.5506 94.6255 60.8542 99.9057 58.965C99.8709 58.4523 99.8326 57.9016 99.7944 57.3509C100.142 57.4484 100.488 57.5456 100.84 57.6461C101.762 53.9739 99.9875 52.3799 96.9424 53.1706C97.7991 54.4201 98.697 55.7283 99.5945 57.0386L99.5949 57.0365ZM22.6833 106.75C21.345 107.397 20.0051 108.042 18.7231 108.661C19.1875 112.656 21.0919 115.213 24.1703 116.83C25.4695 117.512 26.963 118.479 28.9519 117.212C26.5289 116.207 25.5848 114.599 25.279 112.401C25.1405 111.413 24.3466 110.523 23.8962 109.565C23.4548 108.629 23.0743 107.663 22.6667 106.711C23.672 107.966 24.6773 109.221 25.9863 110.852C25.5723 108.035 25.1399 107.175 23.7075 106.333C23.5164 106.22 23.0321 106.599 22.685 106.752L22.6833 106.75ZM20.985 58.4054C23.9645 61.6984 26.6984 62.6558 28.9565 61.2078C28.0587 59.7435 26.9415 58.3654 26.3271 56.7923C25.7156 55.2264 25.61 53.4617 25.29 51.8128C22.7873 51.6643 21.7493 52.1733 21.2955 54.1526C20.9802 55.5326 21.0836 57.0088 21.0016 58.4439C19.0637 56.5447 20.3408 54.4296 20.8282 52.281C19.1131 52.8207 18.6389 54.0923 18.8396 55.3107C19.0446 56.552 19.839 57.6945 20.3761 58.8806C20.5789 58.7229 20.7813 58.5674 20.9821 58.4092L20.985 58.4054ZM-3.90595 97.3201C-5.09119 96.9401 -6.25222 96.3714 -7.46539 96.2211C-10.1597 95.8851 -11.1931 96.8259 -11.4163 99.5172C-11.5251 100.844 -11.5967 102.171 -11.7203 104.037C-8.63062 100.047 -5.26119 101.383 -1.88414 102.715C-1.44116 102.888 -0.965203 103.04 -0.495819 103.069C0.473839 103.127 1.44799 103.096 2.42178 103.1C1.72631 101.869 0.0648423 102.105 0.195626 100.501C0.602784 100.523 1.00994 100.544 1.77008 100.582C0.0609729 98.6164 -1.05181 96.4388 -3.90595 97.3201ZM17.7475 77.2731C18.4973 77.8856 19.2466 78.5003 19.9964 79.1129C20.1283 79.0247 20.2601 78.9365 20.3937 78.8508C19.8959 77.855 19.4002 76.8595 18.9563 75.969C19.2216 75.7071 19.497 75.4384 19.7703 75.1693L19.5399 74.6113C18.7547 74.7328 17.9007 74.713 17.2186 75.0463C16.9218 75.1897 16.9818 76.0636 16.8791 76.604C16.2435 76.1262 15.6286 75.6877 14.8274 76.3557C12.8494 78 11.0371 79.7189 11.582 82.6525C11.7894 83.7711 11.6108 84.7275 10.6867 85.5163C10.2946 85.852 10.0633 86.3757 9.75006 86.8238C12.9407 88.7293 16.4804 87.6188 18.1043 84.4531C19.3833 81.9622 18.9892 79.6104 17.7496 77.2735L17.7475 77.2731ZM11.8148 24.5755C11.0087 24.8577 10.074 24.9672 9.41937 25.451C7.12073 27.1592 4.73863 27.4458 1.97621 26.1881C2.15422 27.0216 2.36381 27.7734 2.85631 28.1744C5.14882 30.0383 7.73951 31.3411 10.7741 30.9926C12.3476 30.8118 14.0134 30.4097 15.3679 29.6358C17.0078 28.6986 18.3815 27.2842 19.8388 26.0359C20.8829 25.1412 21.688 24.1199 21.0496 22.3683C19.4488 22.9087 17.9541 23.4129 16.4599 23.915C16.6044 23.5962 16.7469 23.277 17.0044 22.7101C14.4619 22.9627 11.9942 21.8162 9.7481 24.0142C10.581 24.2408 11.197 24.4069 11.8131 24.573L11.8148 24.5755ZM71.6863 29.5094C72.0338 29.0659 72.3838 28.6207 72.7904 28.101C71.4604 27.0194 70.0641 26.4722 68.2222 26.8526C68.3358 28.078 68.4286 29.0859 68.5353 30.2461C65.549 30.8505 64.6686 27.7558 62.1768 27.0751C60.2562 27.9193 58.0894 28.8731 55.9739 29.8018C57.3245 32.1893 58.4938 34.2593 59.672 36.3399C62.5306 36.5238 64.6117 34.8143 66.8808 33.5993C65.9081 35.5879 64.0687 36.4218 62.1466 37.1404C61.3363 37.4438 60.5099 37.7066 59.689 37.9859C64.6146 37.7526 73.1896 32.3141 73.7056 29.3774C73.0171 29.4213 72.3511 29.463 71.6876 29.5031L71.6863 29.5094ZM34.9113 107.478C37.0537 106.891 39.1961 106.304 41.4574 105.683C37.9598 100.009 32.0981 100.46 26.6996 99.4712C25.9854 101.155 25.3938 102.553 24.7335 104.108C25.7398 104.792 26.5267 105.583 27.477 105.917C29.552 106.647 31.7104 107.145 33.8322 107.739C32.9907 107.878 32.1515 108.105 31.3077 108.134C30.5548 108.158 29.7784 108.024 29.0426 107.841C28.3381 107.666 27.6718 107.343 26.9882 107.084C31.7018 110.074 36.6944 108.526 41.9779 108.397C40.8725 106.559 39.4934 107.091 38.3414 107.087C37.1979 107.084 36.0545 107.337 34.9117 107.476L34.9113 107.478ZM20.2652 20.1546C21.3658 20.8059 22.4682 21.4598 23.5117 22.0778C24.1683 20.1409 24.3439 18.278 25.3192 17.0529C26.9469 15.0116 27.0513 12.8641 26.8046 10.5459C26.5772 8.3964 25.0942 6.96564 23.1151 6.8505C21.2075 6.74074 19.7854 7.77829 19.3478 10.0752C18.9739 12.0286 19.0178 14.0604 18.875 16.0573C17.7902 14.8044 18.0834 13.3694 18.3317 11.9387C18.5109 10.9011 18.6791 9.86358 18.852 8.82474C16.4608 11.966 16.8325 17.139 19.2415 19.7143C19.4738 19.9626 19.9196 20.0114 20.2677 20.1529L20.2652 20.1546ZM-2.81121 77.4648C-3.84129 76.7681 -4.84858 76.0342 -5.90862 75.3887C-6.9212 74.7702 -7.97828 74.121 -9.30089 74.9781C-4.95811 79.0734 1.04179 82.3999 3.93075 82.5084C2.55497 81.6134 0.98811 80.5949 -0.580454 79.5738C1.25637 80.1071 3.09065 80.6421 5.00877 81.1981C7.0163 79.2827 8.92666 77.4579 11.1247 75.3581C9.42652 74.7247 8.04263 74.4812 6.98711 73.7575C4.47226 72.0387 1.60439 71.6682 -1.2533 71.302C-3.69701 70.9893 -6.00912 71.5888 -7.86254 72.8487C-6.14697 74.4157 -4.47973 75.9379 -2.81079 77.4627L-2.81121 77.4648ZM3.17667 8.13055C2.46855 8.07378 1.76297 8.01531 0.578683 7.91915C3.42005 12.5305 5.93021 16.7596 9.97931 19.7171C11.24 20.6376 12.8693 21.0528 14.3292 21.7006C12.0305 19.9235 9.03884 19.1898 7.93283 16.09C8.64469 16.5719 9.36035 17.0458 10.0663 17.5353C12.3905 19.1394 14.8515 20.3418 17.4795 20.2908C16.9357 17.773 16.4452 15.2635 15.8279 12.7839C15.6326 12.0042 15.2746 11.08 14.6838 10.6199C13.1768 9.44383 11.5754 8.33266 9.86587 7.4903C7.60139 6.37305 5.16802 5.9304 2.57025 6.76136C2.80866 7.30117 2.99225 7.71798 3.17625 8.13266L3.17667 8.13055ZM-1.22351 36.3729C-2.19008 36.155 -3.16882 35.5322 -4.45173 36.5775C0.345332 40.3121 4.58849 44.5438 10.9968 44.866C7.85722 43.8128 4.45696 43.2093 2.66326 39.8831C3.30856 40.3012 3.94627 40.7355 4.60424 41.1341C9.38706 44.0302 14.212 43.8166 19.3187 41.4708C18.3068 40.7601 17.2138 40.3917 16.8362 39.655C15.4359 36.9191 12.7769 35.9831 10.3189 34.7989C7.05781 33.2269 3.61436 32.3752 -0.0432274 33.1368C-1.3098 33.4004 -2.62679 33.6408 -3.35093 34.7639C-2.54913 35.3691 -1.88547 35.8723 -1.22351 36.3729ZM38.9618 -3.06656C37.4132 -7.03033 35.3255 -10.0828 31.7803 -11.9201C31.2856 -12.1764 30.632 -12.4643 30.4442 -12.9039C29.9545 -14.0521 28.9641 -14.1164 28.0402 -14.172C24.9192 -14.3639 21.8126 -14.2516 18.5521 -13.4399C23.2799 -11.0318 25.4649 -6.62749 24.3398 -2.12706C23.6912 0.468913 21.5202 1.42184 19.2469 0.104928C16.411 -1.53678 14.6661 -5.0205 15.1756 -8.27956C15.4086 -9.76607 15.874 -11.2153 16.3608 -13.2057C13.2829 -12.0279 10.529 -10.975 7.58175 -9.84604C16.7936 -3.81165 18.559 1.60024 13.5613 8.21385C14.3306 8.87208 15.1072 9.53833 16.0456 10.3422C16.2562 9.59013 16.3561 9.11954 16.5174 8.67213C17.4537 6.05621 19.1691 4.49404 22.086 4.40582C25.689 4.29741 29.244 4.36422 32.5658 6.04065C33.1537 6.33748 33.8024 6.51661 34.1196 6.63664C35.8739 5.07779 37.4283 3.69483 38.9797 2.31568C37.2637 0.495695 38.2819 -1.34536 38.9593 -3.06486L38.9618 -3.06656ZM27.724 7.9376C28.101 9.7429 28.5244 11.2033 28.6909 12.6943C29.0016 15.5002 29.3202 18.2108 32.2679 19.6878C32.8042 19.9568 33.3036 20.6781 33.4524 21.2815C34.277 24.6026 37.2056 25.7657 39.6622 27.3345C40.9312 28.1467 42.5862 28.7869 44.0223 27.7125C45.515 26.5966 45.3691 24.8459 45.1655 23.1871C45.1298 22.9008 45.0679 22.6137 44.9887 22.3363C43.5828 17.475 40.6243 14.0542 35.8126 12.2585C32.9837 11.2031 29.8207 10.7896 27.7236 7.93971L27.724 7.9376ZM54.2144 82.4175C53.9429 80.013 52.8141 79.0152 51.3439 78.3413C50.582 79.1556 49.9535 79.8293 49.0906 80.7534C48.596 79.4195 48.2272 78.4273 47.9091 77.5682C47.277 78.1048 46.7556 78.5491 46.2561 78.9712C45.3158 78.0658 44.6679 76.9061 43.836 76.7522C42.0639 76.4252 40.1138 76.4632 38.6402 77.805C36.2649 79.9664 33.125 80.3139 30.3517 81.8973C29.9378 80.9555 29.6756 80.3582 29.3649 79.6501C28.748 81.331 29.7277 82.2706 30.6019 83.1212C33.9194 86.3514 37.8266 88.0933 42.4539 86.6903C46.3976 85.495 50.2187 83.8862 54.2148 82.4154L54.2144 82.4175ZM28.0489 26.4909C27.5278 26.6779 27.0787 26.8462 26.6236 27.0001C23.3835 28.0974 21.0915 29.9498 20.5697 33.6375C20.4377 34.581 19.3308 35.426 18.5816 36.2319C18.1486 36.6958 17.5372 36.9947 17.0288 37.3513C17.9379 39.2467 17.9653 39.1751 19.3624 39.7071C21.9275 40.6838 24.467 40.1579 26.6363 38.9804C28.3422 38.0541 29.4401 36.2442 30.0545 34.1538C30.9234 31.2012 30.038 28.8752 28.0493 26.4888L28.0489 26.4909ZM21.2288 91.8209C19.6169 93.4717 18.3389 94.8699 16.9625 96.165C15.578 97.4673 14.3136 98.9077 14.473 100.868C14.6517 103.041 14.1836 104.826 12.4894 106.159C13.2198 107.99 14.733 107.648 16.0158 107.702C17.578 107.768 19.2647 107.704 20.2563 106.319C23.0026 102.486 24.4714 98.304 23.0725 93.5298C22.739 92.3928 22.1075 91.6388 21.2288 91.8209ZM11.6716 62.741C12.9378 65.965 14.8337 68.3242 17.3593 69.8186C17.8452 70.1084 18.2988 70.5061 18.661 70.943C20.3304 72.9538 22.7018 73.5095 25.0611 73.7154C28.0024 73.9706 29.0063 72.4346 27.7361 69.808C26.2459 66.7266 23.9191 64.4139 20.4549 63.767C17.6379 63.2395 14.7493 63.0849 11.672 62.7389L11.6716 62.741ZM31.9113 63.5041C33.0081 66.6615 31.7704 69.088 30.0455 71.4311C29.2388 72.5269 29.0076 74.0269 29.8692 74.9739C31.3505 76.6022 31.6801 78.2134 30.4274 80.505C32.4465 79.7748 33.9737 79.2507 35.4809 78.672C37.7096 77.8163 38.8501 75.9687 38.9107 73.498C39.0308 68.5741 36.0801 65.7354 31.9108 63.5063L31.9113 63.5041ZM17.7463 88.3688C17.8683 89.3518 18.5917 89.8755 19.7628 90.1824C22.1762 90.8146 24.5354 91.6538 26.9374 92.3321C27.7458 92.5605 28.6254 92.6842 29.462 92.6477C31.7141 92.5509 32.3059 91.7182 31.8634 89.4887C31.1175 85.7258 26.7849 82.3339 22.8414 82.2407C21.1717 84.2495 19.5946 86.1469 17.7459 88.371L17.7463 88.3688ZM66.7806 29.043C67.1865 27.439 67.5292 26.2535 67.7809 25.05C68.2365 22.8841 67.6127 21.7468 65.4829 21.1268C62.7726 20.339 60.0053 19.9159 57.2231 20.7565C54.3308 21.6303 51.45 22.5019 48.113 21.9901C50.5806 25.4125 53.515 26.7571 57.3355 26.0057C58.0886 25.8581 58.8668 25.8386 59.6309 25.735C61.6774 25.4545 63.4335 26.04 64.9325 27.4563C65.4124 27.9098 65.9362 28.3193 66.781 29.0409L66.7806 29.043ZM44.5943 61.5141C46.2875 63.3494 48.4956 63.0085 50.3995 62.7481C54.1236 62.2393 57.0488 63.2083 59.3197 66.1915C59.3893 66.2845 59.6401 66.2396 59.6812 66.2434C60.0262 65.1353 60.3153 64.0425 60.7032 62.9847C61.5715 60.6236 60.9202 59.0146 58.46 58.2852C56.7125 57.7673 54.8283 57.218 53.0613 57.3648C49.834 57.6312 46.0697 57.2107 44.5901 61.5133L44.5943 61.5141ZM47.1199 23.216C46.101 25.4264 45.957 27.4407 47.9282 29.2167C49.4682 30.6038 50.4367 32.3108 51.1546 34.2716C51.5915 35.4642 52.519 36.5562 53.4441 37.4718C54.6562 38.6708 56.0847 39.6553 57.4888 40.7846C58.6125 37.8232 58.1653 35.1398 56.4178 32.5681C55.239 30.8348 54.1819 29.0201 53.2816 27.5794C51.1014 26.0369 49.1666 24.6661 47.1199 23.216ZM36.486 61.8555C36.3444 60.3608 35.6417 58.6449 36.1741 57.5014C37.8055 53.9874 36.4339 51.4837 34.3489 48.9727C29.7623 51.0697 27.921 54.5882 29.4357 58.0791C30.9339 61.5315 33.5712 62.8985 36.4881 61.856L36.486 61.8555ZM49.6002 77.8154C50.9815 74.098 50.5331 70.9658 48.3168 67.9845C47.3597 66.6976 46.7868 65.1261 46.0843 63.7753C43.9847 62.0926 41.8891 61.8884 40.0898 63.3856C41.0409 65.0913 42.3604 66.659 42.8156 68.4468C43.7095 71.951 45.7197 74.4516 48.5377 76.4944C48.9072 76.7611 49.1341 77.226 49.5981 77.815L49.6002 77.8154ZM42.7601 37.0785L35.2646 35.5931C33.1976 37.3648 31.6203 39.1633 29.6557 40.2736C27.7456 41.353 25.4378 41.7313 23.0976 42.4835C23.6731 42.9208 24.0099 43.3526 24.4329 43.4716C27.3731 44.2984 30.2852 44.5456 33.1437 43.0539C33.8798 42.6698 34.7743 42.5854 35.5923 42.3539C36.4988 42.0981 37.4035 41.8398 38.3045 41.5676C40.5902 40.8793 40.7664 38.2359 42.7597 37.0806L42.7601 37.0785ZM30.9742 93.8424C34.8268 98.3573 40.7105 99.9169 44.5818 97.1218C43.6803 96.798 43.0528 96.4009 42.409 96.3745C40.4363 96.2936 39.2109 95.2284 39.0235 93.4211C38.547 88.7989 35.1681 87.1662 31.332 85.4538C32.5404 88.5146 34.5601 91.3887 30.9742 93.8424ZM-7.99543 143.343C-7.00812 144.256 -6.46477 145.155 -5.71741 145.38C-2.783 146.27 0.189033 146.214 3.03741 144.962C5.04007 144.082 7.08508 138.614 6.04544 136.855L4.12129 136.474C2.07979 138.094 0.491051 139.684 -1.39107 140.756C-3.25839 141.819 -5.42332 142.364 -7.99543 143.343ZM44.843 47.8374C46.8545 47.3895 47.9233 45.8927 48.8719 44.3809C50.4306 41.8993 48.8563 38.2207 45.9874 37.5004C45.4802 37.3735 44.7676 37.428 44.35 37.7036C42.5202 38.9111 41.3264 40.5832 40.9526 42.8027C40.6763 44.4411 40.3149 46.0649 39.9568 47.8718C40.8065 48.3129 41.9038 48.504 43.0178 47.8781C44.0527 47.296 45.0503 46.6471 46.064 46.0278C46.1404 46.1419 46.2172 46.2538 46.2936 46.3679C45.8116 46.8573 45.3275 47.3463 44.8455 47.8357L44.843 47.8374ZM52.1339 -1.19722C51.8625 -1.54788 51.6959 -1.88434 51.4311 -2.09076C48.094 -4.67837 44.7443 -7.2465 41.1399 -10.0168C40.8462 -7.51326 39.5419 -8.43583 38.2916 -8.75397C39.2545 -7.07445 40.1884 -5.49302 41.4054 -4.17434C42.3036 -3.20033 42.6362 -2.28121 42.2834 -1.06693C41.7463 0.777125 41.1932 2.6136 40.5964 4.62612C43.4728 1.45645 47.3194 -0.484524 52.1361 -1.1968L52.1339 -1.19722ZM20.7611 116.227C20.0292 119.099 19.1666 121.776 20.2256 124.646C20.323 124.91 20.5468 125.123 20.7034 125.365C22.6329 128.395 25.8176 128.921 28.973 129.395C29.5305 129.479 30.195 128.856 30.9299 128.5C29.3527 126.934 27.8745 125.801 26.8465 124.351C25.801 122.877 25.1883 121.095 24.4028 119.442C23.7103 117.986 22.5946 117.01 20.7637 116.225L20.7611 116.227ZM55.9299 41.3355C55.2265 42.0097 54.7643 42.4546 54.3022 42.8996C53.9953 42.8498 53.6888 42.7978 53.3819 42.748C53.2128 42.1912 53.1148 41.5978 52.8524 41.0906C52.6179 40.6417 52.1992 40.2905 51.7742 39.7928C50.7674 42.7642 50.7574 42.892 52.245 44.7547C55.5116 48.8412 59.7026 49.8059 64.6683 48.7713C65.7237 48.5517 66.8814 48.183 67.0247 46.505C64.8363 46.7354 62.8417 46.9316 61.5183 44.8178C60.4538 43.1182 58.9755 42.1743 56.9495 43.6837C56.5644 42.796 56.2673 42.1082 55.932 41.3359L55.9299 41.3355ZM6.74698 104.075C5.4479 104.381 4.13475 104.635 2.85611 105.015C2.33967 105.168 1.84603 105.527 1.4379 105.9C0.162818 107.061 -1.00794 108.34 -2.32163 109.451C-4.82985 111.573 -5.9825 114.415 -5.56327 117.328C-4.30351 116.577 -3.00266 115.619 -1.55986 114.988C-0.12932 114.363 0.829572 113.398 1.49367 112.068C2.41791 110.212 3.58659 108.722 5.61886 107.836C7.43463 107.044 7.432 106.536 6.7491 104.076L6.74698 104.075ZM11.0306 73.18C11.1012 71.7691 10.886 70.2795 11.309 69C11.9179 67.1482 11.3742 65.5627 10.764 63.9685C10.1563 62.3836 9.06136 61.8587 7.59847 62.1471C5.83986 62.4957 5.14262 63.2943 5.03842 65.0856C5.00397 65.6813 4.97586 66.2782 4.94564 66.8748C4.86946 66.8706 4.79328 66.8665 4.71921 66.8629C4.53042 66.1504 4.34164 65.4379 4.02372 64.2336C3.24263 69.607 5.99967 73.2341 11.0331 73.1783L11.0306 73.18ZM10.778 57.1149C7.9115 57.0042 3.22303 58.0168 1.91834 58.961C1.23494 59.4567 0.456605 60.1095 0.203628 60.8532C-0.399133 62.6292 -1.59308 63.7252 -3.22541 64.3913C-2.17101 66.808 -0.744421 67.4909 2.3516 67.1985C2.41983 67.0207 2.54519 66.8432 2.55206 66.6643C2.69226 61.8939 3.18582 61.2573 7.88915 59.8145C8.3506 59.6728 8.94645 59.6634 9.24594 59.3621C9.7651 58.8405 10.1028 58.1355 10.7785 57.1128L10.778 57.1149ZM61.7362 8.40651C59.4689 5.99351 57.2017 3.58051 55.1197 1.36476C52.9516 4.80089 50.9789 7.9283 48.9454 11.1514C49.5063 12.1509 50.3038 11.823 51.2015 11.1675C54.2495 8.94149 57.6681 8.23142 61.7362 8.40651ZM1.29323 42.578C-1.33559 46.0855 -1.51521 49.212 0.451094 51.8117C2.02248 51.3754 3.46824 50.9737 5.14453 50.5076C6.32398 49.1185 6.8087 47.3609 6.28437 45.2999C4.84398 44.4757 3.42603 43.6603 2.00429 42.853C1.83822 42.7585 1.64727 42.7119 1.29535 42.5784L1.29323 42.578ZM10.0323 115.616C8.10928 117.449 6.73053 119.078 5.04713 120.279C3.39966 121.455 1.43991 122.197 -0.751058 123.317C1.47507 124.983 3.52653 124.866 5.61743 124.562C7.16254 124.336 8.32835 123.815 9.40619 122.405C10.8433 120.526 10.8269 118.278 11.7683 116.325C11.8282 116.2 11.6814 115.976 11.5893 115.652C10.985 115.638 10.3345 115.623 10.0323 115.616ZM41.4701 116.054C38.9795 114.38 36.6055 113.082 34.6133 111.346C33.0903 110.017 31.585 109.598 29.6605 109.696C29.378 113.02 31.183 115.135 33.6423 116.323C35.9813 117.453 38.7209 118.304 41.4718 116.056L41.4701 116.054ZM50.8637 17.7788C50.4728 15.5882 50.0642 13.6205 48.3494 12.2603C46.4961 10.7892 44.2277 11.2566 43.6313 13.234C43.0925 15.0205 43.5806 16.7423 44.5858 18.1751C45.5532 19.5543 47.0327 18.8382 48.3191 18.5302C49.1368 18.3338 49.9352 18.0566 50.8637 17.7788ZM-3.20665 -2.57465C-1.06166 -1.76474 0.761343 -1.38368 2.22227 -0.441061C3.7048 0.51463 4.83329 2.02466 6.29768 3.47153C5.2882 -0.526146 4.39221 -4.25285 5.35429 -8.31939C2.28013 -6.72744 -0.306596 -4.72005 -3.20707 -2.57253L-3.20665 -2.57465ZM80.7524 21.3711C82.1502 24.1308 83.6763 26.4541 86.6574 26.6974C88.7077 26.864 90.8532 26.3283 92.044 23.9937C88.6734 21.5863 84.9919 21.2701 80.7524 21.3711ZM13.7194 137.373C14.3916 138.155 14.7934 138.67 15.2441 139.138C17.2475 141.217 19.226 143.322 21.2882 145.338C22.5393 146.562 24.0141 147.457 25.6063 147.504C24.6385 145.472 23.6174 143.464 22.7245 141.398C22.0972 139.946 21.1942 139.074 19.5597 138.808C17.7699 138.514 16.0244 137.953 13.7173 137.373L13.7194 137.373ZM72.144 -4.02653C68.7081 -5.59362 65.4143 -4.92479 61.8484 -3.81513C65.924 0.684631 70.6618 0.488875 72.144 -4.02653ZM-1.72793 91.4583C0.906205 94.2958 5.35193 94.5303 8.72231 92.465C7.67223 91.0144 6.61833 89.561 5.34126 87.8016C3.51602 90.1182 1.62654 92.2484 -1.72835 91.4604L-1.72793 91.4583ZM-21.4506 -7.52492C-19.8765 -2.57975 -14.4714 -2.1023 -11.6336 -6.13137C-14.554 -7.66887 -18.3702 -8.23823 -21.4506 -7.52492ZM9.84638 -2.8905C5.93161 2.0884 6.90312 5.92242 12.0957 6.79533C12.2724 3.43953 11.5375 0.342884 9.84638 -2.8905ZM28.3317 24.7416C28.1475 24.428 27.9637 24.1123 27.7815 23.7992C24.8454 25.1832 21.7937 26.3728 19.0096 28.0112C16.7356 29.3505 15.0924 31.4701 14.615 34.2122C14.5057 34.8414 14.7325 35.5285 14.8057 36.1917C14.9661 36.1817 15.1243 36.1712 15.2847 36.1613C15.22 35.2776 15.1549 34.3961 15.0911 33.5083C16.1563 33.0399 17.2097 32.8529 17.87 32.2405C21.034 29.3074 23.9736 26.1077 28.3339 24.742L28.3317 24.7416ZM-5.82787 21.431C-4.99444 18.058 -6.16064 15.1398 -7.48973 12.0111C-11.0829 15.3341 -10.4056 20.9966 -5.82787 21.431ZM17.3527 53.3448C15.392 54.4911 13.4719 55.6103 11.5416 56.7363C12.7405 58.7902 14.4949 59.6063 16.6079 59.7787C17.8353 59.879 18.4401 59.2139 18.2759 58.0554C18.0542 56.4876 17.6722 54.9408 17.3506 53.3444L17.3527 53.3448ZM78.1113 60.8074C80.0942 57.9283 79.7707 54.3656 77.4984 52.011C76.5036 52.9793 75.5113 53.9459 74.4754 54.9545C75.7212 56.9605 76.8184 58.7282 78.1113 60.8074ZM15.4629 91.4435C14.9767 90.5665 14.5716 89.8353 14.164 89.1058C14.0551 89.2558 13.9445 89.4032 13.8356 89.5531C11.4869 88.6831 9.13782 87.8151 6.58418 86.8693C8.9145 92.2611 11.235 93.4841 15.4624 91.4456L15.4629 91.4435ZM26.999 5.34646C28.6649 7.49734 30.0869 9.1689 32.4416 9.88624C34.8586 10.6225 37.2066 11.5848 39.7022 12.4906C36.4679 8.48518 32.1235 6.69624 26.999 5.34646ZM13.0352 133.033C16.4779 131.857 17.4003 130.188 16.2908 127.473C15.8049 126.284 14.3811 125.52 13.2646 125.903C12.0419 126.323 12.2007 127.287 12.3608 128.277C12.6129 129.847 12.8109 131.423 13.0352 133.033ZM1.20303 -7.90845L-6.88304 -9.5109C-6.1816 -8.25482 -5.00546 -6.14162 -3.79323 -3.96629C-2.25163 -5.18467 -0.554097 -6.52388 1.20091 -7.90887L1.20303 -7.90845ZM5.19345 167.219C3.11998 163.65 6.26199 160.517 5.91073 157.061C4.3435 156.533 3.36354 156.86 3.03642 158.477C2.80701 159.612 2.44388 160.746 2.39096 161.89C2.28793 164.086 2.92371 166.006 5.19556 167.219L5.19345 167.219ZM14.5031 93.7887C8.86492 92.922 7.92448 93.3272 6.97383 96.9364C7.97904 97.4588 8.99442 97.9855 10.0255 98.5219C11.5477 96.9127 12.9834 95.3962 14.5031 93.7887ZM46.4353 77.4455L46.921 77.3702C46.5529 76.7189 46.3401 75.8499 45.7863 75.4587C43.8535 74.0884 42.8945 72.2227 42.3199 69.9934C41.7368 67.7295 40.0334 65.6459 37.8669 64.1457C37.9843 66.0732 38.6604 67.6344 40.0604 69.0179C40.8091 69.7578 41.3026 70.9419 41.5035 72.0042C41.7795 73.464 42.436 74.4144 43.6934 75.1737C44.6971 75.7816 45.527 76.6783 46.4349 77.4476L46.4353 77.4455ZM-28.5564 2.01116C-26.5671 3.96225 -23.4331 4.12156 -19.9428 2.5615C-21.9346 -0.520355 -25.0262 -0.605288 -28.5564 2.01116ZM88.5274 36.5214L84.6156 35.7461C84.5905 39.4025 85.9257 41.6901 88.4801 42.3657C89.6447 40.4854 88.147 38.6296 88.5274 36.5214ZM54.3284 40.8356L54.7068 40.6137C54.3626 40.0639 54.1458 39.3041 53.6517 38.9995C51.4554 37.6494 50.3079 35.6695 49.5857 33.2636C48.9138 31.026 47.094 29.6517 45.1995 28.3219C45.2605 29.3125 45.4083 30.2874 45.9305 30.9824C47.3395 32.8646 49.3561 34.322 49.6487 36.9418C49.6991 37.3871 50.3858 37.7959 50.8342 38.153C51.9836 39.0691 53.1651 39.9453 54.3327 40.8364L54.3284 40.8356ZM9.89748 102.798C10.0713 102.964 10.2472 103.131 10.4215 103.295C11.1301 102.461 12.0644 101.732 12.507 100.775C13.7067 98.1849 15.3498 96.0323 17.6349 94.3148C18.1881 93.8989 18.4914 93.1453 18.9089 92.5486C14.9133 95.2157 10.6179 97.553 9.89959 102.798L9.89748 102.798ZM4.19222 135.461C5.86879 135.837 7.40671 136.769 9.02916 135.331C9.72293 134.716 10.2618 134.095 9.74075 133.128C9.24051 132.2 8.49506 131.632 7.40383 131.976C5.79703 132.48 4.47987 133.321 4.19391 135.463L4.19222 135.461ZM-20.1452 4.11564C-20.7842 5.98567 -22.1181 7.39915 -21.6371 9.36799C-19.1792 9.30973 -17.7262 7.78353 -16.8129 4.15152C-17.9564 4.13821 -19.0233 4.12688 -20.1431 4.11606L-20.1452 4.11564ZM90.6273 49.4255C93.3186 51.608 95.9524 52.904 99.3293 51.6162C97.0802 48.4789 94.1375 48.3971 90.6273 49.4255ZM73.7311 55.935C73.0387 57.0424 71.9477 57.4969 72.4331 58.8773C72.9917 60.4657 73.3565 62.1213 73.924 64.1754C74.6396 63.4618 75.6348 62.9356 75.6744 62.3475C75.8202 60.1687 75.8008 57.9241 73.7307 55.9372L73.7311 55.935ZM35.7337 48.3235C37.4598 50.803 38.0304 53.6296 38.4872 56.4974C38.6662 57.6258 38.92 58.7206 40.1243 59.3375C41.0047 55.3053 39.7418 52.0095 35.7315 48.3231L35.7337 48.3235ZM75.5526 30.5813C73.8807 31.8244 72.4564 32.8835 70.6243 34.2466C73.0999 34.8428 74.9266 35.649 77.2934 34.8734C76.6991 33.4099 76.1707 32.1023 75.5526 30.5813ZM20.2522 48.1273C22.1025 46.7942 24.6346 48.0041 25.8675 45.713C24.2389 44.5393 22.8706 43.5512 21.373 42.4716L20.2518 48.1295L20.2522 48.1273ZM72.2398 64.7256C73.0806 62.5701 72.6146 60.9473 71.3753 58.9975C70.1155 61.1359 69.0317 62.975 67.6395 65.3379C69.6166 65.0744 70.9794 64.8915 72.2403 64.7235L72.2398 64.7256ZM43.397 50.172C41.5385 49.6146 39.9147 49.1279 38.0744 48.5785C39.528 51.2568 40.8413 53.6435 44.3946 53.7188C44.0176 52.3797 43.6905 51.2219 43.397 50.172ZM60.3076 -4.66581C63.4935 -4.90085 65.8627 -5.98821 67.5622 -8.55844C63.7423 -9.02077 62.4123 -8.31462 60.3076 -4.66581ZM10.2435 113.995C13.1746 114.935 13.2148 114.921 15.6604 111.893C14.888 111.428 14.0942 110.539 13.4477 110.637C11.7579 110.894 10.5296 111.952 10.2435 113.995ZM7.12739 84.0061C9.42497 82.6363 9.92031 80.6696 10.9839 79.1212C12.0129 77.6253 13.2411 76.2679 14.7092 74.4434C10.7547 76.6811 7.98865 79.1939 7.12528 84.0057L7.12739 84.0061ZM89.3481 37.0534C89.3969 39.427 90.1214 41.299 91.591 42.7754C91.9471 43.1319 92.887 42.907 93.6281 42.9527C93.0951 41.4573 92.5886 40.3058 92.2855 39.1045C91.9137 37.6389 90.9872 37.0968 89.3481 37.0534ZM35.5955 28.6286C33.8141 31.7785 31.6674 35.5729 29.5912 39.2449C33.7974 36.2699 35.2516 33.5609 35.5955 28.6286ZM98.4881 41.2748C96.9076 39.2926 94.9225 38.908 92.7488 38.3761C93.3621 39.7994 93.9754 41.2227 94.686 42.8654C96.1013 42.2729 97.1852 41.8215 98.4881 41.2748ZM20.6223 62.3115C17.0442 60.5073 14.0117 59.6248 10.5125 60.264C13.3694 63.1655 16.8229 61.8796 20.6223 62.3115ZM101.942 -1.56273C98.6587 -2.45745 95.3781 -3.35387 91.586 -4.38903C95.3305 -1.63712 99.52 -0.33188 101.942 -1.56273ZM4.69487 56.8395C0.955259 56.2612 -2.24379 57.8284 -4.00221 61.04C-0.478615 60.5992 1.30039 57.0728 4.69487 56.8395ZM35.7603 34.0575C38.595 34.9953 41.364 36.6303 45.0061 34.7925C41.586 34.2005 38.7862 32.887 35.7603 34.0575ZM-6.81026 10.5251C-5.64918 14.3462 -6.27538 14.1869 -2.3598 16.3306C-2.74523 12.7029 -3.41635 11.8266 -6.81026 10.5251ZM23.3674 74.6024C23.0709 77.7079 23.9258 78.6448 27.9544 79.441C25.9141 78.0141 26.5305 74.6817 23.3674 74.6024ZM9.61663 150.339C11.5632 147.244 11.5434 146.156 9.68463 144.745C6.97063 146.573 9.75332 148.495 9.61663 150.339ZM36.5059 32.1602C38.215 32.7386 38.6943 31.9078 38.9414 30.7386C39.3118 28.9802 38.993 28.4135 36.8027 27.1658C36.7025 28.837 36.6102 30.4239 36.5059 32.1602ZM84.8422 59.1353C82.1592 61.0181 81.6385 63.4679 81.3113 66.1957C82.7514 64.3569 84.0818 62.6613 85.5072 60.8416C85.3571 60.4556 85.1624 59.9508 84.8447 59.1336L84.8422 59.1353ZM3.85243 155.525C5.04314 155.889 6.00852 156.157 6.44926 154.876C6.89885 153.574 6.98497 152.306 5.47911 151.324C4.10789 152.449 3.91827 153.816 3.85243 155.525ZM88.2505 50.0517C87.9009 52.3485 88.1679 54.176 90.0508 55.6201C90.7907 51.5095 90.6033 50.8786 88.2505 50.0517ZM40.4985 32.4501C41.9244 32.7481 42.9696 33.6457 44.2844 32.6286C43.568 31.0925 42.9154 29.679 40.8517 29.347C40.7355 30.3552 40.633 31.2607 40.4968 32.4475L40.4985 32.4501ZM58.111 -14.251C54.4341 -14.9907 50.8726 -13.9593 47.2659 -13.6318C50.9053 -13.4581 54.5495 -13.1977 58.111 -14.251ZM75.0608 37.9361C73.9627 38.0154 73.2598 38.2433 73.1687 39.3577C73.0193 41.2104 72.8399 43.0594 72.6682 44.9582C74.4052 42.9979 75.3351 40.77 75.0608 37.9361ZM15.9568 45.8578C15.8857 45.6502 15.8121 45.4443 15.7411 45.2367C13.2499 46.0184 10.281 45.9248 8.65715 49.3896C11.3992 48.0639 13.6769 46.9606 15.9568 45.8578ZM55.0468 20.2043C52.0566 20.0405 49.6909 18.2017 46.9205 20.1925C49.5761 20.8793 51.997 21.4624 55.0468 20.2043ZM29.5188 26.5777C30.558 28.8045 31.3734 30.5515 32.2596 32.4512C33.493 28.8474 33.1504 28.0121 29.5188 26.5777ZM43.9141 2.68223C46.8507 3.86012 47.7348 3.62851 49.4839 1.35177C47.4569 0.74557 45.719 1.03445 43.9141 2.68223ZM6.10708 160.733C5.52371 162.933 5.96191 165.106 7.42851 167.064C7.96093 167.774 8.59895 167.918 8.98177 167.363C7.92183 164.918 6.9949 162.78 6.10708 160.733ZM9.77588 99.9589C7.41294 97.5402 4.92401 98.4103 2.27565 98.1977C4.63458 99.5821 6.78526 100.263 9.77588 99.9589ZM18.6852 -10.1041C17.1695 -8.63867 15.9675 -7.5245 16.4909 -5.05909C17.7821 -6.15775 18.74 -6.97285 19.717 -7.80617C19.3613 -8.59792 19.0957 -9.1893 18.6852 -10.1041ZM71.2531 51.9322C73.146 51.4387 75.3434 52.6614 77.3165 50.8865C74.9134 50.1024 72.9254 49.9767 71.2531 51.9322ZM-13.4761 -2.39544C-11.124 -2.40868 -9.57367 -3.01621 -8.42174 -4.64386C-10.395 -5.74298 -10.5976 -5.65339 -13.4761 -2.39544ZM28.3271 46.8777C26.6102 49.6358 26.0168 52.3637 27.1826 55.7722C27.5974 52.5582 27.952 49.8028 28.3271 46.8777ZM12.3777 -18.6722C10.7394 -18.0425 9.56292 -17.5896 8.38641 -17.1367C8.43545 -16.9291 8.4845 -16.7214 8.53144 -16.5142C9.81346 -16.4339 11.1175 -15.1771 12.3436 -16.7351C12.6079 -17.0697 12.3794 -17.7923 12.3756 -18.6726L12.3777 -18.6722ZM69.4414 -8.21682C68.2504 -7.56885 67.2683 -7.25331 66.7569 -5.96051C68.6373 -5.92432 70.1909 -5.8935 71.7445 -5.86268C71.8056 -6.0265 71.8645 -6.19073 71.9256 -6.35455C71.1208 -6.95602 70.3186 -7.5592 69.4409 -8.2147L69.4414 -8.21682ZM23.5254 103.066C25.3036 100.899 25.7615 98.3991 24.9888 95.682L23.5254 103.066ZM8.28679 -5.4777C6.71174 -4.26815 6.18615 -2.87041 6.60914 -0.453479C7.76456 -2.02106 8.57086 -3.11468 9.4198 -4.26803C8.96227 -4.75671 8.65697 -5.08109 8.28467 -5.47812L8.28679 -5.4777ZM83.8207 34.5617C86.7452 35.3128 87.7837 33.2251 89.84 32.5177C87.1492 31.5644 85.914 33.2679 83.8207 34.5617ZM21.4618 76.5249L19.8185 84.817C21.5723 82.3059 22.5895 79.6708 21.4618 76.5249ZM28.6837 73.9847C27.618 74.6223 27.1116 74.9244 26.42 75.3393C27.1373 76.5149 27.732 77.4882 28.3242 78.4631C28.5458 78.3773 28.7695 78.2919 28.9915 78.204C28.9039 77.0145 28.8183 75.8255 28.6833 73.9868L28.6837 73.9847ZM-4.35118 16.2108C-4.51944 16.305 -4.6877 16.3992 -4.85596 16.4934C-4.72889 17.9391 -4.60351 19.3823 -4.47643 20.828C-4.31552 20.8819 -4.15248 20.9362 -3.99199 20.9922C-3.49305 20.062 -2.99623 19.1313 -2.45766 18.1232C-3.20176 17.371 -3.77541 16.7911 -4.35118 16.2108ZM79.1729 51.0213C79.7276 52.8068 80.1674 54.2287 80.6093 55.6511L80.9127 55.6299C80.9628 53.8894 81.0104 52.1507 81.0728 49.9707C80.0946 50.5112 79.6299 50.7688 79.1729 51.0213ZM27.5851 96.8122C28.9125 94.3771 28.7476 93.9882 26.2433 93.6591C26.2579 95.147 26.7052 96.198 27.5851 96.8122ZM18.7921 45.1157C16.6032 46.6477 17.5997 48.6682 17.5844 50.4771C17.5891 48.6441 20.5903 47.6314 18.7921 45.1157ZM-21.2085 0.111712C-19.2808 0.553094 -18.8284 3.35409 -16.2095 3.19361C-17.4794 1.14317 -18.8264 -0.207858 -21.2085 0.111712ZM-8.97933 9.28166C-10.7201 10.5837 -10.8816 12.0316 -10.4791 13.6638C-10.15 12.214 -7.34344 11.7059 -8.97933 9.28166ZM40.0412 70.5797C39.9425 72.5986 39.8667 74.1581 39.7814 75.8871C40.5526 75.7475 41.2668 75.6186 41.821 75.5195C41.2535 73.9425 40.7295 72.4907 40.0412 70.5797ZM43.0047 60.8099C45.6267 58.6468 45.6899 58.0282 43.405 56.1482C43.2703 57.7158 43.1319 59.3244 43.0047 60.8099ZM84.5704 78.6567C86.2678 78.543 87.0892 77.2845 87.0345 74.8812C86.0871 76.3317 85.4802 77.2625 84.5704 78.6567ZM73.9114 36.3538C72.2272 36.1937 70.5405 36.0354 68.8562 35.8753C68.8397 36.0699 68.821 36.2641 68.8044 36.4588C70.5189 36.2884 72.056 38.1675 73.9114 36.3538ZM60.8421 -13.9011C63.0855 -13.8765 65.3264 -13.8502 67.5698 -13.8257C65.3227 -14.5085 63.0906 -15.4896 60.8421 -13.9011ZM83.4201 39.9248L83.9524 39.6806C83.2056 37.0404 82.365 35.9906 81.4307 36.5311C82.0968 37.6659 82.7595 38.7955 83.4201 39.9248ZM30.3989 65.6739C29.7086 66.7707 27.987 67.4432 28.7612 69.3976C30.4237 68.5462 30.4278 67.1155 30.3989 65.6739ZM19.3729 33.2266C18.0999 33.645 17.0692 33.9839 16.0122 34.3329C17.4746 36.0785 18.1827 35.8692 19.3729 33.2266ZM70.9336 25.8815C71.6128 26.0842 72.2898 26.2866 73.4555 26.6319C72.6864 25.1623 72.1997 24.2325 71.4994 22.893C71.2573 23.7928 71.139 24.1454 71.0741 24.5064C71.0083 24.8716 70.9955 25.2472 70.9357 25.8819L70.9336 25.8815ZM-13.6428 5.02824C-14.919 4.93365 -15.962 6.02653 -16.7718 8.30692C-15.5363 7.01248 -14.673 6.10828 -13.6428 5.02824ZM38.2217 9.42646C38.5052 9.37268 38.7907 9.31932 39.0737 9.26766C38.9699 8.23775 38.866 7.20783 38.7638 6.18046C37.5666 7.33734 36.9799 8.43271 38.2213 9.42857L38.2217 9.42646ZM52.1732 1.5021C51.9053 1.48859 51.6378 1.47296 51.372 1.45987C51.3067 2.7993 51.2419 4.13662 51.1788 5.47648C51.9661 4.20098 53.278 3.00964 52.1753 1.50252L52.1732 1.5021ZM57.0687 -3.85197C57.3547 -3.64136 57.6408 -3.43074 57.9247 -3.22055C58.5391 -4.16748 59.1557 -5.11399 59.7705 -6.06304C59.582 -6.19937 59.3934 -6.33569 59.2044 -6.4699C58.4925 -5.59726 57.7785 -4.72504 57.0665 -3.85239L57.0687 -3.85197ZM92.6171 47.988C90.5083 47.447 88.8942 47.7509 87.7748 48.8997C89.6053 48.5544 90.9329 48.3052 92.6171 47.988Z" fill="#BF8665" fill-opacity="0.25"/>
</svg>
