<svg width="128" height="181" viewBox="0 0 128 181" fill="none" xmlns="http://www.w3.org/2000/svg">
<path d="M61.1265 35.5091L61.4046 16.4338C61.8973 11.1582 59.2452 6.47487 53.9507 6.12838L53.4612 6.12443C51.0789 6.10772 48.7777 6.98912 47.0162 8.59303C45.2546 10.1969 44.1619 12.4056 43.9558 14.779C43.5543 19.352 43.1686 24.4102 43.1835 26.8648C43.2075 31.9507 49.1105 32.7554 49.1105 32.7554L49.2797 37.2057C49.2797 37.2057 51.6669 38.9983 55.4432 38.741C59.5383 38.4565 61.1265 35.5091 61.1265 35.5091Z" fill="#FFBE9D"/>
<g filter="url(#filter0_f_103_263)">
<ellipse cx="62" cy="165.861" rx="49" ry="4.5" fill="#BF8665" fill-opacity="0.25"/>
</g>
<path d="M49.1026 32.7384C51.4641 32.7581 53.7815 32.0982 55.7783 30.8374C55.7783 30.8374 54.2278 34.4883 49.1582 33.9982L49.1026 32.7384Z" fill="#EB996E"/>
<path d="M45.9214 18.7668C45.9226 18.9533 45.9958 19.1322 46.1256 19.2662C46.2553 19.4001 46.4318 19.4788 46.6182 19.4859C46.7105 19.4946 46.8037 19.4846 46.892 19.4564C46.9804 19.4283 47.0621 19.3825 47.1324 19.322C47.2027 19.2615 47.26 19.1875 47.301 19.1043C47.3419 19.0211 47.3657 18.9304 47.3708 18.8379C47.3738 18.6486 47.3029 18.4657 47.1732 18.3278C47.0435 18.19 46.8651 18.1081 46.6761 18.0996C46.5822 18.0915 46.4877 18.1026 46.3983 18.1322C46.3088 18.1617 46.2263 18.2091 46.1558 18.2715C46.0852 18.3339 46.028 18.41 45.9878 18.4951C45.9475 18.5802 45.9249 18.6727 45.9214 18.7668Z" fill="#263238"/>
<path d="M45.0313 17.2631C45.1209 17.3597 45.6735 16.9546 46.4558 16.964C47.2381 16.9735 47.8054 17.3661 47.8931 17.2691C47.9329 17.2282 47.8416 17.0573 47.5937 16.8729C47.2582 16.6358 46.8569 16.5096 46.4461 16.5117C46.0397 16.5056 45.6422 16.6304 45.3121 16.8676C45.0701 17.0513 44.9876 17.2198 45.0313 17.2631Z" fill="#263238"/>
<path d="M53.0959 18.8339C53.0922 19.0234 53.1628 19.2068 53.2926 19.3448C53.4225 19.4828 53.6013 19.5644 53.7907 19.5722C53.8829 19.5804 53.9759 19.57 54.064 19.5417C54.1522 19.5134 54.2338 19.4676 54.304 19.4072C54.3741 19.3468 54.4315 19.2729 54.4726 19.1899C54.5137 19.1069 54.5377 19.0165 54.5433 18.9241C54.5479 18.7344 54.4776 18.5505 54.3475 18.4123C54.2175 18.2741 54.0382 18.1927 53.8485 18.1858C53.7564 18.178 53.6636 18.1887 53.5756 18.2172C53.4877 18.2457 53.4062 18.2915 53.3362 18.3518C53.2661 18.4122 53.2087 18.4859 53.1675 18.5687C53.1262 18.6515 53.1019 18.7416 53.0959 18.8339Z" fill="#263238"/>
<path d="M52.7104 17.4646C52.8004 17.558 53.3526 17.1561 54.1352 17.1623C54.9178 17.1686 55.4848 17.5644 55.569 17.4702C55.612 17.4297 55.5242 17.2559 55.2887 17.0761C54.9537 16.838 54.5525 16.7106 54.1415 16.7117C53.734 16.7026 53.3344 16.8249 53.0018 17.0606C52.7495 17.2496 52.6667 17.4213 52.7104 17.4646Z" fill="#263238"/>
<path d="M49.8341 23.2368C49.8389 23.1922 49.3518 23.1047 48.5702 22.9986C48.3694 22.9771 48.1802 22.9376 48.1499 22.799C48.1343 22.5935 48.1821 22.3882 48.2869 22.2108C48.4781 21.7284 48.6782 21.2233 48.8872 20.6955C49.7215 18.5283 50.3257 16.7652 50.2392 16.7301C50.1527 16.6951 49.4138 18.4213 48.571 20.5779C48.3703 21.1087 48.1784 21.6169 47.9955 22.1023C47.8671 22.3414 47.8283 22.6185 47.8862 22.8836C47.914 22.9545 47.958 23.018 48.0147 23.0688C48.0714 23.1197 48.1392 23.1565 48.2128 23.1764C48.3232 23.2037 48.4368 23.2158 48.5506 23.2125C49.3401 23.2743 49.8293 23.2814 49.8341 23.2368Z" fill="#263238"/>
<path d="M52.1277 23.7945C52.0034 23.7812 51.9929 24.6343 51.2652 25.2302C50.5375 25.8262 49.6327 25.7263 49.6233 25.8445C49.6175 25.8987 49.8247 26.0111 50.2067 26.0261C50.7032 26.0351 51.1872 25.8701 51.5749 25.5599C51.95 25.2579 52.1912 24.8206 52.2465 24.3423C52.2797 24.0009 52.1861 23.7911 52.1277 23.7945Z" fill="#263238"/>
<path d="M52.5318 14.3996C52.6057 14.6137 53.3861 14.5198 54.3022 14.6338C55.2184 14.7478 55.9578 15.0074 56.0806 14.8238C56.1354 14.733 56.0086 14.5325 55.7086 14.3231C55.3131 14.0676 54.8629 13.9091 54.3945 13.8604C53.9256 13.799 53.4488 13.852 53.0049 14.0149C52.6708 14.1243 52.4974 14.2992 52.5318 14.3996Z" fill="#263238"/>
<path d="M45.334 15.0036C45.4696 15.1825 46.0111 15.0018 46.6595 14.9969C47.3079 14.9921 47.8514 15.1243 47.9806 14.9415C48.0354 14.8506 47.9511 14.674 47.7051 14.5027C47.3847 14.3002 47.0117 14.1969 46.6328 14.2057C46.254 14.2146 45.8861 14.3352 45.5756 14.5523C45.353 14.7349 45.2755 14.9168 45.334 15.0036Z" fill="#263238"/>
<path d="M44.4697 12.4422C44.4697 12.4422 45.8307 9.26751 47.3727 8.53292C49.2367 7.64903 50.0241 9.69297 51.7967 9.2119C53.5694 8.73084 55.3529 7.87701 57.1519 9.26187C59.1255 10.7621 58.1874 11.8191 58.2946 14.074C58.7257 23.2229 60.3787 25.8235 60.884 21.5163C60.9344 21.0446 62.261 20.6964 62.4755 18.6885C62.7513 16.1071 62.8676 12.967 62.3162 11.1288C61.8371 9.57872 60.9657 8.50248 59.3938 7.31594C56.9093 5.43879 53.477 5.37186 51.1521 5.59085C48.8272 5.80984 44.2773 8.45041 44.4697 12.4422Z" fill="#263238"/>
<path d="M60.5541 21.3745C60.5618 21.1881 60.6072 21.0052 60.6875 20.8369C60.7678 20.6685 60.8813 20.5181 61.0213 20.3948C61.1613 20.2715 61.3248 20.1778 61.502 20.1194C61.6791 20.061 61.8663 20.0391 62.0522 20.055C63.0083 20.1572 64.0526 20.7007 63.9756 22.6587C63.8398 26.132 60.3788 25.2787 60.3769 25.1753C60.3751 25.072 60.4824 22.8303 60.5541 21.3745Z" fill="#FFBE9D"/>
<path d="M61.1836 23.9012C61.1836 23.9012 61.2433 23.9462 61.344 23.9989C61.4856 24.0655 61.6475 24.0747 61.7958 24.0246C62.1666 23.9031 62.4983 23.3325 62.5424 22.7087C62.5627 22.4115 62.5164 22.1136 62.4067 21.8367C62.3775 21.7268 62.3225 21.6255 62.2463 21.5411C62.1701 21.4567 62.0749 21.3917 61.9686 21.3515C61.8993 21.3327 61.8257 21.3377 61.7595 21.3657C61.6934 21.3937 61.6386 21.4431 61.6039 21.506C61.5551 21.6007 61.5862 21.6717 61.5537 21.6747C61.5211 21.6777 61.4826 21.6155 61.5174 21.471C61.5397 21.3861 61.5909 21.3118 61.6624 21.2608C61.7582 21.1927 61.8769 21.1648 61.993 21.1833C62.1347 21.217 62.2653 21.2867 62.3722 21.3856C62.4791 21.4846 62.5586 21.6094 62.6031 21.7481C62.7421 22.057 62.8013 22.3958 62.775 22.7335C62.7263 23.431 62.3418 24.0733 61.8351 24.1997C61.7385 24.2213 61.6382 24.2207 61.5419 24.1982C61.4455 24.1756 61.3554 24.1315 61.2785 24.0693C61.1875 23.9854 61.173 23.9097 61.1836 23.9012Z" fill="#EB996E"/>
<path d="M60.5324 14.6418C60.1039 14.9845 59.596 15.214 59.0556 15.3092C58.5118 15.3607 57.8914 15.043 57.8039 14.505C57.7653 14.2623 57.8275 13.9821 57.6671 13.7941C57.5066 13.6061 57.1295 13.6367 56.8393 13.667C56.3323 13.6997 55.8291 13.5594 55.4121 13.2689C54.9952 12.9784 54.6892 12.555 54.5443 12.068C54.284 12.4527 53.6836 12.4305 53.2949 12.1762C52.9315 11.8791 52.6115 11.5324 52.3445 11.1463C52.0598 10.7936 51.6164 10.4787 51.1551 10.5422C50.9102 10.624 50.6568 10.678 50.3998 10.7033C49.944 10.6546 49.7237 10.1217 49.6605 9.65726C49.5973 9.19278 49.5428 8.67766 49.1478 8.42271C48.7527 8.16776 48.3255 8.33486 47.908 8.38051C47.4906 8.42616 46.9458 8.33572 46.8383 7.92453C46.8214 7.81451 46.8269 7.70222 46.8545 7.59439C46.8821 7.48656 46.9312 7.38541 46.9988 7.297C47.2836 6.87675 47.7025 6.5655 48.187 6.41411C48.6716 6.26272 49.1932 6.28013 49.6665 6.46351C49.8421 5.88646 50.1847 5.37438 50.6512 4.99196C51.1176 4.60955 51.687 4.37396 52.2872 4.31495C52.8875 4.25595 53.4918 4.37618 54.0238 4.66045C54.5558 4.94472 54.9916 5.38028 55.2761 5.91211C55.6485 5.58069 56.0952 5.34396 56.5785 5.222C57.0619 5.10005 57.5675 5.09646 58.0525 5.21155C58.5374 5.32663 58.9875 5.557 59.3645 5.8831C59.7415 6.2092 60.0343 6.62142 60.218 7.08479C60.6456 6.97118 61.0972 6.98651 61.516 7.12884C61.9349 7.27117 62.3023 7.53416 62.5721 7.88473C62.842 8.2353 63.0021 8.65782 63.0325 9.09916C63.0629 9.5405 62.9621 9.98097 62.7428 10.3652C63.3652 10.725 63.898 11.3493 63.9049 12.0688C63.9119 12.7884 63.2073 13.4996 62.5124 13.3061C62.6445 13.5886 62.6657 13.9104 62.5718 14.2078C62.4778 14.5052 62.2755 14.7564 62.005 14.9116C61.7345 15.0669 61.4155 15.1148 61.1114 15.046C60.8072 14.9771 60.54 14.7965 60.3627 14.5398" fill="#263238"/>
<path d="M49.4173 7.49748C49.4115 7.51819 49.4092 7.53974 49.4105 7.56122C49.4061 7.60265 49.4184 7.66843 49.4326 7.7473C49.4779 7.98356 49.5627 8.21053 49.6832 8.41876C49.8718 8.74998 50.1337 9.03374 50.4487 9.24838C50.8646 9.53614 51.3623 9.68201 51.8677 9.66431L51.8118 9.58419C51.7563 9.74226 51.733 9.90984 51.7434 10.077C51.7538 10.2442 51.7976 10.4077 51.8722 10.5577C52.0253 10.8712 52.2236 11.1606 52.4605 11.4167C52.5738 11.5646 52.7032 11.6995 52.8463 11.8189C53.0104 11.9321 53.1998 12.0033 53.3979 12.0261C53.6027 12.0581 53.8123 12.0389 54.008 11.9704C54.2037 11.9019 54.3795 11.7862 54.5197 11.6335L54.3882 11.5969C54.4342 11.9588 54.5554 12.307 54.7441 12.6192C54.9328 12.9314 55.1848 13.2006 55.4839 13.4094C55.8125 13.656 56.2123 13.7892 56.6231 13.789C57.0099 13.7754 57.3914 13.6951 57.7509 13.5517L57.6587 13.5096C57.8352 13.9318 58.1147 14.303 58.4716 14.5893C58.6351 14.7321 58.8284 14.8366 59.0374 14.8952C59.2464 14.9537 59.4658 14.9649 59.6797 14.9279C60.0483 14.8501 60.3859 14.6658 60.6506 14.3978C60.9153 14.1298 61.0955 13.79 61.1688 13.4205L61.0875 13.457C61.4532 13.6538 61.8756 13.7183 62.2833 13.6395C62.5865 13.5851 62.8727 13.46 63.1185 13.2742C63.2729 13.1581 63.405 13.0149 63.5085 12.8517C63.5454 12.7964 63.5755 12.7369 63.5984 12.6744C63.4604 12.8904 63.2852 13.0801 63.0808 13.2348C62.839 13.4055 62.5612 13.5181 62.2688 13.5638C61.882 13.6301 61.4842 13.5614 61.142 13.3693L61.0782 13.3335L61.0703 13.4068C60.9948 13.7482 60.8214 14.0603 60.5715 14.3049C60.3216 14.5495 60.0058 14.7161 59.6628 14.7843C59.4683 14.8163 59.2691 14.8044 59.0798 14.7496C58.8905 14.6948 58.7158 14.5984 58.5685 14.4675C58.2308 14.195 57.9671 13.8421 57.8014 13.4411L57.776 13.3771L57.7088 13.4022C57.3645 13.5371 57.0001 13.6137 56.6306 13.6287C56.2506 13.6271 55.8815 13.5016 55.5792 13.2714C55.2962 13.0727 55.0581 12.8168 54.8804 12.5201C54.7027 12.2235 54.5895 11.8928 54.548 11.5495L54.5268 11.386L54.4169 11.5097C54.2933 11.6443 54.1386 11.7466 53.9663 11.8074C53.794 11.8683 53.6094 11.8858 53.4287 11.8586C53.254 11.8393 53.0868 11.7771 52.9419 11.6777C52.8068 11.5653 52.6842 11.4387 52.5761 11.3001C52.3447 11.0641 52.1475 10.7967 51.9905 10.5058C51.8549 10.2367 51.8303 9.925 51.9221 9.63788L51.9504 9.55388L51.8644 9.54468C51.3816 9.56881 50.9039 9.43637 50.5025 9.1671C50.1934 8.96611 49.9324 8.69939 49.7382 8.38596C49.5808 8.11053 49.4723 7.80993 49.4173 7.49748V7.49748Z" fill="#455A64"/>
<path d="M62.5908 15.1647C62.4714 15.3636 62.3183 15.5403 62.1385 15.6869C61.7267 16.0645 61.2584 16.3755 60.7507 16.6088C60.242 16.8473 59.6987 17.0036 59.1411 17.0718C58.9131 17.1146 58.6793 17.1158 58.4509 17.0754C59.216 16.9676 59.9645 16.7639 60.6786 16.4689C61.3681 16.116 62.0105 15.6778 62.5908 15.1647V15.1647Z" fill="white"/>
<path d="M62.6401 16.9365C62.5095 17.1064 62.3522 17.2539 62.1744 17.3734C61.3514 18.006 60.394 18.4408 59.3761 18.6443C59.1645 18.7034 58.9439 18.7235 58.7251 18.7036C59.4187 18.5173 60.1 18.2876 60.7648 18.0158C61.4108 17.6935 62.037 17.3331 62.6401 16.9365V16.9365Z" fill="white"/>
<path d="M49.2168 35.4712L40.1373 37.0025C39.0592 37.1799 38.0711 37.7118 37.3294 38.514L29.7991 46.9961L31.6113 49.5847L80.4307 54.8232C80.4307 54.8232 79.2927 47.7649 78.9024 45.5957C78.3155 42.3096 77.1516 41.286 76.1282 40.0033C75.6454 39.4697 75.0617 39.0371 74.4108 38.7303C72.4312 38.0708 63.0514 34.809 61.2167 34.6645C61.2167 34.6645 58.8544 38.9442 54.4416 38.4309C50.0288 37.9175 49.2168 35.4712 49.2168 35.4712Z" fill="#455A64"/>
<path d="M68.7953 45.8535C68.8272 45.8569 68.9671 45.4528 69.3299 44.863C69.815 44.103 70.4184 43.4253 71.1174 42.8556C71.8238 42.2881 72.5684 41.7699 73.346 41.3048C73.6761 41.1223 73.9923 40.9158 74.292 40.687C73.9366 40.8221 73.5948 40.9906 73.2712 41.1904C72.4656 41.625 71.7023 42.1338 70.9911 42.71C70.2742 43.2901 69.6699 43.9969 69.2082 44.7952C69.0712 45.0381 68.9546 45.292 68.8595 45.5541C68.8206 45.6493 68.7988 45.7507 68.7953 45.8535V45.8535Z" fill="#263238"/>
<path d="M39.8781 48.2373C39.9615 47.8882 40.0115 47.532 40.0272 47.1734C40.0977 46.5137 40.1533 45.601 40.1841 44.5889C40.2149 43.5768 40.2067 42.6573 40.1824 42.01C40.1874 41.6518 40.1598 41.2939 40.1 40.9407C40.0515 41.2956 40.0347 41.6541 40.05 42.012C40.0347 42.7292 40.0168 43.6201 39.9943 44.5847C39.9719 45.5494 39.9215 46.4433 39.8972 47.1531C39.861 47.5134 39.8546 47.876 39.8781 48.2373V48.2373Z" fill="#263238"/>
<g opacity="0.3">
<path d="M36.7112 49.2173C37.5803 49.1119 38.4102 48.7943 39.1276 48.2925C39.8109 47.7498 40.254 46.8012 39.9575 45.9862C40.4301 47.3507 41.287 48.5495 42.4249 49.4385C43.5628 50.3276 44.9334 50.8688 46.3717 50.9973L34.1845 49.8467C34.9973 49.5327 35.8461 49.3213 36.7112 49.2173Z" fill="black"/>
</g>
<g opacity="0.3">
<path d="M67.0445 53.3704L67.7541 48.6595L63.9251 53.0307L67.0445 53.3704Z" fill="black"/>
</g>
<path d="M67.0441 53.3735C67.1139 52.4358 67.2383 51.5031 67.4167 50.5799C67.5417 49.6472 67.7202 48.7224 67.9512 47.8101C67.8814 48.7477 67.7569 49.6805 67.5786 50.6037C67.4535 51.5364 67.2751 52.4612 67.0441 53.3735V53.3735Z" fill="#263238"/>
<path d="M59.82 48.4307L86.2117 51.2505L87.8802 49.9041L103.927 51.6185C104.447 51.6742 104.925 51.9344 105.254 52.3419C105.582 52.7494 105.736 53.2708 105.68 53.7915L105.397 56.4431L57.7192 51.3491L57.7875 50.1669C57.8015 49.9175 57.8659 49.6735 57.9768 49.4497C58.0877 49.2258 58.2428 49.0268 58.4328 48.8645C58.6227 48.7023 58.8436 48.5802 59.082 48.5056C59.3204 48.4311 59.5715 48.4056 59.82 48.4307V48.4307Z" fill="#D9A273"/>
<path d="M18.1918 86.4254L22.3004 51.32C22.4148 50.3365 22.913 49.4379 23.6865 48.8197C24.46 48.2015 25.4463 47.9137 26.4309 48.019L107.187 56.6471C108.172 56.7524 109.076 57.243 109.702 58.0121C110.327 58.7811 110.624 59.7662 110.526 60.7527L107.036 95.9178L109.112 111.663L108.526 117.148L105.894 116.867L104.216 132.576C103.919 135.333 102.54 137.859 100.382 139.599C98.2239 141.34 95.4628 142.152 92.7059 141.858L20.9184 134.188C18.1604 133.893 15.6323 132.515 13.8905 130.356C12.1486 128.198 11.3356 125.435 11.6303 122.677L13.3795 106.306L10.747 106.024L11.2615 101.209L18.1918 86.4254Z" fill="#D9A273"/>
<path d="M18.1919 86.4255C18.1919 86.4255 18.0439 86.7545 17.7503 87.3904L16.4286 90.2276L11.2952 101.225C11.1338 102.736 10.962 104.344 10.7797 106.05L10.7423 106.008L13.4163 106.294L13.4145 106.309C13.0478 109.742 12.643 113.531 12.2027 117.652C12.0926 118.682 11.9803 119.733 11.8659 120.804C11.7166 121.888 11.6354 122.981 11.6227 124.076C11.6437 125.208 11.861 126.329 12.265 127.387C12.673 128.485 13.2609 129.507 14.0047 130.413C15.5837 132.318 17.7922 133.595 20.231 134.014C20.8637 134.127 21.5024 134.182 22.1395 134.254L28.0132 134.881L44.78 136.673L82.527 140.706L92.7255 141.795C94.454 141.96 96.1968 141.704 97.8047 141.049L98.3922 140.77L98.6875 140.63L98.9696 140.464L99.5306 140.131L100.059 139.742L100.325 139.548L100.57 139.333L101.062 138.895L101.513 138.415L101.735 138.174C101.808 138.092 101.869 138.002 101.937 137.915L102.338 137.391C102.463 137.211 102.574 137.02 102.691 136.832C102.92 136.455 103.126 136.065 103.309 135.664C103.663 134.851 103.913 133.995 104.051 133.119C104.13 132.683 104.174 132.236 104.222 131.79L104.653 127.758C105.037 124.159 105.426 120.526 105.817 116.859L105.826 116.776L108.542 117.066L108.45 117.14L109.032 111.69C108.823 110.092 108.594 108.365 108.367 106.636C107.881 102.974 107.402 99.3383 106.956 95.9479L106.958 95.9288C108.086 84.5547 109.185 73.4805 110.245 62.8083C110.322 61.4852 110.733 60.1108 110.146 58.9039C109.881 58.3123 109.465 57.801 108.94 57.4212C108.415 57.0415 107.799 56.8066 107.154 56.7404L84.3765 54.3068L32.7138 48.7386L27.35 48.1656C26.9166 48.1193 26.48 48.0726 26.0732 48.0485C25.6498 48.0477 25.2292 48.1183 24.8292 48.2573C24.0377 48.5311 23.3639 49.0677 22.9197 49.7777C22.7014 50.1198 22.5424 50.4962 22.4494 50.8911C22.3622 51.2848 22.3285 51.6905 22.2796 52.0882C22.1938 52.8914 22.1093 53.6817 22.0014 54.4503C21.8185 56.0016 21.6421 57.502 21.4721 58.9516C20.7883 64.7483 20.2009 69.7334 19.7208 73.8048C19.2407 77.8762 18.8618 81.0301 18.6075 83.1691C18.4934 84.2367 18.3807 85.0499 18.3158 85.5974C18.2508 86.1449 18.2276 86.4228 18.2276 86.4228C18.2276 86.4228 18.2576 86.1424 18.3161 85.5942C18.3747 85.046 18.4619 84.2302 18.5763 83.1593C18.8242 81.0197 19.1872 77.8641 19.6577 73.7916C20.1283 69.7192 20.7093 64.7334 21.3836 58.9357C21.5512 57.488 21.7253 55.9884 21.9062 54.4369C21.9889 53.6624 22.073 52.8752 22.1808 52.0777C22.2233 51.6793 22.2666 51.2745 22.3488 50.8675C22.4977 50.2478 22.7997 49.6753 23.2269 49.2024C23.6541 48.7294 24.1931 48.3711 24.7945 48.1601C25.206 48.0151 25.6389 47.9404 26.0752 47.9391C26.5152 47.9539 26.9389 48.0314 27.3776 48.0589L32.7413 48.632L84.4091 54.1523L107.155 56.5825C107.66 56.6327 108.15 56.7822 108.597 57.0227C109.044 57.2631 109.439 57.5896 109.759 57.9834C110.079 58.3772 110.318 58.8304 110.463 59.317C110.607 59.8036 110.653 60.314 110.599 60.8186C110.529 61.4815 110.457 62.1476 110.402 62.8154C109.342 73.4876 108.246 84.5621 107.118 95.933L107.12 95.9139C107.57 99.3078 108.049 102.943 108.531 106.602C108.759 108.335 108.987 110.061 109.2 111.66L108.603 117.247L105.888 116.957L105.979 116.883L104.383 131.823C104.335 132.27 104.288 132.716 104.211 133.162C104.07 134.052 103.817 134.921 103.458 135.747C103.272 136.155 103.062 136.552 102.828 136.934C102.708 137.121 102.597 137.315 102.471 137.502L102.061 138.022C101.993 138.112 101.929 138.201 101.855 138.287L101.629 138.53L101.171 139.02L100.672 139.463L100.423 139.684L100.154 139.878L99.6186 140.272L99.0484 140.601L98.7628 140.771L98.4639 140.913L97.8634 141.193C96.2304 141.855 94.4607 142.109 92.7076 141.932L82.5092 140.842L44.7622 136.809L27.9953 135.018L22.1312 134.391C21.4938 134.323 20.8564 134.255 20.2228 134.152C17.7566 133.728 15.5241 132.434 13.9304 130.505C13.1803 129.588 12.5861 128.554 12.1718 127.445C11.7669 126.373 11.5489 125.24 11.5273 124.094C11.5417 122.996 11.6244 121.899 11.775 120.81C11.8894 119.74 12.0018 118.688 12.1117 117.658C12.552 113.538 12.9569 109.748 13.3236 106.316L13.3603 106.365L10.7023 106.081L10.7088 106.02C10.8904 104.321 11.0622 102.712 11.2243 101.195C13.4797 96.4077 15.2151 92.7154 16.3907 90.2203L17.728 87.388C18.0347 86.7503 18.1919 86.4255 18.1919 86.4255Z" fill="#263238"/>
<path d="M36.7681 82.4058C39.5846 79.9365 39.8661 75.6516 37.3969 72.8351C34.9276 70.0186 30.6427 69.7371 27.8262 72.2064C25.0097 74.6756 24.7282 78.9606 27.1974 81.7771C29.6667 84.5936 33.9517 84.8751 36.7681 82.4058Z" fill="#E0E0E0"/>
<path d="M39.042 78.0256C39.036 77.9893 39.0345 77.9523 39.0377 77.9156C39.0465 77.8327 39.0577 77.7276 39.0494 77.5945C39.0599 77.4203 39.0581 77.2456 39.044 77.0717C39.0357 76.8349 39.0125 76.5988 38.9745 76.3648C38.8824 75.7194 38.693 75.0916 38.4127 74.5029C38.0493 73.7213 37.5391 73.0168 36.9099 72.4277C36.15 71.7094 35.2313 71.1806 34.2286 70.8841C33.0779 70.542 31.8567 70.5139 30.6915 70.8027C30.3819 70.8791 30.0776 70.9758 29.7806 71.0922C29.4801 71.218 29.1887 71.3645 28.9086 71.5309C28.6216 71.6972 28.3464 71.8832 28.0851 72.0876C27.8308 72.3068 27.5904 72.5416 27.3653 72.7907C26.8915 73.3036 26.5025 73.8888 26.2131 74.5243C25.6127 75.8401 25.4551 77.3151 25.764 78.728C25.9126 79.4102 26.1691 80.0644 26.5239 80.6658C26.6893 80.9591 26.8746 81.2406 27.0786 81.5084C27.2926 81.7617 27.5221 82.0015 27.7658 82.2265C28.0045 82.4483 28.2583 82.6531 28.5255 82.8395C28.7911 83.016 29.0681 83.1749 29.3547 83.3149C30.7573 84.001 32.3549 84.1781 33.8737 83.8158C35.3925 83.4535 36.7382 82.5745 37.6801 81.3292C38.078 80.8127 38.3957 80.2392 38.6226 79.628C38.7096 79.4064 38.7823 79.1795 38.8403 78.9485C38.8911 78.7816 38.9298 78.6112 38.956 78.4387C38.9699 78.3081 38.9974 78.2014 39.0123 78.1224C39.0166 78.0858 39.0259 78.0499 39.0398 78.0157C39.0396 78.0522 39.0357 78.0885 39.0283 78.1241C39.0194 78.207 39.0082 78.3121 38.9942 78.4428C38.9757 78.6169 38.9422 78.7891 38.8941 78.9575C38.8438 79.1927 38.775 79.4236 38.6882 79.6479C38.4704 80.2705 38.1578 80.8557 37.7614 81.383C37.1821 82.1613 36.4442 82.8077 35.5964 83.2795C34.7485 83.7513 33.8102 84.0376 32.8435 84.1196C31.6222 84.2161 30.3973 83.985 29.2951 83.4504C29.0014 83.3074 28.7172 83.1457 28.4443 82.9662C28.1666 82.7842 27.9015 82.5836 27.651 82.3657C27.4007 82.1336 27.1656 81.8856 26.947 81.6233C26.7327 81.3507 26.5372 81.0638 26.3619 80.7646C25.9981 80.1489 25.7356 79.4787 25.5844 78.7797C25.2663 77.3315 25.4279 75.8192 26.0447 74.4709C26.3396 73.8192 26.7378 73.2196 27.224 72.6951C27.4594 72.4393 27.7112 72.1992 27.9778 71.9762C28.2467 71.767 28.5288 71.5753 28.8224 71.4024C29.1103 71.2336 29.4095 71.0846 29.7177 70.9565C30.0219 70.8374 30.334 70.7393 30.6516 70.6631C31.8418 70.3718 33.0882 70.4048 34.2613 70.7586C35.1882 71.0401 36.0445 71.5157 36.7733 72.1538C37.5021 72.7919 38.0867 73.5779 38.4883 74.4594C38.7643 75.0585 38.9462 75.6966 39.0275 76.3512C39.0647 76.5877 39.0834 76.8268 39.0833 77.0663C39.0946 77.2421 39.0909 77.4185 39.0721 77.5937C39.0578 77.7276 39.0465 77.8327 39.038 77.9124C39.0431 77.9499 39.0444 77.9879 39.042 78.0256V78.0256Z" fill="#263238"/>
<g opacity="0.3">
<path d="M11.2615 101.209L109.112 111.663L107.036 95.9209L18.1946 86.4289L11.2615 101.209Z" fill="black"/>
</g>
<path d="M102.124 74.831L90.8766 73.6293C90.454 73.5842 90.0666 73.373 89.7997 73.0422C89.5328 72.7114 89.4082 72.2882 89.4534 71.8656L90.6564 60.6058C90.7016 60.1832 90.9128 59.7958 91.2435 59.5289C91.5743 59.262 91.9975 59.1374 92.4202 59.1826L103.667 60.3842C104.09 60.4294 104.477 60.6406 104.744 60.9714C105.011 61.3021 105.136 61.7254 105.09 62.148L103.889 73.395C103.868 73.6055 103.806 73.8098 103.706 73.9961C103.605 74.1825 103.469 74.3471 103.305 74.4806C103.141 74.6141 102.952 74.7138 102.749 74.7739C102.547 74.8341 102.334 74.8534 102.124 74.831V74.831ZM92.3875 59.4885C92.0494 59.4524 91.7108 59.5521 91.4462 59.7656C91.1815 59.9791 91.0126 60.289 90.9765 60.6271L89.7735 71.8869C89.7373 72.225 89.837 72.5636 90.0505 72.8282C90.2641 73.0928 90.574 73.2617 90.9121 73.2979L102.159 74.4995C102.497 74.5356 102.836 74.436 103.1 74.2224C103.365 74.0089 103.534 73.699 103.57 73.3609L104.772 62.1139C104.808 61.7758 104.708 61.4372 104.495 61.1726C104.281 60.908 103.971 60.7391 103.633 60.7029L92.3875 59.4885Z" fill="#263238"/>
<path d="M103.373 69.1379C104.55 65.7709 102.774 62.0871 99.4072 60.9101C96.0401 59.733 92.3564 61.5084 91.1793 64.8754C90.0023 68.2425 91.7776 71.9262 95.1447 73.1033C98.5118 74.2803 102.195 72.505 103.373 69.1379Z" fill="#263238"/>
<path d="M45.018 57.3316L29.1722 55.6386C27.9735 55.5106 26.898 56.3784 26.7699 57.5771L26.3647 61.3696C26.2367 62.5683 27.1046 63.6438 28.3032 63.7719L44.149 65.4649C45.3477 65.593 46.4232 64.7251 46.5513 63.5264L46.9565 59.7339C47.0845 58.5352 46.2167 57.4597 45.018 57.3316Z" fill="#FAFAFA"/>
<path d="M44.1494 65.4617C44.328 65.4656 44.5067 65.4567 44.6841 65.435C45.1939 65.3562 45.6591 65.0985 45.9963 64.7081C46.2388 64.4298 46.4048 64.0932 46.4778 63.7313C46.5399 63.3318 46.5684 62.8836 46.6191 62.4087C46.6699 61.9338 46.7244 61.4239 46.7819 60.8853C46.8105 60.6176 46.8401 60.3403 46.8708 60.0535C46.9152 59.7683 46.9212 59.4784 46.8887 59.1915C46.843 58.8879 46.7317 58.5978 46.5626 58.3415C46.3935 58.0852 46.1706 57.8688 45.9095 57.7073C45.373 57.3277 44.6547 57.3831 43.9592 57.2862L39.4655 56.8061L29.1682 55.7059C28.7313 55.661 28.2913 55.7534 27.9093 55.9702C27.5274 56.1871 27.2225 56.5176 27.0372 56.9158C26.8872 57.3207 26.8035 57.7472 26.7895 58.1787L26.5137 60.7602C26.4379 61.1672 26.426 61.5836 26.4785 61.9942C26.5584 62.3812 26.7453 62.7381 27.0178 63.0242C27.2904 63.3103 27.6378 63.5142 28.0204 63.6127C28.2095 63.6551 28.4016 63.6832 28.5949 63.6967L30.3191 63.8809L32.499 64.1138L36.4158 64.5323L42.0828 65.1635L43.6221 65.328L44.0237 65.3709C44.0698 65.371 44.1157 65.3759 44.1607 65.3856L44.0237 65.3709L43.6221 65.328L42.0811 65.1795L36.4084 64.6024L32.4915 64.1839L28.5842 63.7664C28.3834 63.7523 28.184 63.7223 27.9878 63.6769C27.5766 63.5724 27.203 63.3544 26.9098 63.0478C26.6165 62.7412 26.4154 62.3583 26.3293 61.9428C26.2878 61.7293 26.2753 61.5111 26.2922 61.2942C26.3147 61.0839 26.3372 60.8735 26.3603 60.6568L26.6947 57.5271C26.7252 57.2969 26.7894 57.0725 26.8852 56.8609C27.0844 56.4308 27.4132 56.0738 27.8254 55.8398C28.2377 55.6058 28.7128 55.5066 29.1842 55.5561L39.4815 56.6563L43.9752 57.1364L45.0109 57.2471C45.356 57.2815 45.6882 57.3965 45.9808 57.5828C46.256 57.7555 46.4904 57.9859 46.6678 58.2581C46.8452 58.5302 46.9613 58.8377 47.0082 59.1592C47.0394 59.4557 47.0312 59.7551 46.984 60.0495C46.9534 60.3363 46.9238 60.6136 46.8951 60.8813C46.8376 61.4199 46.7831 61.9298 46.7324 62.4047C46.6817 62.8795 46.6347 63.3194 46.5713 63.7316C46.4908 64.1044 46.3151 64.4499 46.0612 64.7344C45.7087 65.1323 45.2228 65.3876 44.6951 65.4523C44.5149 65.4846 44.3306 65.4877 44.1494 65.4617V65.4617Z" fill="#263238"/>
<path d="M64.0503 90.5966C73.7205 91.6297 82.3973 84.6281 83.4305 74.9579C84.4637 65.2877 77.462 56.6109 67.7918 55.5777C58.1216 54.5445 49.4448 61.5462 48.4116 71.2164C47.3784 80.8866 54.3801 89.5634 64.0503 90.5966Z" fill="#263238"/>
<path d="M64.0322 90.7654C60.5375 90.392 57.232 88.9907 54.5337 86.7386C51.8355 84.4866 49.8657 81.4849 48.8735 78.1133C47.8812 74.7417 47.9111 71.1516 48.9593 67.797C50.0075 64.4423 52.027 61.4739 54.7623 59.267C57.4977 57.0602 60.826 55.714 64.3264 55.3989C67.8269 55.0837 71.3421 55.8136 74.4277 57.4964C77.5132 59.1791 80.0305 61.7391 81.6611 64.8525C83.2917 67.9659 83.9624 71.493 83.5884 74.9876C83.0829 79.6713 80.7398 83.963 77.0734 86.9211C73.407 89.8791 68.7168 91.2617 64.0322 90.7654ZM67.7733 55.7497C64.3418 55.3831 60.8786 56.0422 57.8217 57.6439C54.7648 59.2455 52.2515 61.7176 50.5996 64.7476C48.9477 67.7776 48.2314 71.2294 48.5412 74.6665C48.8511 78.1036 50.1732 81.3717 52.3404 84.0574C54.5076 86.7431 57.4226 88.7258 60.7167 89.7549C64.0107 90.7839 67.5359 90.8131 70.8466 89.8386C74.1572 88.8641 77.1045 86.9298 79.3158 84.2803C81.5271 81.6308 82.9031 78.3851 83.2697 74.9535C83.7597 70.3512 82.4032 65.7425 79.4979 62.1395C76.5927 58.5365 72.3763 56.2337 67.7747 55.737L67.7733 55.7497Z" fill="#455A64"/>
<path d="M64.2209 88.9999C61.0102 88.6536 57.9743 87.3633 55.4969 85.2919C53.0194 83.2205 51.2118 80.4611 50.3024 77.3626C49.393 74.264 49.4226 70.9653 50.3877 67.8836C51.3527 64.8019 53.2098 62.0755 55.7241 60.0491C58.2383 58.0226 61.297 56.7871 64.5134 56.4987C67.7298 56.2104 70.9594 56.8821 73.7941 58.4289C76.6288 59.9758 78.9412 62.3284 80.439 65.1892C81.9369 68.0501 82.5529 71.2909 82.2092 74.5018C81.7439 78.8087 79.588 82.7548 76.2152 85.4732C72.8423 88.1917 68.5283 89.4601 64.2209 88.9999V88.9999ZM67.6563 56.8461C64.5088 56.513 61.3332 57.1203 58.5307 58.5913C55.7283 60.0623 53.4247 62.3309 51.9111 65.1106C50.3974 67.8903 49.7417 71.0562 50.0267 74.2084C50.3116 77.3606 51.5246 80.3576 53.5122 82.8208C55.4998 85.2839 58.1729 87.1026 61.1937 88.0471C64.2145 88.9917 67.4476 89.0196 70.4843 88.1274C73.521 87.2352 76.2251 85.463 78.255 83.0345C80.2849 80.6061 81.5494 77.6305 81.8888 74.4837C82.3403 70.2575 81.0945 66.0249 78.4254 62.7172C75.7563 59.4096 71.8825 57.2976 67.6563 56.8461Z" fill="#455A64"/>
<path d="M64.5441 85.9755C71.7395 86.7443 78.1958 81.5344 78.9646 74.339C79.7334 67.1435 74.5235 60.6873 67.3281 59.9185C60.1326 59.1497 53.6763 64.3595 52.9076 71.555C52.1388 78.7504 57.3486 85.2067 64.5441 85.9755Z" fill="#455A64"/>
<path d="M35.6406 81.11C37.7375 79.2619 37.9392 76.0639 36.0911 73.967C34.243 71.8701 31.0449 71.6684 28.948 73.5165C26.8511 75.3646 26.6494 78.5627 28.4975 80.6596C30.3456 82.7564 33.5437 82.9581 35.6406 81.11Z" fill="#D9A273"/>
<path d="M37.3306 77.8427C37.339 77.4281 37.3187 77.0135 37.2698 76.6017C37.2008 76.1212 37.0594 75.654 36.8505 75.2159C36.5772 74.6343 36.1956 74.11 35.7262 73.6711C35.1595 73.139 34.4761 72.747 33.7308 72.5263C32.8756 72.275 31.969 72.2549 31.1035 72.468C30.6369 72.5802 30.1902 72.7629 29.7788 73.0099C29.5666 73.1368 29.3622 73.2764 29.1668 73.428C28.9733 73.5907 28.7909 73.7661 28.6208 73.9531C27.9049 74.7336 27.458 75.7229 27.3455 76.7759C27.233 77.8289 27.4608 78.8903 27.9956 79.8044C28.1215 80.0228 28.2629 80.2318 28.4187 80.4298C28.576 80.6208 28.7463 80.8006 28.9285 80.9678C29.2776 81.2973 29.6758 81.5703 30.1089 81.7773C31.1518 82.2871 32.3393 82.4193 33.4689 82.1515C34.5985 81.8836 35.6002 81.2323 36.3032 80.3085C36.5996 79.9242 36.8365 79.4974 37.0058 79.0426C37.1405 78.6504 37.248 78.2494 37.3274 77.8424C37.3274 77.8424 37.3243 77.8711 37.3189 77.9221C37.3134 77.9731 37.3036 78.0655 37.293 78.1643C37.2793 78.2946 37.2548 78.4235 37.2196 78.5497C37.1807 78.7248 37.1299 78.8971 37.0678 79.0653C36.905 79.531 36.6723 79.9691 36.3778 80.3648C35.9448 80.9474 35.393 81.4314 34.759 81.7848C34.125 82.1383 33.4232 82.3531 32.7 82.4152C31.7853 82.4909 30.8672 82.3182 30.0425 81.9153C29.5947 81.7028 29.1821 81.4228 28.8193 81.0851C28.6311 80.9131 28.4548 80.7284 28.2917 80.5323C28.1312 80.3265 27.9842 80.1105 27.8515 79.8857C27.2982 78.9397 27.0624 77.8414 27.1789 76.7516C27.2953 75.6619 27.7578 74.6381 28.4985 73.8304C28.6736 73.6388 28.8618 73.4597 29.0618 73.2943C29.2634 73.1371 29.4748 72.9928 29.6946 72.8623C30.1206 72.6088 30.583 72.4223 31.0656 72.3093C31.9571 72.0924 32.8905 72.1186 33.7684 72.3853C34.4629 72.5972 35.1042 72.9549 35.6494 73.4345C36.1946 73.9141 36.6312 74.5046 36.93 75.1664C37.1348 75.6152 37.2697 76.0927 37.3299 76.5823C37.3551 76.7599 37.3682 76.939 37.3693 77.1184C37.377 77.2492 37.3738 77.3804 37.3596 77.5106C37.3494 77.6062 37.3409 77.6859 37.3341 77.7496C37.3273 77.8134 37.3306 77.8427 37.3306 77.8427Z" fill="#263238"/>
<path d="M34.8325 73.8915C34.5643 73.724 34.2852 73.5746 33.997 73.4444C33.2002 73.1096 32.3211 73.0224 31.474 73.1942C30.8519 73.3245 30.2674 73.5939 29.7643 73.9823C29.2611 74.3707 28.8524 74.8679 28.5687 75.4367C28.405 75.7635 28.2856 76.1106 28.2134 76.4689C28.1393 76.843 28.1158 77.2254 28.1436 77.6057C28.2019 78.4084 28.4914 79.177 28.9771 79.8186C29.4629 80.4603 30.124 80.9475 30.8807 81.2215C31.5866 81.4764 32.3476 81.5388 33.0855 81.4023C33.7511 81.2717 34.3761 80.985 34.9091 80.5656C35.3703 80.1969 35.7491 79.7355 36.0208 79.2113C36.4172 78.4433 36.573 77.5737 36.468 76.7158C36.4378 76.4833 36.3913 76.2532 36.3288 76.0273C36.3013 75.9493 36.2797 75.8694 36.2641 75.7883C36.2751 75.8069 36.2848 75.8263 36.2933 75.8462C36.3087 75.8833 36.3316 75.9405 36.3588 76.0176C36.4389 76.2412 36.4974 76.4719 36.5334 76.7067C36.664 77.581 36.5213 78.4743 36.1248 79.2643C35.8498 79.8086 35.4636 80.289 34.991 80.6743C34.4417 81.112 33.7964 81.4132 33.1081 81.553C32.3429 81.6995 31.5523 81.6373 30.8194 81.3729C30.0304 81.0924 29.3413 80.5861 28.8378 79.917C28.3331 79.2498 28.0322 78.4508 27.9716 77.6164C27.9465 77.221 27.9727 76.824 28.0494 76.4353C28.2728 75.3675 28.8918 74.4237 29.7822 73.7935C30.2782 73.438 30.8453 73.1939 31.4445 73.0782C32.3127 72.9111 33.2113 73.0173 34.0166 73.382C34.2297 73.4807 34.4328 73.5996 34.6233 73.737L34.7728 73.8464L34.8325 73.8915Z" fill="#263238"/>
<path d="M107.036 95.9178C107.031 95.9656 87.1368 93.8787 62.6096 91.2581C38.0823 88.6376 18.1867 86.4732 18.1918 86.4254C18.1969 86.3776 38.0845 88.467 62.6245 91.0889C87.1645 93.7108 107.041 95.8731 107.036 95.9178Z" fill="#263238"/>
<path d="M107.552 117.064L107.307 117.037L106.59 116.961L103.833 116.666L93.6952 115.583C85.1382 114.637 73.3133 113.264 60.2816 111.72C47.25 110.176 35.4175 108.783 26.8538 107.81L16.7259 106.663L13.9711 106.35L13.2541 106.273L13.0087 106.247L13.2541 106.273L13.9711 106.35L16.7279 106.644L26.8658 107.727C35.423 108.671 47.248 110.044 60.2988 111.589C73.3495 113.135 85.1534 114.525 93.7072 115.501L103.838 116.647L106.593 116.961L107.31 117.038L107.552 117.064Z" fill="#263238"/>
<path d="M96.2829 129.949L19.938 121.792L19.4967 125.922L95.8416 134.079L96.2829 129.949Z" fill="#263238"/>
<path d="M21.4097 124.038L14.1987 138.643L99.0911 147.713L94.268 131.822L21.4097 124.038Z" fill="white"/>
<path d="M21.4097 124.038C21.4097 124.038 21.5276 124.051 21.7635 124.076L22.8152 124.188L26.8946 124.624L42.1213 126.228L94.2741 131.765L94.3283 131.771L94.342 131.824C95.8947 136.931 97.5111 142.258 99.1683 147.715L99.2038 147.835L93.225 147.196L14.1908 138.716L14.1239 138.709L14.153 138.648L19.4934 127.885L20.9131 125.036C21.0714 124.73 21.1956 124.473 21.2781 124.304C21.3606 124.136 21.4038 124.063 21.4038 124.063C21.4038 124.063 21.3656 124.149 21.2863 124.318L20.927 125.057L19.5289 127.915C18.2946 130.416 16.5055 134.067 14.2399 138.68L14.2049 138.615L93.2469 147.021L99.1015 147.647L99.0127 147.753C97.3555 142.296 95.7424 136.97 94.1928 131.863L94.261 131.918L42.1603 126.316L26.9223 124.666L22.8302 124.228L21.7721 124.115L21.4097 124.038Z" fill="#263238"/>
<g opacity="0.3">
<path d="M73.6421 79.8657C73.6577 78.2106 72.2869 77.4646 70.9572 77.1484C68.1601 76.4467 64.8576 76.9158 62.7018 75.0093C62.0161 74.3822 61.5279 73.5691 61.2966 72.6692C61.0654 71.7693 61.1011 70.8215 61.3994 69.9416C61.8642 68.6084 62.9807 67.2095 62.1765 65.9567C62.0192 65.7231 61.8142 65.5255 61.5752 65.3766C61.3361 65.2278 61.0683 65.1311 60.7893 65.0929C60.2589 65.022 59.7194 65.0746 59.2127 65.2468C58.1204 65.5956 57.1853 66.3172 56.5709 67.2854C55.1369 69.5794 54.6251 72.3315 55.1388 74.9877C55.449 76.6424 56.1272 78.2062 57.1232 79.5635C58.1191 80.9209 59.4074 82.037 60.8928 82.8294C62.3903 83.5987 64.0373 84.0326 65.7195 84.101C67.4016 84.1694 69.0785 83.8706 70.6335 83.2254C71.8044 82.7348 72.9351 82.0176 73.4435 80.789C73.5671 80.4964 73.6344 80.1832 73.6421 79.8657V79.8657Z" fill="white"/>
</g>
<g opacity="0.3">
<path d="M68.0807 64.0958C68.0531 64.3602 67.9476 64.6105 67.7776 64.815C67.6076 65.0194 67.3808 65.1688 67.1258 65.2442C66.8708 65.3195 66.5992 65.3175 66.3454 65.2384C66.0915 65.1593 65.8669 65.0066 65.6999 64.7997C65.533 64.5927 65.4312 64.3409 65.4074 64.0761C65.3837 63.8113 65.4392 63.5454 65.5667 63.3121C65.6943 63.0788 65.8882 62.8886 66.1239 62.7656C66.3597 62.6426 66.6266 62.5924 66.8909 62.6213C67.2442 62.659 67.5681 62.8356 67.7912 63.1121C68.0144 63.3886 68.1185 63.7425 68.0807 64.0958V64.0958Z" fill="white"/>
</g>
<path d="M60.1037 83.9698C60.0284 83.9394 59.9569 83.9004 59.8905 83.8536C59.7578 83.7685 59.5502 83.6593 59.3094 83.4692C58.6075 82.9837 57.9583 82.4261 57.3727 81.8053C56.5011 80.8841 55.7688 79.8404 55.1991 78.7074C53.7644 75.9131 53.4431 72.6787 54.2997 69.6568C54.6333 68.439 55.1419 67.2762 55.8096 66.2047C56.2607 65.4811 56.7865 64.807 57.3784 64.1933C57.5824 63.9733 57.7658 63.8253 57.8807 63.7151C57.9382 63.658 57.9999 63.6054 58.0652 63.5575C58.0167 63.6228 57.9627 63.6839 57.9038 63.7401C57.7978 63.8577 57.6236 64.0099 57.4281 64.2405C56.8608 64.8653 56.3564 65.5445 55.9221 66.2682C55.2687 67.3395 54.7725 68.499 54.4486 69.7113C53.6176 72.6977 53.9347 75.8869 55.3372 78.6513C55.8941 79.7751 56.608 80.8141 57.4573 81.737C58.0306 82.3605 58.6632 82.9268 59.3461 83.428C59.5808 83.6142 59.7845 83.7294 59.9112 83.8107C59.9805 83.8572 60.045 83.9105 60.1037 83.9698Z" fill="white"/>
<path d="M65.4183 85.3951C64.9658 85.4042 64.5139 85.3559 64.0734 85.2514C63.6224 85.205 63.1786 85.1045 62.7516 84.9523C63.2052 84.9433 63.6582 84.9917 64.0997 85.0963C64.5496 85.1428 64.9923 85.2431 65.4183 85.3951V85.3951Z" fill="white"/>
<path d="M77.8927 76.0135C77.8576 76.0097 78.0723 75.388 78.2281 74.3828C78.2557 74.1246 78.3012 73.8491 78.3173 73.5478C78.3334 73.2465 78.3455 72.9222 78.3493 72.5842C78.3292 71.1112 78.025 69.6559 77.4534 68.2981C77.3123 67.9897 77.196 67.6903 77.0403 67.4287C76.8845 67.1671 76.7723 66.9198 76.622 66.6975C76.0701 65.8294 75.6366 65.3608 75.6616 65.3377C75.7777 65.4327 75.883 65.5401 75.9755 65.6581C76.0959 65.7868 76.2084 65.9226 76.3124 66.0648C76.4363 66.2328 76.5971 66.4176 76.7222 66.634C76.8804 66.8688 77.0266 67.1115 77.1603 67.361C77.3158 67.6258 77.448 67.9268 77.5955 68.2359C78.1903 69.6107 78.4982 71.0926 78.5001 72.5906C78.5013 72.9119 78.4864 73.2331 78.4554 73.5529C78.4344 73.8356 78.3968 74.1168 78.3428 74.395C78.306 74.6254 78.2569 74.8537 78.1956 75.0788C78.1574 75.2504 78.1092 75.4196 78.0512 75.5856C78.0106 75.7324 77.9575 75.8756 77.8927 76.0135Z" fill="white"/>
<g opacity="0.3">
<path d="M13.3782 106.318L12.913 110.672L105.499 120.564L105.894 116.867L13.3782 106.318Z" fill="black"/>
</g>
<path d="M23.8988 124.304L18.1166 137.15L95.577 145.426L91.9511 131.575L23.8988 124.304Z" fill="#455A64"/>
<path d="M94.6091 131.859C94.6043 131.904 78.1297 130.182 57.8221 128.012C37.5144 125.843 21.0449 124.044 21.0496 124C21.0544 123.955 37.5226 125.676 57.8398 127.847C78.157 130.017 94.6142 131.811 94.6091 131.859Z" fill="#263238"/>
<path d="M100.904 65.5235L106.384 67.6853L102.104 68.2594C99.9351 68.3726 98.8844 69.1855 98.3718 70.333L95.9446 80.7109L95.4748 70.0235C95.3307 69.5126 95.0803 69.0379 94.74 68.6305C94.3997 68.223 93.9771 67.8921 93.5 67.6593L88.2234 65.7578L94.1139 64.7497C94.6067 64.6061 95.0649 64.3634 95.4607 64.0366C95.8564 63.7097 96.1813 63.3056 96.4154 62.8488L99.1115 51.1007L98.8906 62.8522C98.9977 63.4224 99.2351 63.9602 99.5843 64.4235C99.9334 64.8869 100.385 65.2633 100.904 65.5235V65.5235Z" fill="white"/>
<path d="M102.269 80.2843L103.547 80.7882L102.549 80.9234C102.044 80.95 101.801 81.14 101.679 81.4042L101.115 83.8195L101.004 81.3288C100.971 81.2099 100.912 81.0994 100.833 81.0048C100.753 80.9101 100.655 80.8335 100.543 80.78L99.3187 80.3268L100.691 80.0931C100.805 80.0589 100.911 80.0021 101.003 79.9261C101.095 79.8501 101.17 79.7563 101.225 79.6505L101.84 76.9151L101.789 79.6496C101.813 79.7858 101.869 79.9143 101.953 80.0247C102.036 80.135 102.145 80.224 102.269 80.2843V80.2843Z" fill="white"/>
<path d="M85.6434 51.2284C85.6434 51.2284 84.6683 49.5544 84.139 49.1981C83.6098 48.8418 82.8308 48.7714 82.4603 49.0413L82.0852 49.3236C82.0852 49.3236 80.398 48.3407 79.4785 48.8613C79.4785 48.8613 77.8777 47.8845 76.974 48.7098C76.974 48.7098 75.764 47.7263 75.1371 48.4039C74.5103 49.0816 74.431 50.3367 74.6303 51.0059C74.8295 51.6751 75.0896 53.9173 75.4743 53.9971C75.4743 53.9971 76.4985 54.2161 76.6983 53.6734C76.8982 53.1306 76.9816 52.8623 76.9816 52.8623C76.9816 52.8623 77.1682 54.8872 77.6325 55.0368C78.0968 55.1863 79.0141 55.2295 79.1389 54.3628C79.1389 54.3628 79.5118 55.0667 79.9657 54.9218C80.4195 54.7769 80.9759 54.5172 80.9952 53.9745C81.0145 53.4318 81.0558 52.8947 81.0558 52.8947C81.0558 52.8947 81.2078 53.7039 81.6278 53.5747C82.0477 53.4455 82.4261 53.5246 82.7168 52.8852C83.0076 52.2458 83.6881 51.0356 83.6881 51.0356L85.6434 51.2284Z" fill="#FFBE9D"/>
<path d="M81.091 52.8372C81.1165 52.8399 81.0341 52.6151 80.982 52.2582C80.9105 51.7984 80.9409 51.3285 81.0711 50.8817C81.2067 50.4313 81.4392 50.0161 81.7523 49.6651C81.9936 49.3976 82.1757 49.2623 82.1618 49.2415C82.1479 49.2206 81.937 49.3238 81.6648 49.5784C81.3091 49.9192 81.048 50.3465 80.9072 50.8186C80.7663 51.2906 80.7505 51.7911 80.8614 52.2711C80.8903 52.4758 80.9692 52.6702 81.091 52.8372V52.8372Z" fill="#EB996E"/>
<path d="M79.3709 48.8434C79.23 49.0785 79.1255 49.3336 79.0612 49.6C78.8697 50.2326 78.7587 50.8868 78.7307 51.5471C78.7065 52.2031 78.7663 52.8594 78.9088 53.5002C78.948 53.7699 79.0288 54.0318 79.1482 54.2768C78.9751 53.3746 78.8906 52.4576 78.8959 51.539C78.9652 50.627 79.1243 49.7241 79.3709 48.8434V48.8434Z" fill="#EB996E"/>
<path d="M76.9316 48.7149C76.7347 49.3947 76.6504 50.1022 76.682 50.8093C76.6603 51.5167 76.7558 52.223 76.9648 52.8992C77.0175 52.8887 76.8621 51.9599 76.8657 50.8095C76.8694 49.6592 76.9854 48.7239 76.9316 48.7149Z" fill="#EB996E"/>
<path d="M69.9108 48.416C69.9631 48.3307 70.0338 48.258 70.1177 48.2034C70.2016 48.1488 70.2966 48.1136 70.3958 48.1004C70.6255 48.0762 70.8577 48.1072 71.073 48.1907C71.2883 48.2743 71.4806 48.408 71.6338 48.5808C71.9743 48.9553 72.255 49.3799 72.4663 49.8398L69.9567 49.5556C70.0163 49.1783 69.7325 48.758 69.9108 48.416Z" fill="#FFBE9D"/>
<path d="M17.478 65.7131C18.8385 66.0942 20.2183 66.403 21.6115 66.6382L24.6621 69.2205L26.4536 72.184C26.0963 72.7519 24.75 72.3502 24.75 72.3502L22.9699 70.3968L21.5188 69.9194L22.04 71.0743L24.8457 73.4757L25.5066 74.1684C25.5066 74.1684 27.3272 75.4718 27.9593 76.0421C28.6507 76.6608 28.8799 77.1398 28.621 77.4215C28.3081 77.7556 27.6021 77.635 27.2082 77.3995L23.6744 75.5682C23.6744 75.5682 21.9999 76.1565 21.1841 76.0081C20.3683 75.8597 18.9873 75.451 18.9873 75.451L17.9705 75.9162C17.8699 76.0033 17.7431 76.0543 17.6101 76.0614C17.2907 76.0993 16.9668 76.0611 16.6649 75.9498C16.3631 75.8386 16.0919 75.6575 15.8734 75.4213L13.8181 73.2677C13.3656 72.7971 12.6194 71.4538 11.9728 70.2049C11.5765 69.4458 11.3599 68.6058 11.3396 67.7496C11.3193 66.8935 11.4959 66.0442 11.8557 65.2671C12.1543 64.6589 12.5829 64.1238 13.1111 63.6995C13.6394 63.2753 14.2544 62.9723 14.9127 62.8119L21.7507 55.3486L20.5318 66.4552" fill="#FFBE9D"/>
<path d="M20.3236 73.7435C20.776 74.2039 21.3049 74.5822 21.8868 74.8614C22.4411 75.193 23.0488 75.4259 23.6828 75.5497C23.6883 75.4987 22.8977 75.2047 21.9714 74.7028C21.0451 74.2009 20.3571 73.7019 20.3236 73.7435Z" fill="#EB996E"/>
<path d="M17.9839 74.886C17.9497 74.9339 18.3629 75.2005 18.8957 75.4025C19.2155 75.5589 19.5618 75.6538 19.9166 75.6824C19.6218 75.4857 19.2988 75.335 18.9587 75.2351C18.6438 75.0925 18.3178 74.9757 17.9839 74.886V74.886Z" fill="#EB996E"/>
<path d="M26.2641 74.6812C26.0008 74.426 25.7229 74.1865 25.4317 73.9637C24.9145 73.5248 24.2097 72.9112 23.4535 72.2051C23.0764 71.8425 22.7183 71.5141 22.4005 71.1997C22.1103 70.9381 21.8633 70.6321 21.669 70.2931C21.5035 69.9737 21.4388 69.6116 21.4834 69.2547C21.4291 69.3408 21.4006 69.4407 21.401 69.5425C21.382 69.8202 21.4356 70.0981 21.5566 70.3488C21.7404 70.7108 21.9857 71.0381 22.2817 71.3159C22.5988 71.6367 22.9517 71.9839 23.333 72.3373C24.0924 73.0437 24.8046 73.6485 25.3536 74.0617C25.633 74.3015 25.9384 74.5093 26.2641 74.6812V74.6812Z" fill="#EB996E"/>
<path d="M21.7813 69.9345C21.7783 69.9632 22.0412 70.0364 22.4289 70.239C22.9331 70.508 23.3716 70.885 23.7131 71.3432C23.8852 71.6162 24.0835 71.8717 24.3053 72.106C24.5067 72.2954 24.7582 72.423 25.03 72.4735C25.2676 72.536 25.5166 72.5416 25.7567 72.4899C25.7601 72.4581 25.4795 72.4603 25.0596 72.3477C24.8183 72.2879 24.5977 72.1641 24.4209 71.9894C24.2132 71.7537 24.0245 71.5018 23.8567 71.2361C23.501 70.7542 23.0283 70.3709 22.4833 70.1223C22.2673 70.0054 22.0268 69.941 21.7813 69.9345V69.9345Z" fill="#EB996E"/>
<path d="M21.2785 66.5864C21.2843 66.5323 19.8084 66.2875 18.0588 65.7976C16.3093 65.3077 14.9437 64.7846 14.9171 64.8527C15.1867 65.0023 15.4687 65.1284 15.76 65.2297C16.3046 65.4426 17.0876 65.7164 17.9799 65.9632C19.0532 66.2914 20.1594 66.5003 21.2785 66.5864Z" fill="#EB996E"/>
<defs>
<filter id="filter0_f_103_263" x="9" y="157.361" width="106" height="17" filterUnits="userSpaceOnUse" color-interpolation-filters="sRGB">
<feFlood flood-opacity="0" result="BackgroundImageFix"/>
<feBlend mode="normal" in="SourceGraphic" in2="BackgroundImageFix" result="shape"/>
<feGaussianBlur stdDeviation="2" result="effect1_foregroundBlur_103_263"/>
</filter>
</defs>
</svg>
