<svg width="142" height="150" viewBox="0 0 142 150" fill="none" xmlns="http://www.w3.org/2000/svg">
<g clip-path="url(#clip0_275_3247)">
<path d="M75.4387 64.0059C77.0009 64.9107 78.7695 65.967 80.5728 66.9612C81.2846 67.3537 82.0459 67.7601 82.83 67.8981C93.6199 69.7907 101.891 75.6358 108.512 84.1004C110.179 86.2325 111.874 88.3444 113.492 90.5148C113.825 90.9625 113.869 91.6217 114.046 92.1828C113.469 92.247 112.848 92.4826 112.318 92.3486C108.498 91.3802 104.587 90.6338 100.916 89.254C94.1169 86.6984 88.6554 82.1595 83.9986 76.6624C82.3387 74.7018 80.7025 72.7007 79.2933 70.5618C78.1344 68.8039 76.6339 67.5743 74.8762 66.5252C70.1425 63.7009 65.0255 61.8426 59.7367 60.4095C59.442 60.3295 59.128 60.3138 58.8219 60.2858C55.4102 59.9686 51.9973 59.6759 48.5891 59.3225C48.0132 59.2629 47.9351 59.354 47.9238 59.9097C47.855 63.1389 47.79 66.3717 47.5933 69.5948C47.5343 70.5527 47.1337 71.5174 46.7429 72.4147C46.1968 73.6714 45.458 73.9169 44.2808 73.1626C42.2604 71.8671 40.2486 70.5398 38.3452 69.0824C33.5759 65.4317 28.8939 61.6711 24.8999 57.1468C24.4755 56.6664 24.0511 56.186 23.6282 55.7064C23.8598 56.3218 24.0291 56.9674 24.3318 57.5461C25.6518 60.0611 26.9878 62.5697 28.3615 65.0573C29.8194 67.697 31.9176 69.8254 34.0447 71.925C34.2119 72.0895 34.4269 72.2165 34.6388 72.3203C38.0848 74.0102 41.5423 75.677 44.9775 77.385C47.7447 78.762 50.4629 80.2481 53.5558 80.8037C56.2813 81.2935 59.0662 81.219 61.5901 80.3178C65.5298 78.911 68.9205 74.2775 66.7975 69.9653C66.5731 69.5106 66.5953 68.9368 66.5021 68.4193C66.9125 68.6833 67.3641 68.9011 67.7252 69.2201C69.4676 70.7633 71.3187 72.2126 72.8786 73.9249C75.2924 76.5734 76.1418 79.8539 75.8177 83.3511C75.4361 87.4821 72.7854 89.9663 69.2738 91.7255C69.0345 91.8445 68.7995 91.9729 68.5631 92.097C68.7994 92.2797 69.012 92.5102 69.2763 92.6365C72.4017 94.1414 76.244 93.3863 78.6065 90.8199C79.9115 89.4016 80.0899 88.1458 79.2407 86.423C79.1556 86.2507 79.1105 86.0603 79.0464 85.8786C79.2553 85.9339 79.4944 85.943 79.6686 86.0533C81.1008 86.96 81.6209 88.2299 80.9145 89.7353C79.686 92.3505 77.9863 94.5865 75.3631 96.0375C74.0906 96.7409 72.8769 97.5856 71.7543 98.51C70.6231 99.4409 69.4233 99.9657 67.9475 100.048C64.4255 100.248 61.2336 99.3182 58.2773 97.4301C57.7227 97.0761 57.0944 96.837 56.5015 96.5452C56.8827 97.1269 57.1562 97.8335 57.6654 98.2641C59.0405 99.4276 60.4938 100.507 61.9658 101.549C62.4521 101.895 62.9545 101.926 63.332 101.158C63.8391 100.125 64.588 100.188 65.0985 101.251C65.9245 102.97 65.9584 104.755 65.3404 106.532C65.2378 106.826 64.8642 107.156 64.5686 107.209C64.3587 107.247 63.9291 106.89 63.8385 106.63C63.4808 105.604 63.2385 104.539 62.9119 103.501C62.825 103.227 62.6386 102.834 62.4218 102.773C60.7561 102.306 59.3718 101.38 58.0761 100.283C57.9755 100.197 57.8495 100.139 57.7351 100.07C57.7415 100.217 57.7015 100.385 57.7595 100.509C58.3239 101.756 58.9057 102.997 59.4788 104.241C60.1964 105.798 59.9937 106.142 58.3098 106.515C57.5126 106.691 56.7486 107.013 55.9684 107.265C55.4459 107.434 55.3519 107.714 55.6947 108.161C55.8599 108.377 55.9904 108.626 56.094 108.878C56.6046 110.134 57.3393 111.098 58.8056 111.352C59.2479 111.428 59.6861 111.749 60.0465 112.051C60.7008 112.599 60.5966 113.192 59.7616 113.382C57.9906 113.787 56.202 113.789 54.5828 112.827C54.1535 112.571 53.9444 111.947 53.6342 111.493C54.0532 111.247 54.4555 110.834 54.8965 110.792C55.796 110.706 55.6505 110.359 55.3812 109.761C54.5364 107.88 54.5333 107.846 52.8948 109.112C52.0075 109.798 51.1771 110.563 50.368 111.34C49.186 112.475 47.9145 113.389 46.2021 113.559C45.9805 113.58 45.8021 114.004 45.6026 114.24C45.8377 114.334 46.0762 114.512 46.308 114.507C47.2702 114.485 47.6207 114.858 47.2787 115.752C46.5349 117.69 44.9718 118.743 43.0642 119.316C42.3797 119.522 41.9473 119.025 42.2584 118.372C42.6473 117.555 43.2234 116.825 43.7201 116.058C43.9215 115.749 44.1957 115.469 44.32 115.132C44.8249 113.753 44.6874 113.544 43.3513 112.999C42.2081 112.534 41.0569 112.057 39.9851 111.452C39.1574 110.986 38.53 111.102 37.8419 111.64C35.8086 113.228 33.9703 114.995 32.72 117.278C32.2289 118.175 31.5436 118.85 30.5602 119.006C29.1591 119.231 27.7088 119.495 26.3171 119.354C23.7393 119.093 22.0295 117.514 21.3805 115.039C21.0043 113.604 20.7751 112.061 20.8741 110.596C21.0091 108.569 21.5004 106.565 21.8805 104.561C21.9373 104.265 22.2175 104.012 22.3951 103.74C22.5271 103.997 22.6967 104.244 22.783 104.516C23.063 105.396 23.2625 106.302 23.5825 107.167C24.4276 109.453 27.1246 111.398 29.4489 111.375C29.6952 111.374 30.0352 110.994 30.1626 110.713C32.0018 106.639 32.7352 102.345 32.0124 97.9348C31.5456 95.0868 30.7766 92.2506 29.8038 89.5278C28.767 86.6304 28.0217 83.732 27.8179 80.6667C27.3784 74.0996 25.7141 67.8048 23.2503 61.702C22.6993 60.3372 22.1184 58.9846 21.5339 57.6321C21.4613 57.4641 21.2885 57.3401 21.1606 57.1952C21.0799 57.3427 21.0035 57.4923 20.9169 57.6369C19.1087 60.6636 19.9022 63.918 20.2359 67.0986C20.3337 68.03 21.0295 68.9001 21.4317 69.8081C23.6244 74.7507 24.279 79.8456 22.9669 85.1104C22.0919 88.6219 20.0424 91.4616 17.6328 94.0641C16.5694 95.2129 15.4148 96.2783 14.2864 97.364C10.9289 100.599 7.03984 101.298 2.72797 99.5505C-0.612601 98.1964 -3.905 96.7238 -7.21897 95.3018C-7.37626 95.2343 -7.54591 95.166 -7.6685 95.0544C-7.89034 94.8536 -8.07959 94.6203 -8.28262 94.4C-8.04444 94.1848 -7.84088 93.8638 -7.56074 93.7724C-5.47919 93.0948 -3.37039 92.4976 -1.29253 91.8091C2.16356 90.6649 5.64774 89.9606 9.31307 90.7869C9.60554 90.8532 10.1259 90.5168 10.3412 90.2234C14.7969 84.1424 17.4179 77.3565 17.9917 69.8143C18.1264 68.0475 18.1565 66.2719 18.2105 64.4993C18.2188 64.2453 18.0919 63.9853 18.0283 63.7298C17.8445 63.9017 17.6424 64.0592 17.4804 64.2492C12.867 69.6542 7.26881 73.5902 0.275527 75.286C-1.58606 75.7375 -3.58294 75.6649 -5.52234 75.7725C-5.82898 75.7894 -6.15595 75.4821 -6.47425 75.3253C-6.22804 75.1195 -6.0134 74.8383 -5.72973 74.7216C-4.28454 74.1204 -3.66101 72.7741 -2.88993 71.5952C-1.37954 69.2865 -0.468508 66.7062 0.0946451 64.0212C0.619366 61.5229 1.00659 58.9939 1.44402 56.4773C1.48231 56.2581 1.44421 56.0243 1.44103 55.7971C1.30877 55.9677 1.16193 56.1274 1.04935 56.3095C0.15444 57.7589 -0.661741 59.2619 -1.63685 60.6532C-3.40361 63.1735 -5.89241 64.7925 -8.79788 65.7003C-11.5683 66.5671 -14.365 67.4281 -17.2162 67.9423C-20.7015 68.5721 -23.6353 69.9785 -25.9728 72.6223C-26.3142 73.0081 -26.7978 73.2707 -27.215 73.5899C-27.1876 73.0567 -27.2074 72.5161 -27.1239 71.991C-26.6911 69.2537 -25.2869 66.9354 -23.7885 64.6983C-18.5562 56.8834 -12.3432 49.9614 -4.7749 44.3014C-3.95555 43.6898 -3.08211 43.1485 -2.24156 42.5637C-2.05533 42.4345 -1.90419 42.2589 -1.73625 42.1044C-1.94749 41.9991 -2.15372 41.8765 -2.36999 41.785C-4.39356 40.9301 -6.44881 40.1425 -8.4342 39.2074C-9.57257 38.6709 -10.5972 37.8915 -11.6765 37.2255C-12.0839 36.9738 -12.4949 36.7293 -12.9095 36.4884C-14.8623 35.3566 -16.8541 34.2847 -18.7593 33.0791C-20.1529 32.197 -20.1916 31.4901 -19.1941 30.229C-17.6957 28.3349 -15.9801 26.7385 -13.6846 25.7885C-12.6602 25.364 -11.5703 24.8078 -10.844 24.0109C-8.28268 21.1988 -4.93515 19.6593 -1.61113 18.0647C-0.504328 17.5332 0.688994 17.1784 1.80093 16.6584C2.16867 16.4861 2.62333 16.0773 2.67265 15.7228C2.92086 13.9801 3.17118 12.2222 3.19328 10.4662C3.24469 6.10386 3.06638 1.7354 3.20501 -2.62316C3.26063 -4.36253 3.78569 -6.11708 4.31036 -7.79782C5.00633 -10.0304 8.35769 -11.1907 10.7433 -9.99307C11.849 -9.43851 12.8681 -8.59322 13.7311 -7.69391C17.5096 -3.75533 21.0478 0.388358 24.1274 4.89745C24.6087 5.60297 24.9001 5.58028 25.482 5.02188C26.8818 3.67609 28.3041 2.34335 29.804 1.1106C32.0476 -0.731675 33.711 -2.96053 34.7618 -5.65705C35.8133 -8.35502 37.6489 -10.4114 40.0361 -12.0089C42.0877 -13.3818 43.3333 -13.0861 44.5595 -10.9084C47.899 -4.97925 48.9797 1.29725 47.7291 7.9861C46.9883 11.9472 45.9476 15.766 43.6109 19.1124C43.0281 19.9465 43.7874 19.9079 44.1943 20.0547C47.5219 21.2488 50.9098 22.2925 54.1653 23.6529C56.4306 24.5993 58.6338 25.8053 60.6568 27.1942C64.7414 30.0001 65.1037 35.5613 60.7846 38.4487C59.6823 39.1865 58.5619 39.9242 57.3724 40.5048C53.1775 42.548 48.7332 43.7486 44.0566 44.0285C43.2522 44.0771 43.3265 44.282 43.635 44.8418C45.2871 47.8364 46.3956 51.0312 47.0549 54.3723C47.1925 55.0707 47.4293 55.2158 48.0605 54.9455C48.9695 54.5555 49.9415 54.2944 50.8124 53.8384C52.4056 53.0024 53.6881 51.9284 54.3844 50.1076C56.0149 45.8462 59.124 43.1428 63.6203 42.0313C65.6793 41.523 67.7272 40.9495 69.7383 40.2856C73.1879 39.1471 75.6978 36.8798 77.3044 33.648C78.0487 32.1543 78.6954 30.6119 79.393 29.095C79.4528 28.9641 79.5722 28.8594 79.6633 28.7423C79.6994 28.8668 79.7669 28.9906 79.7652 29.1144C79.7538 31.8089 79.9016 34.5413 78.8982 37.099C78.5137 38.0788 77.8243 38.988 77.1009 39.7719C75.7257 41.2654 74.1769 42.6001 72.7901 44.0841C69.908 47.1677 66.928 50.1484 62.8672 51.6376C60.7309 52.4215 58.4504 52.8158 56.245 53.4245C55.1699 53.7209 54.0993 54.0593 53.0647 54.4679C52.0823 54.8556 51.1454 55.3599 50.1917 55.8179C49.9864 55.916 49.7922 56.0358 49.592 56.1454C49.8186 56.2673 50.0324 56.4515 50.2724 56.5025C51.9464 56.8582 53.619 57.2314 55.3064 57.5054C56.2149 57.653 57.1509 57.632 58.0762 57.6545C60.6858 57.7201 63.0255 57.2289 65.2767 55.6377C71.1487 51.4843 77.7375 49.0599 85.0326 49.0614C89.3397 49.0631 93.6506 49.4296 97.9553 49.6918C99.3526 49.7779 100.747 50.016 102.126 50.27C102.509 50.3401 103.071 50.6687 103.129 50.9612C103.189 51.2601 102.808 51.7558 102.489 51.9977C94.0505 58.4191 84.6808 62.1726 73.8462 61.6909C72.75 61.6429 71.6538 61.6057 70.559 61.5692C70.4355 61.5654 70.3113 61.5992 70.1886 61.6156C70.2856 61.6911 70.3717 61.7881 70.4803 61.8368C72.051 62.531 73.6254 63.218 75.4372 64.0125L75.4387 64.0059ZM30.9212 32.4928C30.5749 32.4213 30.2293 32.3484 29.8831 32.277C29.889 32.3052 29.8921 32.3573 29.9023 32.3588C30.2405 32.3991 30.5779 32.4336 30.9167 32.4689C32.7984 32.9552 34.6772 33.451 36.5646 33.9112C36.7123 33.9469 36.9178 33.7353 37.0969 33.6386C36.99 33.4662 36.9 33.1578 36.7749 33.1424C34.826 32.9042 32.8743 32.7043 30.9226 32.4935L30.9212 32.4928ZM38.1119 5.01727C38.1833 5.05284 38.2547 5.0884 38.3253 5.1218C37.6865 7.62651 37.0943 10.1436 36.398 12.6323C34.7328 18.5875 32.1207 23.9248 26.5359 27.2574C26.4503 27.3086 26.4175 27.4475 26.3591 27.5465C26.4861 27.4961 26.6182 27.4572 26.7385 27.3944C30.2852 25.5246 33.381 23.0997 35.9171 19.9953C36.1166 19.7518 36.291 19.4018 36.2955 19.0972C36.3271 17.1907 37.4821 16.0406 38.9454 15.1145C39.7079 14.6317 40.1992 14.9487 40.193 15.8444C40.1814 17.5137 38.8773 19.3061 37.3309 19.8658C36.9761 19.9941 36.6196 20.2533 36.381 20.5459C33.9397 23.5441 31.0556 26.0113 27.584 27.7561C26.1524 28.476 24.6592 29.0785 23.1939 29.7346C23.0721 29.7894 22.9531 29.8493 22.8335 29.907C22.9477 29.9441 23.0695 30.0246 23.1748 30.0103C26.8393 29.4915 30.5692 29.1371 33.858 27.2885C38.8056 24.5084 42.1551 20.1072 44.5642 15.2175C47.3637 9.53686 47.902 3.31791 46.6701 -2.97257C46.1504 -5.62672 45.0394 -8.05026 43.3736 -10.1997C42.3583 -11.5088 41.6966 -11.575 40.3271 -10.622C40.1314 -10.4849 39.9438 -10.3383 39.7548 -10.1924C36.9435 -8.01749 35.8005 -4.79291 34.4687 -1.70755C33.4045 0.756684 32.4627 3.27466 31.4677 5.76794C31.6947 4.33419 32.098 2.9738 32.4845 1.61048C32.536 1.4304 32.5061 1.22775 32.5147 1.0353C32.3632 1.13491 32.2008 1.22003 32.0632 1.33559C30.8155 2.39074 29.5598 3.43648 28.3318 4.5141C26.7976 5.85968 25.194 7.14365 23.7861 8.61171C20.6808 11.8513 19.2909 15.7831 19.53 20.274C19.5546 20.7393 19.6585 21.2242 19.8363 21.6557C20.5297 23.337 20.9645 25.0301 20.3939 26.8359C20.3588 26.9466 20.3957 27.0805 20.3998 27.2035C20.5108 27.1523 20.6444 27.125 20.7291 27.0463C22.6459 25.2541 23.8772 23.1187 23.9512 20.4336C23.9588 20.163 23.8316 19.8307 23.654 19.6213C22.3813 18.1172 22.5274 16.459 23.1008 14.7827C23.3807 13.9619 23.9567 13.8752 24.4525 14.5627C25.4089 15.8876 25.693 17.3504 25.1992 18.9328C24.9411 19.7608 24.6366 20.5874 24.5037 21.4381C24.1996 23.3768 23.4294 25.0868 22.2347 26.6232C22.0786 26.8234 21.9662 27.0562 21.8334 27.2752C22.075 27.17 22.34 27.098 22.5545 26.9522C25.1198 25.2197 26.4772 22.6633 27.3973 19.8168C27.6074 19.1688 27.7797 18.5092 27.9469 17.8489C28.1012 17.2399 28.2235 16.6221 28.3604 16.008C28.1677 20.2999 27.1004 24.2301 23.679 27.1479C23.5566 27.2512 23.462 27.3863 23.3528 27.507C23.5292 27.4668 23.7218 27.4562 23.8814 27.3805C26.2343 26.2786 28.2539 24.7363 29.9636 22.7904C33.0184 19.3091 34.7926 15.1499 36.2571 10.8347C36.9115 8.90817 37.4939 6.95473 38.1097 5.01437L38.1119 5.01727ZM-8.87543 37.8703C-6.75295 38.7383 -4.64846 39.6497 -2.5066 40.4642C1.16558 41.8608 4.9079 43.007 8.88631 42.9641C11.433 42.937 13.9701 42.7283 16.2606 41.4708C18.554 40.2111 19.143 38.2808 17.9793 35.9411C17.675 35.3292 17.2669 34.7613 17.0054 34.1328C16.6969 33.3943 16.467 33.3302 15.87 33.9262C12.9623 36.8239 9.32389 38.1589 5.29635 38.5997C5.11546 38.6196 4.92328 38.5528 4.73709 38.525C4.91271 38.4609 5.08385 38.3729 5.26758 38.3362C8.59279 37.6773 11.6056 36.3934 14.0737 34.024C14.2351 33.8679 14.3425 33.6561 14.4747 33.4711C14.2539 33.5091 14.0155 33.5058 13.8152 33.5901C9.15475 35.5494 4.43435 35.6143 -0.332907 33.9411C-1.93801 33.3778 -3.52516 32.7639 -5.12019 32.1731C-3.59874 32.3933 -2.14627 32.7921 -0.688066 33.1685C4.313 34.46 9.16699 34.1964 13.8134 31.8492C13.9665 31.7721 14.0762 31.6174 14.208 31.4989C14.0459 31.4922 13.8801 31.4637 13.721 31.4837C9.3166 32.0129 5.44332 30.3375 1.61723 28.4834C2.82793 28.7762 4.02505 29.1182 5.21502 29.4891C9.04477 30.6861 12.8191 30.8448 16.5466 29.112C17.2567 28.7817 17.3992 28.4592 17.173 27.7418C16.1551 24.5254 13.9259 22.5067 10.8714 21.2646C10.669 21.1818 10.4889 21.0433 10.2994 20.9308C10.5342 20.9413 10.7776 20.9128 11.0017 20.9667C14.0532 21.6965 16.6792 23.0284 18.1313 26.0118C18.2032 26.1595 18.3287 26.2798 18.4303 26.4117C18.5168 26.2382 18.6643 26.0698 18.6774 25.8904C18.8059 24.2054 18.2848 22.7075 17.189 21.4359C14.0243 17.7653 10.0758 16.1679 5.24931 17.0698C0.64577 17.9294 -3.30813 20.2515 -7.24885 22.5947C-7.81501 22.9317 -7.60443 23.2172 -7.22667 23.5101C-5.55509 24.8123 -3.88136 26.1101 -2.38483 27.2745C-4.2813 26.7303 -6.09357 25.4988 -7.86536 24.2153C-8.36262 23.8556 -8.63805 23.861 -9.04448 24.3299C-9.52972 24.8913 -10.0717 25.4426 -10.6936 25.8367C-11.4706 26.3303 -11.2117 26.5297 -10.6104 26.8997C-7.88915 28.5733 -4.88895 29.5483 -1.86282 30.4641C-1.66996 30.5223 -1.48499 30.6036 -1.29644 30.6741C-1.50866 30.6767 -1.72724 30.7176 -1.93022 30.676C-5.49704 29.933 -9.01949 29.0389 -12.3477 27.5142C-12.9085 27.2564 -13.3921 27.1905 -13.8672 27.5747C-15.1035 28.5778 -16.3559 29.562 -17.5374 30.6267C-18.2128 31.2341 -18.165 32.0396 -17.4583 32.5884C-16.3534 33.444 -15.2488 34.4131 -13.9804 34.9296C-9.59351 36.7129 -5.06948 37.9472 -0.254247 37.4621C-0.0820689 37.445 0.0999484 37.5177 0.277429 37.5483C0.119219 37.6031 -0.0352697 37.6759 -0.196471 37.7111C-3.06398 38.3238 -5.93766 38.5291 -8.87179 37.8703L-8.87543 37.8703ZM25.2673 49.2562C25.2521 49.2757 25.2355 49.2945 25.2203 49.314C24.907 48.9683 24.5393 48.6588 24.2876 48.2735C22.7546 45.9267 21.2499 43.5633 19.73 41.2086C19.6342 41.0615 19.4955 40.9419 19.3758 40.81C19.3765 40.9728 19.3474 41.1407 19.3808 41.2963C20.786 47.8338 23.1458 53.9372 28.2574 58.5508C32.8107 62.6606 37.5529 66.5631 42.227 70.54C42.9295 71.1373 43.6893 71.6783 44.4706 72.1723C45.2242 72.6489 45.8585 72.4451 46.2205 71.6165C46.3695 71.2774 46.5009 70.9151 46.5574 70.5498C46.9172 68.2327 46.4162 66.0084 45.7524 63.8041C45.6108 63.3364 45.4909 62.8616 45.3624 62.3896C45.6716 62.7801 45.9807 63.1706 46.2877 63.5618C46.409 63.7161 46.5296 63.8719 46.6502 64.0277C46.7227 63.8093 46.8656 63.5881 46.8582 63.3732C46.7873 61.4715 46.8726 59.5412 46.565 57.6731C45.5711 51.6276 43.6926 45.8795 39.6298 41.1098C35.3779 36.1177 30.2345 32.703 23.3426 32.805C23.1536 32.8083 22.9656 32.8572 22.7767 32.8858C22.9021 32.9808 23.0168 33.1011 23.1566 33.1672C28.1698 35.5585 32.5263 38.87 36.5512 42.6498C36.7841 42.8686 37.1099 43.0833 37.4124 43.1222C39.3817 43.367 40.3732 44.7201 41.0991 46.3363C41.4749 47.1733 41.0994 47.5656 40.1772 47.4202C38.5676 47.1651 36.9962 45.6728 36.6005 44.102C36.5088 43.7387 36.2789 43.3534 36.0008 43.1011C34.8099 42.0168 33.6197 40.9201 32.3478 39.9326C30.6668 38.6275 28.9091 37.4178 27.1847 36.167C27.1182 36.2493 27.0502 36.331 26.983 36.4148C31.5837 39.7107 34.8873 44.0733 37.5775 48.9515C37.7372 49.2405 38.095 49.4603 38.4083 49.6199C39.946 50.4096 40.7497 51.7017 40.9757 53.3504C41.0223 53.6913 40.8348 54.2025 40.574 54.4011C40.3698 54.5556 39.8126 54.4585 39.54 54.2793C38.3562 53.5018 37.3261 52.4633 37.2733 51.0219C37.2214 49.6188 36.5423 48.5765 35.892 47.4691C33.7728 43.8537 30.944 40.8631 27.6483 38.1307C29.2129 40.0673 30.7877 41.8556 32.1807 43.7716C36.122 49.1974 38.8313 55.2601 41.2402 61.4656C41.4203 61.929 41.5496 62.4104 41.7036 62.8824C41.4568 62.4616 41.1745 62.0574 40.9661 61.6179C38.1593 55.6671 35.3184 49.7373 31.2651 44.4814C29.4443 42.1212 27.4476 39.9278 25.0665 38.097C25.108 38.2729 25.1791 38.4257 25.2814 38.5524C29.2708 43.5094 31.5007 49.3152 33.4999 55.2336C33.5412 55.3552 33.5483 55.4869 33.5699 55.615C33.4684 55.5085 33.3292 55.4193 33.2734 55.294C32.8822 54.4186 32.5185 53.5316 32.1295 52.6555C30.1505 48.2075 28.162 43.7457 24.8933 40.0503C23.5435 38.5258 21.8744 37.2808 20.3312 35.9289C20.2386 35.8484 19.9788 35.9573 19.7958 35.978C20.0326 37.2801 20.1555 38.6138 20.5367 39.8741C20.9195 41.1424 21.4867 42.3727 22.0995 43.5552C23.1008 45.4837 24.2029 47.3595 25.2629 49.2576L25.2673 49.2562ZM42.3884 38.6902C41.3914 38.5599 40.3936 38.4273 39.3951 38.3034C39.2686 38.2873 39.1357 38.3095 39.0063 38.3137C39.0709 38.4433 39.1144 38.5895 39.2043 38.6975C39.9276 39.5669 40.6235 40.4623 41.4055 41.2762C41.7238 41.608 42.2208 41.9098 42.6644 41.9612C46.349 42.3874 49.9938 42.1711 53.5631 41.1463C56.4957 40.3044 59.1544 38.9613 61.3655 36.8303C61.4784 36.7205 61.5372 36.5549 61.621 36.4161C61.4678 36.4535 61.3028 36.467 61.1621 36.5304C59.2572 37.3899 57.2402 37.6935 55.1637 37.704C55.0358 37.7052 54.9084 37.6507 54.7789 37.6223C54.9036 37.5581 55.0202 37.47 55.1516 37.4326C56.4321 37.0671 57.756 36.8116 58.9866 36.3237C60.1837 35.848 61.2927 35.1515 62.4172 34.5115C62.6173 34.3982 62.7046 34.0916 62.8447 33.8762C62.6042 33.8881 62.3525 33.8566 62.126 33.917C61.4335 34.1026 60.7527 34.3265 60.0638 34.5266C59.939 34.5618 59.8016 34.5529 59.6701 34.565C59.7786 34.4567 59.8718 34.3244 59.9994 34.2436C60.1994 34.1158 60.4272 34.0308 60.6324 33.911C63.2431 32.3978 63.3941 31.3684 61.3496 29.0555C61.259 28.9527 61.1822 28.8295 61.0721 28.7548C59.741 27.8533 58.4596 26.8629 57.0621 26.08C52.7466 23.6608 47.9376 22.732 43.2088 21.5545C42.3306 21.3354 41.8408 21.5155 41.3314 22.2129C39.1625 25.1862 36.5005 27.5727 32.9951 28.918C32.8718 28.9649 32.7851 29.1022 32.6816 29.1968C32.8132 29.1992 32.9514 29.232 33.0727 29.2004C34.9239 28.7076 36.7722 28.2026 38.6226 27.7077C38.8259 27.6538 39.0425 27.6426 39.2531 27.6103C39.0705 27.7396 38.9011 27.9006 38.7002 27.9937C35.9251 29.2895 33.0357 30.2162 29.9812 30.6129C29.8504 30.6308 29.7302 30.7298 29.6047 30.7918C29.7327 30.8159 29.8631 30.8718 29.9866 30.8611C33.0556 30.6142 36.1239 30.3687 39.1913 30.0957C39.4252 30.0751 39.7269 29.9077 39.8503 29.7147C40.9216 28.0464 42.5711 27.7943 44.3522 27.8912C44.6605 27.9076 45.1584 28.0907 45.2123 28.2891C45.2907 28.5808 45.129 29.0183 44.9252 29.285C43.8882 30.64 41.8361 31.2257 40.2093 30.7058C39.9633 30.6266 39.6812 30.5943 39.4247 30.6199C36.5333 30.9192 33.6419 31.233 30.7528 31.5461C30.6184 31.5604 30.4884 31.5985 30.3555 31.6243C30.4932 31.6875 30.6259 31.7897 30.7692 31.8088C32.8076 32.0754 34.844 32.368 36.8901 32.5609C37.3504 32.6043 37.9294 32.3946 38.3061 32.1094C39.1573 31.4668 39.7284 31.4192 40.0807 32.3763C40.4654 33.4218 41.1788 33.5011 42.0417 33.5321C42.3833 33.5435 42.7252 33.5983 43.0668 33.6024C45.842 33.6423 48.6185 33.672 51.3937 33.7119C51.6554 33.7159 51.918 33.7655 52.1805 33.7934C51.9453 33.864 51.7118 33.9859 51.4727 33.9985C48.3626 34.1564 45.2535 34.3635 42.1407 34.4135C41.0775 34.4307 40.2771 34.3983 39.8988 35.6393C39.7713 36.0595 39.069 36.5237 38.6018 36.5526C38.2189 36.5766 37.7933 35.9855 37.3885 35.6629C37.0595 35.3997 36.7744 35.0302 36.401 34.8856C35.7989 34.6524 35.145 34.5523 34.5063 34.4253C34.3063 34.3852 34.087 34.4384 33.8763 34.4489C34.0265 34.5707 34.171 34.7041 34.3292 34.8136C36.7985 36.5367 39.4643 37.8361 42.3892 38.6924L42.3884 38.6902ZM8.08647 56.6607C8.89412 55.7004 9.72657 54.7596 10.5043 53.7754C12.5332 51.207 13.4719 48.2976 13.1835 45.0042C13.1345 44.4346 13.0057 44.2441 12.3855 44.3647C11.4146 44.5506 10.4181 44.7111 9.43394 44.7008C8.63369 44.6938 8.24032 44.9869 8.02318 45.6928C7.38252 47.7742 6.72658 49.8498 6.07717 51.9269C6.03848 52.052 5.99468 52.1764 5.95306 52.3C5.90012 52.1617 5.81013 52.0249 5.80224 51.8837C5.66886 49.6405 6.02494 47.4696 6.70536 45.3376C6.77776 45.1083 6.66959 44.6393 6.50276 44.5508C6.1254 44.3519 5.67137 44.2412 5.42987 44.8609C4.47107 47.3181 3.70722 49.8146 3.7473 52.4933C3.80239 56.277 3.92943 60.0622 3.8835 63.8442C3.85439 66.326 3.47956 68.8629 1.63703 70.6776C0.229439 72.0646 -1.56727 73.0574 -3.17706 74.2444C-3.42773 74.43 -3.60747 74.7105 -3.8194 74.946C-3.50589 75.0029 -3.16575 75.167 -2.88405 75.098C-0.65797 74.561 1.63052 74.1688 3.76609 73.3792C13.859 69.6485 19.397 62.2639 20.8758 51.7339C20.923 51.3983 20.7701 51.0153 20.648 50.6765C19.818 48.3604 18.9786 46.0488 18.1239 43.7421C17.9585 43.2969 17.7095 42.8804 17.4998 42.451C17.581 42.912 17.5998 43.3961 17.7551 43.8327C19.3224 48.2128 18.7054 52.3673 16.6115 56.3761C16.597 56.2082 16.6544 56.0528 16.7126 55.8958C17.8901 52.7444 18.2628 49.5511 17.1364 46.2861C17.0267 45.9697 16.8735 45.6677 16.7406 45.3578C16.6642 45.6717 16.5485 45.9805 16.5209 46.2988C16.1628 50.3314 15.3303 54.2504 13.7389 57.9844C12.1706 61.6613 9.90818 64.8624 7.02977 67.6356C7.10219 67.41 7.21033 67.2075 7.35348 67.0334C10.0936 63.7165 12.2195 60.0485 13.6502 55.9908C14.7242 52.9412 15.2766 49.8033 15.0451 46.5526C15.0288 46.3225 14.9508 46.0959 14.9018 45.8694C14.8213 46.0675 14.7277 46.2627 14.666 46.4667C14.5965 46.6938 14.5612 46.9325 14.5041 47.1639C13.5243 51.1232 11.2658 54.2324 8.08791 56.6578L8.08647 56.6607ZM10.9402 10.2577C11.0097 10.1949 11.08 10.1306 11.1495 10.0678C12.6022 11.6815 14.0549 13.2988 15.5105 14.9103C15.6617 15.0777 15.8404 15.2227 16.0053 15.3771C15.952 15.1519 15.927 14.9175 15.8432 14.7061C14.1309 10.4162 12.4107 6.12778 10.6984 1.83792C10.6095 1.61493 10.5786 1.37031 10.5209 1.13578C10.6591 1.31834 10.8277 1.48358 10.9303 1.68272C13.1741 6.02986 15.4107 10.3806 17.6516 14.7299C17.7433 14.9073 17.8516 15.0768 17.9526 15.2499C18.0282 15.0764 18.1227 14.9086 18.1749 14.7271C18.7664 12.7078 19.6931 10.87 21.021 9.22309C21.2538 8.93475 21.3724 8.29893 21.2133 7.99405C20.4562 6.54282 19.5823 5.15074 18.7569 3.73413C18.6874 3.61463 18.6772 3.45977 18.6388 3.32151C18.7467 3.39331 18.8821 3.44635 18.9596 3.5427C19.9052 4.71421 20.8683 5.87273 21.7741 7.07311C22.394 7.89462 22.6181 7.95214 23.1682 7.08907C23.3118 6.86282 23.2594 6.35117 23.0934 6.11141C20.9876 3.07849 18.9354 7.53465e-05 16.676 -2.91803C15.1951 -4.82915 13.5336 -6.65155 11.7096 -8.23906C9.38585 -10.2615 6.11196 -9.33328 4.96877 -6.49146C4.64451 -5.68375 4.39192 -4.77896 4.39785 -3.91863C4.43843 2.52192 4.55094 8.96402 4.65693 15.4047C4.65822 15.5335 4.88098 15.7834 4.96305 15.7684C5.54116 15.6702 6.2538 15.7509 6.35249 14.8849C6.55414 13.1335 6.76888 11.3814 6.97926 9.63066C7.01013 9.37891 7.05191 9.12717 7.08788 8.87615C7.16458 9.13096 7.29507 9.3837 7.31146 9.64276C7.41395 11.3057 7.54626 12.9708 7.54846 14.6343C7.54984 15.2812 7.68239 15.3436 8.2961 15.4075C10.09 15.592 11.8749 15.8929 13.6519 16.2062C14.2003 16.3025 14.7154 16.5863 15.2462 16.7839C14.9733 16.2111 14.7729 15.5914 14.4166 15.0764C13.2888 13.4495 12.1015 11.8616 10.9381 10.2585L10.9402 10.2577ZM35.4821 90.6134C35.5864 90.6925 35.6577 90.7172 35.6761 90.7642C38.1212 96.9155 40.0337 103.125 37.8562 109.776C37.8053 109.929 37.833 110.107 37.8242 110.274C37.9839 110.224 38.1553 110.197 38.2989 110.121C39.6976 109.365 40.7008 108.246 41.3843 106.816C42.7866 103.877 43.0515 100.813 42.467 97.6279C41.5132 92.4362 39.5115 87.5996 37.2964 82.8444C36.0109 80.0849 34.5869 77.3881 33.1897 74.6812C32.95 74.217 32.5326 73.8429 32.1958 73.4278C32.1849 73.9422 32.0957 74.4681 32.1792 74.9683C32.7631 78.5045 33.3826 82.0351 33.9897 85.5685C34.018 85.7343 34.0398 85.9021 34.0653 86.0701C33.9368 85.9411 33.7641 85.8351 33.6885 85.6802C32.2385 82.6961 30.8009 79.7055 29.3538 76.7192C29.2584 76.5236 29.1109 76.3527 28.9887 76.1708C28.9315 76.3914 28.8343 76.6084 28.8215 76.8312C28.6713 79.3664 28.7848 81.8867 29.4831 84.3465C30.0892 86.4842 30.7214 88.6168 31.4161 90.7264C32.9254 95.314 34.0861 99.9481 33.2213 104.804C32.8589 106.845 32.2826 108.849 31.8146 110.872C31.759 111.111 31.7652 111.365 31.7437 111.613C31.9677 111.481 32.2246 111.381 32.4136 111.21C33.8115 109.945 34.8078 108.405 35.3079 106.595C35.6742 105.272 35.8906 103.907 36.2353 102.273C36.3314 105.632 35.8942 108.542 33.9188 111.039C33.8017 111.187 33.7261 111.368 33.6317 111.532C33.8627 111.524 34.1115 111.569 34.3191 111.495C34.4954 111.433 34.6786 111.266 34.7629 111.097C35.6339 109.338 36.7276 107.643 37.2878 105.789C38.2701 102.536 37.6821 99.2237 36.9047 95.9773C36.4783 94.1981 35.9683 92.4369 35.4821 90.6134ZM42.8869 82.3215C43.1683 82.5086 43.4345 82.7225 43.7318 82.8778C46.0111 84.0586 48.2503 85.3386 50.5973 86.3654C52.3377 87.1279 54.245 87.3219 56.1451 86.8771C56.3797 86.8224 56.5831 86.6404 56.8021 86.5185C56.586 86.4812 56.3706 86.41 56.1562 86.4133C54.1292 86.4339 52.3393 85.6685 50.5938 84.7482C50.4817 84.6887 50.3954 84.5808 50.2962 84.4952C50.4459 84.4832 50.6063 84.4313 50.7423 84.4684C51.5362 84.6817 52.3147 85.0353 53.1182 85.1126C54.2983 85.2259 55.5233 85.2893 56.6751 85.0798C57.1552 84.9923 57.4916 84.1492 57.8935 83.6491C57.5215 83.5052 57.1615 83.297 56.7753 83.2291C51.8284 82.3653 47.3403 80.3727 43.0821 77.7655C41.1567 76.5859 39.1469 75.5429 37.1688 74.4508C37.0478 74.3834 36.8692 74.4243 36.7173 74.4154C36.7949 74.5479 36.8472 74.7094 36.9552 74.8101C38.0324 75.8161 39.1219 76.8084 40.1969 77.8152C40.3596 77.9667 40.4674 78.1738 40.6005 78.3556C40.4156 78.2923 40.2177 78.2551 40.0487 78.1637C38.1224 77.11 36.1996 76.0491 34.2762 74.9897C34.1451 74.9171 34.0082 74.8561 33.8727 74.7886C33.9322 74.9428 33.9845 75.1006 34.0535 75.2505C34.0968 75.3425 34.1669 75.4207 34.2218 75.5077C37.966 81.4128 41.093 87.5971 42.899 94.3776C42.9589 94.6005 43.0242 94.9002 43.1903 95.0083C45.0986 96.2551 47.0257 97.4933 49.4664 97.1535C53.9016 96.5368 55.6666 92.9543 56.3554 89.4113C56.3824 89.2732 56.0349 88.9123 55.848 88.9004C50.6012 88.5766 46.5799 85.8004 42.8862 82.3229L42.8869 82.3215ZM73.303 86.1756C75.2106 82.1425 75.2289 78.6752 73.061 75.3984C72.1084 73.9599 70.8042 72.7487 69.6349 71.4567C69.4027 71.2002 69.0582 71.0448 68.7659 70.8432C68.8821 71.1574 68.9969 71.4709 69.1138 71.7837C70.5985 75.7165 69.6259 78.1903 66.2839 79.6676C64.8774 80.2898 63.4862 80.9467 62.0774 81.5661C60.0354 82.4637 58.8812 83.9517 58.5756 86.2109C58.23 88.7768 57.7418 91.3295 56.5485 93.6771C56.4642 93.8463 56.4367 94.0437 56.3845 94.2289C56.5994 94.1699 56.834 94.1478 57.0247 94.0461C59.0994 92.9481 61.2464 91.9603 63.2237 90.7073C68.3046 87.4846 71.7953 83.2999 71.0188 76.7706C71.0015 76.6339 71.0881 76.4857 71.1252 76.3417C71.1752 76.4677 71.2426 76.5879 71.2722 76.7182C71.7546 78.8087 71.8873 80.9072 71.3797 83.0062C70.6216 86.1446 68.7283 88.4809 66.1548 90.3357C66.0012 90.4468 65.879 90.6044 65.7437 90.7409C65.9285 90.7933 66.1106 90.8804 66.2982 90.8908C68.1825 90.985 69.843 90.4261 71.0979 89.0172C72.0215 87.981 72.8079 86.8224 73.3037 86.1778L73.303 86.1756ZM99.4583 51.0111C98.9388 50.8785 98.6127 50.7666 98.2766 50.7147C91.7425 49.7044 85.2231 49.7483 78.7685 51.1259C75.055 51.9181 71.7415 53.5793 69.122 56.4057C68.9694 56.5697 68.8766 56.7888 68.7553 56.9811C68.9337 57.0501 69.1071 57.151 69.2904 57.1809C76.8189 58.36 84.3093 58.3306 91.7376 56.5537C91.9235 56.5091 92.0968 56.4131 92.276 56.3418C92.0868 56.2981 91.8997 56.2283 91.7078 56.2157C88.2552 56.0062 84.8019 55.8054 81.3501 55.5944C81.1967 55.5848 81.0488 55.4984 80.8974 55.4483C81.0491 55.4101 81.2007 55.3467 81.3548 55.3368C84.1552 55.1582 86.9817 55.1533 89.7521 54.7684C92.8305 54.342 95.8639 53.6008 98.899 52.9182C99.2925 52.8291 99.7032 52.3334 99.8679 51.9299C99.9628 51.6956 99.5852 51.2674 99.4612 51.0125L99.4583 51.0111ZM94.8689 79.1636C94.9073 79.1268 94.9463 79.0885 94.9832 79.0509C95.1802 79.2213 95.3895 79.3779 95.5706 79.562C99.5984 83.6717 104.032 87.2705 109.02 90.1691C109.694 90.5609 110.428 91.2248 111.116 90.4104C111.717 89.6972 111.096 88.9727 110.669 88.3845C106.752 82.987 102.127 78.2837 96.5128 74.6345C93.4704 72.6565 90.0937 71.5318 86.4096 71.568C86.1189 71.5711 85.8293 71.6633 85.5388 71.7135C85.6779 71.9452 85.7931 72.1958 85.9591 72.4066C87.1672 73.9417 88.421 75.4401 89.5929 77.0005C93.0049 81.547 97.5776 84.7676 102.147 87.9954C102.255 88.073 102.39 88.113 102.511 88.1697C102.455 88.0299 102.432 87.8599 102.339 87.7519C101.688 87.0034 101.013 86.2737 100.363 85.5238C98.5267 83.4066 96.6996 81.2815 94.8674 79.1593L94.8689 79.1636ZM1.41844 45.4956C1.16417 45.8527 0.868371 46.1872 0.663624 46.569C-2.12577 51.7438 -6.74902 54.9058 -11.6775 57.7351C-11.7761 57.7906 -11.9062 57.7926 -12.0217 57.8199C-11.9429 57.7238 -11.8809 57.6067 -11.7845 57.5337C-10.5037 56.5727 -9.21562 55.6189 -7.93335 54.6586C-4.606 52.1668 -1.77609 49.272 -0.309425 45.2773C-0.24048 45.0878 -0.185361 44.8933 -0.122966 44.7023C-0.306299 44.8294 -0.499854 44.9441 -0.670041 45.085C-2.1105 46.2679 -3.54291 47.4639 -4.99432 48.6359C-5.22246 48.8201 -5.53463 48.9028 -5.80662 49.0326C-5.63318 48.8049 -5.48089 48.5577 -5.28264 48.3533C-4.2422 47.2761 -3.1857 46.2141 -2.14599 45.1347C-1.91591 44.8956 -1.73691 44.6093 -1.53383 44.3441C-1.83988 44.4985 -2.17004 44.621 -2.44975 44.8137C-11.0038 50.7515 -17.4117 58.6594 -23.1395 67.1913C-23.2037 67.2874 -23.2279 67.4126 -23.2703 67.5232C-23.1492 67.4663 -23.0046 67.4354 -22.9113 67.3501C-20.9299 65.5306 -18.4907 64.5475 -16.0162 63.6325C-12.6942 62.407 -9.55465 60.8541 -6.76166 58.6574C-2.44469 55.2635 0.225912 50.8453 1.41916 45.4942L1.41844 45.4956ZM11.1855 94.6349L11.1297 94.3381C13.5948 94.1243 15.7817 93.2754 17.6346 91.6589C17.7642 91.5448 17.8507 91.3822 17.9569 91.242C17.7958 91.2844 17.6243 91.3037 17.4778 91.3714C14.712 92.6485 11.8215 92.9826 8.85019 92.3035C4.91999 91.4065 1.30869 92.293 -2.1871 93.9987C-3.43457 94.6081 -3.51713 95.1717 -2.295 95.916C-0.688083 96.8953 0.936452 97.9124 2.67944 98.5931C6.34597 100.027 9.87579 99.7854 13.0027 97.1666C13.1244 97.0648 13.211 96.9202 13.3129 96.7959C13.1683 96.8124 13.0113 96.7955 12.8829 96.8488C10.5454 97.8393 8.18774 97.5418 5.82504 96.9223C5.63222 96.8713 5.45442 96.7647 5.26873 96.6848C5.47432 96.6627 5.68626 96.5986 5.88481 96.6272C9.09284 97.0939 12.0018 96.3214 14.6879 94.6021C14.8212 94.5169 14.9261 94.3869 15.044 94.2778C14.8943 94.2826 14.7432 94.2795 14.5935 94.2951C13.4565 94.4055 12.321 94.5202 11.1847 94.6327L11.1855 94.6349ZM45.27 97.5607C44.8709 97.3618 44.4696 97.1673 44.0725 96.964C43.6631 96.7528 43.4312 96.7221 43.5639 97.3207C43.7189 98.0206 43.8673 98.7299 43.922 99.4413C44.2076 103.08 44.6261 106.693 45.4216 110.268C45.8087 112.009 46.1567 112.321 47.8929 111.779C48.2805 111.658 48.6349 111.439 49.0063 111.267C49.5416 111.021 49.5613 110.697 49.251 110.214C48.8646 109.609 48.5557 108.956 48.2194 108.32C48.1732 108.234 48.1669 108.126 48.1425 108.029C48.2358 108.083 48.3464 108.12 48.4187 108.194C48.8728 108.659 49.3037 109.144 49.7687 109.598C50.0556 109.876 50.3231 110.212 50.781 109.73C51.1601 109.331 51.0797 109.065 50.7859 108.688C49.9029 107.551 49.0453 106.396 48.1913 105.238C48.0239 105.012 47.9188 104.741 47.7847 104.492C47.994 104.652 48.2054 104.812 48.4118 104.974C49.5394 105.865 50.6698 106.749 51.7902 107.647C52.6297 108.32 53.0911 107.456 53.6538 107.155C53.7531 107.101 53.6293 106.394 53.4398 106.091C52.6566 104.846 51.8785 103.586 50.9671 102.434C49.3965 100.447 48.1272 98.0674 45.2686 97.5636L45.27 97.5607ZM19.0136 73.789C18.9475 73.8048 18.8793 73.8213 18.8132 73.8372C18.2804 76.151 17.9835 78.5535 17.1595 80.7584C15.9116 84.0985 14.3027 87.3021 12.8328 90.5588C12.6348 90.9962 12.3469 91.3112 13.1874 91.3726C16.7827 91.6352 20.6424 89.0567 21.594 85.6104C22.7795 81.3186 22.4039 77.0323 21.316 72.7666C21.2436 72.485 21.1065 72.22 20.9992 71.9463C20.9764 72.2292 20.9137 72.5156 20.9375 72.7964C21.346 77.6081 20.5396 82.1754 18.2535 86.4423C17.9724 86.9664 17.6125 87.4477 17.2891 87.9508C17.3336 87.4965 17.5021 87.1256 17.6633 86.751C19.0878 83.4212 19.8714 79.958 19.8067 76.3177C19.8019 76.0499 19.7404 75.7828 19.7044 75.5158C19.6234 75.7841 19.5315 76.0488 19.4651 76.3207C19.1523 77.5727 18.8554 78.8291 18.5295 80.0782C18.4787 80.2713 18.3101 80.4346 18.196 80.6124C18.2148 80.4214 18.2307 80.229 18.2531 80.038C18.5071 77.9552 18.7611 75.8725 19.0165 73.7904L19.0136 73.789ZM65.0895 95.2036C65.3606 95.2069 65.4528 95.1933 65.5401 95.2115C65.8413 95.275 66.1432 95.3406 66.4401 95.4199C69.3683 96.2074 72.2726 96.1853 75.1421 95.1963C75.4563 95.0876 75.7681 94.9253 76.0303 94.7238C76.2332 94.5686 76.36 94.3141 76.5211 94.1038C76.2726 94.1171 76.013 94.0907 75.7764 94.1496C73.416 94.7262 71.061 95.0401 68.712 94.0502C67.6678 93.6093 66.6193 93.1807 65.5773 92.7355C63.8588 92.002 62.1874 92.2287 60.6555 93.1315C59.5442 93.7853 58.572 94.6708 57.5185 95.4275C57.1417 95.6982 57.1599 95.8553 57.5612 96.0534C59.0995 96.8091 60.5628 97.8324 62.1841 98.2828C65.5737 99.2245 69.02 99.6474 72.0684 97.2044C72.2169 97.0853 72.3332 96.9248 72.4649 96.7847C72.2787 96.7641 72.0903 96.719 71.9057 96.7281C69.5529 96.8662 67.3668 96.2535 65.0902 95.2021L65.0895 95.2036ZM61.1727 47.7393C61.2055 47.7755 61.2384 47.8117 61.2713 47.8479C60.4866 48.5833 59.6983 49.315 58.9195 50.0569C58.6807 50.2844 58.4688 50.5381 58.2446 50.7801C58.5718 50.6526 58.9217 50.5634 59.2204 50.3909C61.8195 48.89 64.409 47.3717 67.0037 45.865C67.3053 45.6904 67.6267 45.5527 67.94 45.3984C67.6824 45.6527 67.4569 45.9519 67.1612 46.1511C64.3966 48.0208 61.621 49.8723 58.8483 51.7289C58.6838 51.8401 58.5208 51.952 58.3577 52.0639C58.5714 52.0476 58.7946 52.0668 58.9942 52.0092C64.8661 50.3376 69.0947 46.3582 73.1091 42.0789C73.1945 41.9878 73.2368 41.8591 73.2995 41.7478C73.1426 41.7562 72.9834 41.7509 72.8302 41.7774C70.7414 42.1337 68.6649 42.6333 66.5601 42.8282C61.6016 43.2871 58.4602 46.0773 56.3542 50.3148C56.2736 50.4767 56.2548 50.6713 56.2091 50.8507C56.3905 50.7859 56.5917 50.7543 56.7482 50.6518C58.2267 49.6882 59.6979 48.7137 61.1712 47.7421L61.1727 47.7393ZM24.1897 112.879C24.3222 112.945 24.4175 112.969 24.484 113.03C27.3749 115.618 30.5381 115.306 33.7919 113.94C33.9987 113.854 34.1781 113.669 34.3322 113.494C34.6229 113.166 34.8852 112.815 35.1599 112.472C34.746 112.547 34.3327 112.617 33.9202 112.701C33.7198 112.742 33.5268 112.819 33.3264 112.86C28.8226 113.767 24.9193 112.86 21.9678 109.072C21.8955 108.98 21.797 108.907 21.7109 108.825C21.6578 108.979 21.5473 109.135 21.5588 109.283C21.7001 111.003 21.7092 112.752 22.0538 114.432C22.4645 116.44 23.9059 117.631 25.8708 118.202C28.2498 118.895 30.9668 118.252 32.1715 116.67C32.3933 116.378 32.5335 116.024 32.7101 115.699C32.3607 115.732 32.0053 115.734 31.664 115.802C28.5581 116.426 25.6685 115.316 24.1904 112.878L24.1897 112.879ZM1.08553 53.1201C1.5122 51.8003 2.11893 49.9366 2.71256 48.07C2.75272 47.9456 2.6888 47.7892 2.67437 47.6466C2.60582 47.7623 2.52344 47.8729 2.46947 47.9958C2.38598 48.1816 2.32433 48.3783 2.24812 48.5678C0.451525 53.0713 -2.30334 56.8375 -6.28257 59.6813C-9.5358 62.0061 -13.1813 63.5451 -16.859 65.0501C-18.4972 65.7211 -20.0568 66.5812 -21.6377 67.3818C-21.8517 67.49 -21.9835 67.7546 -22.1542 67.9476C-21.9269 67.9146 -21.6921 67.9107 -21.4751 67.8473C-18.5193 66.9845 -15.5546 66.144 -12.6128 65.2363C-8.48278 63.9621 -4.71956 62.0846 -2.18665 58.4208C-1.12352 56.882 -0.214184 55.2395 1.08481 53.1215L1.08553 53.1201ZM49.4844 98.6209C49.6404 98.8809 49.7613 99.109 49.9069 99.3205C51.2953 101.355 52.7612 103.344 54.0445 105.44C54.6404 106.412 55.1376 106.593 56.1883 106.199C57.9908 105.523 58.204 105.256 57.4592 103.466C56.6182 101.446 55.7263 99.4477 54.8671 97.4348C54.4471 96.4494 54.3032 96.4499 53.3808 96.9433C52.2801 97.532 51.1127 97.9954 49.9687 98.5066C49.8476 98.56 49.7066 98.5691 49.4837 98.6187L49.4844 98.6209ZM1.59444 68.5879C1.74647 68.2828 1.92543 67.9893 2.04541 67.6718C3.2461 64.5139 2.99483 61.2408 2.74211 57.9706C2.73588 57.8773 2.66572 57.7882 2.6268 57.6984C2.57712 57.8054 2.50417 57.908 2.47849 58.0216C2.33604 58.687 2.20524 59.3547 2.07078 60.0223C1.27137 64.0246 0.74927 68.1162 -1.66015 71.5979C-1.71649 71.6781 -1.73491 71.7844 -1.7723 71.8777C-1.62128 71.841 -1.4505 71.8377 -1.32218 71.7626C-0.0259585 71.0042 1.02213 70.0102 1.59155 68.5901L1.59444 68.5879ZM97.8811 86.6805C97.4376 86.3296 96.9927 85.9816 96.5522 85.6285C91.6711 81.7019 87.2735 77.3123 83.5614 72.2588C83.429 72.0791 83.2394 71.9378 83.0767 71.779C83.1482 72.015 83.1864 72.2669 83.2971 72.4827C84.6443 75.0853 86.4184 77.3826 88.4359 79.5015C91.193 82.3951 94.2826 84.8622 97.8796 86.6798L97.8811 86.6805ZM66.885 58.7567C66.8764 58.7885 66.8671 58.8181 66.8585 58.85C67.1403 58.9597 67.4156 59.0969 67.7052 59.1762C74.2312 60.973 80.7322 60.7214 87.2102 59.0269C87.3837 58.9816 87.5402 58.8682 87.7041 58.7875C87.5151 58.7763 87.3208 58.7319 87.1356 58.7569C82.1665 59.4559 77.1725 59.621 72.1633 59.2766C70.4002 59.1544 68.6432 58.9324 66.8835 58.7559L66.885 58.7567ZM43.9319 111.159C44.0192 111.173 44.236 111.209 44.4527 111.245C44.4671 111.048 44.5171 110.846 44.4879 110.656C44.3271 109.614 44.1532 108.572 43.964 107.536C43.9313 107.357 43.8034 107.194 43.719 107.024C43.5939 107.169 43.4601 107.31 43.3437 107.463C43.2404 107.598 43.1567 107.747 43.0585 107.886C42.6381 108.482 42.2155 109.074 41.7929 109.667C42.4644 110.137 43.138 110.606 43.929 111.161L43.9319 111.159ZM38.8325 33.3013C38.7675 33.9024 38.6771 34.5036 38.6514 35.1063C38.6448 35.2654 38.8161 35.5385 38.9485 35.5684C39.0839 35.5997 39.3746 35.4287 39.419 35.2884C39.6148 34.6874 39.796 34.0719 39.8725 33.4476C39.902 33.2096 39.6355 32.9342 39.5021 32.6764C39.2958 32.8678 39.0887 33.0607 38.831 33.3005L38.8325 33.3013Z" fill="#BF8665" fill-opacity="0.25"/>
</g>
<defs>
<clipPath id="clip0_275_3247">
<rect width="126" height="147" fill="white" transform="translate(141.764 36.5574) rotate(116.485)"/>
</clipPath>
</defs>
</svg>
