<svg width="178" height="191" viewBox="0 0 178 191" fill="none" xmlns="http://www.w3.org/2000/svg">
<path d="M99.173 70.5074L101.317 95.4402L132.503 92.7587L130.359 67.8259L99.173 70.5074Z" fill="#EBEBEB"/>
<path d="M130.355 67.8228L129.766 67.8819L128.074 68.0518L121.689 68.6238L99.1755 70.6044L99.2583 70.5116C99.8996 77.9298 100.635 86.4366 101.412 95.4383L101.303 95.3456L132.494 92.6818L132.418 92.7701C131.791 85.2621 131.27 79.0412 130.906 74.6857C130.725 72.5078 130.589 70.8015 130.49 69.629C130.432 69.0512 130.41 68.6042 130.387 68.2956C130.363 67.987 130.34 67.8319 130.34 67.8319C130.34 67.8319 130.355 67.9801 130.385 68.2766C130.415 68.5731 130.461 69.0368 130.517 69.5955C130.634 70.7586 130.778 72.4602 130.973 74.629C131.357 78.994 131.911 85.2309 132.575 92.7582L132.583 92.8418L132.499 92.8502L101.322 95.5318L101.223 95.5418L101.213 95.4429C100.443 86.4405 99.7156 77.9329 99.0934 70.5128L99.0838 70.4178L99.1712 70.409L121.749 68.5257L128.119 68.0012L129.795 67.8675L130.224 67.8243L130.355 67.8228Z" fill="#263238"/>
<path d="M100.385 71.9831L102.258 93.776L131.256 91.2827L129.382 69.4898L100.385 71.9831Z" fill="#D9A273"/>
<path d="M102.251 93.7761L111.215 79.3581L118.216 87.2933L122.082 82.3978L131.248 91.2828L102.251 93.7761Z" fill="#D9A273"/>
<path d="M120.009 76.9317C120.047 77.3834 119.951 77.8363 119.732 78.2332C119.513 78.6301 119.182 78.9532 118.779 79.1616C118.376 79.37 117.921 79.4544 117.471 79.404C117.02 79.3537 116.595 79.1709 116.248 78.8788C115.902 78.5867 115.649 78.1983 115.523 77.7629C115.398 77.3274 115.404 76.8644 115.541 76.4324C115.678 76.0003 115.94 75.6187 116.294 75.3357C116.648 75.0527 117.079 74.8811 117.53 74.8425C117.83 74.8169 118.132 74.8506 118.419 74.9418C118.706 75.0329 118.972 75.1797 119.202 75.3737C119.433 75.5677 119.622 75.8051 119.761 76.0725C119.899 76.3398 119.983 76.6318 120.009 76.9317Z" fill="#D9A273"/>
<path opacity="0.2" d="M102.251 93.7761L111.215 79.3581L118.216 87.2933L122.082 82.3978L131.248 91.2828L102.251 93.7761Z" fill="black"/>
<g opacity="0.2">
<path d="M120.009 76.9317C120.047 77.3834 119.951 77.8363 119.732 78.2332C119.513 78.6301 119.182 78.9532 118.779 79.1616C118.376 79.37 117.921 79.4544 117.471 79.404C117.02 79.3537 116.595 79.1709 116.248 78.8788C115.902 78.5867 115.649 78.1983 115.523 77.7629C115.398 77.3274 115.404 76.8644 115.541 76.4324C115.678 76.0003 115.94 75.6187 116.294 75.3357C116.648 75.0527 117.079 74.8811 117.53 74.8425C117.83 74.8169 118.132 74.8506 118.419 74.9418C118.706 75.0329 118.972 75.1797 119.202 75.3737C119.433 75.5677 119.622 75.8051 119.761 76.0725C119.899 76.3398 119.983 76.6318 120.009 76.9317Z" fill="black"/>
</g>
<path d="M35.9828 40.1096L38.538 69.8265L75.7069 66.6307L73.1518 36.9138L35.9828 40.1096Z" fill="#EBEBEB"/>
<path d="M73.1468 36.9338L72.4474 37.004L70.4311 37.1873L62.8209 37.867L35.9831 40.2203L36.0655 40.1237C36.8268 48.9658 37.7029 59.1055 38.6306 69.8351L38.5215 69.7424L75.6921 66.5626L75.6169 66.6546C74.8636 57.7004 74.2417 50.2841 73.8051 45.0951C73.5904 42.4983 73.4246 40.4648 73.3115 39.071C73.2421 38.3793 73.2114 37.8448 73.1828 37.483C73.1541 37.1211 73.1274 36.9319 73.1274 36.9319C73.1274 36.9319 73.1454 37.1105 73.1809 37.464L73.3385 39.0338C73.4778 40.4211 73.6478 42.458 73.8762 45.038C74.3367 50.2362 74.9909 57.6684 75.7803 66.6382L75.7887 66.7218L75.7089 66.7298L38.5417 69.9438L38.4429 69.9537L38.433 69.8549C37.5129 59.1246 36.6447 48.9879 35.8869 40.1417L35.8781 40.0543L35.9693 40.0451L62.8695 37.7777L70.4615 37.1458L72.4649 36.9869L72.9742 36.9357L73.1468 36.9338Z" fill="#263238"/>
<path d="M37.2369 41.8874L39.4703 67.863L74.0284 64.8917L71.795 38.916L37.2369 41.8874Z" fill="#D9A273"/>
<path opacity="0.3" d="M37.2369 41.8874L39.4703 67.863L74.0284 64.8917L71.795 38.916L37.2369 41.8874Z" fill="white"/>
<path d="M39.6557 67.8471L50.3345 50.6616L58.6825 60.12L63.2869 54.2828L74.2132 64.8721L39.6557 67.8471Z" fill="#D9A273"/>
<path d="M58.7329 50.6656C60.1997 50.3133 61.1031 48.8387 60.7509 47.372C60.3986 45.9052 58.924 45.0018 57.4573 45.354C55.9905 45.7063 55.0871 47.1809 55.4393 48.6476C55.7916 50.1144 57.2662 51.0178 58.7329 50.6656Z" fill="#D9A273"/>
<path d="M102.103 101.802L103.167 114.175L118.645 112.844L117.581 100.471L102.103 101.802Z" fill="#EBEBEB"/>
<path d="M117.581 100.468L116.441 100.583L113.269 100.878L102.113 101.883L102.195 101.787C102.516 105.471 102.882 109.692 103.269 114.156L103.164 114.067L103.696 114.013L104.228 113.96L105.285 113.854L107.371 113.675L111.387 113.333L118.62 112.726L118.548 112.814C118.244 109.097 117.996 106.016 117.817 103.85C117.736 102.775 117.67 101.926 117.622 101.335C117.594 101.054 117.571 100.83 117.574 100.668C117.577 100.507 117.551 100.433 117.551 100.433C117.551 100.433 117.558 100.505 117.572 100.649L117.638 101.299C117.697 101.885 117.781 102.725 117.888 103.793C118.087 105.969 118.368 109.066 118.708 112.802L118.716 112.881L118.633 112.89L111.383 113.526L107.368 113.875L105.285 114.053L104.225 114.16L103.693 114.213L103.161 114.267C103.257 114.349 103.027 114.157 103.052 114.174C102.672 109.709 102.31 105.488 101.997 101.803L101.989 101.715L102.08 101.706L113.302 100.786L116.456 100.539L117.287 100.478L117.496 100.457L117.581 100.468Z" fill="#263238"/>
<path d="M102.629 102.544L103.559 113.36L117.949 112.123L117.019 101.306L102.629 102.544Z" fill="#D9A273"/>
<path opacity="0.3" d="M102.629 102.544L103.559 113.36L117.949 112.123L117.019 101.306L102.629 102.544Z" fill="white"/>
<path d="M103.633 113.348L108.082 106.194L111.557 110.134L113.474 107.703L118.025 112.114L103.633 113.348Z" fill="#D9A273"/>
<path d="M112.445 104.988C112.468 105.215 112.422 105.443 112.315 105.644C112.207 105.844 112.042 106.009 111.841 106.115C111.64 106.222 111.411 106.266 111.184 106.242C110.958 106.218 110.744 106.127 110.569 105.981C110.394 105.835 110.267 105.64 110.204 105.421C110.141 105.202 110.144 104.969 110.214 104.752C110.283 104.535 110.416 104.344 110.594 104.203C110.773 104.062 110.99 103.977 111.217 103.96C111.515 103.937 111.811 104.031 112.041 104.224C112.27 104.416 112.415 104.69 112.445 104.988Z" fill="#D9A273"/>
<path d="M8.63138 68.0421L10.1079 85.2146L31.5887 83.3676L30.1122 66.1952L8.63138 68.0421Z" fill="#EBEBEB"/>
<path d="M30.1122 66.2101L29.7017 66.2513L28.5349 66.3685L24.1372 66.7717L8.63828 68.1476L8.7211 68.0548C9.16528 73.1663 9.67287 79.0239 10.2072 85.2243C10.2323 85.2448 10.0057 85.0525 10.1061 85.1346L10.4861 85.0964L10.8662 85.0583L11.6036 84.9842L13.073 84.8597L15.9697 84.6111L21.5426 84.1359L31.604 83.283L31.5284 83.3712C31.102 78.208 30.7487 73.9244 30.5011 70.9239C30.3815 69.4271 30.2872 68.258 30.2199 67.4355C30.1818 67.0554 30.1683 66.7304 30.1504 66.5134C30.1324 66.2963 30.1183 66.1941 30.1183 66.1941C30.1183 66.1941 30.1282 66.2929 30.1488 66.4982C30.1694 66.7034 30.2004 67.0113 30.2397 67.4028C30.3206 68.2086 30.4378 69.3754 30.5604 70.8642C30.8285 73.878 31.2142 78.1776 31.677 83.3601L31.685 83.4399L31.6014 83.4483L21.537 84.3476L15.9645 84.8266L13.072 85.0786L11.5988 85.2036L10.8614 85.2776L10.4813 85.3158L10.1012 85.3539C10.1936 85.433 9.96356 85.2449 9.98828 85.2616C9.46155 79.0604 8.95776 73.2025 8.52118 68.0903L8.51202 67.999L8.59944 67.9903L24.1604 66.6964L28.544 66.3445L29.6869 66.2566L29.9796 66.2272L30.1122 66.2101Z" fill="#263238"/>
<path d="M9.46631 69.0595L10.757 84.0702L30.7268 82.3531L29.4362 67.3424L9.46631 69.0595Z" fill="#D9A273"/>
<path d="M10.7555 84.0712L16.9258 74.1376L21.7516 79.6038L24.4113 76.2308L30.7274 82.3536L10.7555 84.0712Z" fill="#D9A273"/>
<path d="M22.9851 72.4657C23.0117 72.7766 22.9456 73.0884 22.795 73.3617C22.6444 73.635 22.4162 73.8575 22.1392 74.001C21.8622 74.1446 21.5488 74.2029 21.2387 74.1683C20.9286 74.1338 20.6357 74.0082 20.397 73.8072C20.1584 73.6062 19.9846 73.339 19.8978 73.0393C19.811 72.7396 19.815 72.4209 19.9093 72.1235C20.0037 71.826 20.184 71.5633 20.4277 71.3684C20.6714 71.1735 20.9673 71.0552 21.2782 71.0285C21.4847 71.0108 21.6926 71.0339 21.8901 71.0965C22.0876 71.1591 22.2709 71.2601 22.4294 71.3935C22.5879 71.527 22.7185 71.6904 22.8139 71.8744C22.9092 72.0583 22.9674 72.2593 22.9851 72.4657Z" fill="#D9A273"/>
<path opacity="0.1" d="M10.7555 84.0712L16.9258 74.1376L21.7516 79.6038L24.4113 76.2308L30.7274 82.3536L10.7555 84.0712Z" fill="black"/>
<g opacity="0.1">
<path d="M22.9851 72.4657C23.0117 72.7766 22.9456 73.0884 22.795 73.3617C22.6444 73.635 22.4162 73.8575 22.1392 74.001C21.8622 74.1446 21.5488 74.2029 21.2387 74.1683C20.9286 74.1338 20.6357 74.0082 20.397 73.8072C20.1584 73.6062 19.9846 73.339 19.8978 73.0393C19.811 72.7396 19.815 72.4209 19.9093 72.1235C20.0037 71.826 20.184 71.5633 20.4277 71.3684C20.6714 71.1735 20.9673 71.0552 21.2782 71.0285C21.4847 71.0108 21.6926 71.0339 21.8901 71.0965C22.0876 71.1591 22.2709 71.2601 22.4294 71.3935C22.5879 71.527 22.7185 71.6904 22.8139 71.8744C22.9092 72.0583 22.9674 72.2593 22.9851 72.4657Z" fill="black"/>
</g>
<path d="M80.5456 54.9052L81.5316 66.3726L95.8763 65.1392L94.8903 53.6718L80.5456 54.9052Z" fill="#EBEBEB"/>
<path d="M94.887 53.6664C94.8635 53.6728 94.8391 53.6752 94.8148 53.6736L93.8265 53.7729L90.8873 54.0565L80.5511 55.0023L80.6298 54.9061C80.9277 58.3315 81.2695 62.2324 81.6274 66.3696L81.5224 66.2804L82.0165 66.2307L82.5106 66.1811L83.4913 66.0827L85.421 65.9158L89.144 65.5995L95.8636 65.036L95.788 65.1243C95.5129 61.6966 95.2783 58.8254 95.119 56.8181C95.0418 55.82 94.9822 55.0351 94.9386 54.4866C94.9123 54.2244 94.8917 54.0191 94.8954 53.8652C94.8992 53.7112 94.8737 53.6485 94.8737 53.6485C94.884 53.7153 94.8908 53.7825 94.8939 53.85L94.9542 54.4505C95.0088 54.994 95.087 55.7732 95.1859 56.7577C95.3695 58.7778 95.6311 61.6502 95.9496 65.1272L95.958 65.2109L95.8781 65.2189L89.1612 65.8089L85.4389 66.1328L83.5054 66.3001L82.5248 66.3985L82.0307 66.4482L81.5366 66.4978L81.4278 66.4089C81.0772 62.267 80.7418 58.354 80.4527 54.9393L80.4408 54.8214L80.532 54.8123L90.9317 53.9638L93.8573 53.7352L94.6175 53.6589L94.8113 53.6394L94.887 53.6664Z" fill="#263238"/>
<path d="M81.098 55.5787L81.96 65.6036L95.296 64.457L94.4341 54.4321L81.098 55.5787Z" fill="#D9A273"/>
<path d="M81.9612 65.6029L86.083 58.9733L89.3021 62.6236L91.0838 60.3715L95.299 64.4593L81.9612 65.6029Z" fill="#D9A273"/>
<path d="M90.1173 57.858C90.1351 58.0657 90.0909 58.2741 89.9903 58.4567C89.8897 58.6393 89.7372 58.788 89.5521 58.884C89.367 58.98 89.1575 59.0189 88.9503 58.9958C88.7431 58.9728 88.5473 58.8888 88.3878 58.7545C88.2283 58.6202 88.1122 58.4416 88.0542 58.2413C87.9962 58.0411 87.9988 57.8281 88.0619 57.6293C88.1249 57.4305 88.2454 57.2549 88.4083 57.1247C88.5711 56.9944 88.7689 56.9154 88.9766 56.8975C89.255 56.8746 89.5312 56.9627 89.7449 57.1427C89.9586 57.3226 90.0925 57.5797 90.1173 57.858Z" fill="#D9A273"/>
<path opacity="0.1" d="M81.9612 65.6029L86.083 58.9733L89.3021 62.6236L91.0838 60.3715L95.299 64.4593L81.9612 65.6029Z" fill="black"/>
<g opacity="0.1">
<path d="M90.1173 57.858C90.1351 58.0657 90.0909 58.2741 89.9903 58.4567C89.8897 58.6393 89.7372 58.788 89.5521 58.884C89.367 58.98 89.1575 59.0189 88.9503 58.9958C88.7431 58.9728 88.5473 58.8888 88.3878 58.7545C88.2283 58.6202 88.1122 58.4416 88.0542 58.2413C87.9962 58.0411 87.9988 57.8281 88.0619 57.6293C88.1249 57.4305 88.2454 57.2549 88.4083 57.1247C88.5711 56.9944 88.7689 56.9154 88.9766 56.8975C89.255 56.8746 89.5312 56.9627 89.7449 57.1427C89.9586 57.3226 90.0925 57.5797 90.1173 57.858Z" fill="black"/>
</g>
<path d="M37.3949 75.1388L41.2236 119.669L96.9238 114.879L93.0951 70.3496L37.3949 75.1388Z" fill="#F5F5F5"/>
<path d="M93.0914 70.3477L92.8254 70.3744L92.0652 70.4507L89.048 70.723L77.6541 71.7251L37.4025 75.2296L37.4811 75.1334C38.6235 88.383 39.9533 103.576 41.3234 119.666L41.2147 119.577L96.9128 114.787L96.8376 114.879C95.7012 101.46 94.757 90.3363 94.103 82.5623C93.7776 78.6713 93.5212 75.6218 93.3467 73.5393C93.2615 72.4998 93.1969 71.7039 93.1541 71.163C93.1113 70.6221 93.0907 70.3401 93.0907 70.3401C93.0907 70.3401 93.1178 70.6099 93.1712 71.1421C93.2246 71.6742 93.3044 72.4686 93.3854 73.5047C93.5706 75.5785 93.838 78.623 94.1817 82.5045C94.8596 90.2876 95.8319 101.423 97.0078 114.854L97.0162 114.938L96.9364 114.946L41.236 119.752L41.1372 119.762L41.1265 119.655C39.7465 103.581 38.4433 88.3857 37.307 75.1202L37.2982 75.0328L37.3857 75.024L77.6791 71.6305L89.0587 70.6759L92.0629 70.4279L92.8231 70.3516L93.0914 70.3477Z" fill="#263238"/>
<path d="M39.5576 77.7791L42.9043 116.703L94.6882 112.25L91.3414 73.3266L39.5576 77.7791Z" fill="#D9A273"/>
<path opacity="0.2" d="M42.9031 116.701L58.9104 90.949L71.4137 105.123L78.3177 96.3791L94.6881 112.246L42.9031 116.701Z" fill="black"/>
<g opacity="0.2">
<path d="M74.6153 86.6154C74.6848 87.4224 74.5135 88.232 74.1229 88.9416C73.7323 89.6513 73.14 90.2292 72.4209 90.6021C71.7018 90.9751 70.8883 91.1265 70.0832 91.037C69.2781 90.9476 68.5176 90.6214 67.8979 90.0997C67.2783 89.578 66.8272 88.8842 66.6019 88.1061C66.3766 87.328 66.3871 86.5006 66.6321 85.7285C66.8771 84.9564 67.3456 84.2743 67.9783 83.7685C68.611 83.2626 69.3795 82.9558 70.1866 82.8869C71.268 82.7955 72.3415 83.1366 73.1717 83.8356C74.0019 84.5345 74.5211 85.5342 74.6153 86.6154Z" fill="black"/>
</g>
<g filter="url(#filter0_f_103_141)">
<ellipse cx="71" cy="180.861" rx="49" ry="4.5" fill="#BF8665" fill-opacity="0.25"/>
</g>
<path d="M49.5342 117.27L48.8992 116.759V116.701L48.8737 116.734L44.6913 113.376L46.4869 110.42L42.1585 107.259C42.1585 107.471 38.1439 113.464 38.6877 114.624C39.4614 116.285 44.7022 119.602 46.8482 120.912C46.2632 120.986 45.684 121.099 45.1146 121.252C44.5672 121.431 46.3518 121.905 46.7825 121.982C46.9503 122.014 47.2971 121.748 47.662 121.39L47.7642 121.449L47.8773 121.179C48.2716 120.776 48.6374 120.347 48.9722 119.894C49.0681 119.421 49.0866 118.935 49.027 118.456L49.5342 117.27Z" fill="#FFBE9D"/>
<path d="M62.4501 115.799L63.0851 115.292V115.234L63.1106 115.266L67.8952 112.212L63.2749 108.46L67.2711 104.993C70.3587 107.183 74.4863 110.033 73.2929 113.153C72.6433 114.865 67.2821 118.135 65.1362 119.442C65.7208 119.518 66.2998 119.633 66.8697 119.785C67.4135 119.963 65.6325 120.434 65.2018 120.515C65.034 120.551 64.6873 120.281 64.3186 119.927L64.2201 119.985L64.1143 119.712C63.7202 119.309 63.3544 118.88 63.0194 118.427C62.9275 117.954 62.9102 117.471 62.9683 116.993L62.4501 115.799Z" fill="#FFBE9D"/>
<path d="M54.9649 101.635C55.3628 101.665 55.7626 101.614 56.1405 101.486C56.5183 101.358 56.8665 101.155 57.1642 100.889C57.4619 100.623 57.703 100.301 57.8732 99.9396C58.0433 99.5787 58.139 99.1872 58.1546 98.7885C58.2166 97.1754 58.2714 95.5441 58.2714 95.5441C58.2714 95.5441 60.7166 95.3142 60.8954 92.8908C61.0743 90.4675 60.9903 84.88 60.9903 84.88C59.6492 84.204 58.152 83.8983 56.6532 83.9945C55.1544 84.0907 53.7085 84.5854 52.4649 85.4275L52.1 85.6829L52.235 98.7083C52.2435 99.4486 52.5281 100.159 53.0331 100.7C53.538 101.242 54.227 101.575 54.9649 101.635Z" fill="#FFBE9D"/>
<path d="M54.8517 81.7342C53.3919 81.6904 52.0416 82.6539 51.3591 83.84C50.6766 85.0261 50.527 86.3947 50.4613 87.7341C50.3847 90.3583 50.4468 92.9848 50.6474 95.6025C50.6366 95.8003 50.6961 95.9955 50.8153 96.1536C50.9956 96.3025 51.2203 96.3872 51.454 96.3945C55.9331 97.0162 60.4762 97.0236 64.9574 96.4164C65.253 95.8836 64.8406 95.2485 64.3625 94.8398C63.8844 94.431 63.2932 94.0551 63.1216 93.4821C62.8516 92.577 63.7494 91.6063 63.399 90.7231C63.1362 90.0588 62.264 89.734 61.9574 89.0844C61.4428 87.9895 62.7713 86.6793 62.1801 85.6246C61.8735 85.0735 61.1545 84.829 60.7202 84.3692C60.3188 83.9641 60.1436 83.413 59.7969 82.9677C59.1767 82.274 58.3094 81.8508 57.3809 81.7889C56.5554 81.6541 55.7151 81.6356 54.8846 81.7342" fill="#263238"/>
<path d="M51.3992 84.5043C50.7751 84.8108 50.505 85.5553 50.4138 86.2451C50.3225 86.9349 50.3481 87.6611 50.0488 88.2925C49.7496 88.9239 49.1036 89.4859 48.9357 90.2122C48.7167 91.1501 49.3372 92.2596 48.7788 93.0479C48.4138 93.5552 47.7094 93.6829 47.2642 94.1172C46.6511 94.7194 46.7058 95.7084 46.8044 96.5624L54.8881 96.4931" fill="#263238"/>
<path d="M54.3262 83.6539C54.7935 83.6491 55.2404 83.4616 55.5713 83.1315C55.9021 82.8013 56.0905 82.3548 56.0962 81.8875C56.0681 81.42 55.8784 80.9769 55.5594 80.634C55.2405 80.2911 54.8123 80.0698 54.3481 80.0079C53.8817 79.9692 53.4145 80.0726 53.008 80.3045C52.6015 80.5365 52.2748 80.886 52.0707 81.3072C51.8695 81.6899 51.8212 82.1347 51.9357 82.5517C52.0828 82.9579 52.3772 83.2939 52.7605 83.4933C53.1462 83.7077 53.5802 83.8202 54.0214 83.8202C54.4627 83.8202 54.8967 83.7077 55.2824 83.4933" fill="#263238"/>
<path d="M55.9247 82.0918C55.9555 82.3054 55.9198 82.5233 55.8225 82.7159C55.6279 83.2059 55.2518 83.6019 54.7725 83.8214C54.2932 84.041 53.7477 84.0673 53.2495 83.8947C52.8846 83.7597 52.6948 83.5809 52.7094 83.5663C52.724 83.5517 52.9247 83.6721 53.286 83.7633C53.7527 83.8933 54.2502 83.8548 54.6913 83.6546C55.1324 83.4544 55.4889 83.1053 55.6984 82.6685C55.8663 82.3254 55.8918 82.0845 55.9247 82.0918Z" fill="#D9A273"/>
<path d="M64.3115 110.267L62.3006 108.113L61.6364 111.288L61.775 113.756C61.775 113.88 64.3991 120.361 64.3991 120.361C65.4723 122.821 65.9055 125.513 65.6582 128.186L46.4396 127.628C46.4396 127.628 46.7206 122.033 48.8811 118.372C49.8665 116.697 49.611 114.172 49.1548 112.256C49.0089 111.65 48.8154 110.65 48.7388 110.029V109.923L47.7315 111.683L41.7134 107.336C43.6695 103.566 46.5381 99.7558 46.8812 99.4711C48.1327 98.422 49.708 97.8368 51.3409 97.8142L58.8262 97.8799C59.2212 97.9203 59.6111 97.9997 59.9904 98.1171C60.9065 98.1828 62.5269 98.9565 64.3224 100.672C65.837 102.132 67.5231 103.883 69.3041 105.183L64.3042 110.248" fill="#455A64"/>
<path d="M51.8444 98.0404C51.8444 98.0404 51.8882 98.0696 51.9649 98.1462C52.0687 98.2607 52.1638 98.3827 52.2495 98.5112C52.5775 98.9718 52.788 99.5055 52.8627 100.066C52.926 100.484 52.8932 100.911 52.7667 101.314C52.6402 101.718 52.4234 102.087 52.1328 102.394C51.7876 102.767 51.3346 103.022 50.8372 103.124C50.3153 103.23 49.7861 103.124 49.2788 103.212C49.0327 103.244 48.8003 103.344 48.6073 103.5C48.4245 103.664 48.2757 103.863 48.1693 104.084C47.9358 104.518 47.8044 104.993 47.5234 105.394C47.3973 105.598 47.2263 105.77 47.0234 105.898C46.8251 106.013 46.5991 106.071 46.3701 106.066C45.9763 106.044 45.5928 105.932 45.2497 105.737C44.7498 105.477 44.3088 105.117 43.9541 104.679C43.8599 104.563 43.7734 104.441 43.695 104.314C43.6439 104.226 43.6183 104.175 43.6256 104.172C43.6329 104.168 43.7534 104.351 44.0125 104.639C44.3774 105.047 44.8172 105.382 45.3081 105.624C45.6356 105.8 45.9986 105.9 46.3701 105.916C46.5703 105.918 46.7672 105.865 46.9394 105.763C47.1162 105.644 47.2655 105.488 47.3774 105.307C47.6219 104.942 47.7642 104.46 48.0014 104.004C48.1201 103.762 48.2835 103.546 48.4832 103.365C48.7016 103.185 48.9656 103.069 49.2459 103.029C49.8007 102.949 50.3408 103.048 50.8007 102.949C51.2605 102.856 51.6807 102.624 52.005 102.285C52.3043 101.977 52.5247 101.601 52.6473 101.19C52.7526 100.835 52.7861 100.463 52.7459 100.095C52.6815 99.5516 52.497 99.0293 52.2057 98.5659C51.9831 98.2083 51.8298 98.0514 51.8444 98.0404Z" fill="#F5F5F5"/>
<path d="M52.4942 106.405C52.5952 106.352 52.7086 106.327 52.8226 106.332C53.1375 106.331 53.4439 106.434 53.6949 106.624C53.8712 106.754 54.0149 106.922 54.1146 107.117C54.2294 107.342 54.2739 107.596 54.2423 107.847C54.2188 108.141 54.1041 108.421 53.9141 108.647C53.7241 108.873 53.4683 109.035 53.1823 109.108C52.8964 109.182 52.5945 109.165 52.3187 109.059C52.0429 108.954 51.807 108.765 51.6438 108.518C51.4929 108.312 51.4065 108.066 51.3956 107.81C51.3891 107.59 51.4341 107.371 51.527 107.172C51.652 106.883 51.8706 106.645 52.1474 106.496C52.2444 106.437 52.3549 106.403 52.4686 106.398C52.4686 106.416 52.3591 106.449 52.1876 106.562C51.9443 106.724 51.7559 106.955 51.6475 107.226C51.5646 107.419 51.5335 107.631 51.5572 107.839C51.5809 108.048 51.6585 108.247 51.7825 108.416C51.9279 108.63 52.1359 108.794 52.3779 108.885C52.6199 108.976 52.8842 108.99 53.1346 108.926C53.3851 108.861 53.6094 108.72 53.7769 108.523C53.9445 108.326 54.0471 108.082 54.0708 107.825C54.0953 107.618 54.0658 107.409 53.9852 107.217C53.9046 107.025 53.7756 106.857 53.6109 106.73C53.3849 106.546 53.1091 106.435 52.819 106.409C52.6146 106.394 52.4978 106.42 52.4942 106.405Z" fill="#F5F5F5"/>
<path d="M66.0304 102.726C65.8862 102.827 65.7321 102.913 65.5705 102.982C65.1441 103.199 64.6996 103.378 64.2421 103.518C63.5479 103.734 62.8049 103.734 62.1107 103.518C61.6955 103.386 61.3252 103.141 61.0414 102.81C60.7531 102.464 60.5743 102.04 60.2932 101.716C60.1636 101.551 59.9921 101.425 59.7969 101.351C59.6004 101.287 59.3924 101.267 59.1874 101.292C58.7721 101.376 58.3471 101.402 57.9247 101.369C57.5613 101.309 57.2198 101.156 56.9337 100.925C56.6476 100.693 56.4269 100.391 56.2933 100.048C56.1246 99.5845 56.1246 99.0766 56.2933 98.6134C56.338 98.4856 56.3968 98.3632 56.4685 98.2484C56.5196 98.1754 56.5488 98.1389 56.5561 98.1426C56.4833 98.2997 56.4187 98.4605 56.3627 98.6243C56.2324 99.0725 56.2543 99.5512 56.4247 99.9856C56.5578 100.299 56.7688 100.573 57.0377 100.782C57.3067 100.991 57.6245 101.128 57.9612 101.179C58.3696 101.208 58.78 101.178 59.1801 101.091C59.4135 101.063 59.6505 101.086 59.8735 101.161C60.1015 101.251 60.3008 101.401 60.4502 101.595C60.7531 101.96 60.9283 102.387 61.1801 102.708C61.441 103.013 61.7806 103.24 62.1618 103.365C62.823 103.576 63.532 103.585 64.1983 103.391C64.6537 103.264 65.1 103.107 65.534 102.92C65.6936 102.841 65.8596 102.776 66.0304 102.726Z" fill="#F5F5F5"/>
<path d="M63.3845 117.449C63.3783 117.468 63.3697 117.487 63.3589 117.504C63.337 117.536 63.3078 117.588 63.264 117.65C63.1304 117.828 62.9718 117.987 62.7932 118.12C62.5074 118.336 62.1789 118.487 61.8298 118.566C61.3636 118.664 60.8789 118.623 60.4356 118.449C59.8945 118.239 59.4395 117.853 59.1437 117.354C58.8152 116.85 58.5597 116.215 58.0014 115.894C57.6974 115.745 57.3705 115.647 57.0342 115.606C56.6566 115.558 56.3001 115.405 56.005 115.164C55.7061 114.895 55.497 114.541 55.4063 114.149C55.3155 113.758 55.3475 113.347 55.4978 112.975C55.6768 112.609 55.9409 112.291 56.2678 112.048C56.5744 111.81 56.8955 111.61 57.1693 111.376C57.4474 111.166 57.662 110.883 57.7897 110.558C57.8803 110.236 57.9002 109.897 57.8481 109.566C57.7978 109.236 57.7673 108.903 57.7568 108.569C57.7529 108.239 57.8441 107.915 58.0196 107.635C58.1879 107.397 58.4052 107.197 58.657 107.05C58.9088 106.903 59.1893 106.811 59.4794 106.781C59.9544 106.729 60.434 106.822 60.8553 107.048C61.1706 107.209 61.4598 107.417 61.713 107.664C61.872 107.818 62.0184 107.984 62.1509 108.161C62.2005 108.221 62.2445 108.286 62.2823 108.354C62.2823 108.354 62.0852 108.102 61.6619 107.719C61.4059 107.487 61.1184 107.293 60.8079 107.142C60.4033 106.939 59.9472 106.86 59.4977 106.916C59.2286 106.947 58.9692 107.034 58.7369 107.173C58.5045 107.313 58.3048 107.5 58.151 107.723C57.9952 107.977 57.9166 108.271 57.9247 108.569C57.9396 108.897 57.9713 109.223 58.0196 109.548C58.0798 109.904 58.0598 110.269 57.9612 110.617C57.8253 110.974 57.5928 111.286 57.2897 111.518C57.0014 111.763 56.6802 111.964 56.3846 112.197C56.0786 112.411 55.8283 112.695 55.6547 113.026C55.5176 113.362 55.4878 113.733 55.5695 114.087C55.6511 114.441 55.8402 114.761 56.1109 115.004C56.6328 115.5 57.443 115.369 58.0707 115.734C58.3616 115.918 58.6053 116.168 58.7824 116.463C58.9575 116.737 59.1035 117.015 59.2605 117.27C59.5335 117.747 59.9572 118.119 60.4648 118.328C60.884 118.501 61.3443 118.548 61.7896 118.463C62.1277 118.398 62.4484 118.262 62.7312 118.066C62.9755 117.89 63.1952 117.683 63.3845 117.449Z" fill="#F5F5F5"/>
<path d="M54.7495 121.865C54.8448 121.762 54.9115 121.636 54.9429 121.5C54.9579 121.304 54.9278 121.107 54.8551 120.924C54.7824 120.741 54.6688 120.577 54.5232 120.445C54.3224 120.239 54.1483 120.009 54.005 119.759C53.86 119.453 53.8007 119.114 53.8334 118.777C53.8699 118.077 54.1984 117.365 54.1144 116.606C54.1064 116.428 54.0602 116.253 53.979 116.095C53.8978 115.936 53.7834 115.797 53.6436 115.686C53.3587 115.503 53.0215 115.418 52.6838 115.445C52.0269 115.478 51.4357 115.723 50.9065 115.73C50.6961 115.747 50.4845 115.722 50.284 115.656C50.0834 115.59 49.898 115.485 49.7386 115.347C49.6557 115.269 49.5887 115.176 49.5415 115.073C49.5087 115 49.5014 114.96 49.5087 114.96C49.5884 115.082 49.6828 115.193 49.7897 115.292C50.1026 115.529 50.4943 115.637 50.8846 115.595C51.3882 115.573 51.9575 115.321 52.6619 115.27C53.0466 115.232 53.4328 115.326 53.7568 115.536C53.9182 115.662 54.0508 115.821 54.1458 116.002C54.2409 116.184 54.2961 116.383 54.3079 116.588C54.3845 117.416 54.0488 118.131 54.0123 118.777C53.9772 119.085 54.0251 119.396 54.1509 119.679C54.2839 119.919 54.4443 120.143 54.629 120.347C54.7893 120.527 54.9133 120.736 54.994 120.963C55.0497 121.138 55.0597 121.324 55.0232 121.504C54.9356 121.803 54.7422 121.872 54.7495 121.865Z" fill="#F5F5F5"/>
<path d="M47.1219 123.66C46.757 124.208 32.4069 178.265 32.4069 178.265L37.4725 179.864L56.8152 128.471L47.1219 123.66Z" fill="#FFBE9D"/>
<path d="M55.8627 127.985L66.5194 179.418L72.3806 179.652L65.6545 125.263L55.8627 127.985Z" fill="#FFBE9D"/>
<path d="M47.392 121.744L36.7681 159.667L44.6073 162.911L55.8662 131.025L62.6836 164.2L70.9061 162.579L65.304 122.343L64.5376 122.241C64.0723 122.181 63.6 122.206 63.1435 122.314L62.6325 122.438C62.0521 122.578 61.4466 122.578 60.8662 122.438L60.5012 122.35C59.9608 122.223 59.3989 122.215 58.8552 122.328L57.9465 122.514C57.277 122.655 56.5819 122.611 55.9356 122.387L55.0305 122.076C54.4186 121.865 53.7628 121.814 53.1254 121.927L52.2678 122.08C51.7914 122.164 51.3034 122.157 50.8298 122.058L49.37 121.759C48.7694 121.634 48.1511 121.619 47.5452 121.715L47.392 121.744Z" fill="#263238"/>
<path d="M61.7165 128.956C61.5614 129.019 61.3998 129.064 61.2347 129.091C60.9209 129.164 60.4647 129.259 59.9027 129.372C58.7749 129.598 57.2129 129.876 55.4757 130.124C53.7385 130.372 52.1619 130.547 51.016 130.646C50.443 130.697 49.9795 130.733 49.6583 130.748C49.4921 130.766 49.3245 130.766 49.1583 130.748C49.3199 130.707 49.4848 130.68 49.651 130.668L51.0014 130.507C52.1437 130.372 53.7166 130.179 55.4502 129.93C57.1837 129.682 58.7348 129.423 59.8771 129.233L61.2201 129.011C61.3837 128.978 61.5497 128.96 61.7165 128.956Z" fill="#455A64"/>
<path d="M72.731 179.641L72.7055 179.028L66.5012 179.207L66.5523 181.221H66.9355C68.6399 181.261 75.6032 181.324 76.7273 180.973C78.001 180.594 72.731 179.641 72.731 179.641Z" fill="#D9A273"/>
<g opacity="0.6">
<path d="M68.8004 181.119C68.6899 180.628 68.3946 180.198 67.9756 179.918C67.5474 179.628 67.0302 179.499 66.5157 179.553L66.5632 181.156L68.8004 181.119Z" fill="white"/>
</g>
<g opacity="0.6">
<path d="M75.3076 180.192C75.3076 180.192 77.1579 180.634 76.939 180.922C76.72 181.21 69.68 181.393 66.5669 181.221V181.094L74.7784 180.944C74.7784 180.944 74.9499 180.214 75.3076 180.192Z" fill="white"/>
</g>
<path d="M66.4792 181.094C66.5144 181.097 66.5499 181.097 66.5851 181.094H66.888H68.0084C68.9573 181.094 70.2675 181.094 71.7091 181.057C73.1507 181.021 74.4645 180.959 75.4097 180.904L76.5265 180.831L76.8331 180.805C76.8671 180.808 76.9012 180.808 76.9353 180.805H76.8294H76.5265L75.4061 180.856C74.4609 180.897 73.1543 180.951 71.7091 180.988C70.2638 181.024 68.9573 181.039 68.0084 181.043H66.888H66.5851L66.4792 181.094Z" fill="#263238"/>
<path d="M74.7856 181.024C74.8298 180.85 74.8948 180.683 74.9791 180.524C75.0826 180.373 75.2052 180.235 75.344 180.116C75.1588 180.179 75.0039 180.309 74.9097 180.48C74.798 180.638 74.7534 180.834 74.7856 181.024Z" fill="#263238"/>
<path d="M72.9426 180.221C72.9426 180.221 73.0412 180.134 73.1288 179.999C73.2164 179.864 73.2711 179.747 73.2529 179.736C73.2346 179.725 73.1507 179.827 73.0631 179.962C72.9755 180.097 72.9244 180.214 72.9426 180.221Z" fill="#263238"/>
<path d="M72.4353 179.991C72.4353 179.991 72.5448 179.94 72.647 179.849C72.7492 179.758 72.8222 179.674 72.8112 179.659C72.8003 179.645 72.6981 179.707 72.5959 179.802C72.4937 179.897 72.4207 179.977 72.4353 179.991Z" fill="#263238"/>
<path d="M72.1033 179.459C72.2071 179.491 72.3165 179.501 72.4244 179.488C72.5331 179.496 72.6424 179.483 72.7456 179.448C72.6418 179.415 72.5323 179.405 72.4244 179.419C72.3158 179.41 72.2065 179.424 72.1033 179.459Z" fill="#263238"/>
<path d="M71.9828 179.079C72.2125 179.185 72.4744 179.196 72.7127 179.112C72.5913 179.101 72.4691 179.101 72.3477 179.112C72.2271 179.092 72.1051 179.081 71.9828 179.079Z" fill="#263238"/>
<path d="M73.136 179.718C73.2664 179.74 73.3997 179.74 73.5301 179.718C73.6726 179.699 73.8131 179.667 73.9498 179.623C74.0317 179.597 74.1111 179.564 74.1871 179.524C74.21 179.512 74.2303 179.496 74.2466 179.476C74.2629 179.456 74.2749 179.432 74.282 179.407C74.2873 179.38 74.2842 179.351 74.2732 179.325C74.2621 179.299 74.2436 179.277 74.2199 179.262C74.0676 179.194 73.8973 179.179 73.7356 179.219C73.5739 179.259 73.4299 179.351 73.3258 179.48C73.2676 179.555 73.2265 179.641 73.2053 179.732C73.1967 179.765 73.1967 179.799 73.2053 179.831C73.2424 179.715 73.3006 179.608 73.3769 179.513C73.4636 179.41 73.5792 179.335 73.709 179.298C73.8605 179.24 74.0282 179.24 74.1798 179.298C74.2455 179.338 74.2236 179.407 74.1542 179.448C74.0851 179.488 74.0116 179.519 73.9352 179.543C73.8029 179.588 73.6676 179.625 73.5301 179.652C73.2856 179.703 73.136 179.707 73.136 179.718Z" fill="#263238"/>
<path d="M73.2383 179.732C73.2615 179.695 73.2767 179.652 73.283 179.608C73.2893 179.564 73.2865 179.52 73.2748 179.477C73.2597 179.379 73.2195 179.288 73.158 179.21C73.122 179.155 73.0727 179.11 73.0147 179.079C72.9567 179.047 72.8918 179.031 72.8259 179.032C72.8067 179.035 72.7883 179.042 72.7719 179.052C72.7554 179.062 72.7413 179.076 72.7304 179.092C72.7194 179.108 72.7119 179.126 72.7082 179.145C72.7046 179.165 72.7049 179.184 72.7091 179.203C72.7183 179.263 72.7421 179.319 72.7784 179.367C72.8335 179.448 72.8985 179.522 72.9719 179.586C73.037 179.652 73.1172 179.701 73.2054 179.729C73.2054 179.729 73.1251 179.663 73.012 179.55C72.9457 179.485 72.887 179.413 72.8368 179.335C72.7821 179.258 72.7419 179.119 72.8368 179.101C72.9317 179.083 73.0375 179.178 73.0996 179.247C73.1567 179.316 73.1978 179.397 73.22 179.484C73.2343 179.566 73.2404 179.649 73.2383 179.732Z" fill="#263238"/>
<path d="M66.5559 179.521C66.5559 179.521 66.7311 179.502 67.0121 179.521C67.3726 179.553 67.7185 179.679 68.0157 179.886C68.3017 180.086 68.5255 180.363 68.6617 180.685C68.7639 180.929 68.7785 181.094 68.7931 181.094C68.7986 181.055 68.7986 181.016 68.7931 180.977C68.7768 180.873 68.7512 180.77 68.7165 180.67C68.5887 180.331 68.3609 180.038 68.0632 179.831C67.7552 179.619 67.3932 179.498 67.0194 179.484C66.9059 179.477 66.792 179.483 66.68 179.502C66.6379 179.502 66.5961 179.508 66.5559 179.521Z" fill="#263238"/>
<path d="M69.5596 180.539C70.1582 180.628 70.7674 180.617 71.3625 180.506C71.3625 180.488 70.9574 180.506 70.461 180.528C69.9647 180.55 69.5632 180.517 69.5596 180.539Z" fill="#263238"/>
<path d="M68.3516 180.568C68.3516 180.568 68.3881 180.648 68.4319 180.732C68.4756 180.816 68.5012 180.893 68.5194 180.889C68.5377 180.886 68.5486 180.798 68.4975 180.703C68.4464 180.608 68.3662 180.553 68.3516 180.568Z" fill="#263238"/>
<path d="M67.8807 180.054C67.8807 180.054 67.9099 180.127 67.9756 180.185C68.0413 180.243 68.1034 180.28 68.118 180.265C68.1326 180.251 68.0924 180.192 68.0267 180.134C67.961 180.075 67.8953 180.039 67.8807 180.054Z" fill="#263238"/>
<path d="M67.2237 179.831C67.2237 179.831 67.3076 179.831 67.3989 179.875C67.4901 179.918 67.5594 179.944 67.574 179.933C67.5886 179.922 67.5376 179.842 67.4208 179.809C67.304 179.776 67.2164 179.813 67.2237 179.831Z" fill="#263238"/>
<path d="M66.7566 179.729C66.7566 179.747 66.7858 179.776 66.8369 179.794C66.888 179.813 66.9354 179.794 66.9427 179.794C66.95 179.794 66.9135 179.747 66.8624 179.732C66.8113 179.718 66.7602 179.71 66.7566 179.729Z" fill="#263238"/>
<path d="M32.447 177.152L31.531 181.185H37.7243L37.9907 178.561L32.447 177.152Z" fill="#D9A273"/>
<path d="M37.8375 180.597C37.539 180.651 37.2354 180.67 36.9324 180.656C36.374 180.656 35.604 180.656 34.7427 180.619L32.5529 180.524C32.2517 180.529 31.9508 180.502 31.6552 180.444C31.9527 180.393 32.255 180.374 32.5566 180.389C33.115 180.389 33.885 180.389 34.7463 180.429L36.9178 180.524C37.226 180.519 37.534 180.544 37.8375 180.597Z" fill="#263238"/>
<path d="M35.228 177.937C35.2895 178.37 35.2895 178.81 35.228 179.243C35.2273 179.682 35.1659 180.118 35.0455 180.539C34.9796 180.106 34.9796 179.665 35.0455 179.232C35.0419 178.794 35.1034 178.357 35.228 177.937Z" fill="#263238"/>
<path opacity="0.6" d="M31.531 181.185H37.7243L37.7827 180.597L31.6441 180.448L31.531 181.116" fill="white"/>
<defs>
<filter id="filter0_f_103_141" x="18" y="172.361" width="106" height="17" filterUnits="userSpaceOnUse" color-interpolation-filters="sRGB">
<feFlood flood-opacity="0" result="BackgroundImageFix"/>
<feBlend mode="normal" in="SourceGraphic" in2="BackgroundImageFix" result="shape"/>
<feGaussianBlur stdDeviation="2" result="effect1_foregroundBlur_103_141"/>
</filter>
</defs>
</svg>
