<svg width="182" height="168" viewBox="0 0 182 168" fill="none" xmlns="http://www.w3.org/2000/svg">
<g filter="url(#filter0_f_374_18642)">
<ellipse cx="96" cy="150.5" rx="33" ry="3.5" fill="#BF8665" fill-opacity="0.3"/>
</g>
<path d="M122.71 52.5457L56.7792 34.8133C56.1322 34.6393 55.4662 35.0231 55.2916 35.6706L55.1975 36.0195C55.0229 36.6669 55.4059 37.3328 56.0528 37.5068L121.984 55.2391C122.631 55.4131 123.297 55.0293 123.471 54.3819L123.566 54.033C123.74 53.3855 123.357 52.7196 122.71 52.5457Z" fill="white"/>
<path d="M56.0389 36.9636C55.6861 36.8688 55.5013 36.4126 55.6271 35.9468C55.753 35.4811 56.1416 35.1795 56.4944 35.2743L122.73 53.0828C123.083 53.1776 123.268 53.6339 123.142 54.0996C123.016 54.5653 122.627 54.8669 122.274 54.7721L56.0389 36.9636Z" fill="url(#paint0_linear_374_18642)"/>
<path d="M78.2734 92.1183C77.5915 89.3734 74.3201 87.139 67.7768 82.6684C61.5376 78.4067 58.6576 77.8592 56.4394 73.9564C54.3632 70.3042 54.5196 66.6196 54.5887 65.3521C54.5887 65.3521 54.6351 64.5004 54.9737 63.1166C54.0273 65.7289 53.9289 67.5243 53.9289 67.5243C53.8599 68.7927 53.7034 72.4764 55.7798 76.1294C57.9985 80.0326 60.878 80.5797 67.1172 84.8414C73.6599 89.3116 76.9319 91.5464 77.6136 94.2904C77.7733 94.9351 77.8124 95.5556 77.7509 96.1594C78.3838 94.8912 78.6325 93.5622 78.274 92.1186L78.2734 92.1183ZM105.478 118.54C106.846 115.38 103.124 111.089 99.8706 109.318C99.0428 108.868 95.4581 106.916 92.0167 108.582C91.54 108.813 89.4404 109.829 88.8401 111.882C88.7363 112.237 88.6833 112.602 88.6768 112.973C89.5353 111.637 90.9727 110.941 91.3565 110.755C94.7984 109.089 98.3826 111.04 99.2104 111.491C101.965 112.991 105.057 116.297 105.107 119.194C105.253 118.99 105.378 118.772 105.478 118.54ZM143.121 119.27C144.349 117.058 145.266 114.741 145.897 112.35C145.337 113.977 144.634 115.563 143.782 117.097C134.201 134.355 110.804 135.907 108.73 136.014C87.4452 137.116 65.6492 123.114 66.0501 112.254C66.0622 111.921 66.0958 111.595 66.1475 111.274C65.7063 112.264 65.4316 113.31 65.3903 114.426C64.9894 125.286 86.785 139.289 108.07 138.186C110.144 138.079 133.541 136.527 143.121 119.27Z" fill="#B5815B"/>
<path d="M143.782 117.098C144.634 115.563 145.337 113.977 145.897 112.351C151.434 91.3896 135.092 64.7317 114.975 53.4579C94.8753 42.1936 69.0335 45.4704 60.3084 54.6113C57.4272 57.6291 55.8427 60.7179 54.9729 63.1172C54.6343 64.5009 54.5879 65.3527 54.5879 65.3527C54.5187 66.6202 54.3619 70.3045 56.4386 73.957C58.6574 77.8602 61.5368 78.4073 67.776 82.669C74.3187 87.1392 77.5907 89.3739 78.2726 92.1188C78.6313 93.5634 78.3824 94.8915 77.7495 96.1596C77.2013 101.492 68.7575 105.418 66.147 111.274C66.0948 111.594 66.0621 111.921 66.0497 112.254C65.6488 123.114 87.4443 137.117 108.73 136.014C110.803 135.907 134.201 134.355 143.781 117.097L143.782 117.098ZM95.7376 121.033C92.0117 119.868 88.6146 116.195 88.676 112.973C88.6825 112.603 88.7355 112.237 88.8392 111.883C89.4396 109.829 91.5392 108.814 92.0159 108.583C95.4578 106.917 99.042 108.868 99.8697 109.319C103.123 111.09 106.846 115.381 105.477 118.54C105.377 118.773 105.252 118.99 105.106 119.194C103.422 121.55 98.903 122.024 95.737 121.032L95.7376 121.033Z" fill="#D9A273"/>
<g style="mix-blend-mode:soft-light" opacity="0.8">
<path d="M143.782 117.098C144.634 115.563 145.337 113.977 145.897 112.351C151.434 91.3896 135.092 64.7317 114.975 53.4579C94.8753 42.1936 69.0335 45.4704 60.3084 54.6113C57.4272 57.6291 55.8427 60.7179 54.9729 63.1172C54.6343 64.5009 54.5879 65.3527 54.5879 65.3527C54.5187 66.6202 54.3619 70.3045 56.4386 73.957C58.6574 77.8602 61.5368 78.4073 67.776 82.669C74.3187 87.1392 77.5907 89.3739 78.2726 92.1188C78.6313 93.5634 78.3824 94.8915 77.7495 96.1596C77.2013 101.492 68.7575 105.418 66.147 111.274C66.0948 111.594 66.0621 111.921 66.0497 112.254C65.6488 123.114 87.4443 137.117 108.73 136.014C110.803 135.907 134.201 134.355 143.781 117.097L143.782 117.098ZM95.7376 121.033C92.0117 119.868 88.6146 116.195 88.676 112.973C88.6825 112.603 88.7355 112.237 88.8392 111.883C89.4396 109.829 91.5392 108.814 92.0159 108.583C95.4578 106.917 99.042 108.868 99.8697 109.319C103.123 111.09 106.846 115.381 105.477 118.54C105.377 118.773 105.252 118.99 105.106 119.194C103.422 121.55 98.903 122.024 95.737 121.032L95.7376 121.033Z" fill="white"/>
</g>
<g opacity="0.8">
<path opacity="0.8" d="M79.5531 52.3607C77.4772 52.8055 75.7182 54.2107 74.3327 55.8111C73.4509 56.8255 72.6496 57.9805 72.4075 59.3011C72.165 60.6224 72.6012 62.1465 73.7407 62.8612C74.0474 63.0134 74.3347 63.2022 74.5966 63.4223C74.8795 63.717 74.9937 64.1456 75.2621 64.4584C75.6303 64.8719 76.2573 65.0361 76.5226 65.5253C76.6109 65.7503 76.6505 65.992 76.6388 66.2339C76.627 66.4757 76.564 66.7123 76.4538 66.9272C76.2301 67.3566 76.1093 67.8324 76.0992 68.3163C76.1473 68.7985 76.6174 69.2735 77.0742 69.1145C77.5766 68.0326 78.0825 66.9518 78.585 65.8704C78.8383 65.3286 79.2355 64.6982 79.8256 64.7622C79.5672 65.4522 79.2973 66.1729 79.0347 66.8765C79.0709 66.9368 79.1192 66.9888 79.1761 67.0295C79.2337 67.0701 79.2984 67.0982 79.3678 67.1126C79.4358 67.1266 79.5078 67.1264 79.5762 67.111C79.644 67.0957 79.7099 67.0668 79.7654 67.025C79.9835 66.8521 80.1476 66.6198 80.2392 66.3571C80.4584 65.7272 80.7756 65.1196 81.0185 64.4967C81.2492 63.9068 81.5112 63.3369 81.6713 62.7222C81.6784 62.6958 81.6848 62.6663 81.6724 62.6418C81.6604 62.6192 81.6355 62.6071 81.6119 62.5973C81.4609 62.5313 81.31 62.4653 81.159 62.3994C81.136 62.3894 81.1111 62.3773 81.1006 62.355C81.0901 62.3335 81.0957 62.3088 81.1015 62.2854C81.1997 61.9036 81.4048 61.5535 81.5417 61.186C81.6646 60.8552 82.0382 61.0223 82.2982 61.0813C82.5152 61.1304 82.7199 61.2151 82.9267 61.2946C82.9465 61.302 82.9675 61.3117 82.9748 61.3314C82.9804 61.3468 82.9751 61.364 82.9695 61.38C82.7786 61.9205 82.5783 62.4552 82.4478 63.0142C82.4135 63.1605 82.1495 64.8068 82.1954 64.8066C83.0247 64.807 83.4453 63.8285 83.649 63.0192C83.8054 62.3973 83.9648 61.7768 84.1241 61.1556C84.1982 60.867 84.2665 60.5765 84.3385 60.287C84.4121 59.9906 84.4481 59.6535 84.5929 59.3817C84.9336 59.5512 85.484 59.268 85.7195 59.0049C86.1072 58.6825 86.3023 57.4458 86.3669 56.9665C86.4855 56.0396 86.4903 55.2271 85.9381 54.4456C84.7559 52.7084 81.4188 51.9642 79.5532 52.3614L79.5531 52.3607Z" fill="white"/>
<g opacity="0.8">
<path opacity="0.8" d="M71.1064 54.7499C71.0073 54.7258 70.9045 54.7227 70.8046 54.7402C70.704 54.7579 70.609 54.7963 70.5243 54.8529C70.4396 54.9096 70.3676 54.9833 70.313 55.069C70.2578 55.1548 70.2219 55.2514 70.2062 55.3519C70.201 55.4546 70.2167 55.5578 70.2514 55.6545C70.2862 55.7511 70.3404 55.8399 70.4103 55.9156C70.4802 55.9913 70.5645 56.0522 70.658 56.095C70.7514 56.1378 70.853 56.1613 70.9558 56.1644C71.142 56.156 71.3201 56.088 71.4636 55.9694C71.6071 55.8508 71.7083 55.6887 71.7517 55.5076C71.7873 55.3242 71.7714 55.135 71.7055 54.9601C71.6397 54.7853 71.5263 54.6324 71.3787 54.5182C71.2622 54.4314 70.9993 54.482 71.0835 54.6044L71.1073 54.751L71.1064 54.7499Z" fill="white"/>
</g>
<g opacity="0.8">
<path opacity="0.8" d="M72.9231 64.2497C72.865 64.2354 72.8052 64.2334 72.7469 64.2438C72.6873 64.2539 72.632 64.2769 72.5824 64.3099C72.5328 64.343 72.4911 64.3869 72.4596 64.437C72.4274 64.4873 72.4074 64.5441 72.398 64.6031C72.3956 64.6638 72.405 64.7237 72.425 64.7804C72.4457 64.837 72.4773 64.889 72.5184 64.9334C72.5588 64.9773 72.6079 65.0132 72.6632 65.0382C72.7184 65.0633 72.777 65.0769 72.8374 65.0787C72.9466 65.075 73.0519 65.0348 73.1351 64.9658C73.2195 64.8965 73.2784 64.8012 73.3035 64.6951C73.3254 64.5871 73.3171 64.4755 73.2788 64.3723C73.2399 64.2693 73.1721 64.1798 73.0845 64.1136C73.0173 64.0606 72.8638 64.0941 72.912 64.1629L72.9231 64.2497Z" fill="white"/>
</g>
</g>
<g opacity="0.5">
<path d="M101.694 66.9115C100.966 66.9569 100.556 66.7244 100.285 66.1246C100.051 65.604 99.6274 65.4026 99.094 65.3778C98.9921 65.373 98.8767 65.4083 98.7867 65.459C98.5725 65.5797 98.5323 65.7471 98.6448 65.9671C98.7194 66.1128 98.8 66.256 98.8849 66.4129C98.6624 66.4631 98.4931 66.4109 98.3495 66.2819C98.252 66.1944 98.1664 66.0934 98.0749 65.9983C97.9153 65.8324 97.726 65.7442 97.472 65.7793C97.4481 65.9722 97.4241 66.1681 97.4003 66.3596C96.968 66.4498 96.7686 66.3081 96.7492 65.8875C96.738 65.6422 96.7703 65.3951 96.7614 65.1503C96.7477 64.7907 96.4431 64.5568 96.0977 64.6595C95.8943 64.72 95.7039 64.8372 95.5206 64.9492C95.2919 65.0893 95.0805 65.2574 94.8528 65.3998C94.7021 65.4941 94.5354 65.5599 94.2986 65.4977C94.3479 65.359 94.3652 65.2026 94.4482 65.0977C94.595 64.9114 94.7669 64.7379 94.9551 64.5936C95.2354 64.3779 95.5453 64.1998 95.8304 63.9892C95.9995 63.8647 96.1669 63.7262 96.2959 63.5628C96.5809 63.2029 96.4259 62.7809 95.9776 62.6849C95.75 62.6365 95.5127 62.6373 95.2799 62.6101C94.9686 62.5733 94.6497 62.5622 94.3492 62.4836C93.9572 62.3811 93.8292 62.1527 93.8637 61.7534C93.9085 61.235 93.8393 61.1124 93.3692 60.9051C92.9723 60.73 92.5689 60.5695 92.1758 60.3865C91.6827 60.1578 91.7348 60.0327 92.0658 59.7361C92.3021 59.5246 92.5864 59.3663 92.8552 59.1941C93.1891 58.9807 93.4796 58.739 93.6095 58.3408C93.7274 57.9799 93.6742 57.6606 93.4185 57.3853C93.2511 57.2057 93.06 57.0486 92.8888 56.8719C92.7079 56.6852 92.5931 56.4683 92.6397 56.1709C92.8078 56.1742 92.9715 56.1808 93.1354 56.181C93.547 56.1817 93.959 56.195 94.3691 56.1718C94.5517 56.1613 94.74 56.0965 94.9081 56.0189C95.1936 55.8869 95.3426 55.6567 95.3631 55.3287C95.3811 55.0403 95.4585 54.7561 95.485 54.4678C95.5059 54.2374 95.496 54.0036 95.4888 53.7714C95.483 53.5781 95.4519 53.3848 95.4555 53.1919C95.4564 53.1316 95.5217 53.0468 95.5797 53.0171C96.2071 52.6994 96.8154 52.9992 96.8974 53.6958C96.9811 54.4051 97.4254 54.7738 98.0317 55.0027C98.8532 55.3132 99.7106 55.3139 100.61 55.2639C100.599 54.977 100.589 54.7006 100.578 54.4236C100.562 54.0295 100.547 53.6354 100.529 53.2414C100.522 53.0818 100.604 53.0482 100.744 53.0703C100.996 53.1096 101.132 53.2751 101.171 53.504C101.218 53.7788 101.225 54.0608 101.253 54.3395C101.271 54.5214 101.283 54.7047 101.32 54.8832C101.347 55.021 101.421 55.1395 101.585 55.1679C101.633 55.0839 101.664 54.9803 101.733 54.924C101.804 54.8666 101.922 54.8155 102 54.8356C102.065 54.8518 102.128 54.9713 102.144 55.0552C102.174 55.1986 102.126 55.3675 102.184 55.4928C102.28 55.7014 102.412 55.9021 102.566 56.0724C102.765 56.2912 103.023 56.3505 103.319 56.258C103.638 56.1578 103.642 56.1683 103.832 56.4474C103.956 56.6283 104.202 56.6949 104.448 56.6228C104.595 56.5801 104.744 56.533 104.895 56.5188C105.06 56.5039 105.105 56.5613 105.04 56.712C104.951 56.921 104.834 57.1179 104.723 57.3176C104.606 57.5273 104.471 57.727 104.366 57.9418C104.312 58.0508 104.287 58.1828 104.283 58.3051C104.273 58.5568 104.479 58.7598 104.729 58.7419C104.927 58.7279 105.124 58.6834 105.32 58.6477C105.927 58.5384 106.533 58.4261 107.139 58.317C107.195 58.3072 107.254 58.3111 107.31 58.3122C107.424 58.3143 107.554 58.3307 107.569 58.4583C107.58 58.5508 107.542 58.6833 107.477 58.7443C107.336 58.8751 107.175 58.9922 107.002 59.0765C106.618 59.2651 106.221 59.4291 105.83 59.605C105.742 59.6445 105.652 59.6827 105.568 59.7322C105.306 59.8888 105.212 60.1258 105.324 60.4026C105.477 60.7837 105.457 61.148 105.279 61.5142C105.212 61.652 105.171 61.8026 105.117 61.9471C105.078 62.0498 105.119 62.1186 105.214 62.1474C105.344 62.1875 105.478 62.2179 105.612 62.2454C105.802 62.2847 105.996 62.3083 106.183 62.3587C106.33 62.398 106.407 62.5062 106.393 62.6698C106.379 62.8291 106.292 62.927 106.142 62.9549C106.025 62.9767 105.904 62.9815 105.785 62.976C105.584 62.9663 105.385 62.9485 105.186 62.9234C104.939 62.8917 104.763 62.9906 104.646 63.202C104.377 63.6863 104.193 64.199 104.127 64.7523C104.12 64.8138 104.056 64.8918 103.998 64.9194C103.757 65.0336 103.501 64.9891 103.256 64.9368C103.071 64.8973 102.963 64.9395 102.906 65.1196C102.887 65.1789 102.86 65.2408 102.819 65.2857C102.781 65.3284 102.721 65.3746 102.668 65.3773C102.538 65.3844 102.406 65.3673 102.274 65.3595C101.991 65.3421 101.774 65.4527 101.628 65.6977C101.57 65.7958 101.514 65.8962 101.463 65.9978C101.362 66.1958 101.375 66.3727 101.53 66.5514C101.607 66.6405 101.632 66.7745 101.691 66.9133L101.694 66.9115Z" fill="#BD8C65"/>
<path d="M91.3156 61.9056C90.8544 61.8361 90.4823 61.6514 90.2102 61.2977C89.9603 60.9722 90.0578 60.7008 90.4495 60.5824C90.7362 60.4957 91.0025 60.5392 91.2568 60.6876C91.5131 60.8374 91.7347 61.024 91.8816 61.2861C92.0564 61.5985 91.9496 61.8238 91.5982 61.8833C91.4977 61.9004 91.3938 61.8992 91.3154 61.905L91.3156 61.9056Z" fill="#BD8C65"/>
<path d="M92.9349 63.8822C92.8994 64.3855 92.6046 64.5424 92.2214 64.3208C91.9706 64.1758 91.8267 63.9716 91.888 63.6723C91.9219 63.5069 91.961 63.3351 92.0388 63.1873C92.1773 62.925 92.4875 62.9017 92.6799 63.1279C92.878 63.361 92.9424 63.6411 92.9353 63.8813L92.9349 63.8822Z" fill="#BD8C65"/>
<path d="M101.419 52.1004C101.406 52.1281 101.388 52.2462 101.336 52.2636C101.257 52.2898 101.133 52.2752 101.067 52.226C100.714 51.9624 100.504 51.5998 100.415 51.1719C100.378 50.9925 100.52 50.8291 100.734 50.7649C100.951 50.7001 101.135 50.7597 101.218 50.9383C101.381 51.2881 101.408 51.6647 101.419 52.1001L101.419 52.1004Z" fill="#BD8C65"/>
<path d="M105.942 54.7384C106.241 55.0333 106.348 55.6193 106.184 55.9707C106.068 56.2164 105.846 56.3283 105.634 56.2478C105.346 56.1387 105.217 55.8994 105.307 55.6246C105.425 55.266 105.673 55.0018 105.942 54.7387L105.942 54.7384Z" fill="#BD8C65"/>
<path d="M94.1256 66.4304C94.0305 66.6212 93.9559 66.8275 93.835 67.0002C93.6835 67.2159 93.3764 67.2281 93.1817 67.0591C92.9958 66.8977 92.9651 66.619 93.1484 66.4324C93.3151 66.2632 93.5135 66.123 93.7106 65.9883C93.8234 65.9112 93.9992 65.9874 94.0499 66.1247C94.0825 66.2132 94.0846 66.313 94.1001 66.4079C94.1089 66.4155 94.1171 66.4234 94.1256 66.4304Z" fill="#BD8C65"/>
<path d="M107.149 55.5944C106.921 55.4283 106.719 55.2398 106.633 54.9584C106.567 54.7469 106.609 54.545 106.772 54.4542C106.876 54.396 107.033 54.352 107.133 54.3902C107.221 54.4241 107.316 54.5815 107.314 54.6818C107.306 54.9861 107.254 55.2888 107.218 55.5923C107.194 55.5929 107.172 55.594 107.148 55.5946L107.149 55.5944Z" fill="#BD8C65"/>
<path d="M105.365 64.4005C105.877 64.7637 106.493 64.9802 106.723 65.6185C106.711 65.632 106.7 65.6451 106.688 65.6586C106.287 65.3626 105.883 65.0707 105.489 64.7673C105.391 64.6919 105.296 64.587 105.365 64.4011L105.365 64.4005Z" fill="#BD8C65"/>
</g>
<path d="M111.625 87.052C111.95 86.588 112.006 86.0445 112.16 85.5351C112.536 84.2923 112.668 83.0018 112.891 81.7299C112.948 81.4102 113.035 81.1174 113.216 80.8412C113.327 80.6713 113.381 80.4595 113.434 80.2589C113.48 80.0832 113.337 79.9419 113.158 79.9338C112.993 79.9259 112.857 79.9744 112.726 80.0721C112.634 80.14 112.526 80.2044 112.416 80.2293C111.982 80.3273 111.708 80.6122 111.485 80.9729C111.401 81.1081 111.292 81.2286 111.182 81.3439C111.157 81.37 111.081 81.3483 111.028 81.3486C111.034 81.3029 111.028 81.2517 111.048 81.2127C111.123 81.0608 111.206 80.9132 111.287 80.7644C111.263 80.7424 111.239 80.7203 111.215 80.6983C111.061 80.7948 110.9 80.883 110.754 80.9903C110.618 81.0908 110.488 81.2034 110.373 81.326C110.209 81.5002 109.997 81.523 109.784 81.5433C109.624 81.558 109.496 81.3759 109.531 81.2246C109.586 80.9888 109.751 80.8646 109.953 80.7732C110.155 80.6818 110.36 80.598 110.562 80.5072C110.859 80.3731 110.919 80.2223 110.798 79.9263C110.763 79.8415 110.742 79.7498 110.694 79.6732C110.603 79.5239 110.513 79.3602 110.289 79.4185C110.134 79.4584 110.06 79.3436 109.994 79.2442C109.886 79.0791 109.747 79.0242 109.552 79.0394C109.273 79.061 108.991 79.0529 108.712 79.0648C108.629 79.068 108.543 79.0849 108.465 79.1127C107.907 79.3121 107.337 79.4872 106.799 79.7308C106.531 79.8516 106.306 80.0862 106.09 80.2978C105.862 80.5207 105.674 80.7848 105.357 80.8954C105.302 80.9146 105.248 80.9397 105.191 80.9506C104.686 81.0482 104.183 81.162 103.673 81.2252C103.539 81.2417 103.346 81.13 103.252 81.0165C103.159 80.9049 103.08 80.7331 103.226 80.5568C103.365 80.3893 103.5 80.2342 103.703 80.1369C103.955 80.0159 104.197 79.8732 104.444 79.7413C104.906 79.4935 105.408 79.3928 105.923 79.3469C106.425 79.3021 106.858 79.0571 107.282 78.8268C107.784 78.555 108.249 78.2161 108.72 77.8919C108.807 77.832 108.862 77.7126 108.908 77.6097C109.001 77.398 109.025 77.1514 109.24 77.0056C109.263 76.9906 109.277 76.9518 109.28 76.9224C109.328 76.4234 109.228 75.9602 108.899 75.5724C108.818 75.478 108.684 75.4021 108.562 75.3753C107.842 75.2155 107.117 75.0819 106.399 74.9155C106.263 74.884 106.121 74.7668 106.036 74.6491C105.912 74.4754 106.14 74.2238 106.398 74.2314C106.667 74.24 106.928 74.278 107.164 74.4242C107.576 74.6801 108.044 74.7039 108.504 74.7001C109.064 74.6951 109.624 74.6238 110.184 74.6149C110.816 74.6044 111.189 74.243 111.498 73.7502C111.769 73.3152 111.787 72.8236 111.845 72.3399C111.864 72.1845 111.853 72.0262 111.87 71.8709C111.942 71.2053 111.57 70.7797 111.082 70.4261C110.838 70.2496 110.561 70.1365 110.254 70.0992C110.061 70.0759 109.874 70.0128 109.681 69.9765C109.274 69.8993 108.922 69.6956 108.667 69.3913C108.395 69.0661 108.2 68.6878 108.223 68.2208C108.239 67.8854 108.411 67.6869 108.651 67.5064C108.936 67.2928 109.18 67.468 109.424 67.5898C109.774 67.7643 109.948 68.0991 110.154 68.4088C110.496 68.9237 110.795 69.4757 111.28 69.8782C111.554 70.1064 111.847 70.3146 112.144 70.5122C112.223 70.565 112.409 70.5925 112.443 70.5498C112.525 70.4484 112.602 70.2873 112.581 70.1683C112.525 69.8501 112.43 69.5356 112.325 69.2286C112.169 68.7724 111.966 68.3306 111.835 67.8683C111.781 67.6794 111.846 67.4491 111.889 67.2436C111.91 67.1428 112.133 67.1157 112.196 67.2094C112.295 67.3552 112.408 67.5163 112.432 67.6827C112.474 67.9701 112.546 68.2398 112.659 68.5061C112.784 68.7995 112.873 69.1083 112.988 69.4052C113.044 69.5491 113.128 69.6818 113.196 69.8208C113.261 69.9508 113.382 70.001 113.48 69.9161C113.562 69.8439 113.64 69.6906 113.621 69.5937C113.577 69.3869 113.463 69.196 113.388 68.9948C113.351 68.8938 113.317 68.7862 113.312 68.6797C113.302 68.4843 113.495 68.373 113.684 68.4425C113.969 68.5475 114.158 68.7531 114.316 68.9998C114.499 69.2849 114.686 69.5665 114.876 69.8468C114.916 69.9048 114.971 69.9545 115.028 69.9963C115.245 70.156 115.246 70.1547 115.272 70.47C115.429 70.4489 115.586 70.4349 115.74 70.4054C115.905 70.373 115.989 70.4354 115.973 70.6024C115.966 70.6865 115.95 70.7702 115.937 70.8545C115.879 71.2257 116.159 71.6125 116.534 71.595C116.73 71.5857 116.936 71.4545 117.108 71.336C117.384 71.146 117.551 70.8716 117.618 70.5352C117.654 70.3572 117.741 70.1893 117.779 70.0119C117.861 69.6236 118.062 69.3033 118.31 69.0036C118.484 68.7927 118.787 68.6806 119.033 68.7594C119.101 68.7814 119.174 68.8292 119.218 68.8858C119.444 69.1747 119.449 69.5608 119.244 69.8527C118.967 70.2469 118.701 70.6499 118.412 71.0361C118.094 71.4609 118.227 71.8983 118.456 72.2652C118.584 72.4707 118.664 72.4643 118.866 72.3228C119.122 72.1425 119.119 72.1523 119.329 72.3878C119.461 72.5359 119.624 72.6589 119.786 72.7755C119.84 72.8142 119.935 72.8125 120.008 72.8044C120.696 72.7252 121.373 72.608 122.01 72.3106C122.157 72.2416 122.338 72.2211 122.503 72.2257C122.59 72.2282 122.698 72.3146 122.755 72.3929C122.826 72.4915 122.801 72.6119 122.683 72.6754C122.399 72.8292 122.12 72.9979 121.822 73.1183C121.486 73.2542 121.128 73.3394 120.783 73.4561C120.596 73.5192 120.342 73.9296 120.365 74.1272C120.395 74.3728 120.444 74.6158 120.469 74.8615C120.475 74.9192 120.435 75.0135 120.387 75.0397C120.245 75.1182 120.09 75.1718 119.94 75.2343C119.793 75.2955 119.758 75.4182 119.882 75.5093C120.214 75.7526 120.519 76.0398 120.969 76.0805C121.778 76.153 122.548 76.4185 123.334 76.6023C123.714 76.6913 124.129 76.711 124.517 76.6658C125.078 76.6003 125.62 76.644 126.169 76.7291C126.321 76.753 126.506 76.7518 126.639 76.6866C127.11 76.4522 127.539 76.543 127.949 76.8125C128.21 76.9846 128.486 77.0482 128.797 77.0406C129.109 77.0328 129.422 77.0648 129.734 77.0883C130.073 77.1142 130.327 77.4543 130.24 77.7548C130.192 77.9215 129.951 78.0935 129.756 78.0748C129.219 78.0219 128.68 77.9735 128.147 77.8918C127.898 77.854 127.661 77.8425 127.443 77.9585C127.074 78.1566 126.722 78.029 126.393 77.8909C126.105 77.7691 125.825 77.6926 125.513 77.6808C125.18 77.6676 124.857 77.6028 124.572 77.4003C124.253 77.1741 123.9 77.053 123.499 77.0349C123.044 77.0139 122.587 76.9623 122.139 76.8852C121.493 76.7738 120.865 76.9298 120.232 76.98C119.882 77.0077 119.568 77.4285 119.572 77.7952C119.574 77.9967 119.678 78.1255 119.859 78.2201C120.505 78.5584 121.147 78.9053 121.785 79.2576C121.85 79.2933 121.882 79.3892 121.93 79.4573C121.852 79.4799 121.773 79.5207 121.696 79.5198C121.631 79.5192 121.56 79.4785 121.503 79.4399C121.194 79.2284 120.859 79.112 120.479 79.1159C120.166 79.1191 119.853 79.0989 119.54 79.0949C119.459 79.0942 119.378 79.1155 119.255 79.133C119.313 79.2262 119.343 79.2948 119.39 79.3487C119.531 79.5114 119.686 79.6621 119.822 79.8289C119.965 80.0046 120.103 80.1863 120.223 80.3784C120.404 80.67 120.662 80.8688 120.949 81.044C121.193 81.1932 121.429 81.3549 121.667 81.5141C121.71 81.5427 121.749 81.5785 121.783 81.6178C121.894 81.7483 121.925 81.9841 121.837 82.0928C121.725 82.2335 121.567 82.189 121.439 82.1409C121.143 82.0291 120.878 81.8552 120.69 81.5964C120.15 80.8574 119.384 80.4336 118.582 80.0585C118.424 79.9847 118.336 80.1071 118.267 80.2107C118.212 80.2943 118.175 80.4034 118.168 80.5045C118.138 80.9314 118.042 81.3565 118.154 81.7881C118.185 81.9094 118.127 82.025 117.983 82.0763C117.697 82.1788 117.646 82.3 117.734 82.5841C117.929 83.2115 118.203 83.7988 118.596 84.329C118.655 84.4085 118.701 84.5163 118.703 84.6125C118.705 84.6859 118.645 84.7912 118.582 84.8257C118.534 84.8518 118.406 84.8123 118.368 84.7614C118.143 84.4594 117.907 84.1598 117.726 83.8318C117.45 83.3317 117.282 82.79 117.241 82.2137C117.231 82.0859 117.197 81.9549 117.151 81.8347C117.092 81.6798 116.974 81.584 116.797 81.5817C116.426 81.5775 116.138 81.8902 116.206 82.2601C116.25 82.5 116.332 82.7374 116.428 82.9621C116.48 83.086 116.495 83.1974 116.421 83.2907C116.313 83.4261 116.184 83.5485 116.049 83.658C116.006 83.6932 115.896 83.7011 115.855 83.6699C115.812 83.6387 115.787 83.5374 115.803 83.479C115.95 82.9268 115.71 82.4888 115.406 82.0663C115.159 81.7221 114.915 81.3759 114.664 81.0338C114.447 80.7381 114.261 80.7028 114.012 80.9649C113.852 81.1324 113.746 81.3581 113.642 81.5708C113.566 81.7266 113.663 81.8407 113.802 81.9209C113.892 81.9728 113.979 82.0305 114.058 82.0964C114.086 82.1196 114.108 82.1969 114.094 82.2123C114.065 82.2431 114.006 82.2684 113.963 82.2625C113.477 82.1931 113.421 82.2091 113.411 82.6991C113.393 83.4593 113.073 84.1105 112.761 84.7718C112.444 85.443 112.211 86.1403 112.161 86.8872C112.126 87.4189 111.965 87.9149 111.724 88.379C111.359 89.0822 111.126 89.8211 111.006 90.602C110.848 91.6306 110.581 92.63 110.191 93.5962C109.905 94.3048 109.757 95.0436 109.723 95.8076C109.718 95.932 109.658 96.0548 109.619 96.177C109.559 96.3603 109.424 96.4113 109.251 96.3639C109.084 96.3177 108.965 96.1055 108.998 95.9367C109.001 95.9242 109.007 95.9117 109.011 95.8999C109.545 94.3647 109.816 92.7662 110.115 91.1772C110.263 90.3877 110.534 89.6691 110.899 88.9625C111.143 88.4913 111.294 87.9721 111.486 87.4739C111.528 87.364 111.503 87.2873 111.372 87.2589C111.313 87.2458 111.261 87.2018 111.206 87.1717C111.28 87.1167 111.346 87.0457 111.428 87.0133C111.479 86.9935 111.553 87.0335 111.624 87.0482L111.625 87.052Z" fill="#D9A273"/>
<path d="M116.385 66.6545C116.032 66.2336 116.053 65.6639 116.434 65.3386C116.794 65.0316 117.351 65.1073 117.686 65.5086C118.031 65.922 118.001 66.5089 117.619 66.8264C117.258 67.1263 116.716 67.0507 116.384 66.6546L116.385 66.6545Z" fill="#D9A273"/>
<path d="M122.952 79.2037C123.025 79.2944 123.022 79.4018 122.902 79.4055C122.709 79.4115 122.491 79.4124 122.325 79.3317C122.024 79.1849 121.756 78.9708 121.468 78.795C121.325 78.7077 121.164 78.6503 121.019 78.5644C120.968 78.5341 120.945 78.4594 120.909 78.4052C120.969 78.3754 121.031 78.3195 121.09 78.3222C121.191 78.3269 121.3 78.3508 121.391 78.3961C121.886 78.6423 122.376 78.8976 122.868 79.1497C122.896 79.1644 122.922 79.1851 122.952 79.2043L122.952 79.2037Z" fill="#D9A273"/>
<path d="M101.103 90.6045C100.923 90.4013 100.93 90.0278 101.118 89.8568C101.257 89.7302 101.433 89.7417 101.566 89.8858C101.755 90.0901 101.747 90.474 101.55 90.6486C101.413 90.7692 101.233 90.752 101.103 90.6052L101.103 90.6045Z" fill="#D9A273"/>
<path d="M131.265 79.4946C130.968 79.6586 129.94 79.4192 129.739 79.1386C130.007 78.9521 131.102 79.2076 131.265 79.4946Z" fill="#D9A273"/>
<path d="M124.281 78.6978C124.187 78.5915 124.218 78.5099 124.334 78.4497C124.539 78.3426 125.003 78.4063 125.168 78.5624C125.26 78.65 125.282 78.7358 125.161 78.8169C124.964 78.9492 124.439 78.8777 124.281 78.6978Z" fill="#D9A273"/>
<path d="M125.526 72.0677C125.408 71.9244 125.425 71.7288 125.563 71.6152C125.704 71.499 125.914 71.523 126.032 71.6696C126.147 71.8124 126.13 72.0093 125.993 72.1241C125.852 72.243 125.65 72.2187 125.526 72.0677Z" fill="#D9A273"/>
<path d="M118.059 63.6368C118.142 63.6056 118.252 63.545 118.369 63.5251C118.529 63.4974 118.625 63.6212 118.531 63.7464C118.428 63.8842 118.278 63.9955 118.129 64.0873C118.075 64.1208 117.929 64.0935 117.892 64.0439C117.856 63.9962 117.896 63.8799 117.923 63.8004C117.94 63.7491 117.995 63.711 118.059 63.6368Z" fill="#D9A273"/>
<path d="M117.016 70.6194C117.048 70.6151 117.102 70.5913 117.14 70.6071C117.167 70.6179 117.186 70.6863 117.181 70.7248C117.143 71.0043 117.018 71.2443 116.823 71.4461C116.797 71.4736 116.733 71.495 116.705 71.4816C116.677 71.4682 116.654 71.4058 116.657 71.3673C116.684 71.0842 116.819 70.8498 117.016 70.6187L117.016 70.6194Z" fill="#D9A273"/>
<path d="M123.444 66.5727C123.484 66.5838 123.573 66.583 123.62 66.6271C123.736 66.7367 123.71 67.0698 123.575 67.1572C123.526 67.1893 123.405 67.1781 123.362 67.1385C123.239 67.0259 123.273 66.7113 123.444 66.5727Z" fill="#D9A273"/>
<path d="M116.037 85.0974C115.932 84.9751 115.908 84.6637 115.993 84.5232C116.065 84.4045 116.181 84.4074 116.212 84.5183C116.261 84.6898 116.275 84.8812 116.254 85.0588C116.24 85.1815 116.118 85.1911 116.038 85.0974L116.037 85.0974Z" fill="#D9A273"/>
<path d="M126.918 78.7884C126.939 78.7487 126.954 78.6663 127.003 78.6349C127.122 78.559 127.416 78.6338 127.504 78.7468C127.567 78.8288 127.563 78.9017 127.459 78.9492C127.334 79.0064 127.042 78.9374 126.918 78.7884L126.918 78.7884Z" fill="#D9A273"/>
<path d="M107.088 75.3799C107.229 75.2611 107.497 75.2833 107.568 75.4014C107.593 75.4423 107.576 75.5417 107.541 75.5772C107.45 75.6704 107.194 75.64 107.117 75.5305C107.085 75.4866 107.094 75.4142 107.088 75.3792L107.088 75.3799Z" fill="#D9A273"/>
<path d="M120.156 98.1655C120.133 98.1626 120.115 98.1502 120.107 98.1224C120.082 98.0367 120.212 97.9135 120.238 97.8373C120.279 97.7153 120.314 97.5908 120.356 97.469C120.423 97.2748 120.475 97.0426 120.585 96.867C120.811 96.509 121.099 96.1908 121.43 95.9266C122.091 95.3983 122.378 95.2718 121.997 94.4277C121.55 93.438 121.927 92.4779 122.16 91.5506C122.332 90.8626 122.34 90.2732 122.023 89.6564C121.845 89.3106 121.648 88.9664 121.537 88.598C121.381 88.0804 121.547 87.8952 122.088 87.8647C122.401 87.847 122.775 87.865 123.057 87.7042C123.296 87.5682 123.538 87.0167 123.799 87.0453C123.99 87.0665 124.151 87.1738 124.353 87.1748C124.583 87.1758 124.816 87.0455 125.025 86.9628C125.576 86.7474 126.136 86.5328 126.625 86.1962C127.374 85.6821 126.886 84.5549 127.337 83.8763C127.489 83.6494 127.698 83.473 127.873 83.2661C127.947 83.1788 128.171 82.6797 128.311 82.8808C128.541 83.212 128.785 83.5351 129.016 83.8667C129.236 84.1822 129.241 84.5482 129.116 84.901C129.038 85.1238 128.825 85.3168 128.797 85.5572C128.76 85.8831 129.29 85.9301 129.516 86.0347C129.815 86.1729 130.114 86.311 130.413 86.4485C130.994 86.7152 131.576 86.9785 132.164 87.2302C132.676 87.4497 133.115 87.7662 133.392 88.262C133.521 88.4925 133.621 88.7088 133.828 88.8788C134.03 89.0447 134.224 89.2143 134.401 89.4129C134.767 89.8244 135.056 90.3005 135.233 90.8227C135.285 90.9745 135.444 91.0651 135.514 91.2059C135.62 91.417 135.447 91.5072 135.313 91.664C134.971 92.0645 135.2 92.6764 135.178 93.1486C135.176 93.1851 135.175 93.2226 135.188 93.2561C135.253 93.4135 135.539 93.3903 135.647 93.5147C135.76 93.6437 135.457 94.2671 135.397 94.4143C135.327 94.5863 135.163 94.8303 135.292 95.0129C135.306 95.033 135.329 95.0447 135.35 95.0574C135.462 95.1202 135.564 95.2091 135.615 95.3269C135.671 95.4578 135.657 95.6109 135.607 95.7444C135.556 95.8774 135.07 96.3873 135.133 96.5159C135.145 96.5415 135.169 96.5596 135.191 96.5772C135.329 96.6822 135.67 96.8267 135.542 97.0444C135.472 97.1631 135.219 97.2837 135.108 97.362C134.968 97.4594 134.816 97.5445 134.683 97.6512C134.467 97.8238 134.091 98.0456 133.962 98.3016C133.915 98.395 133.931 98.5086 133.968 98.6064C134.045 98.8152 134.155 99.0089 134.263 99.2037C134.394 99.4408 134.549 99.6663 134.673 99.9071C135.025 100.583 135.412 101.251 135.97 101.78C136.264 102.052 136.676 102.054 136.823 102.502C136.903 102.747 136.846 103.017 136.748 103.256C136.589 103.646 136.257 104.027 135.835 104.011C135.466 103.998 135.172 103.674 135.048 103.327C134.934 103.008 135.018 102.478 134.792 102.253C134.657 102.119 134.305 102.323 134.075 101.963C133.646 101.289 133.218 100.616 132.79 99.9428C132.742 99.8675 132.688 99.7872 132.603 99.7578C132.533 99.733 132.456 99.748 132.384 99.7636C131.953 99.8564 131.522 99.9485 131.091 100.041C131.025 100.055 130.957 100.071 130.91 100.118C130.861 100.167 130.846 100.239 130.833 100.307C130.783 100.569 130.733 100.831 130.682 101.094C130.44 100.98 130.064 100.975 129.843 101.147C129.555 101.371 129.753 101.8 129.568 101.985C129.485 102.068 129.333 102.028 129.261 101.936C129.189 101.844 129.174 101.721 129.163 101.605C129.118 101.17 129.074 100.735 129.029 100.301C129.022 100.22 129.011 100.135 128.963 100.07C128.911 100 128.823 99.9671 128.74 99.9401C128.086 99.7251 127.385 99.648 126.763 99.353C125.574 98.7895 124.751 97.4933 123.408 97.2242C122.321 97.0066 121.224 97.6665 120.289 98.1298C120.258 98.1453 120.199 98.1734 120.156 98.1682L120.156 98.1655Z" fill="#B5815B"/>
<path d="M131.629 110.128C131.612 110.121 131.597 110.109 131.59 110.092C131.531 109.97 131.367 109.741 131.391 109.533C131.431 109.177 131.707 108.946 132.101 109.058C132.46 109.159 132.657 109.436 132.552 109.809C132.45 110.173 132.18 110.317 131.629 110.128L131.629 110.128Z" fill="#B5815B"/>
<path d="M133.269 108.237C133.697 109.09 133.916 110.056 133.91 111.069C133.903 112.082 133.672 113.116 133.231 114.102C132.871 114.97 132.295 115.762 131.564 116.395C131.193 116.699 130.774 116.943 130.426 117.276C128.743 118.9 129.586 121.633 128.202 123.52C127.885 123.949 127.42 124.341 126.844 124.161C126.62 124.08 126.437 123.926 126.323 123.722C126.209 123.516 126.168 123.27 126.207 123.017C126.345 121.855 127.359 121.087 127.956 120.107C128.605 119.074 128.617 118.448 128.222 117.451C127.284 116.382 124.796 122.931 121.675 126.158C121.316 126.533 120.054 128.834 119.617 128.702C118.227 128.274 120.145 125.633 121.696 124.129C122.81 123.109 123.697 121.873 124.283 120.525C124.345 120.373 124.349 120.214 124.292 120.08C124.235 119.945 124.123 119.848 123.98 119.809C123.837 119.77 123.673 119.792 123.528 119.871C123.382 119.95 123.264 120.079 123.202 120.23C123 120.629 122.85 121.024 122.692 121.406C122.246 122.425 121.141 123.573 120.235 123.138C120.814 121.637 122.092 120.436 123.139 119.148C123.787 118.394 124.287 117.536 124.605 116.63C124.647 116.464 124.638 116.296 124.579 116.151C124.52 116.006 124.414 115.89 124.275 115.818C124.136 115.747 123.971 115.725 123.803 115.753C123.635 115.783 123.471 115.861 123.334 115.979C122.4 116.869 121.553 117.846 120.812 118.891C120.168 118.752 120.102 117.83 120.488 117.209C120.875 116.588 121.532 116.175 122.112 115.701C122.692 115.227 123.243 114.592 123.219 113.921C123.168 113.561 123.052 113.224 122.874 112.924C120.126 106.793 130.35 102.428 133.268 108.236L133.269 108.237Z" fill="#D9A273"/>
<path opacity="0.7" d="M133.269 108.237C133.697 109.09 133.916 110.056 133.91 111.069C133.903 112.082 133.672 113.116 133.231 114.102C132.871 114.97 132.295 115.762 131.564 116.395C131.193 116.699 130.774 116.943 130.426 117.276C128.743 118.9 129.586 121.633 128.202 123.52C127.885 123.949 127.42 124.341 126.844 124.161C126.62 124.08 126.437 123.926 126.323 123.722C126.209 123.516 126.168 123.27 126.207 123.017C126.345 121.855 127.359 121.087 127.956 120.107C128.605 119.074 128.617 118.448 128.222 117.451C127.284 116.382 124.796 122.931 121.675 126.158C121.316 126.533 120.054 128.834 119.617 128.702C118.227 128.274 120.145 125.633 121.696 124.129C122.81 123.109 123.697 121.873 124.283 120.525C124.345 120.373 124.349 120.214 124.292 120.08C124.235 119.945 124.123 119.848 123.98 119.809C123.837 119.77 123.673 119.792 123.528 119.871C123.382 119.95 123.264 120.079 123.202 120.23C123 120.629 122.85 121.024 122.692 121.406C122.246 122.425 121.141 123.573 120.235 123.138C120.814 121.637 122.092 120.436 123.139 119.148C123.787 118.394 124.287 117.536 124.605 116.63C124.647 116.464 124.638 116.296 124.579 116.151C124.52 116.006 124.414 115.89 124.275 115.818C124.136 115.747 123.971 115.725 123.803 115.753C123.635 115.783 123.471 115.861 123.334 115.979C122.4 116.869 121.553 117.846 120.812 118.891C120.168 118.752 120.102 117.83 120.488 117.209C120.875 116.588 121.532 116.175 122.112 115.701C122.692 115.227 123.243 114.592 123.219 113.921C123.168 113.561 123.052 113.224 122.874 112.924C120.126 106.793 130.35 102.428 133.268 108.236L133.269 108.237Z" fill="black"/>
<path d="M18.2409 59.3076L35.4012 46.8632C36.1031 46.3542 37.0859 46.5103 37.5943 47.2125L95.0199 126.529L84.6787 134.029C79.5107 137.776 72.2784 136.625 68.5379 131.458L17.8895 61.5021C17.3814 60.8004 17.5385 59.817 18.2409 59.3076Z" fill="#D9A273"/>
<g opacity="0.8">
<path d="M18.2409 59.3076L35.4012 46.8632C36.1031 46.3542 37.0859 46.5103 37.5943 47.2125L95.0199 126.529L84.6787 134.029C79.5107 137.776 72.2784 136.625 68.5379 131.458L17.8895 61.5021C17.3814 60.8004 17.5385 59.817 18.2409 59.3076Z" fill="white"/>
</g>
<path d="M36.0214 49.5997L20.6479 60.7483L31.775 76.1171L47.1485 64.9685L36.0214 49.5997Z" fill="#93AEBF"/>
<path d="M49.3812 68.0523L34.0078 79.2009L45.1349 94.5698L60.5083 83.4212L49.3812 68.0523Z" fill="#748996"/>
<path d="M62.7413 86.5055L47.3679 97.6541L58.495 113.023L73.8684 101.874L62.7413 86.5055Z" fill="#56656D"/>
<path d="M76.1005 104.958L60.7271 116.107L71.8541 131.476L87.2276 120.327L76.1005 104.958Z" fill="#374044"/>
<path d="M33.9061 44.7914L53.2738 36.1857C54.0659 35.8337 54.9946 36.1908 55.3459 36.9836L95.0208 126.53L83.3494 131.716C77.5167 134.307 70.6833 131.676 68.099 125.844L33.1064 46.8654C32.7554 46.0732 33.1133 45.1437 33.9061 44.7914Z" fill="#D9A273"/>
<path opacity="0.8" d="M33.9061 44.7914L53.2738 36.1857C54.0659 35.8337 54.9946 36.1908 55.3459 36.9836L95.0208 126.53L83.3494 131.716C77.5167 134.307 70.6833 131.676 68.099 125.844L33.1064 46.8654C32.7554 46.0732 33.1133 45.1437 33.9061 44.7914Z" fill="white"/>
<path d="M53.3108 38.9913L35.9598 46.7009L43.6474 64.0518L60.9984 56.3422L53.3108 38.9913Z" fill="#D9A273"/>
<path d="M62.5408 59.8243L45.1898 67.5339L52.8774 84.8848L70.2284 77.1752L62.5408 59.8243Z" fill="#E1AC77"/>
<path d="M71.7712 80.6561L54.4203 88.3657L62.1079 105.717L79.4588 98.007L71.7712 80.6561Z" fill="#EAB57C"/>
<path d="M81.0015 101.489L63.6505 109.199L71.3381 126.55L88.6891 118.84L81.0015 101.489Z" fill="#F2BF80"/>
<path d="M52.2412 33.8473L72.9697 29.4564C73.8175 29.2768 74.6515 29.8194 74.8302 30.6681L95.0204 126.53L82.5289 129.176C76.2864 130.498 70.1506 126.503 68.8355 120.259L51.0281 35.71C50.8495 34.862 51.3927 34.027 52.2412 33.8473Z" fill="#D9A273"/>
<path opacity="0.8" d="M52.2412 33.8473L72.9697 29.4564C73.8175 29.2768 74.6515 29.8194 74.8302 30.6681L95.0204 126.53L82.5289 129.176C76.2864 130.498 70.1506 126.503 68.8355 120.259L51.0281 35.71C50.8495 34.862 51.3927 34.027 52.2412 33.8473Z" fill="white"/>
<path d="M89.0081 124.33C89.7287 124.8 90.6937 124.595 91.1635 123.874C91.6333 123.152 91.43 122.187 90.7094 121.718C89.9888 121.249 89.0238 121.453 88.554 122.174C88.0842 122.896 88.2875 123.861 89.0081 124.33Z" stroke="#9E6C46" stroke-width="3" stroke-miterlimit="10"/>
<path d="M72.4224 32.2089L53.8523 36.1426L57.7644 54.7172L76.3346 50.7836L72.4224 32.2089Z" fill="#3A2B1F"/>
<path d="M77.1198 54.5107L58.5497 58.4443L62.4618 77.019L81.032 73.0853L77.1198 54.5107Z" fill="#664B36"/>
<path d="M81.8169 76.8127L63.2468 80.7463L67.159 99.321L85.7291 95.3873L81.8169 76.8127Z" fill="#916C4E"/>
<path d="M86.5141 99.1147L67.944 103.048L71.8561 121.623L90.4262 117.689L86.5141 99.1147Z" fill="#BD8C65"/>
<path d="M125.049 43.8726L59.1183 26.1402C58.4714 25.9662 57.8054 26.35 57.6308 26.9975L57.5367 27.3464C57.3621 27.9938 57.745 28.6597 58.3919 28.8337L124.323 46.566C124.97 46.74 125.636 46.3562 125.811 45.7088L125.905 45.3599C126.079 44.7124 125.696 44.0466 125.049 43.8726Z" fill="white"/>
<path d="M58.3773 28.2897C58.0245 28.1949 57.8397 27.7387 57.9655 27.273C58.0914 26.8072 58.4799 26.5056 58.8328 26.6004L125.068 44.4098C125.421 44.5046 125.606 44.9609 125.48 45.4266C125.354 45.8923 124.966 46.1939 124.613 46.0991L58.3773 28.2897Z" fill="url(#paint1_linear_374_18642)"/>
<path d="M63.6344 31.8342C65.0599 32.7625 66.969 32.3581 67.8984 30.9309C68.8279 29.5037 68.4257 27.5941 67.0001 26.6658C65.5746 25.7374 63.6655 26.1418 62.7361 27.569C61.8066 28.9962 62.2088 30.9058 63.6344 31.8342Z" fill="url(#paint2_linear_374_18642)"/>
<path d="M64.648 31.7267C66.0139 32.0941 67.4201 31.2837 67.7887 29.9168C68.1574 28.5498 67.3489 27.1439 65.983 26.7765C64.6171 26.4091 63.2109 27.2195 62.8423 28.5864C62.4736 29.9534 63.2821 31.3593 64.648 31.7267Z" fill="url(#paint3_linear_374_18642)"/>
<path d="M80.0606 45.5527C81.4862 46.481 83.3953 46.0766 84.3247 44.6494C85.2541 43.2222 84.852 41.3127 83.4264 40.3843C82.0009 39.4559 80.0918 39.8603 79.1623 41.2875C78.2329 42.7148 78.6351 44.6243 80.0606 45.5527Z" fill="url(#paint4_linear_374_18642)"/>
<path d="M81.0737 45.4459C82.4396 45.8133 83.8457 45.003 84.2144 43.636C84.583 42.2691 83.7746 40.8631 82.4086 40.4957C81.0427 40.1284 79.6366 40.9387 79.2679 42.3057C78.8993 43.6726 79.7077 45.0786 81.0737 45.4459Z" fill="url(#paint5_linear_374_18642)"/>
<defs>
<filter id="filter0_f_374_18642" x="59" y="143" width="74" height="15" filterUnits="userSpaceOnUse" color-interpolation-filters="sRGB">
<feFlood flood-opacity="0" result="BackgroundImageFix"/>
<feBlend mode="normal" in="SourceGraphic" in2="BackgroundImageFix" result="shape"/>
<feGaussianBlur stdDeviation="2" result="effect1_foregroundBlur_374_18642"/>
</filter>
<linearGradient id="paint0_linear_374_18642" x1="55.6252" y1="35.9476" x2="123.126" y2="54.1514" gradientUnits="userSpaceOnUse">
<stop stop-color="#572D0B"/>
<stop offset="1" stop-color="#FFD6B5"/>
</linearGradient>
<linearGradient id="paint1_linear_374_18642" x1="57.9641" y1="27.2744" x2="125.465" y2="45.4782" gradientUnits="userSpaceOnUse">
<stop stop-color="#FF0000"/>
<stop offset="0.14" stop-color="#FF8000"/>
<stop offset="0.29" stop-color="#EAFF00"/>
<stop offset="0.45" stop-color="#4DFF00"/>
<stop offset="0.6" stop-color="#00FFAE"/>
<stop offset="0.73" stop-color="#00B7FF"/>
<stop offset="0.88" stop-color="#1500FF"/>
<stop offset="1" stop-color="#FF00F2"/>
</linearGradient>
<linearGradient id="paint2_linear_374_18642" x1="62.3385" y1="30.0473" x2="68.2959" y2="28.4629" gradientUnits="userSpaceOnUse">
<stop stop-color="#D9D9D9"/>
<stop offset="1" stop-color="white"/>
</linearGradient>
<linearGradient id="paint3_linear_374_18642" x1="64.3249" y1="27.528" x2="67.4523" y2="32.9558" gradientUnits="userSpaceOnUse">
<stop stop-color="white"/>
<stop offset="1" stop-color="#D9D9D9"/>
</linearGradient>
<linearGradient id="paint4_linear_374_18642" x1="78.7631" y1="43.7672" x2="84.7208" y2="42.1822" gradientUnits="userSpaceOnUse">
<stop stop-color="#D9D9D9"/>
<stop offset="1" stop-color="white"/>
</linearGradient>
<linearGradient id="paint5_linear_374_18642" x1="80.7498" y1="41.2477" x2="83.8778" y2="46.6757" gradientUnits="userSpaceOnUse">
<stop stop-color="white"/>
<stop offset="1" stop-color="#D9D9D9"/>
</linearGradient>
</defs>
</svg>
